<svg width="1320" height="572" viewBox="0 0 1320 572" fill="none" xmlns="http://www.w3.org/2000/svg">
<g clip-path="url(#clip0_13_99)">
<rect width="1320" height="572" fill="#EFE6DD"/>
<g filter="url(#filter0_f_13_99)">
<circle cx="84.5" cy="18.5" r="258.5" fill="#BB4430"/>
</g>
<g filter="url(#filter1_f_13_99)">
<circle cx="982.5" cy="-9.5" r="258.5" fill="#231F20"/>
</g>
<g filter="url(#filter2_f_13_99)">
<circle cx="143.5" cy="460.5" r="258.5" fill="#F3DFA2"/>
</g>
<g filter="url(#filter3_f_13_99)">
<circle cx="1241.5" cy="497.5" r="258.5" fill="#7EBDC2"/>
</g>
<path d="M344.082 250.168V313H327.926V269.915L301.805 313H290.137L264.016 269.915V313H247.86V250.168H269.671L295.971 294.509L322.271 250.168H344.082ZM386.847 259.234C408.928 259.234 421.495 266.325 421.674 286.341V313H406.236V306.448C396.901 311.025 386.578 313.898 374.102 313.898C359.291 313.898 350.046 309.14 350.046 297.202C350.046 283.469 365.126 279.16 381.911 279.16C390.976 279.16 399.324 280.597 406.236 282.93C406.236 272.877 393.31 272.069 386.129 272.069C379.218 272.069 370.78 272.698 359.919 275.929L354.444 264.709C365.215 261.208 375.807 259.234 386.847 259.234ZM406.236 296.574V292.445C400.85 290.74 393.579 289.214 383.796 289.214C372.306 289.214 365.395 291.188 365.395 296.574C365.395 302.139 370.511 302.588 378.5 302.588C386.847 302.588 398.337 299.985 406.236 296.574ZM474.656 259.234C488.748 259.234 501.943 264.26 502.122 283.738L501.943 313H486.504V289.573C486.504 278.353 482.734 272.518 470.078 272.518C459.756 272.518 448.625 277.814 443.868 283.379V313H428.519V260.131H443.868V269.377C451.408 263.452 461.82 259.234 474.656 259.234ZM544.278 259.234C566.359 259.234 578.925 266.325 579.105 286.341V313H563.666V306.448C554.331 311.025 544.009 313.898 531.532 313.898C516.722 313.898 507.476 309.14 507.476 297.202C507.476 283.469 522.556 279.16 539.341 279.16C548.407 279.16 556.755 280.597 563.666 282.93C563.666 272.877 550.741 272.069 543.56 272.069C536.648 272.069 528.211 272.698 517.35 275.929L511.875 264.709C522.646 261.208 533.238 259.234 544.278 259.234ZM563.666 296.574V292.445C558.281 290.74 551.01 289.214 541.226 289.214C529.737 289.214 522.825 291.188 522.825 296.574C522.825 302.139 527.942 302.588 535.93 302.588C544.278 302.588 555.767 299.985 563.666 296.574ZM642.332 260.131H657.77V304.563C657.77 326.105 643.319 335.44 623.303 335.44C607.954 335.44 595.297 332.568 590.181 331.221V318.834C596.375 320.001 608.223 322.604 619.892 322.604C635.779 322.604 641.703 316.501 642.332 302.947C636.946 308.871 628.06 312.372 615.583 312.372C597.452 312.372 584.526 304.473 584.526 285.803C584.526 267.133 597.452 259.234 615.583 259.234C628.15 259.234 637.036 262.734 642.332 268.659V260.131ZM621.148 299.536C635.6 299.536 642.332 295.497 642.332 285.803C642.332 276.109 635.6 272.069 621.148 272.069C606.697 272.069 599.875 276.109 599.875 285.803C599.875 295.497 606.697 299.536 621.148 299.536ZM699.755 301.421C710.347 301.421 716.809 299.446 720.669 294.061H735.928C732.428 307.525 719.323 313.898 699.755 313.898C679.649 313.898 664.031 305.999 664.031 286.611C664.031 267.133 679.2 259.234 700.653 259.234C720.759 259.234 736.826 266.145 736.826 290.201H679.739C681.444 298.638 689.522 301.421 699.755 301.421ZM700.563 270.903C690.061 270.903 682.701 272.967 680.277 280.417H720.4C717.797 272.967 710.257 270.903 700.563 270.903ZM834.414 259.234C846.262 259.234 857.033 264.26 857.213 283.379L857.033 313H841.685V289.573C841.685 278.353 839.8 272.518 828.849 272.518C820.77 272.518 812.872 276.378 808.204 280.597C808.294 281.494 808.294 282.392 808.294 283.379L808.114 313H792.765V289.573C792.765 278.353 790.88 272.518 779.93 272.518C771.043 272.518 762.426 277.096 758.028 281.853V313H742.679V260.131H758.028V268.748C763.773 264.171 772.39 259.234 785.495 259.234C793.483 259.234 801.023 261.568 805.062 268.928C811.884 263.812 821.309 259.234 834.414 259.234ZM898.384 301.421C908.976 301.421 915.438 299.446 919.298 294.061H934.557C931.057 307.525 917.952 313.898 898.384 313.898C878.278 313.898 862.66 305.999 862.66 286.611C862.66 267.133 877.829 259.234 899.282 259.234C919.388 259.234 935.455 266.145 935.455 290.201H878.368C880.073 298.638 888.151 301.421 898.384 301.421ZM899.192 270.903C888.69 270.903 881.33 272.967 878.906 280.417H919.029C916.426 272.967 908.886 270.903 899.192 270.903ZM987.445 259.234C1001.54 259.234 1014.73 264.26 1014.91 283.738L1014.73 313H999.293V289.573C999.293 278.353 995.523 272.518 982.867 272.518C972.545 272.518 961.415 277.814 956.657 283.379V313H941.308V260.131H956.657V269.377C964.197 263.452 974.609 259.234 987.445 259.234ZM1072.12 272.967H1047.08V288.226C1047.08 298.459 1049.05 301.062 1058.38 301.062C1063.23 301.062 1065.92 301.062 1072.12 300.164V312.551C1067 313.449 1061.17 313.898 1054.08 313.898C1040.43 313.898 1031.64 308.781 1031.64 297.112V272.967H1017.72V260.131H1031.64V249.181L1047.08 244.782V260.131H1072.12V272.967Z" fill="black"/>
</g>
<defs>
<filter id="filter0_f_13_99" x="-674" y="-740" width="1517" height="1517" filterUnits="userSpaceOnUse" color-interpolation-filters="sRGB">
<feFlood flood-opacity="0" result="BackgroundImageFix"/>
<feBlend mode="normal" in="SourceGraphic" in2="BackgroundImageFix" result="shape"/>
<feGaussianBlur stdDeviation="250" result="effect1_foregroundBlur_13_99"/>
</filter>
<filter id="filter1_f_13_99" x="224" y="-768" width="1517" height="1517" filterUnits="userSpaceOnUse" color-interpolation-filters="sRGB">
<feFlood flood-opacity="0" result="BackgroundImageFix"/>
<feBlend mode="normal" in="SourceGraphic" in2="BackgroundImageFix" result="shape"/>
<feGaussianBlur stdDeviation="250" result="effect1_foregroundBlur_13_99"/>
</filter>
<filter id="filter2_f_13_99" x="-615" y="-298" width="1517" height="1517" filterUnits="userSpaceOnUse" color-interpolation-filters="sRGB">
<feFlood flood-opacity="0" result="BackgroundImageFix"/>
<feBlend mode="normal" in="SourceGraphic" in2="BackgroundImageFix" result="shape"/>
<feGaussianBlur stdDeviation="250" result="effect1_foregroundBlur_13_99"/>
</filter>
<filter id="filter3_f_13_99" x="483" y="-261" width="1517" height="1517" filterUnits="userSpaceOnUse" color-interpolation-filters="sRGB">
<feFlood flood-opacity="0" result="BackgroundImageFix"/>
<feBlend mode="normal" in="SourceGraphic" in2="BackgroundImageFix" result="shape"/>
<feGaussianBlur stdDeviation="250" result="effect1_foregroundBlur_13_99"/>
</filter>
<clipPath id="clip0_13_99">
<rect width="1320" height="572" fill="white"/>
</clipPath>
</defs>
</svg>
