<svg width="1320" height="572" viewBox="0 0 1320 572" fill="none" xmlns="http://www.w3.org/2000/svg">
<g clip-path="url(#clip0_13_92)">
<rect width="1320" height="572" fill="#EFE6DD"/>
<g filter="url(#filter0_f_13_92)">
<circle cx="84.5" cy="18.5" r="258.5" fill="#BB4430"/>
</g>
<g filter="url(#filter1_f_13_92)">
<circle cx="982.5" cy="-9.5" r="258.5" fill="#231F20"/>
</g>
<g filter="url(#filter2_f_13_92)">
<circle cx="143.5" cy="460.5" r="258.5" fill="#F3DFA2"/>
</g>
<g filter="url(#filter3_f_13_92)">
<circle cx="1241.5" cy="497.5" r="258.5" fill="#7EBDC2"/>
</g>
<path d="M470.082 241.168V304H453.926V260.915L427.805 304H416.137L390.016 260.915V304H373.86V241.168H395.671L421.971 285.509L448.271 241.168H470.082ZM477.82 232.192H493.169V245.566H477.82V232.192ZM477.82 251.131H493.169V304H477.82V251.131ZM556.817 251.131H572.256V295.563C572.256 317.105 557.805 326.44 537.788 326.44C522.439 326.44 509.783 323.568 504.667 322.221V309.834C510.86 311.001 522.708 313.604 534.377 313.604C550.265 313.604 556.189 307.501 556.817 293.947C551.432 299.871 542.545 303.372 530.069 303.372C511.937 303.372 499.012 295.473 499.012 276.803C499.012 258.133 511.937 250.234 530.069 250.234C542.635 250.234 551.521 253.734 556.817 259.659V251.131ZM535.634 290.536C550.085 290.536 556.817 286.497 556.817 276.803C556.817 267.109 550.085 263.069 535.634 263.069C521.182 263.069 514.361 267.109 514.361 276.803C514.361 286.497 521.182 290.536 535.634 290.536ZM622.396 250.234C628.679 250.234 633.077 251.131 636.668 252.029V264.865C631.641 263.608 627.602 263.069 623.114 263.069C614.497 263.069 604.624 265.044 595.288 272.315V304H579.94V251.131H595.288V260.107C603.187 253.016 612.522 250.234 622.396 250.234ZM674.31 250.234C696.391 250.234 708.958 257.325 709.137 277.341V304H693.698V297.448C684.363 302.025 674.041 304.898 661.564 304.898C646.754 304.898 637.509 300.14 637.509 288.202C637.509 274.469 652.588 270.16 669.373 270.16C678.439 270.16 686.787 271.597 693.698 273.93C693.698 263.877 680.773 263.069 673.592 263.069C666.681 263.069 658.243 263.698 647.382 266.929L641.907 255.709C652.678 252.208 663.27 250.234 674.31 250.234ZM693.698 287.574V283.445C688.313 281.74 681.042 280.214 671.258 280.214C659.769 280.214 652.858 282.188 652.858 287.574C652.858 293.139 657.974 293.588 665.963 293.588C674.31 293.588 685.8 290.985 693.698 287.574ZM765.885 263.967H740.842V279.226C740.842 289.459 742.817 292.062 752.152 292.062C756.999 292.062 759.692 292.062 765.885 291.164V303.551C760.769 304.449 754.934 304.898 747.843 304.898C734.2 304.898 725.403 299.781 725.403 288.112V263.967H711.491V251.131H725.403V240.181L740.842 235.782V251.131H765.885V263.967ZM772.17 232.192H787.519V245.566H772.17V232.192ZM772.17 251.131H787.519V304H772.17V251.131ZM829.984 304.898C808.082 304.898 793.361 296.999 793.361 277.611C793.361 258.133 808.082 250.234 829.984 250.234C851.795 250.234 866.606 258.133 866.606 277.611C866.606 296.999 851.795 304.898 829.984 304.898ZM829.984 292.062C844.166 292.062 851.167 288.561 851.167 277.611C851.167 266.57 844.166 263.069 829.984 263.069C815.712 263.069 808.71 266.57 808.71 277.611C808.71 288.561 815.712 292.062 829.984 292.062ZM918.585 250.234C932.677 250.234 945.872 255.26 946.052 274.738L945.872 304H930.433V280.573C930.433 269.353 926.663 263.518 914.007 263.518C903.685 263.518 892.555 268.814 887.797 274.379V304H872.448V251.131H887.797V260.377C895.337 254.452 905.749 250.234 918.585 250.234Z" fill="black"/>
</g>
<defs>
<filter id="filter0_f_13_92" x="-674" y="-740" width="1517" height="1517" filterUnits="userSpaceOnUse" color-interpolation-filters="sRGB">
<feFlood flood-opacity="0" result="BackgroundImageFix"/>
<feBlend mode="normal" in="SourceGraphic" in2="BackgroundImageFix" result="shape"/>
<feGaussianBlur stdDeviation="250" result="effect1_foregroundBlur_13_92"/>
</filter>
<filter id="filter1_f_13_92" x="224" y="-768" width="1517" height="1517" filterUnits="userSpaceOnUse" color-interpolation-filters="sRGB">
<feFlood flood-opacity="0" result="BackgroundImageFix"/>
<feBlend mode="normal" in="SourceGraphic" in2="BackgroundImageFix" result="shape"/>
<feGaussianBlur stdDeviation="250" result="effect1_foregroundBlur_13_92"/>
</filter>
<filter id="filter2_f_13_92" x="-615" y="-298" width="1517" height="1517" filterUnits="userSpaceOnUse" color-interpolation-filters="sRGB">
<feFlood flood-opacity="0" result="BackgroundImageFix"/>
<feBlend mode="normal" in="SourceGraphic" in2="BackgroundImageFix" result="shape"/>
<feGaussianBlur stdDeviation="250" result="effect1_foregroundBlur_13_92"/>
</filter>
<filter id="filter3_f_13_92" x="483" y="-261" width="1517" height="1517" filterUnits="userSpaceOnUse" color-interpolation-filters="sRGB">
<feFlood flood-opacity="0" result="BackgroundImageFix"/>
<feBlend mode="normal" in="SourceGraphic" in2="BackgroundImageFix" result="shape"/>
<feGaussianBlur stdDeviation="250" result="effect1_foregroundBlur_13_92"/>
</filter>
<clipPath id="clip0_13_92">
<rect width="1320" height="572" fill="white"/>
</clipPath>
</defs>
</svg>
