<svg width="166" height="40" viewBox="0 0 166 40" fill="none" xmlns="http://www.w3.org/2000/svg">
<mask id="mask0_356_424" style="mask-type:alpha" maskUnits="userSpaceOnUse" x="0" y="0" width="166" height="40">
<rect width="166" height="40" fill="#D9D9D9"/>
</mask>
<g mask="url(#mask0_356_424)">
<path d="M0.75207 6.60614C1.15404 7.043 2.48961 8.41598 3.69552 9.66414L5.91283 11.9483H10.7494C16.3381 11.9483 16.9475 12.0232 18.685 12.847C19.9558 13.4586 21.2914 14.6318 21.8749 15.6678C22.0694 16.0298 22.2639 16.2919 22.3028 16.2545C22.3287 16.2295 22.4973 15.8051 22.6658 15.3183C23.1845 13.858 23.9755 12.4351 25.1036 10.9747C25.6611 10.2383 25.6871 10.3007 24.6757 9.40203C23.392 8.24123 21.3692 7.11789 19.5409 6.53125C17.531 5.8822 16.74 5.83228 8.01344 5.83228H0L0.75207 6.60614ZM35.4899 6.54373C35.2825 6.56869 34.6601 6.70599 34.1155 6.84329C29.3696 7.9916 25.4277 11.5364 23.9495 15.9674C23.3531 17.7772 23.1845 19.0004 23.2753 20.9101C23.5476 27.4755 28.449 32.8176 35.2306 33.9909C36.0605 34.1282 37.9277 34.1656 44.4759 34.1656H52.6708V16.8161H45.6688C41.8177 16.8161 38.6668 16.8411 38.6668 16.8661C38.6668 16.891 40.3913 18.1392 42.492 19.637L46.3171 22.358V28.0496H41.6102C38.9131 28.0496 36.5921 27.9997 36.1772 27.9248C33.7394 27.4879 31.5999 25.9152 30.4848 23.7434C29.3048 21.4468 29.3178 19.2126 30.4977 16.8286C30.9256 15.9799 31.2368 15.5804 32.0278 14.8315C33.1559 13.7581 34.1284 13.2089 35.5548 12.8345C36.4624 12.5848 36.8644 12.5724 41.6491 12.5724H46.771L48.6641 10.6003C49.7144 9.52684 51.037 8.15386 51.6335 7.54226L52.6968 6.45636L44.2814 6.46884C39.6652 6.48132 35.7104 6.51877 35.4899 6.54373ZM95.3573 10.463C91.0005 10.9997 88.5757 13.159 87.7847 17.1781C87.5384 18.4013 87.5773 22.2581 87.8496 23.4189C88.5238 26.3521 90.1317 28.2743 92.5305 29.0481C95.5777 30.0217 100.557 29.8594 104.382 28.6612L105.186 28.3991V17.9395H96.628V21.684H99.9994V25.5533L99.6493 25.6407C99.0269 25.8029 96.3428 25.753 95.7982 25.5658C95.1239 25.3411 94.3459 24.6421 93.9698 23.9307C93.529 23.0944 93.3863 22.1208 93.3863 20.0114C93.3863 16.9534 93.8661 15.5804 95.1758 14.9064C95.5129 14.7442 96.0964 14.532 96.4724 14.4571C97.6783 14.2199 102.126 14.3323 103.669 14.6443L104.019 14.7192V10.9747L102.826 10.775C100.259 10.3506 97.2634 10.2258 95.3573 10.463ZM59.9581 19.9615L59.997 29.1106L64.0167 29.148C69.5016 29.1979 71.2781 29.0232 73.0156 28.2743C75.9591 27.0136 77.4373 24.2302 77.4373 19.9615C77.4243 15.2559 75.4923 12.3227 71.7319 11.3367C70.2148 10.9373 68.6199 10.8249 64.1075 10.8249H59.9322L59.9581 19.9615ZM69.4627 14.7067C70.2926 14.9314 71.0058 15.7177 71.3689 16.8161C71.6412 17.6524 71.6671 17.9894 71.6671 19.9989C71.6671 22.6326 71.4466 23.6061 70.6297 24.5298C69.9814 25.2537 69.3071 25.4285 67.1028 25.4285H65.3782V14.5694H67.1676C68.1401 14.5694 69.1775 14.6318 69.4627 14.7067ZM79.7713 19.9989V29.173H85.2173V10.8249H79.7713V19.9989ZM107.585 10.9747C107.546 11.0621 107.533 15.181 107.546 20.1238L107.585 29.1106H113.031V10.8873L110.334 10.8499C108.259 10.8249 107.624 10.8499 107.585 10.9747ZM121.848 10.9747C118.918 18.7757 115.17 28.8859 115.17 29.0107C115.17 29.148 115.546 29.173 117.09 29.148L118.996 29.1106L119.709 27.0136L120.422 24.9292L124.04 24.9542L127.67 24.9916L128.384 27.076L129.11 29.173H131.158C133.052 29.173 133.207 29.1605 133.142 28.9483C133.09 28.836 131.56 24.717 129.719 19.8117L126.374 10.8873L124.143 10.8499C122.419 10.8249 121.887 10.8499 121.848 10.9747ZM124.688 16.2669C125.012 17.2904 125.57 18.963 125.933 19.9989C126.283 21.0224 126.581 21.9086 126.581 21.9586C126.581 22.0085 125.44 22.0584 124.04 22.0584C121.822 22.0584 121.511 22.0335 121.576 21.8712C121.732 21.4718 123.573 15.8426 123.793 15.0937C123.923 14.6693 124.04 14.3323 124.066 14.3572C124.092 14.3822 124.377 15.231 124.688 16.2669ZM135.269 19.9865V29.1854L137.188 29.148L139.094 29.1106L139.133 25.6407L139.159 22.1832H141.558L143.892 25.6781L146.226 29.173H148.404C149.597 29.173 150.57 29.123 150.57 29.0606C150.57 28.9982 149.545 27.463 148.3 25.6407C147.056 23.8183 146.031 22.2706 146.031 22.1957C146.031 22.1208 146.109 22.0584 146.2 22.0584C146.498 22.0584 147.769 21.4219 148.3 20.9975C148.923 20.5232 149.558 19.4248 149.805 18.4387C150.038 17.4777 150.012 15.4431 149.74 14.4446C149.247 12.6223 148.236 11.6362 146.329 11.1245C145.707 10.9498 144.67 10.8998 140.43 10.8624L135.269 10.8V19.9865ZM144.462 13.8954C145.396 14.0826 145.94 15.0313 145.94 16.5041C145.953 17.7023 145.629 18.5011 144.981 18.9505C144.553 19.2376 144.449 19.25 141.856 19.2875L139.159 19.3249V13.8205H141.61C142.958 13.8205 144.229 13.858 144.462 13.8954ZM151.607 12.3227V13.8205H156.923V29.173H160.813V13.8205H166V10.8249H151.607V12.3227ZM0.0259334 24.9417V33.6788L8.55804 33.6289C16.6493 33.579 17.129 33.5665 18.1923 33.3169C19.6316 32.9923 21.1358 32.4182 22.212 31.8191C23.0678 31.3323 25.0517 29.822 25.0517 29.6473C25.0517 29.5973 24.7924 29.1979 24.4682 28.7486C23.6772 27.6752 22.7955 25.8404 22.4454 24.5797C22.2898 24.018 22.1212 23.5562 22.0823 23.5562C22.0305 23.5562 21.9008 23.7434 21.7711 23.9681C21.421 24.5922 20.2281 25.7405 19.4112 26.2523C18.4387 26.8514 17.2717 27.2508 16.0528 27.413C15.4952 27.4879 13.1094 27.5503 10.7105 27.5503H6.37963L6.40556 24.6546L6.44446 21.7713L10.2307 19.0753C12.3184 17.59 14.03 16.3418 14.03 16.2794C14.03 16.2295 10.8791 16.192 7.02796 16.192H0.0259334V24.9417Z" fill="black"/>
</g>
</svg>
