<svg width="166" height="40" viewBox="0 0 166 40" fill="none" xmlns="http://www.w3.org/2000/svg">
<mask id="mask0_3333_31" style="mask-type:alpha" maskUnits="userSpaceOnUse" x="0" y="0" width="166" height="40">
<rect width="166" height="40" fill="#D9D9D9"/>
</mask>
<g mask="url(#mask0_3333_31)">
<path fill-rule="evenodd" clip-rule="evenodd" d="M145.895 1.7183H146.795V0.833008H146.342L145.895 1.26677V1.7183ZM146.907 2.6036H147.807V1.82861L147.695 1.7183H146.907V2.6036ZM147.807 3.59921H148.706V2.71391H147.807V3.59921ZM148.819 4.48357H149.718V3.70952L149.606 3.59921H148.819V4.48357ZM149.718 5.48011H150.618V4.59388H149.718V5.48011ZM150.731 6.36447H151.629V5.59042L151.518 5.48011H150.731V6.36447ZM151.629 7.36008H152.53V6.47572H151.629V7.36008ZM152.643 8.24537H153.54V7.47133L153.429 7.36008H152.643V8.24537ZM153.54 9.24191H154.208L154.44 9.01569V8.35662H153.54V9.24191ZM144.995 2.6036H145.895V1.7183H145.429L144.995 2.13898V2.6036ZM146.008 3.59921H146.907V2.6036H146.008V3.59921ZM146.907 4.48357H147.807V3.59921H146.907V4.48357ZM147.807 5.48011H148.819V4.48357H147.92L147.807 5.48011ZM148.819 6.36447H149.718V5.48011H148.819V6.36447ZM149.718 7.36008H150.731V6.36447H149.718V7.36008ZM150.731 8.24537H151.629V7.36008H150.731V8.24537ZM151.629 9.13067H152.643V8.24537H151.629V9.13067ZM152.643 10.1263H153.295L153.54 9.88883V9.24191H152.643V10.1263ZM144.095 3.48796H144.995V2.6036H144.518L144.095 3.01212V3.48796ZM144.995 4.48357H145.895V3.59921H144.995V4.48357ZM146.008 5.36886H146.907V4.48357H146.008V5.36886ZM146.907 6.36447H147.807V5.48011H146.907V6.36447ZM147.92 7.24977H148.819V6.36447H147.92V7.24977ZM148.819 8.24537H149.718V7.36008H148.819V8.24537ZM149.831 9.13067H150.731V8.24537H149.831V9.13067ZM150.731 10.1263H151.629V9.24191H150.731V10.1263ZM151.743 11.0116H152.384L152.643 10.762V10.1263H151.743V11.0116ZM143.197 4.48357H144.095V3.59921H143.492L143.197 3.88527V4.48357ZM144.095 5.36886H144.995V4.48357H144.095V5.36886ZM144.995 6.36447H146.008V5.48011H144.995V6.36447ZM146.008 7.24977H146.907V6.36447H146.008V7.24977ZM146.907 8.24537H147.92V7.24977H146.907V8.24537ZM147.92 9.13067H148.819V8.24537H147.92V9.13067ZM148.819 10.1263H149.718V9.13067H148.819V10.1263ZM149.831 11.0116H150.731V10.1263H149.831V11.0116ZM150.731 12.0072H151.358L151.629 11.7436V11.0116H150.731V12.0072ZM142.184 5.36886H143.084V4.48357H142.581L142.184 4.86685V5.36886ZM143.197 6.25416H144.095V5.36886H143.197V6.25416ZM144.095 7.24977H144.995V6.36447H144.095V7.24977ZM145.108 8.13506H146.008V7.24977H145.108V8.13506ZM146.008 9.13067H146.907V8.24537H146.008V9.13067ZM147.02 10.016H147.92V9.13067H147.02V10.016ZM147.92 11.0116H148.819V10.1263H147.92V11.0116ZM148.931 11.8969H149.831V11.0116H148.931V11.8969ZM149.831 12.8925H150.445L150.731 12.6167V12.0072H149.831V12.8925ZM141.286 6.25416H142.184V5.36886H141.668L141.286 5.73999V6.25416ZM142.184 7.24977H143.197V6.36447H142.184V7.24977ZM143.197 8.13506H144.095V7.24977H143.197V8.13506ZM144.095 9.13067H144.995V8.24537H144.095V9.13067ZM145.108 10.016H146.008V9.13067H145.108V10.016ZM146.008 11.0116H146.907V10.1263H146.008V11.0116ZM147.02 11.8969H147.92V11.0116H147.02V11.8969ZM147.92 12.8925H148.819V11.8969H147.92V12.8925ZM148.931 13.7778H149.534L149.831 13.4898V12.8925H148.931V13.7778ZM140.385 7.24977H141.286V6.25416H140.755L140.385 6.61407V7.24977ZM141.286 8.13506H142.184V7.24977H141.286V8.13506ZM142.297 9.13067H143.197V8.13506H142.297V9.13067ZM143.197 10.016H144.095V9.13067H143.197V10.016ZM144.208 10.9013H145.108V10.016H144.208V10.9013ZM145.108 11.8969H146.008V11.0116H145.108V11.8969ZM146.12 12.7822H147.02V11.8969H146.12V12.7822ZM147.02 13.7778H147.92V12.8925H147.02V13.7778ZM147.92 14.6621H148.621L148.931 14.363V13.7778H147.92V14.6621ZM139.374 8.13506H140.272V7.24977H139.729L139.374 7.59472V8.13506ZM140.385 9.02036H141.286V8.13506H140.385V9.02036ZM141.286 10.016H142.184V9.13067H141.286V10.016ZM142.297 10.9013H143.197V10.016H142.297V10.9013ZM143.197 11.8969H144.095V11.0116H143.197V11.8969ZM144.208 12.7822H145.108V11.8969H144.208V12.7822ZM145.108 13.7778H146.008V12.8925H145.108V13.7778ZM146.12 14.6621H147.02V13.7778H146.12V14.6621ZM147.02 15.6577H147.597L147.92 15.3446V14.7734H147.02V15.6577ZM138.812 9.02036H139.374V8.13506H138.818L138.475 8.46787V8.68755L138.812 9.02036ZM139.824 10.016H140.385V9.02036H139.486V9.6841L139.824 10.016ZM140.723 10.9013H141.286V10.016H140.385V10.5694L140.723 10.9013ZM141.734 11.8969H142.297V10.9013H141.397V11.5641L141.734 11.8969ZM142.635 12.7822H143.197V11.8969H142.297V12.4494L142.635 12.7822ZM143.535 13.6675H144.208V12.7822H143.197V13.3347L143.535 13.6675ZM144.546 14.6621H145.108V13.7778H144.208V14.3303L144.546 14.6621ZM145.446 15.5474H146.12V14.6621H145.108V15.2156L145.446 15.5474ZM146.457 16.544H146.684L147.02 16.2177V15.6577H146.12V16.2112L146.457 16.544ZM146.12 24.2882H147.02V23.4067L147.016 23.4029H146.35L146.12 23.631V24.2882ZM147.02 25.1744H147.92V24.305L147.902 24.2882H147.02V25.1744ZM148.031 26.1691H148.931V25.3147L148.79 25.1744H148.031V26.1691ZM148.931 27.0544H149.831V26.2112L149.788 26.1691H148.931V27.0544ZM149.942 28.05H150.842V27.2208L150.675 27.0544H149.942V28.05ZM150.842 28.9353H151.743V28.1173L151.673 28.05H150.842V28.9353ZM151.743 29.8187H152.754V29.127L152.561 28.9353H151.743V29.8187ZM152.754 30.8162H153.653V30.0253L153.559 29.93H152.754V30.8162ZM153.653 31.7015H154.44L154.665 31.479V31.0331L154.448 30.8162H153.653V31.7015ZM145.108 25.1744H146.008V24.2882H145.463L145.108 24.6406V25.1744ZM146.12 26.0579H147.02V25.1744H146.12V26.0579ZM147.02 27.0544H147.92V26.1691H147.02V27.0544ZM148.031 27.9388H148.931V27.0544H148.031V27.9388ZM148.931 28.9353H149.831V28.05H148.931V28.9353ZM149.942 29.8187H150.842V28.9353H149.942V29.8187ZM150.842 30.8162H151.743V29.93H150.842V30.8162ZM151.856 31.7015H152.754V30.8162H151.856V31.7015ZM152.754 32.6962H153.429L153.653 32.4756V31.8109H152.754V32.6962ZM144.208 26.0579H145.108V25.1744H144.574L144.208 25.539V26.0579ZM145.108 27.0544H146.12V26.1691H145.219L145.108 27.0544ZM146.12 27.9388H147.02V27.0544H146.12V27.9388ZM147.02 28.9353H148.031V27.9388H147.02V28.9353ZM148.031 29.8187H148.931V28.9353H148.031V29.8187ZM148.931 30.8162H149.942V29.8187H148.931V30.8162ZM149.942 31.7015H150.842V30.8162H149.942V31.7015ZM150.842 32.6962H151.743V31.7015H150.842V32.6962ZM151.856 33.5824H152.53L152.754 33.359V32.6962H151.856V33.5824ZM143.309 26.9432H144.208V26.0579H143.687L143.309 26.4355V26.9432ZM144.208 27.9388H145.108V27.0544H144.208V27.9388ZM145.219 28.8241H146.12V27.9388H145.219V28.8241ZM146.12 29.8187H147.02V28.9353H146.12V29.8187ZM147.133 30.705H148.031V29.8187H147.133V30.705ZM148.031 31.7015H148.931V30.8162H148.031V31.7015ZM149.045 32.5849H149.942V31.7015H149.045V32.5849ZM149.942 33.5824H150.842V32.6962H149.942V33.5824ZM150.955 34.4677H151.629L151.856 34.2452V33.5824H150.955V34.4677ZM142.297 27.9388H143.309V27.0544H142.688L142.297 27.4452V27.9388ZM143.309 28.8241H144.208V27.9388H143.309V28.8241ZM144.208 29.8187H145.219V28.9353H144.208V29.8187ZM145.219 30.705H146.12V29.8187H145.219V30.705ZM146.12 31.7015H147.02V30.8162H146.12V31.7015ZM147.133 32.5849H148.031V31.7015H147.133V32.5849ZM148.031 33.5824H148.931V32.5849H148.031V33.5824ZM149.045 34.4677H149.942V33.5824H149.045V34.4677ZM149.942 35.4624H150.618L150.842 35.2418V34.4677H149.942V35.4624ZM141.397 28.8241H142.297V27.9388H141.802L141.397 28.3417V28.8241ZM142.41 29.8187H143.309V28.8241H142.41V29.8187ZM143.309 30.705H144.208V29.8187H143.309V30.705ZM144.322 31.5903H145.219V30.705H144.322V31.5903ZM145.219 32.5849H146.12V31.7015H145.219V32.5849ZM146.233 33.4712H147.133V32.5849H146.233V33.4712ZM147.133 34.4677H148.031V33.5824H147.133V34.4677ZM148.144 35.3511H149.045V34.4677H148.144V35.3511ZM149.045 36.3486H149.718L149.942 36.1252V35.4624H149.045V36.3486ZM140.499 29.7094H141.397V28.8241H140.914L140.499 29.2382V29.7094ZM141.397 30.705H142.297V29.8187H141.397V30.705ZM142.41 31.5903H143.309V30.705H142.41V31.5903ZM143.309 32.5849H144.208V31.7015H143.309V32.5849ZM144.322 33.4712H145.219V32.5849H144.322V33.4712ZM145.219 34.4677H146.12V33.5824H145.219V34.4677ZM146.233 35.3511H147.133V34.4677H146.233V35.3511ZM147.133 36.3486H148.031V35.4624H147.133V36.3486ZM148.144 37.232H148.819L149.045 37.0114V36.3486H148.144V37.232ZM139.599 30.705H140.499V29.7094H140.027L139.599 30.1366V30.705ZM140.499 31.5903H141.397V30.705H140.499V31.5903ZM141.51 32.5849H142.41V31.5903H141.51V32.5849ZM142.41 33.4712H143.309V32.5849H142.41V33.4712ZM143.422 34.4677H144.322V33.4712H143.422V34.4677ZM144.322 35.3511H145.219V34.4677H144.322V35.3511ZM145.219 36.2374H146.233V35.3511H145.219V36.2374ZM146.233 37.232H147.133V36.3486H146.233V37.232ZM147.133 38.1173H147.92L148.144 37.8967V37.232H147.133V38.1173ZM138.812 31.5903H139.486V30.705H139.029L138.586 31.1462V31.3696L138.812 31.5903ZM139.71 32.4756H140.499V31.5903H139.599V32.3643L139.71 32.4756ZM140.723 33.4712H141.397V32.5849H140.499V33.2496L140.723 33.4712ZM141.621 34.3565H142.41V33.4712H141.51V34.2452L141.621 34.3565ZM142.635 35.3511H143.309V34.4677H142.41V35.1305L142.635 35.3511ZM143.535 36.2374H144.322V35.3511H143.422V36.1252L143.535 36.2374ZM144.546 37.232H145.219V36.3486H144.322V37.0114L144.546 37.232ZM145.446 38.1173H146.233V37.232H145.332V38.008L145.446 38.1173ZM146.457 39.113H146.907L147.133 38.8914V38.2286H146.233V38.8914L146.457 39.113ZM166.135 20.4161H166.024V20.5273L166.135 20.4161ZM165.124 21.4108H165.01V21.522L165.124 21.4108ZM164.223 22.2961H164.11V22.4082L164.223 22.2961ZM163.212 23.2917H163.099V23.4029L163.212 23.2917ZM162.313 24.177H162.199V24.2882L162.313 24.177ZM160.401 26.0579H160.288V26.1691L160.401 26.0579ZM159.501 26.9432H159.387V27.0544L159.501 26.9432ZM158.49 27.9388H158.376V28.05L158.49 27.9388ZM165.124 20.4161H166.024V19.642L165.911 19.5299H165.124V20.4161ZM164.11 21.3014H165.01V20.4161H164.11V21.3014ZM163.212 22.2961H164.11V21.4108H163.212V22.2961ZM162.199 23.1823H163.099V22.2961H162.199V23.1823ZM161.299 24.177H162.199V23.2917H161.299V24.177ZM160.288 25.0623H161.188V24.177H160.288V25.0623ZM159.387 26.0579H160.288V25.1744H159.387V26.0579ZM158.376 26.9432H159.276V26.0579H158.376V26.9432ZM158.037 27.9388H158.376V27.0544H157.477V27.3966L158.037 27.9388ZM164.11 19.5299H165.01V18.6455H164.11V19.5299ZM163.212 20.4161H164.11V19.5299H163.212V20.4161ZM162.199 21.4108H163.212V20.5273H162.199V21.4108ZM161.299 22.2961H162.199V21.4108H161.299V22.2961ZM160.288 23.2917H161.299V22.4082H160.288V23.2917ZM159.387 24.177H160.288V23.2917H159.387V24.177ZM158.376 25.1744H159.387V24.177H158.376V25.1744ZM157.477 26.0579H158.376V25.1744H157.477V26.0579ZM157.124 27.0544H157.477V26.0579H156.578V26.5234L157.124 27.0544ZM163.212 18.5352H164.11V17.7602L163.999 17.6499H163.212V18.5352ZM162.313 19.5299H163.212V18.6455H162.313V19.5299ZM161.299 20.4161H162.199V19.5299H161.299V20.4161ZM160.401 21.4108H161.299V20.5273H160.401V21.4108ZM159.387 22.2961H160.288V21.4108H159.387V22.2961ZM158.49 23.2917H159.387V22.4082H158.49V23.2917ZM157.477 24.177H158.376V23.2917H157.477V24.177ZM156.578 25.1744H157.477V24.2882H156.578V25.1744ZM156.098 26.0579H156.465V25.1744H155.565V25.5409L156.098 26.0579ZM162.313 17.6499H163.212V16.8758L163.099 16.7646H162.313V17.6499ZM161.299 18.6455H162.199V17.7602H161.299V18.6455ZM160.401 19.5299H161.299V18.6455H160.401V19.5299ZM159.387 20.5273H160.288V19.5299H159.387V20.5273ZM158.49 21.4108H159.387V20.5273H158.49V21.4108ZM157.477 22.4082H158.49V21.4108H157.477V22.4082ZM156.578 23.2917H157.477V22.4082H156.578V23.2917ZM155.565 24.177H156.578V23.2917H155.565V24.177ZM155.187 25.1744H155.565V24.2882H154.665V24.6687L155.187 25.1744ZM161.299 16.7646H162.313V15.9905L162.199 15.8793H161.299V16.7646ZM160.401 17.6499H161.299V16.7646H160.401V17.6499ZM159.501 18.6455H160.401V17.7602H159.501V18.6455ZM158.49 19.5299H159.387V18.6455H158.49V19.5299ZM157.59 20.5273H158.49V19.642H157.59V20.5273ZM156.578 21.4108H157.477V20.5273H156.578V21.4108ZM155.678 22.4082H156.578V21.522H155.678V22.4082ZM154.665 23.2917H155.565V22.4082H154.665V23.2917ZM154.276 24.2882H154.665V23.4029H153.767V23.7937L154.276 24.2882ZM160.401 15.8793H161.299V14.994L161.188 14.8837H160.401V15.8793ZM159.501 16.7646H160.401V15.8793H159.501V16.7646ZM158.49 17.7602H159.387V16.7646H158.49V17.7602ZM157.59 18.6455H158.49V17.7602H157.59V18.6455ZM156.578 19.5299H157.477V18.6455H156.578V19.5299ZM155.678 20.5273H156.578V19.642H155.678V20.5273ZM154.665 21.4108H155.565V20.5273H154.665V21.4108ZM153.767 22.4082H154.665V21.522H153.767V22.4082ZM153.249 23.2917H153.767V22.4082H152.754V22.813L153.249 23.2917ZM159.501 14.8837H160.401V14.1096L160.288 13.9984H159.501V14.8837ZM158.49 15.8793H159.501V14.994H158.49V15.8793ZM157.59 16.7646H158.49V15.8793H157.59V16.7646ZM156.578 17.7602H157.59V16.8758H156.578V17.7602ZM155.678 18.6455H156.578V17.7602H155.678V18.6455ZM154.778 19.642H155.678V18.7558H154.778V19.642ZM153.767 20.5273H154.665V19.642H153.767V20.5273ZM152.867 21.522H153.767V20.6367H152.867V21.522ZM152.337 22.4082H152.754V21.522H151.856V21.939L152.337 22.4082ZM158.601 13.9984H159.501V13.2243L159.387 13.114H158.601V13.9984ZM157.59 14.8837H158.49V13.9984H157.59V14.8837ZM156.69 15.8793H157.59V14.994H156.69V15.8793ZM155.678 16.7646H156.578V15.8793H155.678V16.7646ZM154.778 17.7602H155.678V16.8758H154.778V17.7602ZM153.767 18.6455H154.665V17.7602H153.767V18.6455ZM152.867 19.642H153.767V18.7558H152.867V19.642ZM151.856 20.5273H152.754V19.642H151.856V20.5273ZM151.425 21.522H151.856V20.6367H150.955V21.0658L151.425 21.522ZM157.59 13.114H158.49V12.2278H158.037L157.59 12.6616V13.114ZM156.69 13.9984H157.59V13.114H157.124L156.69 13.5357V13.9984ZM155.678 14.994H156.69V14.1096H156.098L155.678 14.5172V14.994ZM154.778 15.8793H155.678V14.994H155.187L154.778 15.3904V15.8793ZM153.767 16.8758H154.778V15.9905H154.16L153.767 16.3738V16.8758ZM152.867 17.7602H153.767V16.8758H153.249L152.867 17.246V17.7602ZM151.856 18.7558H152.867V17.7602H152.337L151.922 18.1631L151.856 18.7558ZM150.955 19.642H151.856V18.7558H151.311L150.955 19.1017V19.642ZM150.512 20.6367H150.955V19.642H150.398L150.055 19.9739V20.1927L150.512 20.6367ZM134.651 12.8925H135.55V12.124L135.433 12.0072H134.768L134.651 12.124V12.8925ZM135.55 13.8881H136.45V13.0215L136.32 12.8925H135.55V13.8881ZM136.563 14.7734H137.461V14.0302L137.318 13.8881H136.563V14.7734ZM137.461 15.769H138.362V14.9276L138.207 14.7734H137.461V15.769ZM138.362 16.6543H139.374V15.9373L139.205 15.769H138.362V16.6543ZM139.374 17.6499H140.272V16.8347L140.093 16.6543H139.374V17.6499ZM140.272 18.5352H141.286V17.8434L141.091 17.6499H140.272V18.5352Z" fill="#0055FF"/>
<path fill-rule="evenodd" clip-rule="evenodd" d="M141.282 19.4206H142.18V18.7419L141.974 18.5353H141.282V19.4206ZM142.18 20.4162H142.743L143.08 20.0834V19.6384L142.973 19.53H142.18V20.4162ZM133.635 13.7779H134.535V12.8926H133.878L133.635 13.1328V13.7779ZM134.648 14.7735H135.547V13.8882H134.648V14.7735ZM135.547 15.6578H136.446V14.7735H135.547V15.6578ZM136.559 16.6544H137.457V15.7691H136.559V16.6544ZM137.457 17.5397H138.358V16.6544H137.457V17.5397ZM138.471 18.5353H139.371V17.65H138.471V18.5353ZM139.371 19.4206H140.269V18.5353H139.371V19.4206ZM140.382 20.4162H141.282V19.53H140.382V20.4162ZM141.282 21.3015H141.844L142.18 20.9696V20.4162H141.282V21.3015ZM132.735 14.7735H133.635V13.8882H132.88L132.735 14.0303V14.7735ZM133.635 15.6578H134.648V14.7735H133.635V15.6578ZM134.648 16.6544H135.547V15.7691H134.648V16.6544ZM135.547 17.5397H136.559V16.6544H135.547V17.5397ZM136.559 18.5353H137.457V17.5397H136.559V18.5353ZM137.457 19.4206H138.358V18.5353H137.457V19.4206ZM138.471 20.4162H139.371V19.4206H138.471V20.4162ZM139.371 21.3015H140.269V20.4162H139.371V21.3015ZM140.382 22.2962H140.831L141.282 21.8549V21.3015H140.382V22.2962ZM131.836 15.6578H132.735V14.7735H131.99L131.836 14.9277V15.6578ZM132.735 16.5441H133.635V15.6578H132.735V16.5441ZM133.748 17.5397H134.648V16.6544H133.748V17.5397ZM134.648 18.424H135.547V17.5397H134.648V18.424ZM135.66 19.4206H136.559V18.5353H135.66V19.4206ZM136.559 20.3049H137.457V19.4206H136.559V20.3049ZM137.57 21.3015H138.471V20.4162H137.57V21.3015ZM138.471 22.1849H139.371V21.3015H138.471V22.1849ZM139.482 23.1824H139.933L140.382 22.7402V22.2962H139.482V23.1824ZM130.824 16.5441H131.836V15.6578H131.104L130.824 15.9374V16.5441ZM131.836 17.5397H132.735V16.6544H131.836V17.5397ZM132.735 18.424H133.635V17.5397H132.735V18.424ZM133.748 19.4206H134.648V18.5353H133.748V19.4206ZM134.648 20.3049H135.547V19.4206H134.648V20.3049ZM135.66 21.3015H136.559V20.4162H135.66V21.3015ZM136.559 22.1849H137.457V21.3015H136.559V22.1849ZM137.57 23.1824H138.471V22.1849H137.57V23.1824ZM138.471 24.0677H139.033L139.371 23.7358V23.1824H138.471V24.0677ZM129.926 17.5397H130.824V16.5441H130.217L129.926 16.8348V17.5397ZM130.937 18.424H131.836V17.5397H130.937V18.424ZM131.836 19.4206H132.735V18.424H131.836V19.4206ZM132.848 20.3049H133.748V19.4206H132.848V20.3049ZM133.748 21.1902H134.648V20.3049H133.748V21.1902ZM134.759 22.1849H135.66V21.3015H134.759V22.1849ZM135.66 23.0711H136.559V22.1849H135.66V23.0711ZM136.559 24.0677H137.57V23.1824H136.559V24.0677ZM137.57 24.9511H138.133L138.471 24.6211V24.0677H137.57V24.9511Z" fill="#0055FF"/>
<path fill-rule="evenodd" clip-rule="evenodd" d="M129.025 18.4234H129.926V17.5391H129.218L129.025 17.7307V18.4234ZM129.926 19.3087H130.823V18.4234H129.926V19.3087ZM130.937 20.3043H131.836V19.42H130.937V20.3043ZM131.836 21.1896H132.735V20.3043H131.836V21.1896ZM132.848 22.1843H133.748V21.3009H132.848V22.1843ZM133.748 23.0705H134.648V22.1843H133.748V23.0705ZM134.759 24.0671H135.659V23.1818H134.759V24.0671ZM135.659 24.9505H136.559V24.0671H135.659V24.9505ZM136.67 25.948H137.122L137.57 25.5039V25.0617H136.67V25.948ZM128.125 19.3087H129.025V18.4234H128.331L128.125 18.6282V19.3087ZM129.025 20.3043H129.926V19.3087H129.025V20.3043ZM130.037 21.1896H130.937V20.3043H130.037V21.1896ZM130.937 22.1843H131.836V21.1896H130.937V22.1843ZM131.836 23.0705H132.848V22.1843H131.947L131.836 23.0705ZM132.848 23.9558H133.748V23.0705H132.848V23.9558ZM133.748 24.9505H134.759V24.0671H133.748V24.9505ZM134.759 25.8367H135.659V24.9505H134.759V25.8367ZM135.659 26.8314H136.221L136.67 26.3892V25.948H135.659V26.8314ZM127.225 20.194H128.014V19.3087H127.442L127.114 19.6378V20.0828L127.225 20.194ZM128.238 21.1896H129.025V20.3043H128.125V21.0802L128.238 21.1896ZM129.138 22.0749H129.926V21.1896H129.025V21.9637L129.138 22.0749ZM130.15 23.0705H130.937V22.1843H130.037V22.9602L130.15 23.0705ZM131.05 23.9558H131.836V23.0705H130.937V23.8446L131.05 23.9558ZM132.061 24.9505H132.848V24.0671H131.947V24.8411L132.061 24.9505ZM132.961 25.8367H133.748V24.9505H132.848V25.7246L132.961 25.8367ZM133.972 26.8314H134.759V25.948H133.859V26.722L133.972 26.8314ZM134.873 27.7167H135.321L135.659 27.3848V26.8314H134.759V27.6073L134.873 27.7167Z" fill="#0055FF"/>
<path fill-rule="evenodd" clip-rule="evenodd" d="M146.569 22.5182C146.939 22.5217 147.306 22.4525 147.649 22.3147C147.991 22.1769 148.302 21.9733 148.564 21.7157C148.826 21.4581 149.032 21.1518 149.172 20.8146C149.312 20.4774 149.382 20.1162 149.378 19.752C149.378 18.3142 148.142 16.9868 146.569 16.9868C144.993 16.9868 143.757 18.3142 143.757 19.752C143.754 20.1163 143.824 20.4776 143.964 20.8149C144.104 21.1521 144.311 21.4585 144.573 21.7161C144.834 21.9737 145.146 22.1773 145.489 22.315C145.831 22.4528 146.199 22.5218 146.569 22.5182ZM2.75234 26.8325H-0.845703L2.86541 6.9185H8.60024C12.7607 6.9185 14.222 9.79501 14.222 12.2293C14.222 16.323 10.9612 19.3108 5.1143 19.3108L5.56465 16.7661H6.35229C8.60119 16.5455 10.5118 15.3283 10.5118 12.4509C10.5118 11.5656 9.83727 9.24252 7.70144 9.24252H6.12712L2.75234 26.8325ZM27.4902 26.8325H24.0043L24.4546 24.731V24.6216L23.7801 25.3957C23.3297 25.9491 21.5312 27.1653 19.3953 27.1653C16.8091 27.1653 15.2348 24.9525 15.2348 21.8554C15.2348 17.3186 18.7198 12.2293 23.2176 12.2293C24.3425 12.2293 25.8038 12.6725 26.4793 13.5568L26.7035 12.5612H30.1895L27.4902 26.8325ZM23.3297 14.5524C21.8685 14.5524 18.945 16.5436 18.945 21.5226C18.945 23.5148 19.8447 24.6207 21.1939 24.6207C22.8803 24.6207 25.4665 22.9613 26.1411 15.6583C25.1283 14.6627 24.6789 14.5524 23.3297 14.5524ZM39.4093 26.281C38.2844 26.8325 37.0473 27.1644 35.9233 27.1644C33.3372 27.1644 31.875 25.8369 32.7747 22.076L34.349 14.5524H32.5495L32.8868 12.5612H34.6863L35.3609 9.13127L38.9589 8.35722L38.1713 12.5612H41.5451L41.2078 14.5524H37.7219L36.2597 21.6339C35.6972 24.5094 36.71 24.8422 37.4967 24.8422C38.1713 24.8422 38.7338 24.6216 39.1832 24.3982L39.4093 26.281ZM47.0557 15.2162L47.2809 15.3274C49.4167 12.8931 51.3283 12.2293 53.1278 12.2293C55.0395 12.2293 56.1634 13.1146 56.1634 15.549C56.1634 16.323 56.0504 17.3196 55.8261 18.647L54.1397 26.8335H50.6538L52.3402 18.647C52.5654 17.7617 52.5654 17.2083 52.5654 16.6558C52.6784 15.1068 52.0029 14.7749 51.1032 14.7749C49.4167 14.7749 46.7175 17.9833 45.9308 22.077L45.0311 26.8335H41.5451L45.5935 5.92383H49.0785L47.0557 15.2162ZM62.1225 26.8325H58.5244L62.2356 6.9185H67.9704C72.1309 6.9185 73.7052 9.79501 73.7052 12.2293C73.7052 16.323 70.4445 19.3108 64.4844 19.3108L64.9338 16.7661H65.7215C68.0825 16.5455 69.882 15.3283 69.882 12.4509C69.882 11.5656 69.2074 9.24252 67.0706 9.24252H65.4963L62.1225 26.8325ZM74.4919 20.9701C74.4919 14.9955 78.9897 12.2293 82.5877 12.2293C87.0855 12.2293 88.6589 15.3274 88.6589 18.2039C88.6589 22.7416 85.7364 27.1653 80.6761 27.1653C76.8529 27.1644 74.4919 24.2888 74.4919 20.9701ZM84.9497 18.0927C84.9497 16.1015 84.163 14.3318 82.3626 14.3318C79.1018 14.3318 78.2021 18.5367 78.2021 20.7495C78.2021 23.4044 79.1018 25.0638 81.3507 25.0638C82.4756 25.0629 84.9497 24.1776 84.9497 18.0927ZM96.4175 12.5612L93.8322 26.8325H90.3454L93.0455 12.5612H96.4175ZM93.4949 8.35722C93.7192 7.25037 94.731 6.14445 95.969 6.14445C97.0939 6.14445 97.8806 7.2513 97.6555 8.35722C97.4312 9.57439 96.4175 10.6803 95.0683 10.6803C93.9434 10.6803 93.2698 9.57439 93.4949 8.35722ZM103.278 15.2162L103.389 15.3274C105.527 12.8931 107.326 12.2293 109.236 12.2293C111.261 12.2293 112.385 13.1146 112.385 15.549C112.385 16.323 112.272 17.3196 112.048 18.647L110.249 26.8335H106.875L108.562 18.647C108.673 17.7617 108.786 17.2083 108.786 16.6558C108.897 15.1068 108.223 14.7749 107.213 14.7749C105.637 14.7749 102.826 17.9833 102.152 22.077L101.253 26.8335H97.7676L100.466 12.5621H103.951L103.278 15.2162ZM122.393 26.281C121.268 26.8325 119.919 27.1644 118.795 27.1644C116.321 27.1644 114.859 25.8369 115.647 22.076L117.22 14.5524H115.421L115.759 12.5612H117.557L118.233 9.13127L121.942 8.35722L121.044 12.5612H124.529L124.08 14.5524H120.706L119.244 21.6339C118.57 24.5094 119.695 24.8422 120.369 24.8422C121.155 24.8422 121.607 24.6216 122.169 24.3982L122.393 26.281ZM11.6358 33.4718C11.1864 33.1399 10.3988 32.809 9.6121 32.809C7.70049 32.809 6.4644 34.1364 6.4644 36.0173C6.4644 37.8982 7.92661 39.2257 9.6121 39.2257C10.3997 39.2257 11.0743 38.8939 11.5237 38.6723L11.9731 39.2257C11.4106 39.6679 10.5109 39.9998 9.49904 39.9998C6.68768 39.9998 5.33853 38.1189 5.33853 36.0173C5.33853 34.0252 6.91285 32.033 9.61115 32.033C10.7361 32.033 11.5228 32.4771 12.0852 32.809L11.6358 33.4718ZM18.944 35.9052C18.944 33.6924 20.5184 32.0321 22.7672 32.0321C25.0161 32.0321 26.7026 33.6915 26.7026 35.9052C26.7026 38.1189 25.2404 39.9988 22.7672 39.9988C20.4062 39.9988 18.944 38.1179 18.944 35.9052ZM25.4665 35.9052C25.4665 34.4683 24.7919 32.809 22.7682 32.809C20.8566 32.809 20.0699 34.4683 20.0699 35.9052C20.0699 37.3439 20.8566 39.2248 22.7682 39.2248C24.7919 39.2248 25.4665 37.3439 25.4665 35.9052ZM40.9836 39.8895H40.1969C38.3974 37.8973 35.5861 34.4683 35.1367 33.6924H35.0245V39.8895H34.1248V32.1443H35.0245C36.711 34.1364 39.5223 37.5654 40.0848 38.2301V32.1443H40.9846L40.9836 39.8895ZM52.4523 33.3596C52.115 33.139 51.6656 32.808 51.1032 32.808C50.4286 32.808 49.9783 33.2502 49.9783 33.8027C49.9783 34.3552 50.4286 34.7974 51.4405 35.5724C52.4523 36.237 53.1269 37.0111 53.1269 38.0076C53.1269 39.2239 51.8899 39.9979 50.6528 39.9979C49.9783 39.9979 49.0785 39.666 48.516 39.2239L48.9664 38.5592C49.4158 38.8911 49.9783 39.2239 50.6528 39.2239C51.4405 39.2239 52.002 38.7817 52.002 37.8964C52.002 37.0111 50.878 36.3483 50.2025 35.9042C49.5279 35.4621 48.8533 34.9096 48.8533 33.8027C48.8533 32.808 49.8652 32.0312 51.1022 32.0312C51.8187 32.0308 52.506 32.3098 53.0138 32.8071L52.4523 33.3596ZM61.561 32.1443V36.7914C61.561 38.4507 62.2356 39.2257 63.5847 39.2257C65.0469 39.2257 65.4963 38.1189 65.4963 37.013V32.1452H66.5082V37.013C66.5082 38.7845 65.4963 39.9998 63.5847 39.9998C61.4479 39.9998 60.5491 38.7835 60.5491 36.9036V32.1452L61.561 32.1443ZM74.2667 32.1443H75.3917V39.1135H78.6515V39.8895H74.2667V32.1443ZM87.3098 39.8895V32.9183H84.7245V32.1443H90.7966V32.9183H88.3226V39.8895H87.3098ZM97.7685 32.1443H98.8925V39.8895H97.7685V32.1443ZM113.621 39.8895H112.723C111.037 37.8973 108.111 34.4683 107.663 33.6924V39.8895H106.763V32.1443H107.55C109.236 34.1364 112.162 37.5654 112.61 38.2301H112.723V32.1443H113.621V39.8895ZM127.903 36.3492V39.4454C127.116 39.666 126.217 39.9988 125.205 39.9988C122.504 39.9988 121.044 38.1179 121.044 36.0164C121.044 34.0243 122.618 32.0321 125.429 32.0321C126.554 32.0321 127.454 32.364 127.903 32.808L127.454 33.4708C127.002 33.139 126.216 32.808 125.429 32.808C123.404 32.808 122.28 34.1355 122.28 36.0164C122.28 37.8973 123.629 39.2248 125.316 39.2248C125.878 39.2248 126.441 39.1135 126.891 38.8929V36.3492H127.903Z" fill="white"/>
</g>
</svg>
