<svg width="166" height="40" viewBox="0 0 166 40" fill="none" xmlns="http://www.w3.org/2000/svg">
<mask id="mask0_3152_3" style="mask-type:alpha" maskUnits="userSpaceOnUse" x="0" y="0" width="166" height="40">
<rect width="166" height="40" fill="#D9D9D9"/>
</mask>
<g mask="url(#mask0_3152_3)">
<path d="M0.75207 6.60589C1.15404 7.04275 2.48961 8.41573 3.69552 9.6639L5.91283 11.948H10.7494C16.3381 11.948 16.9475 12.0229 18.685 12.8467C19.9558 13.4583 21.2914 14.6316 21.8749 15.6676C22.0694 16.0295 22.2639 16.2917 22.3028 16.2542C22.3287 16.2292 22.4973 15.8049 22.6658 15.3181C23.1845 13.8577 23.9755 12.4348 25.1036 10.9745C25.6611 10.2381 25.6871 10.3005 24.6757 9.40178C23.392 8.24099 21.3692 7.11764 19.5409 6.531C17.531 5.88196 16.74 5.83203 8.01344 5.83203H0L0.75207 6.60589ZM35.4899 6.54349C35.2825 6.56845 34.6601 6.70575 34.1155 6.84304C29.3696 7.99136 25.4277 11.5361 23.9495 15.9671C23.3531 17.777 23.1845 19.0002 23.2753 20.9099C23.5476 27.4752 28.449 32.8174 35.2306 33.9906C36.0605 34.1279 37.9277 34.1654 44.4759 34.1654H52.6708V16.8159H45.6688C41.8177 16.8159 38.6668 16.8408 38.6668 16.8658C38.6668 16.8908 40.3913 18.1389 42.492 19.6367L46.3171 22.3577V28.0494H41.6102C38.9131 28.0494 36.5921 27.9994 36.1772 27.9246C33.7394 27.4877 31.5999 25.915 30.4848 23.7432C29.3048 21.4466 29.3178 19.2124 30.4977 16.8284C30.9256 15.9796 31.2368 15.5802 32.0278 14.8313C33.1559 13.7579 34.1284 13.2087 35.5548 12.8342C36.4624 12.5846 36.8644 12.5721 41.6491 12.5721H46.771L48.6641 10.6C49.7144 9.5266 51.037 8.15362 51.6335 7.54202L52.6968 6.45611L44.2814 6.4686C39.6652 6.48108 35.7104 6.51852 35.4899 6.54349ZM95.3573 10.4627C91.0005 10.9994 88.5757 13.1588 87.7847 17.1779C87.5384 18.4011 87.5773 22.2579 87.8496 23.4187C88.5238 26.3519 90.1317 28.274 92.5305 29.0479C95.5777 30.0215 100.557 29.8592 104.382 28.661L105.186 28.3989V17.9392H96.628V21.6837H99.9994V25.553L99.6493 25.6404C99.0269 25.8027 96.3428 25.7527 95.7982 25.5655C95.1239 25.3408 94.3459 24.6419 93.9698 23.9304C93.529 23.0942 93.3863 22.1206 93.3863 20.0112C93.3863 16.9532 93.8661 15.5802 95.1758 14.9062C95.5129 14.7439 96.0964 14.5317 96.4724 14.4569C97.6783 14.2197 102.126 14.332 103.669 14.6441L104.019 14.719V10.9745L102.826 10.7748C100.259 10.3504 97.2634 10.2256 95.3573 10.4627ZM59.9581 19.9613L59.997 29.1103L64.0167 29.1478C69.5016 29.1977 71.2781 29.0229 73.0156 28.274C75.9591 27.0134 77.4373 24.23 77.4373 19.9613C77.4243 15.2557 75.4923 12.3225 71.7319 11.3364C70.2148 10.937 68.6199 10.8247 64.1075 10.8247H59.9322L59.9581 19.9613ZM69.4627 14.7065C70.2926 14.9312 71.0058 15.7175 71.3689 16.8159C71.6412 17.6522 71.6671 17.9892 71.6671 19.9987C71.6671 22.6323 71.4466 23.6059 70.6297 24.5295C69.9814 25.2535 69.3071 25.4282 67.1028 25.4282H65.3782V14.5692H67.1676C68.1401 14.5692 69.1775 14.6316 69.4627 14.7065ZM79.7713 19.9987V29.1727H85.2173V10.8247H79.7713V19.9987ZM107.585 10.9745C107.546 11.0618 107.533 15.1808 107.546 20.1235L107.585 29.1103H113.031V10.8871L110.334 10.8497C108.259 10.8247 107.624 10.8497 107.585 10.9745ZM121.848 10.9745C118.918 18.7755 115.17 28.8856 115.17 29.0105C115.17 29.1478 115.546 29.1727 117.09 29.1478L118.996 29.1103L119.709 27.0134L120.422 24.929L124.04 24.9539L127.67 24.9914L128.384 27.0758L129.11 29.1727H131.158C133.052 29.1727 133.207 29.1602 133.142 28.948C133.09 28.8357 131.56 24.7168 129.719 19.8115L126.374 10.8871L124.143 10.8497C122.419 10.8247 121.887 10.8497 121.848 10.9745ZM124.688 16.2667C125.012 17.2902 125.57 18.9627 125.933 19.9987C126.283 21.0222 126.581 21.9084 126.581 21.9583C126.581 22.0082 125.44 22.0582 124.04 22.0582C121.822 22.0582 121.511 22.0332 121.576 21.871C121.732 21.4715 123.573 15.8423 123.793 15.0934C123.923 14.669 124.04 14.332 124.066 14.357C124.092 14.382 124.377 15.2307 124.688 16.2667ZM135.269 19.9862V29.1852L137.188 29.1478L139.094 29.1103L139.133 25.6404L139.159 22.183H141.558L143.892 25.6779L146.226 29.1727H148.404C149.597 29.1727 150.57 29.1228 150.57 29.0604C150.57 28.998 149.545 27.4627 148.3 25.6404C147.056 23.8181 146.031 22.2704 146.031 22.1955C146.031 22.1206 146.109 22.0582 146.2 22.0582C146.498 22.0582 147.769 21.4216 148.3 20.9972C148.923 20.5229 149.558 19.4245 149.805 18.4385C150.038 17.4774 150.012 15.4429 149.74 14.4444C149.247 12.622 148.236 11.636 146.329 11.1243C145.707 10.9495 144.67 10.8996 140.43 10.8621L135.269 10.7997V19.9862ZM144.462 13.8952C145.396 14.0824 145.94 15.031 145.94 16.5038C145.953 17.7021 145.629 18.5009 144.981 18.9502C144.553 19.2373 144.449 19.2498 141.856 19.2872L139.159 19.3247V13.8203H141.61C142.958 13.8203 144.229 13.8577 144.462 13.8952ZM151.607 12.3225V13.8203H156.923V29.1727H160.813V13.8203H166V10.8247H151.607V12.3225ZM0.0259334 24.9414V33.6786L8.55804 33.6287C16.6493 33.5787 17.129 33.5663 18.1923 33.3166C19.6316 32.9921 21.1358 32.4179 22.212 31.8188C23.0678 31.332 25.0517 29.8218 25.0517 29.647C25.0517 29.5971 24.7924 29.1977 24.4682 28.7483C23.6772 27.6749 22.7955 25.8401 22.4454 24.5795C22.2898 24.0178 22.1212 23.556 22.0823 23.556C22.0305 23.556 21.9008 23.7432 21.7711 23.9679C21.421 24.592 20.2281 25.7403 19.4112 26.252C18.4387 26.8511 17.2717 27.2505 16.0528 27.4128C15.4952 27.4877 13.1094 27.5501 10.7105 27.5501H6.37963L6.40556 24.6544L6.44446 21.7711L10.2307 19.0751C12.3184 17.5897 14.03 16.3416 14.03 16.2792C14.03 16.2292 10.8791 16.1918 7.02796 16.1918H0.0259334V24.9414Z" fill="white"/>
</g>
</svg>
