<svg width="166" height="40" viewBox="0 0 166 40" fill="none" xmlns="http://www.w3.org/2000/svg">
<mask id="mask0_3333_22" style="mask-type:alpha" maskUnits="userSpaceOnUse" x="0" y="0" width="166" height="40">
<rect width="166" height="40" fill="#D9D9D9"/>
</mask>
<g mask="url(#mask0_3333_22)">
<path d="M26.8798 8.71253H21.8426C21.8426 8.71253 21.0735 8.71253 20.689 9.8085L14.5366 24.8874L12.3448 19.2564L12.2679 19.1808L10.6913 15.1749V15.1371C9.92224 13.3231 9.19164 11.9626 8.42259 11.1312C7.65354 10.1864 6.69222 9.50616 5.61555 9.05266C4.38507 8.52358 3.15458 8.22124 1.88565 8.37241C1.38576 8.37241 0.847426 8.44799 0.232184 8.56137C-0.113889 8.71253 0.0399212 9.12824 0.0399212 9.12824L0.924331 12.4917C1.11659 13.0208 1.42422 13.172 1.46267 13.172C1.80874 13.2475 2.23172 13.3609 2.50089 13.5121C3.00077 13.701 3.3853 14.1168 3.73137 14.608C4.07745 15.1371 4.53888 16.0819 5.19257 17.4424L5.26948 17.5936H5.19257L6.57687 20.8437L10.9989 30.7829C11.0758 30.9719 11.345 31.312 11.8064 31.312H16.9591C17.5743 31.312 17.805 30.7829 17.8435 30.7073L27.1875 9.39279C27.4951 8.71253 26.8798 8.71253 26.8798 8.71253ZM38.1465 8.56137C34.5704 8.56137 31.6864 9.58175 29.4946 11.6603C27.3797 13.7388 26.2646 16.4976 26.2646 19.9367C26.2646 23.3379 27.3797 26.0967 29.4946 28.1753C31.6864 30.2538 34.5704 31.2742 38.1465 31.2742C41.7995 31.2742 44.6834 30.2538 46.7983 28.1753C48.9901 26.0967 50.0283 23.4135 50.0283 19.9367C50.0283 16.4976 48.9901 13.701 46.7983 11.6603C44.645 9.58175 41.7995 8.56137 38.1465 8.56137ZM42.2993 24.8118C41.2996 25.9834 39.9153 26.6258 38.1465 26.6258C36.3007 26.6258 34.9934 26.0211 33.9936 24.8118C32.9554 23.6403 32.4555 22.053 32.4555 19.9745C32.4555 17.8959 33.0323 16.2331 33.9936 15.0615C34.9934 13.89 36.3776 13.3231 38.1465 13.3231C39.9153 13.3231 41.2996 13.89 42.2993 15.0615C43.3376 16.2331 43.8375 17.8203 43.8375 19.9745C43.8759 22.053 43.2991 23.6403 42.2993 24.8118ZM81.175 11.6603C78.9832 9.58175 76.1761 8.56137 72.5231 8.56137C68.947 8.56137 66.0631 9.58175 63.8713 11.6603C61.7564 13.7388 60.6413 16.4976 60.6413 19.9367C60.6413 23.3379 61.7564 26.0967 63.8713 28.1753C66.0631 30.2538 68.947 31.2742 72.5231 31.2742C76.1761 31.2742 79.0601 30.2538 81.175 28.1753C83.3668 26.0967 84.405 23.4135 84.405 19.9367C84.405 16.5354 83.3668 13.7388 81.175 11.6603ZM76.676 24.8118C75.6762 25.9834 74.2919 26.6258 72.5231 26.6258C70.6774 26.6258 69.37 26.0211 68.3702 24.8118C67.332 23.6403 66.8321 22.053 66.8321 19.9745C66.8321 17.8959 67.4089 16.2331 68.3702 15.0615C69.37 13.89 70.7543 13.3231 72.5231 13.3231C74.2919 13.3231 75.6762 13.89 76.676 15.0615C77.7142 16.2331 78.2141 17.8203 78.2141 19.9745C78.2141 22.053 77.6373 23.6403 76.676 24.8118ZM59.6799 27.2683V27.1927C59.4108 27.0415 59.1416 26.777 58.9109 26.588C58.5648 26.1723 58.3725 25.7188 58.2187 25.1141C58.0649 24.5851 58.0265 23.5647 58.0265 22.2042V9.16604C58.0265 8.90149 57.7958 8.67474 57.5266 8.67474H52.9507C52.6816 8.67474 52.4508 8.90149 52.4508 9.16604L52.6431 17.7448V19.1808L52.5662 22.1664C52.5662 24.2071 52.7585 25.7566 53.1045 26.8148C53.4506 27.9107 54.0659 28.8933 54.9118 29.8003C55.8731 30.7451 56.9113 31.501 58.0649 31.8411C58.4879 31.9922 58.8724 32.1056 59.4492 32.1812C59.6415 32.2568 60.0645 32.2568 60.0645 31.6899V27.9107C60.1029 27.8729 60.026 27.5328 59.6799 27.2683Z" fill="white"/>
<path d="M110.362 8.63652C113.592 8.63652 115.899 10.7151 115.899 13.6628C115.899 16.6484 113.553 18.7647 110.362 18.7647H106.209V8.63652H110.362ZM110.362 16.4972C112.015 16.4972 113.322 15.2879 113.322 13.6628C113.322 12.1134 112.054 10.904 110.362 10.904H108.785V16.4972H110.362ZM119.898 18.7647H117.36V8.63652H119.898V18.7647ZM132.203 18.7647H130.28L130.165 17.5554C129.434 18.4624 128.357 18.9915 126.896 18.9915C123.666 18.9915 121.436 16.7239 121.436 13.8518C121.436 10.7151 123.782 8.48535 126.935 8.48535C129.434 8.48535 131.626 9.88365 132.049 12.3023H129.357C128.896 11.1308 127.858 10.7906 126.935 10.7906C125.166 10.7906 123.974 12 123.974 13.7762C123.974 15.3634 125.127 16.6484 126.973 16.6484C128.165 16.6484 129.088 16.0815 129.588 15.0989L126.627 15.0611V13.0959H132.126V18.7647H132.203ZM136.817 18.7647H134.279V8.63652H136.817V18.7647ZM143.777 10.904V18.7647H141.239V10.904H137.971V8.63652H147.084V10.8662H143.777V10.904ZM149.314 17.0263L148.622 18.7647H145.892L150.275 8.59873H152.698L157.043 18.7647H154.351L153.659 17.0263H149.314ZM151.506 11.5087L150.16 14.8722H152.813L151.506 11.5087ZM165.81 18.7647H158.158V8.63652H160.735V16.535H165.81V18.7647ZM108.67 29.6109L108.054 31.236H105.517L109.593 21.788H111.861L115.899 31.1982H113.399L112.746 29.5731H108.67V29.6109ZM110.708 24.509L109.477 27.608H111.938L110.708 24.509ZM125.858 31.236H124.089L123.974 30.1022C123.282 30.9336 122.282 31.4249 120.975 31.4249C117.975 31.4249 115.899 29.3464 115.899 26.6632C115.899 23.7532 118.091 21.6747 121.013 21.6747C123.32 21.6747 125.358 22.9596 125.781 25.1893H123.282C122.859 24.0933 121.897 23.791 121.051 23.791C119.436 23.791 118.321 24.9247 118.321 26.5876C118.321 28.0615 119.398 29.2708 121.09 29.2708C122.205 29.2708 123.051 28.7417 123.512 27.8347L120.782 27.7969V25.9451H125.896V31.236H125.858ZM130.088 25.605H134.318V27.5702H130.088V29.1952H134.933V31.236H127.742V21.8636H134.933V23.9044H130.088V25.605ZM145.046 31.236H143.2L138.663 26.0963V31.236H136.279V21.8636H138.086L142.7 27.1545V21.8636H145.084V31.236H145.046ZM153.89 27.3434H156.313C156.005 29.7621 154.121 31.4249 151.544 31.4249C148.66 31.4249 146.507 29.3842 146.507 26.5498C146.507 23.7154 148.699 21.6747 151.544 21.6747C154.159 21.6747 156.043 23.3375 156.313 25.7562H153.89C153.621 24.5846 152.775 23.8666 151.506 23.8666C149.968 23.8666 148.853 25.0003 148.853 26.5498C148.853 28.0993 149.929 29.233 151.506 29.233C152.813 29.233 153.621 28.515 153.89 27.3434ZM162.234 28.4016V31.236H159.85V28.4016L156.082 21.8636H158.697L161.042 25.9451L163.388 21.8636H166.003L162.234 28.4016Z" fill="white"/>
<path d="M95.2109 8.33447H95.6339V31.0095H95.2109V8.33447Z" fill="white"/>
<path d="M83.3678 9.2035V10.7908H82.8295V9.2035H82.1758V8.75H84.0215V9.2035H83.3678ZM86.5594 10.7908H86.021V9.77038L85.5596 10.4884H85.252L84.7906 9.77038V10.7908H84.2522V8.75H84.6368L85.3674 9.84596L86.0979 8.75H86.4825V10.7908H86.5594Z" fill="white"/>
</g>
</svg>
