<svg width="166" height="40" viewBox="0 0 166 40" fill="none" xmlns="http://www.w3.org/2000/svg">
<mask id="mask0_3107_14" style="mask-type:alpha" maskUnits="userSpaceOnUse" x="0" y="0" width="166" height="40">
<rect width="166" height="40" fill="#D9D9D9"/>
</mask>
<g mask="url(#mask0_3107_14)">
<path d="M26.8798 8.71278H21.8426C21.8426 8.71278 21.0735 8.71278 20.689 9.80874L14.5366 24.8876L12.3448 19.2567L12.2679 19.1811L10.6913 15.1752V15.1374C9.92224 13.3234 9.19164 11.9629 8.42259 11.1315C7.65354 10.1867 6.69222 9.50641 5.61555 9.0529C4.38507 8.52382 3.15458 8.22149 1.88565 8.37265C1.38576 8.37265 0.847426 8.44824 0.232184 8.56161C-0.113889 8.71278 0.0399212 9.12849 0.0399212 9.12849L0.924331 12.492C1.11659 13.021 1.42422 13.1722 1.46267 13.1722C1.80874 13.2478 2.23172 13.3612 2.50089 13.5123C3.00077 13.7013 3.3853 14.117 3.73137 14.6083C4.07745 15.1374 4.53888 16.0822 5.19257 17.4427L5.26948 17.5938H5.19257L6.57687 20.8439L10.9989 30.7832C11.0758 30.9721 11.345 31.3122 11.8064 31.3122H16.9591C17.5743 31.3122 17.805 30.7832 17.8435 30.7076L27.1875 9.39303C27.4951 8.71278 26.8798 8.71278 26.8798 8.71278ZM38.1465 8.56161C34.5704 8.56161 31.6864 9.58199 29.4946 11.6605C27.3797 13.7391 26.2646 16.4979 26.2646 19.9369C26.2646 23.3382 27.3797 26.097 29.4946 28.1755C31.6864 30.2541 34.5704 31.2744 38.1465 31.2744C41.7995 31.2744 44.6834 30.2541 46.7983 28.1755C48.9901 26.097 50.0283 23.4138 50.0283 19.9369C50.0283 16.4979 48.9901 13.7013 46.7983 11.6605C44.645 9.58199 41.7995 8.56161 38.1465 8.56161ZM42.2993 24.8121C41.2996 25.9836 39.9153 26.6261 38.1465 26.6261C36.3007 26.6261 34.9934 26.0214 33.9936 24.8121C32.9554 23.6405 32.4555 22.0533 32.4555 19.9747C32.4555 17.8962 33.0323 16.2333 33.9936 15.0618C34.9934 13.8902 36.3776 13.3234 38.1465 13.3234C39.9153 13.3234 41.2996 13.8902 42.2993 15.0618C43.3376 16.2333 43.8375 17.8206 43.8375 19.9747C43.8759 22.0533 43.2991 23.6405 42.2993 24.8121ZM81.175 11.6605C78.9832 9.58199 76.1761 8.56161 72.5231 8.56161C68.947 8.56161 66.0631 9.58199 63.8713 11.6605C61.7564 13.7391 60.6413 16.4979 60.6413 19.9369C60.6413 23.3382 61.7564 26.097 63.8713 28.1755C66.0631 30.2541 68.947 31.2744 72.5231 31.2744C76.1761 31.2744 79.0601 30.2541 81.175 28.1755C83.3668 26.097 84.405 23.4138 84.405 19.9369C84.405 16.5357 83.3668 13.7391 81.175 11.6605ZM76.676 24.8121C75.6762 25.9836 74.2919 26.6261 72.5231 26.6261C70.6774 26.6261 69.37 26.0214 68.3702 24.8121C67.332 23.6405 66.8321 22.0533 66.8321 19.9747C66.8321 17.8962 67.4089 16.2333 68.3702 15.0618C69.37 13.8902 70.7543 13.3234 72.5231 13.3234C74.2919 13.3234 75.6762 13.8902 76.676 15.0618C77.7142 16.2333 78.2141 17.8206 78.2141 19.9747C78.2141 22.0533 77.6373 23.6405 76.676 24.8121ZM59.6799 27.2685V27.1929C59.4108 27.0418 59.1416 26.7772 58.9109 26.5883C58.5648 26.1726 58.3725 25.7191 58.2187 25.1144C58.0649 24.5853 58.0265 23.5649 58.0265 22.2044V9.16628C58.0265 8.90174 57.7958 8.67499 57.5266 8.67499H52.9507C52.6816 8.67499 52.4508 8.90174 52.4508 9.16628L52.6431 17.745V19.1811L52.5662 22.1666C52.5662 24.2074 52.7585 25.7569 53.1045 26.815C53.4506 27.911 54.0659 28.8936 54.9118 29.8006C55.8731 30.7454 56.9113 31.5012 58.0649 31.8413C58.4879 31.9925 58.8724 32.1059 59.4492 32.1814C59.6415 32.257 60.0645 32.257 60.0645 31.6902V27.911C60.1029 27.8732 60.026 27.5331 59.6799 27.2685Z" fill="black"/>
<path d="M110.362 8.63676C113.592 8.63676 115.899 10.7153 115.899 13.6631C115.899 16.6486 113.553 18.7649 110.362 18.7649H106.209V8.63676H110.362ZM110.362 16.4974C112.015 16.4974 113.322 15.2881 113.322 13.6631C113.322 12.1136 112.054 10.9043 110.362 10.9043H108.785V16.4974H110.362ZM119.898 18.7649H117.36V8.63676H119.898V18.7649ZM132.203 18.7649H130.28L130.165 17.5556C129.434 18.4626 128.357 18.9917 126.896 18.9917C123.666 18.9917 121.436 16.7242 121.436 13.852C121.436 10.7153 123.782 8.4856 126.935 8.4856C129.434 8.4856 131.626 9.88389 132.049 12.3026H129.357C128.896 11.131 127.858 10.7909 126.935 10.7909C125.166 10.7909 123.974 12.0002 123.974 13.7764C123.974 15.3637 125.127 16.6486 126.973 16.6486C128.165 16.6486 129.088 16.0817 129.588 15.0991L126.627 15.0614V13.0962H132.126V18.7649H132.203ZM136.817 18.7649H134.279V8.63676H136.817V18.7649ZM143.777 10.9043V18.7649H141.239V10.9043H137.971V8.63676H147.084V10.8665H143.777V10.9043ZM149.314 17.0265L148.622 18.7649H145.892L150.275 8.59897H152.698L157.043 18.7649H154.351L153.659 17.0265H149.314ZM151.506 11.5089L150.16 14.8724H152.813L151.506 11.5089ZM165.81 18.7649H158.158V8.63676H160.735V16.5352H165.81V18.7649ZM108.67 29.6112L108.054 31.2362H105.517L109.593 21.7883H111.861L115.899 31.1984H113.399L112.746 29.5734H108.67V29.6112ZM110.708 24.5093L109.477 27.6082H111.938L110.708 24.5093ZM125.858 31.2362H124.089L123.974 30.1025C123.282 30.9339 122.282 31.4252 120.975 31.4252C117.975 31.4252 115.899 29.3466 115.899 26.6634C115.899 23.7535 118.091 21.6749 121.013 21.6749C123.32 21.6749 125.358 22.9598 125.781 25.1895H123.282C122.859 24.0936 121.897 23.7912 121.051 23.7912C119.436 23.7912 118.321 24.925 118.321 26.5878C118.321 28.0617 119.398 29.271 121.09 29.271C122.205 29.271 123.051 28.742 123.512 27.835L120.782 27.7972V25.9454H125.896V31.2362H125.858ZM130.088 25.6052H134.318V27.5704H130.088V29.1955H134.933V31.2362H127.742V21.8639H134.933V23.9046H130.088V25.6052ZM145.046 31.2362H143.2L138.663 26.0965V31.2362H136.279V21.8639H138.086L142.7 27.1547V21.8639H145.084V31.2362H145.046ZM153.89 27.3437H156.313C156.005 29.7623 154.121 31.4252 151.544 31.4252C148.66 31.4252 146.507 29.3844 146.507 26.55C146.507 23.7157 148.699 21.6749 151.544 21.6749C154.159 21.6749 156.043 23.3377 156.313 25.7564H153.89C153.621 24.5849 152.775 23.8668 151.506 23.8668C149.968 23.8668 148.853 25.0006 148.853 26.55C148.853 28.0995 149.929 29.2332 151.506 29.2332C152.813 29.2332 153.621 28.5152 153.89 27.3437ZM162.234 28.4018V31.2362H159.85V28.4018L156.082 21.8639H158.697L161.042 25.9454L163.388 21.8639H166.003L162.234 28.4018Z" fill="black"/>
<path d="M95.2109 8.33496H95.6339V31.01H95.2109V8.33496Z" fill="black"/>
<path d="M83.3678 9.20374V10.791H82.8295V9.20374H82.1758V8.75024H84.0215V9.20374H83.3678ZM86.5594 10.791H86.021V9.77062L85.5596 10.4887H85.252L84.7906 9.77062V10.791H84.2522V8.75024H84.6368L85.3674 9.8462L86.0979 8.75024H86.4825V10.791H86.5594Z" fill="black"/>
</g>
</svg>
