<svg width="166" height="40" viewBox="0 0 166 40" fill="none" xmlns="http://www.w3.org/2000/svg">
<mask id="mask0_3107_6" style="mask-type:alpha" maskUnits="userSpaceOnUse" x="0" y="0" width="166" height="40">
<rect width="166" height="40" fill="#D9D9D9"/>
</mask>
<g mask="url(#mask0_3107_6)">
<path d="M0 33.7263V29.4543L11.4569 16.7012H3.36234C2.61515 16.7012 1.9925 16.4499 1.43211 15.9473C0.933984 15.3819 0.622656 14.7537 0.622656 13.9998V12.2407H18.1193V16.8268L6.78695 29.0774H18.4929V33.7891H0V33.7263ZM41.3444 33.7263V23.2976C41.3444 21.2245 41.6557 19.4026 42.2783 18.0205C42.901 16.5755 43.7104 15.4447 44.8312 14.5652C45.8275 13.7485 47.0105 13.1831 48.3804 12.8061C49.7502 12.4292 51.1201 12.2407 52.6144 12.2407H55.1673V17.9576H51.4936C49.937 17.9576 48.8162 18.3346 48.069 19.0885C47.3218 19.8423 46.9483 21.036 46.9483 22.6694V33.7263H41.3444Z" fill="#B1B3B4"/>
<path d="M55.168 33.7258V8.84779C55.168 8.03109 55.4793 7.34004 56.0397 6.77463C56.6001 6.20922 57.285 5.8951 58.0945 5.83228H63.6361L69.1155 27.0666L74.5948 5.83228H83.0007V33.7258H77.7081V11.2979L72.1042 33.7887H66.2512L60.5851 11.2979V33.7887H55.168V33.7258ZM99.0652 32.8463C97.9444 33.4117 96.7614 33.7887 95.5161 33.9143C94.2708 34.0399 93.15 34.1028 92.216 34.1028C90.2858 34.1028 88.6046 33.6002 87.1725 32.5322C85.7404 31.4642 84.9932 29.768 84.9932 27.3179C84.9932 25.0562 85.6158 23.4228 86.9857 22.4805C88.2933 21.5381 89.9744 20.847 91.9669 20.5329C92.216 20.5329 92.5273 20.4701 92.9009 20.4073C93.2745 20.3445 93.7104 20.2816 94.2085 20.2188C96.5746 19.9047 97.7576 19.2136 97.7576 18.1456C97.7576 17.3289 97.3218 16.8264 96.5123 16.5751C95.7029 16.3238 94.8934 16.1981 94.2085 16.1981C93.4613 16.1981 92.7764 16.3238 92.216 16.5122C91.6556 16.7007 91.2198 17.1405 90.9084 17.7059H85.5536C85.7404 16.0097 86.4876 14.6904 87.7951 13.5595C89.2273 12.3031 91.282 11.6748 93.9594 11.6748C96.9482 11.6748 99.1897 12.1774 100.684 13.1826C102.241 14.2506 102.988 15.7584 102.988 17.7059V25.0562C102.988 27.1922 102.614 28.8884 101.805 30.0821C101.058 31.4642 100.186 32.3437 99.0652 32.8463ZM97.8199 22.9202C97.0727 23.2972 96.0142 23.6741 94.7066 23.9882L92.8387 24.3652C91.9047 24.6164 91.1575 24.9934 90.7839 25.4332C90.4103 25.9986 90.2235 26.6268 90.2235 27.1922C90.2235 28.0089 90.4726 28.6371 90.9707 29.1397C91.4688 29.5795 92.1537 29.768 93.0255 29.768C94.5198 29.768 95.7029 29.3282 96.5746 28.4487C97.4463 27.5691 97.8822 26.3755 97.8822 24.8677V22.9202H97.8199ZM153.174 27.1294H157.159C156.599 29.391 155.478 31.1501 153.797 32.2809C152.116 33.5374 150.061 34.1656 147.57 34.1656C144.519 34.1656 142.153 33.1604 140.41 31.1501C138.728 29.2025 137.857 26.4383 137.857 22.7946C137.857 19.3393 138.666 16.6379 140.347 14.6904C142.028 12.68 144.457 11.6748 147.508 11.6748C150.683 11.6748 153.174 12.6172 154.98 14.5647C156.661 16.5751 157.533 19.3393 157.533 22.9202V23.8626C157.533 24.1139 157.533 24.3023 157.47 24.428H143.523C143.585 26.1242 143.959 27.3179 144.706 28.1346C145.391 29.0141 146.449 29.4538 147.819 29.4538C148.753 29.4538 149.5 29.2654 150.123 28.8884C150.31 28.8256 150.434 28.7628 150.559 28.6371L150.995 28.1974C151.057 28.0089 151.244 27.8204 151.617 27.5691C152.053 27.255 152.489 27.1294 153.174 27.1294ZM143.523 20.847H151.68C151.555 19.4021 151.182 18.3341 150.559 17.6431C149.874 16.8892 148.878 16.5122 147.57 16.5122C146.387 16.5122 145.453 16.8892 144.706 17.6431C144.021 18.3341 143.585 19.4021 143.523 20.847Z" fill="#1A171B"/>
<path d="M130.385 20.4705L137.982 12.2407H131.257L124.47 20.1564V8.59691V5.89551H121.917C121.295 5.89551 120.672 6.08398 120.672 6.08398C119.24 6.64939 118.991 8.0315 118.991 8.0315C118.928 8.59691 118.928 9.66491 118.928 10.2303V12.2407H116.376C114.943 12.2407 113.511 12.4291 112.141 12.8061C110.772 13.183 109.589 13.7484 108.592 14.5651C107.534 15.4447 106.662 16.5755 106.039 18.0204C105.417 19.4653 105.105 21.2244 105.105 23.2976V33.7262H110.709V22.6693C110.709 21.0359 111.083 19.8423 111.83 19.0884C112.577 18.3345 113.698 17.9576 115.255 17.9576H118.866V33.7262H124.47V25.5592C124.47 25.1194 124.781 24.8053 125.342 24.6169C125.902 24.4284 126.649 24.9938 127.397 26.5016L131.319 33.7891H138.044L130.385 20.4705Z" fill="#1A171B"/>
<path d="M39.227 12.2407H33.6854V25.9362C33.6854 27.2555 33.3118 28.1978 32.5023 28.7633C31.7551 29.3287 30.8834 29.6428 29.8872 29.6428C28.9532 29.6428 28.0815 29.3287 27.3343 28.7633C26.5871 28.1978 26.2135 27.2555 26.2135 25.9362V12.2407H23.6606C23.038 12.2407 22.4153 12.4292 22.4153 12.4292C20.9209 12.9946 20.7341 14.3767 20.7341 14.3767C20.6719 14.5652 20.6719 14.8793 20.6719 15.1934V24.8682C20.6719 28.5748 21.6059 31.0249 23.5361 32.2185C25.4041 33.4122 27.5211 34.0404 29.8249 34.1661C32.191 34.1661 34.308 33.6007 36.3005 32.407C38.293 31.2134 39.2893 28.7004 39.2893 24.8682L39.227 12.2407Z" fill="#B1B3B4"/>
<path d="M161.828 5.83228C162.513 5.83228 163.198 6.02075 163.883 6.39768C164.568 6.77462 165.066 7.27721 165.439 7.96827C165.813 8.65932 166 9.35038 166 10.0414C166 10.7325 165.813 11.4235 165.439 12.1146C165.066 12.8057 164.568 13.3082 163.883 13.6852C163.198 14.0621 162.513 14.2506 161.828 14.2506C161.143 14.2506 160.458 14.0621 159.773 13.6852C159.088 13.3082 158.59 12.8057 158.217 12.1146C157.843 11.4235 157.656 10.7325 157.656 10.0414C157.656 9.28756 157.843 8.5965 158.217 7.96827C158.59 7.27721 159.088 6.77462 159.773 6.39768C160.458 6.02075 161.143 5.83228 161.828 5.83228ZM161.828 6.52333C161.268 6.52333 160.707 6.64898 160.147 6.96309C159.586 7.27721 159.151 7.71697 158.839 8.21956C158.528 8.78497 158.403 9.35038 158.403 9.97861C158.403 10.6068 158.528 11.1723 158.839 11.6748C159.151 12.1774 159.586 12.68 160.147 12.9313C160.707 13.2454 161.268 13.3711 161.89 13.3711C162.513 13.3711 163.073 13.2454 163.634 12.9313C164.194 12.6172 164.63 12.1774 164.879 11.6748C165.19 11.1094 165.315 10.544 165.315 9.97861C165.315 9.35038 165.19 8.78497 164.879 8.21956C164.568 7.65415 164.132 7.21439 163.571 6.96309C162.949 6.7118 162.388 6.52333 161.828 6.52333ZM160.022 12.3031V7.84262H161.579C162.077 7.84262 162.451 7.90544 162.7 7.96827C162.949 8.03109 163.136 8.21956 163.26 8.40803C163.385 8.5965 163.447 8.84779 163.447 9.03626C163.447 9.35038 163.322 9.66449 163.073 9.91579C162.824 10.1671 162.513 10.2927 162.139 10.2927C162.326 10.3556 162.451 10.4184 162.513 10.544C162.7 10.7325 162.887 11.0466 163.198 11.4235L163.758 12.3031H162.887L162.513 11.612C162.202 11.0466 161.953 10.7325 161.766 10.544C161.641 10.4184 161.454 10.4184 161.205 10.4184H160.77V12.3031H160.022ZM160.707 9.79014H161.579C162.015 9.79014 162.264 9.72732 162.451 9.60167C162.637 9.47603 162.7 9.28756 162.7 9.09909C162.7 8.97344 162.638 8.84779 162.575 8.72215C162.513 8.5965 162.388 8.53368 162.264 8.47085C162.139 8.40803 161.89 8.47085 161.579 8.47085H160.77V9.79014H160.707Z" fill="#1A171B"/>
</g>
</svg>
