<svg width="166" height="40" viewBox="0 0 166 40" fill="none" xmlns="http://www.w3.org/2000/svg">
<mask id="mask0_3107_23" style="mask-type:alpha" maskUnits="userSpaceOnUse" x="0" y="0" width="166" height="40">
<rect width="166" height="40" fill="#D9D9D9"/>
</mask>
<g mask="url(#mask0_3107_23)">
<path fill-rule="evenodd" clip-rule="evenodd" d="M145.895 1.71879H146.795V0.833496H146.342L145.895 1.26726V1.71879ZM146.907 2.60409H147.807V1.8291L147.695 1.71879H146.907V2.60409ZM147.807 3.5997H148.706V2.71439H147.807V3.5997ZM148.819 4.48406H149.718V3.71L149.606 3.5997H148.819V4.48406ZM149.718 5.48059H150.618V4.59436H149.718V5.48059ZM150.731 6.36496H151.629V5.59091L151.518 5.48059H150.731V6.36496ZM151.629 7.36056H152.53V6.4762H151.629V7.36056ZM152.643 8.24586H153.54V7.47181L153.429 7.36056H152.643V8.24586ZM153.54 9.2424H154.208L154.44 9.01617V8.35711H153.54V9.2424ZM144.995 2.60409H145.895V1.71879H145.429L144.995 2.13947V2.60409ZM146.008 3.5997H146.907V2.60409H146.008V3.5997ZM146.907 4.48406H147.807V3.5997H146.907V4.48406ZM147.807 5.48059H148.819V4.48406H147.92L147.807 5.48059ZM148.819 6.36496H149.718V5.48059H148.819V6.36496ZM149.718 7.36056H150.731V6.36496H149.718V7.36056ZM150.731 8.24586H151.629V7.36056H150.731V8.24586ZM151.629 9.13116H152.643V8.24586H151.629V9.13116ZM152.643 10.1268H153.295L153.54 9.88932V9.2424H152.643V10.1268ZM144.095 3.48845H144.995V2.60409H144.518L144.095 3.01261V3.48845ZM144.995 4.48406H145.895V3.5997H144.995V4.48406ZM146.008 5.36935H146.907V4.48406H146.008V5.36935ZM146.907 6.36496H147.807V5.48059H146.907V6.36496ZM147.92 7.25026H148.819V6.36496H147.92V7.25026ZM148.819 8.24586H149.718V7.36056H148.819V8.24586ZM149.831 9.13116H150.731V8.24586H149.831V9.13116ZM150.731 10.1268H151.629V9.2424H150.731V10.1268ZM151.743 11.0121H152.384L152.643 10.7625V10.1268H151.743V11.0121ZM143.197 4.48406H144.095V3.5997H143.492L143.197 3.88576V4.48406ZM144.095 5.36935H144.995V4.48406H144.095V5.36935ZM144.995 6.36496H146.008V5.48059H144.995V6.36496ZM146.008 7.25026H146.907V6.36496H146.008V7.25026ZM146.907 8.24586H147.92V7.25026H146.907V8.24586ZM147.92 9.13116H148.819V8.24586H147.92V9.13116ZM148.819 10.1268H149.718V9.13116H148.819V10.1268ZM149.831 11.0121H150.731V10.1268H149.831V11.0121ZM150.731 12.0077H151.358L151.629 11.744V11.0121H150.731V12.0077ZM142.184 5.36935H143.084V4.48406H142.581L142.184 4.86734V5.36935ZM143.197 6.25465H144.095V5.36935H143.197V6.25465ZM144.095 7.25026H144.995V6.36496H144.095V7.25026ZM145.108 8.13555H146.008V7.25026H145.108V8.13555ZM146.008 9.13116H146.907V8.24586H146.008V9.13116ZM147.02 10.0165H147.92V9.13116H147.02V10.0165ZM147.92 11.0121H148.819V10.1268H147.92V11.0121ZM148.931 11.8974H149.831V11.0121H148.931V11.8974ZM149.831 12.893H150.445L150.731 12.6172V12.0077H149.831V12.893ZM141.286 6.25465H142.184V5.36935H141.668L141.286 5.74048V6.25465ZM142.184 7.25026H143.197V6.36496H142.184V7.25026ZM143.197 8.13555H144.095V7.25026H143.197V8.13555ZM144.095 9.13116H144.995V8.24586H144.095V9.13116ZM145.108 10.0165H146.008V9.13116H145.108V10.0165ZM146.008 11.0121H146.907V10.1268H146.008V11.0121ZM147.02 11.8974H147.92V11.0121H147.02V11.8974ZM147.92 12.893H148.819V11.8974H147.92V12.893ZM148.931 13.7783H149.534L149.831 13.4903V12.893H148.931V13.7783ZM140.385 7.25026H141.286V6.25465H140.755L140.385 6.61456V7.25026ZM141.286 8.13555H142.184V7.25026H141.286V8.13555ZM142.297 9.13116H143.197V8.13555H142.297V9.13116ZM143.197 10.0165H144.095V9.13116H143.197V10.0165ZM144.208 10.9018H145.108V10.0165H144.208V10.9018ZM145.108 11.8974H146.008V11.0121H145.108V11.8974ZM146.12 12.7827H147.02V11.8974H146.12V12.7827ZM147.02 13.7783H147.92V12.893H147.02V13.7783ZM147.92 14.6626H148.621L148.931 14.3635V13.7783H147.92V14.6626ZM139.374 8.13555H140.272V7.25026H139.729L139.374 7.59521V8.13555ZM140.385 9.02085H141.286V8.13555H140.385V9.02085ZM141.286 10.0165H142.184V9.13116H141.286V10.0165ZM142.297 10.9018H143.197V10.0165H142.297V10.9018ZM143.197 11.8974H144.095V11.0121H143.197V11.8974ZM144.208 12.7827H145.108V11.8974H144.208V12.7827ZM145.108 13.7783H146.008V12.893H145.108V13.7783ZM146.12 14.6626H147.02V13.7783H146.12V14.6626ZM147.02 15.6582H147.597L147.92 15.3451V14.7739H147.02V15.6582ZM138.812 9.02085H139.374V8.13555H138.818L138.475 8.46836V8.68804L138.812 9.02085ZM139.824 10.0165H140.385V9.02085H139.486V9.68458L139.824 10.0165ZM140.723 10.9018H141.286V10.0165H140.385V10.5699L140.723 10.9018ZM141.734 11.8974H142.297V10.9018H141.397V11.5646L141.734 11.8974ZM142.635 12.7827H143.197V11.8974H142.297V12.4498L142.635 12.7827ZM143.535 13.668H144.208V12.7827H143.197V13.3351L143.535 13.668ZM144.546 14.6626H145.108V13.7783H144.208V14.3308L144.546 14.6626ZM145.446 15.5479H146.12V14.6626H145.108V15.216L145.446 15.5479ZM146.457 16.5445H146.684L147.02 16.2182V15.6582H146.12V16.2117L146.457 16.5445ZM146.12 24.2887H147.02V23.4071L147.016 23.4034H146.35L146.12 23.6315V24.2887ZM147.02 25.1749H147.92V24.3055L147.902 24.2887H147.02V25.1749ZM148.031 26.1696H148.931V25.3152L148.79 25.1749H148.031V26.1696ZM148.931 27.0549H149.831V26.2117L149.788 26.1696H148.931V27.0549ZM149.942 28.0505H150.842V27.2213L150.675 27.0549H149.942V28.0505ZM150.842 28.9358H151.743V28.1178L151.673 28.0505H150.842V28.9358ZM151.743 29.8192H152.754V29.1274L152.561 28.9358H151.743V29.8192ZM152.754 30.8167H153.653V30.0258L153.559 29.9305H152.754V30.8167ZM153.653 31.702H154.44L154.665 31.4795V31.0336L154.448 30.8167H153.653V31.702ZM145.108 25.1749H146.008V24.2887H145.463L145.108 24.6411V25.1749ZM146.12 26.0584H147.02V25.1749H146.12V26.0584ZM147.02 27.0549H147.92V26.1696H147.02V27.0549ZM148.031 27.9393H148.931V27.0549H148.031V27.9393ZM148.931 28.9358H149.831V28.0505H148.931V28.9358ZM149.942 29.8192H150.842V28.9358H149.942V29.8192ZM150.842 30.8167H151.743V29.9305H150.842V30.8167ZM151.856 31.702H152.754V30.8167H151.856V31.702ZM152.754 32.6967H153.429L153.653 32.4761V31.8114H152.754V32.6967ZM144.208 26.0584H145.108V25.1749H144.574L144.208 25.5395V26.0584ZM145.108 27.0549H146.12V26.1696H145.219L145.108 27.0549ZM146.12 27.9393H147.02V27.0549H146.12V27.9393ZM147.02 28.9358H148.031V27.9393H147.02V28.9358ZM148.031 29.8192H148.931V28.9358H148.031V29.8192ZM148.931 30.8167H149.942V29.8192H148.931V30.8167ZM149.942 31.702H150.842V30.8167H149.942V31.702ZM150.842 32.6967H151.743V31.702H150.842V32.6967ZM151.856 33.5829H152.53L152.754 33.3595V32.6967H151.856V33.5829ZM143.309 26.9437H144.208V26.0584H143.687L143.309 26.436V26.9437ZM144.208 27.9393H145.108V27.0549H144.208V27.9393ZM145.219 28.8246H146.12V27.9393H145.219V28.8246ZM146.12 29.8192H147.02V28.9358H146.12V29.8192ZM147.133 30.7055H148.031V29.8192H147.133V30.7055ZM148.031 31.702H148.931V30.8167H148.031V31.702ZM149.045 32.5854H149.942V31.702H149.045V32.5854ZM149.942 33.5829H150.842V32.6967H149.942V33.5829ZM150.955 34.4682H151.629L151.856 34.2457V33.5829H150.955V34.4682ZM142.297 27.9393H143.309V27.0549H142.688L142.297 27.4457V27.9393ZM143.309 28.8246H144.208V27.9393H143.309V28.8246ZM144.208 29.8192H145.219V28.9358H144.208V29.8192ZM145.219 30.7055H146.12V29.8192H145.219V30.7055ZM146.12 31.702H147.02V30.8167H146.12V31.702ZM147.133 32.5854H148.031V31.702H147.133V32.5854ZM148.031 33.5829H148.931V32.5854H148.031V33.5829ZM149.045 34.4682H149.942V33.5829H149.045V34.4682ZM149.942 35.4629H150.618L150.842 35.2423V34.4682H149.942V35.4629ZM141.397 28.8246H142.297V27.9393H141.802L141.397 28.3422V28.8246ZM142.41 29.8192H143.309V28.8246H142.41V29.8192ZM143.309 30.7055H144.208V29.8192H143.309V30.7055ZM144.322 31.5908H145.219V30.7055H144.322V31.5908ZM145.219 32.5854H146.12V31.702H145.219V32.5854ZM146.233 33.4717H147.133V32.5854H146.233V33.4717ZM147.133 34.4682H148.031V33.5829H147.133V34.4682ZM148.144 35.3516H149.045V34.4682H148.144V35.3516ZM149.045 36.3491H149.718L149.942 36.1257V35.4629H149.045V36.3491ZM140.499 29.7099H141.397V28.8246H140.914L140.499 29.2387V29.7099ZM141.397 30.7055H142.297V29.8192H141.397V30.7055ZM142.41 31.5908H143.309V30.7055H142.41V31.5908ZM143.309 32.5854H144.208V31.702H143.309V32.5854ZM144.322 33.4717H145.219V32.5854H144.322V33.4717ZM145.219 34.4682H146.12V33.5829H145.219V34.4682ZM146.233 35.3516H147.133V34.4682H146.233V35.3516ZM147.133 36.3491H148.031V35.4629H147.133V36.3491ZM148.144 37.2325H148.819L149.045 37.0119V36.3491H148.144V37.2325ZM139.599 30.7055H140.499V29.7099H140.027L139.599 30.1371V30.7055ZM140.499 31.5908H141.397V30.7055H140.499V31.5908ZM141.51 32.5854H142.41V31.5908H141.51V32.5854ZM142.41 33.4717H143.309V32.5854H142.41V33.4717ZM143.422 34.4682H144.322V33.4717H143.422V34.4682ZM144.322 35.3516H145.219V34.4682H144.322V35.3516ZM145.219 36.2379H146.233V35.3516H145.219V36.2379ZM146.233 37.2325H147.133V36.3491H146.233V37.2325ZM147.133 38.1178H147.92L148.144 37.8972V37.2325H147.133V38.1178ZM138.812 31.5908H139.486V30.7055H139.029L138.586 31.1467V31.3701L138.812 31.5908ZM139.71 32.4761H140.499V31.5908H139.599V32.3648L139.71 32.4761ZM140.723 33.4717H141.397V32.5854H140.499V33.2501L140.723 33.4717ZM141.621 34.357H142.41V33.4717H141.51V34.2457L141.621 34.357ZM142.635 35.3516H143.309V34.4682H142.41V35.131L142.635 35.3516ZM143.535 36.2379H144.322V35.3516H143.422V36.1257L143.535 36.2379ZM144.546 37.2325H145.219V36.3491H144.322V37.0119L144.546 37.2325ZM145.446 38.1178H146.233V37.2325H145.332V38.0085L145.446 38.1178ZM146.457 39.1134H146.907L147.133 38.8919V38.2291H146.233V38.8919L146.457 39.1134ZM166.135 20.4166H166.024V20.5278L166.135 20.4166ZM165.124 21.4113H165.01V21.5225L165.124 21.4113ZM164.223 22.2966H164.11V22.4087L164.223 22.2966ZM163.212 23.2922H163.099V23.4034L163.212 23.2922ZM162.313 24.1775H162.199V24.2887L162.313 24.1775ZM160.401 26.0584H160.288V26.1696L160.401 26.0584ZM159.501 26.9437H159.387V27.0549L159.501 26.9437ZM158.49 27.9393H158.376V28.0505L158.49 27.9393ZM165.124 20.4166H166.024V19.6425L165.911 19.5304H165.124V20.4166ZM164.11 21.3019H165.01V20.4166H164.11V21.3019ZM163.212 22.2966H164.11V21.4113H163.212V22.2966ZM162.199 23.1828H163.099V22.2966H162.199V23.1828ZM161.299 24.1775H162.199V23.2922H161.299V24.1775ZM160.288 25.0628H161.188V24.1775H160.288V25.0628ZM159.387 26.0584H160.288V25.1749H159.387V26.0584ZM158.376 26.9437H159.276V26.0584H158.376V26.9437ZM158.037 27.9393H158.376V27.0549H157.477V27.3971L158.037 27.9393ZM164.11 19.5304H165.01V18.646H164.11V19.5304ZM163.212 20.4166H164.11V19.5304H163.212V20.4166ZM162.199 21.4113H163.212V20.5278H162.199V21.4113ZM161.299 22.2966H162.199V21.4113H161.299V22.2966ZM160.288 23.2922H161.299V22.4087H160.288V23.2922ZM159.387 24.1775H160.288V23.2922H159.387V24.1775ZM158.376 25.1749H159.387V24.1775H158.376V25.1749ZM157.477 26.0584H158.376V25.1749H157.477V26.0584ZM157.124 27.0549H157.477V26.0584H156.578V26.5239L157.124 27.0549ZM163.212 18.5357H164.11V17.7607L163.999 17.6504H163.212V18.5357ZM162.313 19.5304H163.212V18.646H162.313V19.5304ZM161.299 20.4166H162.199V19.5304H161.299V20.4166ZM160.401 21.4113H161.299V20.5278H160.401V21.4113ZM159.387 22.2966H160.288V21.4113H159.387V22.2966ZM158.49 23.2922H159.387V22.4087H158.49V23.2922ZM157.477 24.1775H158.376V23.2922H157.477V24.1775ZM156.578 25.1749H157.477V24.2887H156.578V25.1749ZM156.098 26.0584H156.465V25.1749H155.565V25.5414L156.098 26.0584ZM162.313 17.6504H163.212V16.8763L163.099 16.7651H162.313V17.6504ZM161.299 18.646H162.199V17.7607H161.299V18.646ZM160.401 19.5304H161.299V18.646H160.401V19.5304ZM159.387 20.5278H160.288V19.5304H159.387V20.5278ZM158.49 21.4113H159.387V20.5278H158.49V21.4113ZM157.477 22.4087H158.49V21.4113H157.477V22.4087ZM156.578 23.2922H157.477V22.4087H156.578V23.2922ZM155.565 24.1775H156.578V23.2922H155.565V24.1775ZM155.187 25.1749H155.565V24.2887H154.665V24.6692L155.187 25.1749ZM161.299 16.7651H162.313V15.991L162.199 15.8798H161.299V16.7651ZM160.401 17.6504H161.299V16.7651H160.401V17.6504ZM159.501 18.646H160.401V17.7607H159.501V18.646ZM158.49 19.5304H159.387V18.646H158.49V19.5304ZM157.59 20.5278H158.49V19.6425H157.59V20.5278ZM156.578 21.4113H157.477V20.5278H156.578V21.4113ZM155.678 22.4087H156.578V21.5225H155.678V22.4087ZM154.665 23.2922H155.565V22.4087H154.665V23.2922ZM154.276 24.2887H154.665V23.4034H153.767V23.7942L154.276 24.2887ZM160.401 15.8798H161.299V14.9945L161.188 14.8842H160.401V15.8798ZM159.501 16.7651H160.401V15.8798H159.501V16.7651ZM158.49 17.7607H159.387V16.7651H158.49V17.7607ZM157.59 18.646H158.49V17.7607H157.59V18.646ZM156.578 19.5304H157.477V18.646H156.578V19.5304ZM155.678 20.5278H156.578V19.6425H155.678V20.5278ZM154.665 21.4113H155.565V20.5278H154.665V21.4113ZM153.767 22.4087H154.665V21.5225H153.767V22.4087ZM153.249 23.2922H153.767V22.4087H152.754V22.8135L153.249 23.2922ZM159.501 14.8842H160.401V14.1101L160.288 13.9989H159.501V14.8842ZM158.49 15.8798H159.501V14.9945H158.49V15.8798ZM157.59 16.7651H158.49V15.8798H157.59V16.7651ZM156.578 17.7607H157.59V16.8763H156.578V17.7607ZM155.678 18.646H156.578V17.7607H155.678V18.646ZM154.778 19.6425H155.678V18.7563H154.778V19.6425ZM153.767 20.5278H154.665V19.6425H153.767V20.5278ZM152.867 21.5225H153.767V20.6372H152.867V21.5225ZM152.337 22.4087H152.754V21.5225H151.856V21.9394L152.337 22.4087ZM158.601 13.9989H159.501V13.2248L159.387 13.1145H158.601V13.9989ZM157.59 14.8842H158.49V13.9989H157.59V14.8842ZM156.69 15.8798H157.59V14.9945H156.69V15.8798ZM155.678 16.7651H156.578V15.8798H155.678V16.7651ZM154.778 17.7607H155.678V16.8763H154.778V17.7607ZM153.767 18.646H154.665V17.7607H153.767V18.646ZM152.867 19.6425H153.767V18.7563H152.867V19.6425ZM151.856 20.5278H152.754V19.6425H151.856V20.5278ZM151.425 21.5225H151.856V20.6372H150.955V21.0663L151.425 21.5225ZM157.59 13.1145H158.49V12.2283H158.037L157.59 12.6621V13.1145ZM156.69 13.9989H157.59V13.1145H157.124L156.69 13.5361V13.9989ZM155.678 14.9945H156.69V14.1101H156.098L155.678 14.5177V14.9945ZM154.778 15.8798H155.678V14.9945H155.187L154.778 15.3909V15.8798ZM153.767 16.8763H154.778V15.991H154.16L153.767 16.3743V16.8763ZM152.867 17.7607H153.767V16.8763H153.249L152.867 17.2465V17.7607ZM151.856 18.7563H152.867V17.7607H152.337L151.922 18.1636L151.856 18.7563ZM150.955 19.6425H151.856V18.7563H151.311L150.955 19.1022V19.6425ZM150.512 20.6372H150.955V19.6425H150.398L150.055 19.9744V20.1932L150.512 20.6372ZM134.651 12.893H135.55V12.1245L135.433 12.0077H134.768L134.651 12.1245V12.893ZM135.55 13.8886H136.45V13.022L136.32 12.893H135.55V13.8886ZM136.563 14.7739H137.461V14.0307L137.318 13.8886H136.563V14.7739ZM137.461 15.7695H138.362V14.9281L138.207 14.7739H137.461V15.7695ZM138.362 16.6548H139.374V15.9378L139.205 15.7695H138.362V16.6548ZM139.374 17.6504H140.272V16.8352L140.093 16.6548H139.374V17.6504ZM140.272 18.5357H141.286V17.8439L141.091 17.6504H140.272V18.5357Z" fill="#0055FF"/>
<path fill-rule="evenodd" clip-rule="evenodd" d="M141.282 19.4206H142.18V18.7419L141.974 18.5353H141.282V19.4206ZM142.18 20.4162H142.743L143.08 20.0834V19.6384L142.973 19.53H142.18V20.4162ZM133.635 13.7779H134.535V12.8926H133.878L133.635 13.1328V13.7779ZM134.648 14.7735H135.547V13.8882H134.648V14.7735ZM135.547 15.6578H136.446V14.7735H135.547V15.6578ZM136.559 16.6544H137.457V15.7691H136.559V16.6544ZM137.457 17.5397H138.358V16.6544H137.457V17.5397ZM138.471 18.5353H139.371V17.65H138.471V18.5353ZM139.371 19.4206H140.269V18.5353H139.371V19.4206ZM140.382 20.4162H141.282V19.53H140.382V20.4162ZM141.282 21.3015H141.844L142.18 20.9696V20.4162H141.282V21.3015ZM132.735 14.7735H133.635V13.8882H132.88L132.735 14.0303V14.7735ZM133.635 15.6578H134.648V14.7735H133.635V15.6578ZM134.648 16.6544H135.547V15.7691H134.648V16.6544ZM135.547 17.5397H136.559V16.6544H135.547V17.5397ZM136.559 18.5353H137.457V17.5397H136.559V18.5353ZM137.457 19.4206H138.358V18.5353H137.457V19.4206ZM138.471 20.4162H139.371V19.4206H138.471V20.4162ZM139.371 21.3015H140.269V20.4162H139.371V21.3015ZM140.382 22.2962H140.831L141.282 21.8549V21.3015H140.382V22.2962ZM131.836 15.6578H132.735V14.7735H131.99L131.836 14.9277V15.6578ZM132.735 16.5441H133.635V15.6578H132.735V16.5441ZM133.748 17.5397H134.648V16.6544H133.748V17.5397ZM134.648 18.424H135.547V17.5397H134.648V18.424ZM135.66 19.4206H136.559V18.5353H135.66V19.4206ZM136.559 20.3049H137.457V19.4206H136.559V20.3049ZM137.57 21.3015H138.471V20.4162H137.57V21.3015ZM138.471 22.1849H139.371V21.3015H138.471V22.1849ZM139.482 23.1824H139.933L140.382 22.7402V22.2962H139.482V23.1824ZM130.824 16.5441H131.836V15.6578H131.104L130.824 15.9374V16.5441ZM131.836 17.5397H132.735V16.6544H131.836V17.5397ZM132.735 18.424H133.635V17.5397H132.735V18.424ZM133.748 19.4206H134.648V18.5353H133.748V19.4206ZM134.648 20.3049H135.547V19.4206H134.648V20.3049ZM135.66 21.3015H136.559V20.4162H135.66V21.3015ZM136.559 22.1849H137.457V21.3015H136.559V22.1849ZM137.57 23.1824H138.471V22.1849H137.57V23.1824ZM138.471 24.0677H139.033L139.371 23.7358V23.1824H138.471V24.0677ZM129.926 17.5397H130.824V16.5441H130.217L129.926 16.8348V17.5397ZM130.937 18.424H131.836V17.5397H130.937V18.424ZM131.836 19.4206H132.735V18.424H131.836V19.4206ZM132.848 20.3049H133.748V19.4206H132.848V20.3049ZM133.748 21.1902H134.648V20.3049H133.748V21.1902ZM134.759 22.1849H135.66V21.3015H134.759V22.1849ZM135.66 23.0711H136.559V22.1849H135.66V23.0711ZM136.559 24.0677H137.57V23.1824H136.559V24.0677ZM137.57 24.9511H138.133L138.471 24.6211V24.0677H137.57V24.9511Z" fill="#0055FF"/>
<path fill-rule="evenodd" clip-rule="evenodd" d="M129.025 18.4244H129.926V17.54H129.218L129.025 17.7317V18.4244ZM129.926 19.3097H130.823V18.4244H129.926V19.3097ZM130.937 20.3053H131.836V19.4209H130.937V20.3053ZM131.836 21.1906H132.735V20.3053H131.836V21.1906ZM132.848 22.1853H133.748V21.3018H132.848V22.1853ZM133.748 23.0715H134.648V22.1853H133.748V23.0715ZM134.759 24.068H135.659V23.1828H134.759V24.068ZM135.659 24.9515H136.559V24.068H135.659V24.9515ZM136.67 25.949H137.122L137.57 25.5049V25.0627H136.67V25.949ZM128.125 19.3097H129.025V18.4244H128.331L128.125 18.6291V19.3097ZM129.025 20.3053H129.926V19.3097H129.025V20.3053ZM130.037 21.1906H130.937V20.3053H130.037V21.1906ZM130.937 22.1853H131.836V21.1906H130.937V22.1853ZM131.836 23.0715H132.848V22.1853H131.947L131.836 23.0715ZM132.848 23.9568H133.748V23.0715H132.848V23.9568ZM133.748 24.9515H134.759V24.068H133.748V24.9515ZM134.759 25.8377H135.659V24.9515H134.759V25.8377ZM135.659 26.8324H136.221L136.67 26.3902V25.949H135.659V26.8324ZM127.225 20.195H128.014V19.3097H127.442L127.114 19.6388V20.0837L127.225 20.195ZM128.238 21.1906H129.025V20.3053H128.125V21.0812L128.238 21.1906ZM129.138 22.0759H129.926V21.1906H129.025V21.9647L129.138 22.0759ZM130.15 23.0715H130.937V22.1853H130.037V22.9612L130.15 23.0715ZM131.05 23.9568H131.836V23.0715H130.937V23.8456L131.05 23.9568ZM132.061 24.9515H132.848V24.068H131.947V24.8421L132.061 24.9515ZM132.961 25.8377H133.748V24.9515H132.848V25.7255L132.961 25.8377ZM133.972 26.8324H134.759V25.949H133.859V26.723L133.972 26.8324ZM134.873 27.7177H135.321L135.659 27.3858V26.8324H134.759V27.6083L134.873 27.7177Z" fill="#0055FF"/>
<path fill-rule="evenodd" clip-rule="evenodd" d="M146.569 22.519C146.939 22.5225 147.306 22.4533 147.649 22.3155C147.991 22.1777 148.302 21.974 148.564 21.7164C148.826 21.4588 149.032 21.1525 149.172 20.8153C149.312 20.4781 149.382 20.1169 149.378 19.7528C149.378 18.315 148.142 16.9875 146.569 16.9875C144.993 16.9875 143.757 18.315 143.757 19.7528C143.754 20.117 143.824 20.4784 143.964 20.8156C144.104 21.1528 144.311 21.4592 144.573 21.7168C144.834 21.9744 145.146 22.178 145.489 22.3158C145.831 22.4535 146.199 22.5226 146.569 22.519ZM2.75234 26.8332H-0.845703L2.86541 6.91923H8.60024C12.7607 6.91923 14.222 9.79574 14.222 12.2301C14.222 16.3237 10.9612 19.3115 5.1143 19.3115L5.56465 16.7669H6.35229C8.60119 16.5462 10.5118 15.3291 10.5118 12.4516C10.5118 11.5663 9.83727 9.24325 7.70144 9.24325H6.12712L2.75234 26.8332ZM27.4902 26.8332H24.0043L24.4546 24.7317V24.6223L23.7801 25.3964C23.3297 25.9498 21.5312 27.1661 19.3953 27.1661C16.8091 27.1661 15.2348 24.9533 15.2348 21.8561C15.2348 17.3194 18.7198 12.2301 23.2176 12.2301C24.3425 12.2301 25.8038 12.6732 26.4793 13.5575L26.7035 12.5619H30.1895L27.4902 26.8332ZM23.3297 14.5532C21.8685 14.5532 18.945 16.5444 18.945 21.5233C18.945 23.5155 19.8447 24.6214 21.1939 24.6214C22.8803 24.6214 25.4665 22.9621 26.1411 15.6591C25.1283 14.6635 24.6789 14.5532 23.3297 14.5532ZM39.4093 26.2817C38.2844 26.8332 37.0473 27.1651 35.9233 27.1651C33.3372 27.1651 31.875 25.8376 32.7747 22.0768L34.349 14.5532H32.5495L32.8868 12.5619H34.6863L35.3609 9.13201L38.9589 8.35795L38.1713 12.5619H41.5451L41.2078 14.5532H37.7219L36.2597 21.6346C35.6972 24.5102 36.71 24.843 37.4967 24.843C38.1713 24.843 38.7338 24.6223 39.1832 24.3989L39.4093 26.2817ZM47.0557 15.2169L47.2809 15.3281C49.4167 12.8938 51.3283 12.2301 53.1278 12.2301C55.0395 12.2301 56.1634 13.1154 56.1634 15.5497C56.1634 16.3237 56.0504 17.3203 55.8261 18.6478L54.1397 26.8342H50.6538L52.3402 18.6478C52.5654 17.7625 52.5654 17.209 52.5654 16.6566C52.6784 15.1075 52.0029 14.7756 51.1032 14.7756C49.4167 14.7756 46.7175 17.984 45.9308 22.0777L45.0311 26.8342H41.5451L45.5935 5.92456H49.0785L47.0557 15.2169ZM62.1225 26.8332H58.5244L62.2356 6.91923H67.9704C72.1309 6.91923 73.7052 9.79574 73.7052 12.2301C73.7052 16.3237 70.4445 19.3115 64.4844 19.3115L64.9338 16.7669H65.7215C68.0825 16.5462 69.882 15.3291 69.882 12.4516C69.882 11.5663 69.2074 9.24325 67.0706 9.24325H65.4963L62.1225 26.8332ZM74.4919 20.9708C74.4919 14.9963 78.9897 12.2301 82.5877 12.2301C87.0855 12.2301 88.6589 15.3281 88.6589 18.2046C88.6589 22.7424 85.7364 27.1661 80.6761 27.1661C76.8529 27.1651 74.4919 24.2895 74.4919 20.9708ZM84.9497 18.0934C84.9497 16.1022 84.163 14.3325 82.3626 14.3325C79.1018 14.3325 78.2021 18.5375 78.2021 20.7502C78.2021 23.4052 79.1018 25.0645 81.3507 25.0645C82.4756 25.0636 84.9497 24.1783 84.9497 18.0934ZM96.4175 12.5619L93.8322 26.8332H90.3454L93.0455 12.5619H96.4175ZM93.4949 8.35795C93.7192 7.2511 94.731 6.14518 95.969 6.14518C97.0939 6.14518 97.8806 7.25203 97.6555 8.35795C97.4312 9.57512 96.4175 10.681 95.0683 10.681C93.9434 10.681 93.2698 9.57512 93.4949 8.35795ZM103.278 15.2169L103.389 15.3281C105.527 12.8938 107.326 12.2301 109.236 12.2301C111.261 12.2301 112.385 13.1154 112.385 15.5497C112.385 16.3237 112.272 17.3203 112.048 18.6478L110.249 26.8342H106.875L108.562 18.6478C108.673 17.7625 108.786 17.209 108.786 16.6566C108.897 15.1075 108.223 14.7756 107.213 14.7756C105.637 14.7756 102.826 17.984 102.152 22.0777L101.253 26.8342H97.7676L100.466 12.5629H103.951L103.278 15.2169ZM122.393 26.2817C121.268 26.8332 119.919 27.1651 118.795 27.1651C116.321 27.1651 114.859 25.8376 115.647 22.0768L117.22 14.5532H115.421L115.759 12.5619H117.557L118.233 9.13201L121.942 8.35795L121.044 12.5619H124.529L124.08 14.5532H120.706L119.244 21.6346C118.57 24.5102 119.695 24.843 120.369 24.843C121.155 24.843 121.607 24.6223 122.169 24.3989L122.393 26.2817ZM11.6358 33.4725C11.1864 33.1406 10.3988 32.8097 9.6121 32.8097C7.70049 32.8097 6.4644 34.1372 6.4644 36.0181C6.4644 37.899 7.92661 39.2265 9.6121 39.2265C10.3997 39.2265 11.0743 38.8946 11.5237 38.673L11.9731 39.2265C11.4106 39.6686 10.5109 40.0005 9.49904 40.0005C6.68768 40.0005 5.33853 38.1196 5.33853 36.0181C5.33853 34.0259 6.91285 32.0338 9.61115 32.0338C10.7361 32.0338 11.5228 32.4778 12.0852 32.8097L11.6358 33.4725ZM18.944 35.9059C18.944 33.6931 20.5184 32.0328 22.7672 32.0328C25.0161 32.0328 26.7026 33.6922 26.7026 35.9059C26.7026 38.1196 25.2404 39.9996 22.7672 39.9996C20.4062 39.9996 18.944 38.1187 18.944 35.9059ZM25.4665 35.9059C25.4665 34.469 24.7919 32.8097 22.7682 32.8097C20.8566 32.8097 20.0699 34.469 20.0699 35.9059C20.0699 37.3446 20.8566 39.2255 22.7682 39.2255C24.7919 39.2255 25.4665 37.3446 25.4665 35.9059ZM40.9836 39.8902H40.1969C38.3974 37.898 35.5861 34.469 35.1367 33.6931H35.0245V39.8902H34.1248V32.145H35.0245C36.711 34.1372 39.5223 37.5662 40.0848 38.2309V32.145H40.9846L40.9836 39.8902ZM52.4523 33.3603C52.115 33.1397 51.6656 32.8088 51.1032 32.8088C50.4286 32.8088 49.9783 33.2509 49.9783 33.8034C49.9783 34.3559 50.4286 34.7981 51.4405 35.5731C52.4523 36.2378 53.1269 37.0118 53.1269 38.0084C53.1269 39.2246 51.8899 39.9986 50.6528 39.9986C49.9783 39.9986 49.0785 39.6668 48.516 39.2246L48.9664 38.5599C49.4158 38.8918 49.9783 39.2246 50.6528 39.2246C51.4405 39.2246 52.002 38.7824 52.002 37.8971C52.002 37.0118 50.878 36.349 50.2025 35.905C49.5279 35.4628 48.8533 34.9103 48.8533 33.8034C48.8533 32.8088 49.8652 32.0319 51.1022 32.0319C51.8187 32.0315 52.506 32.3105 53.0138 32.8078L52.4523 33.3603ZM61.561 32.145V36.7921C61.561 38.4515 62.2356 39.2265 63.5847 39.2265C65.0469 39.2265 65.4963 38.1196 65.4963 37.0137V32.146H66.5082V37.0137C66.5082 38.7852 65.4963 40.0005 63.5847 40.0005C61.4479 40.0005 60.5491 38.7843 60.5491 36.9043V32.146L61.561 32.145ZM74.2667 32.145H75.3917V39.1143H78.6515V39.8902H74.2667V32.145ZM87.3098 39.8902V32.9191H84.7245V32.145H90.7966V32.9191H88.3226V39.8902H87.3098ZM97.7685 32.145H98.8925V39.8902H97.7685V32.145ZM113.621 39.8902H112.723C111.037 37.898 108.111 34.469 107.663 33.6931V39.8902H106.763V32.145H107.55C109.236 34.1372 112.162 37.5662 112.61 38.2309H112.723V32.145H113.621V39.8902ZM127.903 36.3499V39.4461C127.116 39.6668 126.217 39.9996 125.205 39.9996C122.504 39.9996 121.044 38.1187 121.044 36.0171C121.044 34.025 122.618 32.0328 125.429 32.0328C126.554 32.0328 127.454 32.3647 127.903 32.8088L127.454 33.4716C127.002 33.1397 126.216 32.8088 125.429 32.8088C123.404 32.8088 122.28 34.1362 122.28 36.0171C122.28 37.898 123.629 39.2255 125.316 39.2255C125.878 39.2255 126.441 39.1143 126.891 38.8937V36.3499H127.903Z" fill="#0D1720"/>
</g>
</svg>
