<svg width="166" height="40" viewBox="0 0 166 40" fill="none" xmlns="http://www.w3.org/2000/svg">
<mask id="mask0_3333_13" style="mask-type:alpha" maskUnits="userSpaceOnUse" x="0" y="0" width="166" height="40">
<path d="M166 0H0V40H166V0Z" fill="#D9D9D9"/>
</mask>
<g mask="url(#mask0_3333_13)">
<path d="M0 33.7258V29.4538L11.4569 16.7007H3.36234C2.61515 16.7007 1.9925 16.4494 1.43211 15.9468C0.933984 15.3814 0.622656 14.7532 0.622656 13.9993V12.2402H18.1193V16.8263L6.78695 29.0769H18.4929V33.7886H0V33.7258ZM41.3444 33.7258V23.2971C41.3444 21.224 41.6557 19.4021 42.2783 18.02C42.901 16.575 43.7104 15.4442 44.8312 14.5647C45.8275 13.748 47.0105 13.1826 48.3804 12.8056C49.7502 12.4287 51.1201 12.2402 52.6144 12.2402H55.1673V17.9571H51.4936C49.937 17.9571 48.8162 18.3341 48.069 19.088C47.3218 19.8418 46.9483 21.0355 46.9483 22.6689V33.7258H41.3444Z" fill="#B1B3B4"/>
<path d="M55.168 33.7256V8.84754C55.168 8.03084 55.4793 7.33979 56.0397 6.77438C56.6001 6.20897 57.285 5.89485 58.0945 5.83203H63.6361L69.1155 27.0664L74.5948 5.83203H83.0007V33.7256H77.7081V11.2977L72.1042 33.7885H66.2512L60.5851 11.2977V33.7885H55.168V33.7256ZM99.0652 32.8461C97.9444 33.4115 96.7614 33.7885 95.5161 33.9141C94.2708 34.0397 93.15 34.1026 92.216 34.1026C90.2858 34.1026 88.6046 33.6 87.1725 32.532C85.7404 31.464 84.9932 29.7677 84.9932 27.3176C84.9932 25.0559 85.6158 23.4226 86.9857 22.4803C88.2933 21.5379 89.9744 20.8468 91.9669 20.5327C92.216 20.5327 92.5273 20.4699 92.9009 20.4071C93.2745 20.3443 93.7104 20.2814 94.2085 20.2186C96.5746 19.9045 97.7576 19.2134 97.7576 18.1454C97.7576 17.3287 97.3218 16.8262 96.5123 16.5749C95.7029 16.3236 94.8934 16.1979 94.2085 16.1979C93.4613 16.1979 92.7764 16.3236 92.216 16.512C91.6556 16.7005 91.2198 17.1403 90.9084 17.7057H85.5536C85.7404 16.0095 86.4876 14.6902 87.7951 13.5593C89.2273 12.3029 91.282 11.6746 93.9594 11.6746C96.9482 11.6746 99.1897 12.1772 100.684 13.1824C102.241 14.2504 102.988 15.7582 102.988 17.7057V25.056C102.988 27.192 102.614 28.8882 101.805 30.0819C101.058 31.464 100.186 32.3435 99.0652 32.8461ZM97.8199 22.92C97.0727 23.297 96.0142 23.6738 94.7066 23.9879L92.8387 24.365C91.9047 24.6162 91.1575 24.9932 90.7839 25.433C90.4103 25.9984 90.2235 26.6266 90.2235 27.192C90.2235 28.0087 90.4726 28.6369 90.9707 29.1395C91.4688 29.5793 92.1537 29.7677 93.0255 29.7677C94.5198 29.7677 95.7029 29.328 96.5746 28.4485C97.4463 27.5689 97.8822 26.3753 97.8822 24.8675V22.92H97.8199ZM153.174 27.1292H157.159C156.599 29.3908 155.478 31.1499 153.797 32.2807C152.116 33.5372 150.061 34.1654 147.57 34.1654C144.519 34.1654 142.153 33.1602 140.41 31.1499C138.728 29.2023 137.857 26.438 137.857 22.7943C137.857 19.339 138.666 16.6377 140.347 14.6902C142.028 12.6798 144.457 11.6746 147.508 11.6746C150.683 11.6746 153.174 12.617 154.98 14.5645C156.661 16.5749 157.533 19.3391 157.533 22.92V23.8624C157.533 24.1137 157.533 24.302 157.47 24.4277H143.523C143.585 26.1239 143.959 27.3176 144.706 28.1343C145.391 29.0138 146.449 29.4536 147.819 29.4536C148.753 29.4536 149.5 29.2651 150.123 28.8881C150.31 28.8253 150.434 28.7626 150.559 28.6369L150.995 28.1972C151.057 28.0087 151.244 27.8202 151.617 27.5689C152.053 27.2548 152.489 27.1292 153.174 27.1292ZM143.523 20.8468H151.68C151.555 19.4019 151.182 18.3339 150.559 17.6429C149.874 16.889 148.878 16.512 147.57 16.512C146.387 16.512 145.453 16.889 144.706 17.6429C144.021 18.3339 143.585 19.4019 143.523 20.8468Z" fill="white"/>
<path d="M130.385 20.4705L137.982 12.2407H131.257L124.47 20.1564V8.59691V5.89551H121.917C121.295 5.89551 120.672 6.08398 120.672 6.08398C119.24 6.64939 118.991 8.0315 118.991 8.0315C118.928 8.59691 118.928 9.66491 118.928 10.2303V12.2407H116.376C114.943 12.2407 113.511 12.4291 112.141 12.8061C110.772 13.183 109.589 13.7484 108.592 14.5651C107.534 15.4447 106.662 16.5755 106.039 18.0204C105.417 19.4653 105.105 21.2244 105.105 23.2976V33.7262H110.709V22.6693C110.709 21.0359 111.083 19.8423 111.83 19.0884C112.577 18.3345 113.698 17.9576 115.255 17.9576H118.866V33.7262H124.47V25.5592C124.47 25.1194 124.781 24.8053 125.342 24.6169C125.902 24.4284 126.649 24.9938 127.397 26.5016L131.319 33.7891H138.044L130.385 20.4705Z" fill="white"/>
<path d="M39.227 12.2402H33.6854V25.9357C33.6854 27.255 33.3118 28.1973 32.5023 28.7628C31.7551 29.3282 30.8834 29.6423 29.8872 29.6423C28.9532 29.6423 28.0815 29.3282 27.3343 28.7628C26.5871 28.1973 26.2135 27.255 26.2135 25.9357V12.2402H23.6606C23.038 12.2402 22.4153 12.4287 22.4153 12.4287C20.9209 12.9941 20.7341 14.3762 20.7341 14.3762C20.6719 14.5647 20.6719 14.8788 20.6719 15.1929V24.8677C20.6719 28.5743 21.6059 31.0244 23.5361 32.218C25.4041 33.4117 27.5211 34.0399 29.8249 34.1656C32.191 34.1656 34.308 33.6002 36.3005 32.4065C38.293 31.2129 39.2893 28.6999 39.2893 24.8677L39.227 12.2402Z" fill="#B1B3B4"/>
<path d="M161.828 5.83203C162.513 5.83203 163.198 6.0205 163.883 6.39743C164.568 6.77437 165.066 7.27696 165.439 7.96802C165.813 8.65907 166 9.35013 166 10.0412C166 10.7323 165.813 11.4233 165.439 12.1144C165.066 12.8055 164.568 13.308 163.883 13.685C163.198 14.0619 162.513 14.2504 161.828 14.2504C161.143 14.2504 160.458 14.0619 159.773 13.685C159.088 13.308 158.59 12.8055 158.217 12.1144C157.843 11.4233 157.656 10.7323 157.656 10.0412C157.656 9.28731 157.843 8.59625 158.217 7.96802C158.59 7.27696 159.088 6.77437 159.773 6.39743C160.458 6.0205 161.143 5.83203 161.828 5.83203ZM161.828 6.52308C161.268 6.52308 160.707 6.64873 160.147 6.96284C159.586 7.27696 159.151 7.71672 158.839 8.21931C158.528 8.78472 158.403 9.35013 158.403 9.97836C158.403 10.6066 158.528 11.1721 158.839 11.6746C159.151 12.1772 159.586 12.6798 160.147 12.9311C160.707 13.2452 161.268 13.3709 161.89 13.3709C162.513 13.3709 163.073 13.2452 163.634 12.9311C164.194 12.617 164.63 12.1772 164.879 11.6746C165.19 11.1092 165.315 10.5438 165.315 9.97836C165.315 9.35013 165.19 8.78472 164.879 8.21931C164.568 7.6539 164.132 7.21414 163.571 6.96284C162.949 6.71155 162.388 6.52308 161.828 6.52308ZM160.022 12.3029V7.84237H161.579C162.077 7.84237 162.451 7.90519 162.7 7.96802C162.949 8.03084 163.136 8.21931 163.26 8.40778C163.385 8.59625 163.447 8.84754 163.447 9.03601C163.447 9.35013 163.322 9.66424 163.073 9.91554C162.824 10.1669 162.513 10.2925 162.139 10.2925C162.326 10.3554 162.451 10.4182 162.513 10.5438C162.7 10.7323 162.887 11.0464 163.198 11.4233L163.758 12.3029H162.887L162.513 11.6118C162.202 11.0464 161.953 10.7323 161.766 10.5438C161.641 10.4182 161.454 10.4182 161.205 10.4182H160.77V12.3029H160.022ZM160.707 9.78989H161.579C162.015 9.78989 162.264 9.72707 162.451 9.60142C162.637 9.47578 162.7 9.28731 162.7 9.09884C162.7 8.97319 162.638 8.84754 162.575 8.7219C162.513 8.59625 162.388 8.53343 162.264 8.4706C162.139 8.40778 161.89 8.4706 161.579 8.4706H160.77V9.78989H160.707Z" fill="white"/>
</g>
</svg>
