<svg width="70" height="70" viewBox="0 0 70 70" fill="none" xmlns="http://www.w3.org/2000/svg">
<path d="M67.0841 9.3809V27.8733C67.0841 29.5244 66.4282 31.1079 65.2607 32.2755C64.0931 33.443 62.5096 34.0989 60.8585 34.0989H57.4547V41.944C57.4547 43.4906 55.6085 44.2905 54.4797 43.2332L44.7337 34.0989H31.4454C29.7942 34.0989 28.2107 33.443 27.0432 32.2755C25.8756 31.1079 25.2197 29.5244 25.2197 27.8733V9.3809C25.2197 7.72976 25.8756 6.14625 27.0432 4.97872C28.2107 3.81119 29.7942 3.15527 31.4454 3.15527H60.8585C62.5096 3.15527 64.0931 3.81119 65.2607 4.97872C66.4282 6.14625 67.0841 7.72976 67.0841 9.3809Z" fill="#0593FC"/>
<path d="M44.7807 34.1314V50.9854C44.7824 51.803 44.6226 52.6128 44.3105 53.3684C43.9983 54.1241 43.54 54.8106 42.9618 55.3886C42.3836 55.9666 41.6969 56.4247 40.9412 56.7366C40.1854 57.0484 39.3755 57.2079 38.5579 57.2059H25.2784L15.5258 66.3686C14.3912 67.4194 12.542 66.6202 12.542 65.0663V57.2059H9.13753C8.32013 57.2077 7.51041 57.0481 6.75488 56.7361C5.99935 56.4242 5.31288 55.966 4.73488 55.388C4.15689 54.81 3.69876 54.1236 3.3868 53.368C3.07483 52.6125 2.91518 51.8028 2.91701 50.9854V32.493C2.91518 31.6756 3.07483 30.8659 3.3868 30.1103C3.69876 29.3548 4.15689 28.6683 4.73488 28.0904C5.31288 27.5124 5.99935 27.0542 6.75488 26.7423C7.51041 26.4303 8.32013 26.2706 9.13753 26.2725H25.2353V27.8694C25.2335 28.6868 25.3932 29.4965 25.7051 30.252C26.0171 31.0075 26.4752 31.694 27.0532 32.272C27.6312 32.85 28.3177 33.3081 29.0732 33.6201C29.8287 33.932 30.6385 34.0917 31.4559 34.0899H44.7376L44.7807 34.1314Z" fill="#FFBC45"/>
<path d="M54.5577 16.3953H37.746C36.5852 16.3953 35.6445 15.4554 35.6445 14.2938C35.6445 13.1323 36.5852 12.1924 37.746 12.1924H54.5577C55.7185 12.1924 56.6591 13.1323 56.6591 14.2938C56.6591 15.4554 55.7185 16.3953 54.5577 16.3953ZM54.5577 24.8011H37.746C36.5852 24.8011 35.6445 23.8612 35.6445 22.6997C35.6445 21.5381 36.5852 20.5982 37.746 20.5982H54.5577C55.7185 20.5982 56.6591 21.5381 56.6591 22.6997C56.6591 23.8612 55.7185 24.8011 54.5577 24.8011Z" fill="#2D5DA3"/>
<path d="M16.2841 43.7354C15.9895 43.7354 15.7372 43.6531 15.4856 43.567C15.2404 43.4469 15.0138 43.2922 14.8126 43.1076C14.6026 42.894 14.4349 42.6847 14.3511 42.4346C14.2249 42.1801 14.1826 41.8885 14.1826 41.5932C14.1826 41.047 14.3926 40.5016 14.8126 40.1195C15.5702 39.3233 16.9564 39.3233 17.7548 40.1195C17.9648 40.3332 18.1332 40.5424 18.2178 40.7925C18.344 41.047 18.3863 41.3387 18.3863 41.5932C18.3863 41.8885 18.344 42.1801 18.2178 42.4346C18.134 42.6847 17.9655 42.894 17.7548 43.1076C17.3771 43.4846 16.8302 43.7354 16.2841 43.7354ZM24.6899 43.7354C24.3953 43.7354 24.143 43.6531 23.8915 43.567C23.6463 43.4469 23.4196 43.2922 23.2185 43.1076C22.7985 42.7263 22.5885 42.1801 22.5885 41.5932C22.5885 41.3387 22.6307 41.047 22.7569 40.7925C22.8407 40.5424 23.0085 40.3332 23.2185 40.1195C23.3869 39.9102 23.6392 39.787 23.8915 39.6601C24.6476 39.3648 25.6145 39.5333 26.1599 40.1195C26.5806 40.5009 26.7906 41.047 26.7906 41.5932C26.7906 42.1801 26.5806 42.7263 26.1599 43.1076C25.9929 43.2717 25.7399 43.4401 25.4876 43.567C25.2361 43.6531 24.9845 43.7354 24.6899 43.7354ZM33.0957 43.7354C32.5489 43.7354 32.0027 43.4853 31.6243 43.1076C31.2043 42.7263 30.9943 42.1801 30.9943 41.5932C30.9943 41.047 31.2043 40.5016 31.6243 40.1195C32.3819 39.3233 33.8096 39.3233 34.5665 40.1195C34.7765 40.3332 34.9449 40.5424 35.0295 40.7925C35.1556 41.047 35.1979 41.3387 35.1979 41.5932C35.1979 42.1801 34.9879 42.7263 34.5672 43.1076C34.1888 43.4846 33.6419 43.7354 33.0957 43.7354Z" fill="#9B7B15"/>
<path d="M16.2829 18.4969H12.08C10.9191 18.4969 9.97852 17.557 9.97852 16.3954C9.97852 15.2338 10.9191 14.2939 12.08 14.2939H16.2829C16.5589 14.2939 16.8321 14.3483 17.0871 14.4539C17.342 14.5595 17.5737 14.7143 17.7688 14.9094C17.964 15.1046 18.1188 15.3362 18.2244 15.5912C18.33 15.8462 18.3843 16.1194 18.3843 16.3954C18.3843 16.6714 18.33 16.9446 18.2244 17.1996C18.1188 17.4546 17.964 17.6862 17.7688 17.8814C17.5737 18.0765 17.342 18.2313 17.0871 18.3369C16.8321 18.4425 16.5589 18.4969 16.2829 18.4969ZM58.3121 56.3238H54.1091C52.9483 56.3238 52.0077 55.3839 52.0077 54.2224C52.0077 53.0608 52.9483 52.1209 54.1091 52.1209H58.3121C59.4729 52.1209 60.4135 53.0608 60.4135 54.2224C60.4135 55.3839 59.4729 56.3238 58.3121 56.3238Z" fill="#E07B2F"/>
</svg>
