<svg width="54" height="54" viewBox="0 0 54 54" fill="none" xmlns="http://www.w3.org/2000/svg">
<mask id="mask0_3347_9" style="mask-type:alpha" maskUnits="userSpaceOnUse" x="0" y="0" width="54" height="54">
<rect width="54" height="54" fill="#D9D9D9"/>
</mask>
<g mask="url(#mask0_3347_9)">
</g>
<g clip-path="url(#clip0_3347_9)">
<path d="M34.266 17.0229H35.9138L40.6083 12.3065L40.8391 10.3053C32.1043 2.55986 18.7701 3.39444 11.0607 12.17C8.91718 14.6078 7.36217 17.5072 6.51562 20.6454C7.03849 20.4294 7.61794 20.3953 8.16344 20.5454L17.5501 18.9899C17.5501 18.9899 18.0277 18.1963 18.2744 18.2463C22.4506 13.6391 29.4787 13.1024 34.2999 17.0229H34.266Z" fill="#EA4335"/>
<path d="M47.2941 20.6455C46.2144 16.6545 44.0007 13.0661 40.9201 10.3213L34.3334 16.9388C37.1152 19.2219 38.6996 22.6626 38.6317 26.2715V27.4472C41.8708 27.4472 44.4942 30.0851 44.4942 33.337C44.4942 36.5912 41.8685 39.2268 38.6317 39.2268H26.9046L25.7344 40.4184V47.4839L26.9046 48.6596H38.6317C45.3543 48.7119 51.3186 44.3343 53.315 37.8851C55.3068 31.4336 52.8623 24.4295 47.2941 20.6455Z" fill="#4285F4"/>
<path d="M15.161 48.5937H26.8881V39.1632H15.161C14.3258 39.1632 13.4996 38.9835 12.7391 38.6333L11.0912 39.145L6.36508 43.8614L5.95312 45.5169C8.60367 47.5271 11.8382 48.6073 15.161 48.5937Z" fill="#34A853"/>
<path d="M15.1617 17.9986C8.64739 18.0373 2.87776 22.2284 0.79988 28.4297C-1.278 34.6311 0.79309 41.476 5.9561 45.4647L12.7579 38.6311C9.80629 37.2917 8.49573 33.8033 9.82893 30.8379C11.1621 27.8726 14.6343 26.5559 17.5859 27.8953C18.8851 28.4866 19.9263 29.5326 20.5148 30.8379L27.3166 24.0044C24.4216 20.2045 19.9241 17.9827 15.1617 17.9986Z" fill="#FBBC05"/>
</g>
<defs>
<clipPath id="clip0_3347_9">
<rect width="54" height="43.6596" fill="white" transform="translate(0 5)"/>
</clipPath>
</defs>
</svg>
