<svg width="54" height="54" viewBox="0 0 54 54" fill="none" xmlns="http://www.w3.org/2000/svg">
<g clip-path="url(#clip0_2568_1292)">
<path fill-rule="evenodd" clip-rule="evenodd" d="M19.7988 0C16.8138 0.00220183 14.3979 2.41982 14.4002 5.3989C14.3979 8.37798 16.816 10.7956 19.801 10.7978H25.2019V5.4011C25.2041 2.42202 22.7861 0.00440367 19.7988 0C19.801 0 19.801 0 19.7988 0ZM19.7988 14.4H5.40089C2.41584 14.4022 -0.00220021 16.8198 6.02939e-06 19.7989C-0.00440646 22.778 2.41364 25.1956 5.39868 25.2H19.7988C22.7839 25.1978 25.2019 22.7802 25.1997 19.8011C25.2019 16.8198 22.7839 14.4022 19.7988 14.4Z" fill="#36C5F0"/>
<path fill-rule="evenodd" clip-rule="evenodd" d="M54.0005 19.7989C54.0027 16.8198 51.5847 14.4022 48.5996 14.4C45.6146 14.4022 43.1965 16.8198 43.1987 19.7989V25.2H48.5996C51.5847 25.1978 54.0027 22.7802 54.0005 19.7989ZM39.6003 19.7989V5.3989C39.6026 2.42202 37.1867 0.00440367 34.2017 0C31.2166 0.00220183 28.7986 2.41982 28.8008 5.3989V19.7989C28.7964 22.778 31.2144 25.1956 34.1995 25.2C37.1845 25.1978 39.6026 22.7802 39.6003 19.7989Z" fill="#2EB67D"/>
<path fill-rule="evenodd" clip-rule="evenodd" d="M34.1997 54C37.1848 53.9978 39.6028 51.5802 39.6006 48.6012C39.6028 45.6221 37.1848 43.2045 34.1997 43.2023H28.7988V48.6012C28.7966 51.578 31.2147 53.9956 34.1997 54ZM34.1997 39.5978H48.5999C51.5849 39.5956 54.003 37.178 54.0007 34.1989C54.0052 31.2199 51.5871 28.8023 48.6021 28.7979H34.2019C31.2169 28.8001 28.7988 31.2177 28.801 34.1967C28.7988 37.178 31.2147 39.5956 34.1997 39.5978Z" fill="#ECB22E"/>
<path fill-rule="evenodd" clip-rule="evenodd" d="M1.50855e-06 34.1987C-0.00220473 37.1778 2.41584 39.5954 5.40088 39.5976C8.38593 39.5954 10.804 37.1778 10.8018 34.1987V28.7998H5.40088C2.41584 28.802 -0.00220473 31.2196 1.50855e-06 34.1987ZM14.4001 34.1987V48.5987C14.3957 51.5778 16.8138 53.9954 19.7988 53.9998C22.7839 53.9976 25.2019 51.58 25.1997 48.6009V34.2031C25.2041 31.224 22.7861 28.8064 19.801 28.802C16.8138 28.802 14.3979 31.2196 14.4001 34.1987Z" fill="#E01E5A"/>
</g>
<defs>
<clipPath id="clip0_2568_1292">
<rect width="54" height="54" fill="white"/>
</clipPath>
</defs>
</svg>
