<svg width="54" height="54" viewBox="0 0 54 54" fill="none" xmlns="http://www.w3.org/2000/svg">
<path d="M3.68191 48.0628H12.2728V27.1992L0 17.9946V44.3811C0 46.4153 1.64763 48.063 3.68191 48.063V48.0628Z" fill="#4285F4"/>
<path d="M41.7266 48.0628H50.3175C52.3517 48.0628 53.9993 46.4152 53.9993 44.381V17.9946L41.7266 27.1992V48.0628Z" fill="#34A853"/>
<path d="M41.7266 11.2449V27.1995L53.9993 17.9949V13.0859C53.9993 8.53575 48.805 5.937 45.1629 8.66769L41.7266 11.2449Z" fill="#FBBC04"/>
<path fill-rule="evenodd" clip-rule="evenodd" d="M12.2734 27.1992V11.2446L27.0007 22.2902L41.7279 11.2446V27.1992L27.0007 38.2446L12.2734 27.1992Z" fill="#EA4335"/>
<path d="M0 13.0859V17.9949L12.2728 27.1995V11.2449L8.83638 8.6677C5.19434 5.93701 0 8.53576 0 13.0857V13.0859Z" fill="#C5221F"/>
</svg>
