<svg width="54" height="54" viewBox="0 0 54 54" fill="none" xmlns="http://www.w3.org/2000/svg">
<g clip-path="url(#clip0_2568_1271)">
<path d="M51.748 28.4058C51.0702 41.4698 40.228 51.7495 26.998 51.7495C13.3321 51.7495 2.24805 40.6683 2.24805 26.9995C2.24805 13.3308 13.3321 2.24951 26.998 2.24951H47.8105C49.9677 2.24951 51.748 4.02982 51.748 6.18701V28.4058Z" fill="#1A73E8"/>
<path opacity="0.2" d="M47.8105 2.24951H26.998C13.3293 2.24951 2.24805 13.3251 2.24805 26.9855V26.9798C2.32398 13.3842 13.3771 2.53076 26.998 2.53076H47.8105C49.9705 2.53076 51.748 4.31107 51.748 6.46826V6.18701C51.748 4.02982 49.9705 2.24951 47.8105 2.24951Z" fill="white"/>
<path d="M51.748 28.4058V27.8433C51.0702 40.9101 40.2309 51.4683 26.998 51.4683C13.3771 51.4683 2.3268 40.3251 2.25086 26.7183C2.25086 26.7661 2.24805 26.9517 2.24805 26.9995C2.24805 40.6711 13.3293 51.7748 26.998 51.7495C40.439 51.7242 51.149 41.4501 51.748 28.1245" fill="#1A237E" fill-opacity="0.2"/>
<path d="M37.127 31.7817C37.127 34.1667 35.2707 35.7164 32.9082 35.7192H18.8457C16.486 35.7221 14.6298 34.1836 14.627 31.8014V33.188C14.6298 35.573 16.486 37.4096 18.8457 37.4067H32.9082C35.2679 37.4039 37.1298 35.573 37.127 33.188V31.7817ZM43.8769 32.9067C43.8685 33.6014 42.946 33.9811 42.4707 33.4692L37.127 28.1255V29.5317L42.4707 34.8755C43.0332 35.4127 43.8769 35.0752 43.8769 34.313V32.9067Z" fill="#185ABC"/>
<path d="M42.4688 19.4062L37.125 24.75V28.1278L42.4688 33.4687C42.9666 33.9975 43.875 33.6319 43.875 32.9062V19.9687C43.875 19.26 42.9778 18.9056 42.4688 19.4062Z" fill="#F1F3F4"/>
<path d="M32.9082 16.875H18.8457C16.486 16.8778 14.6241 18.7706 14.627 21.0938V31.7813C14.6298 34.1044 16.486 36.0028 18.8457 36H32.9082C35.2679 35.9972 37.1298 34.1044 37.127 31.7813V21.0938C37.1241 18.7706 35.2679 16.8722 32.9082 16.875Z" fill="white"/>
<path d="M37.125 28.4625L37.1278 28.125L38.25 29.25V23.625L37.125 24.75V28.4625Z" fill="#BDC1C6"/>
</g>
<defs>
<clipPath id="clip0_2568_1271">
<rect width="54" height="54" fill="white"/>
</clipPath>
</defs>
</svg>
