<svg width="54" height="54" viewBox="0 0 54 54" fill="none" xmlns="http://www.w3.org/2000/svg">
<g clip-path="url(#clip0_2568_1111)">
<path d="M41.2114 12.7892L28.4221 11.3682L12.7904 12.7892L11.3691 26.9998L12.7902 41.2105L27.0008 42.9868L41.2114 41.2105L42.6324 26.6448L41.2114 12.7892Z" fill="white"/>
<path d="M18.621 34.8368C17.5588 34.1191 16.8234 33.0713 16.4219 31.6856L18.8875 30.6696C19.1113 31.5223 19.502 32.183 20.0599 32.6519C20.6142 33.1209 21.2892 33.3518 22.0778 33.3518C22.8843 33.3518 23.5771 33.1066 24.156 32.6163C24.7349 32.126 25.0265 31.5007 25.0265 30.7441C25.0265 29.9698 24.7209 29.3372 24.1099 28.8471C23.4988 28.3571 22.7315 28.1116 21.8149 28.1116H20.3903V25.6711H21.6691C22.4577 25.6711 23.1222 25.4581 23.6622 25.0317C24.2022 24.6054 24.4722 24.0227 24.4722 23.2802C24.4722 22.6196 24.2305 22.0936 23.7475 21.6994C23.2645 21.3052 22.6532 21.1062 21.9107 21.1062C21.186 21.1062 20.6104 21.2982 20.1841 21.6854C19.7577 22.0725 19.4486 22.5485 19.2534 23.1099L16.8128 22.0939C17.136 21.1772 17.7295 20.3672 18.5997 19.6674C19.4702 18.9675 20.582 18.6157 21.932 18.6157C22.9302 18.6157 23.8291 18.8077 24.625 19.1949C25.4207 19.5821 26.046 20.1185 26.4972 20.8006C26.9484 21.4861 27.1722 22.2537 27.1722 23.1061C27.1722 23.9766 26.9627 24.7118 26.5434 25.3158C26.1241 25.9198 25.6089 26.3815 24.9979 26.7049V26.8505C25.7869 27.1757 26.4723 27.7101 26.9802 28.3959C27.4954 29.0888 27.7546 29.9166 27.7546 30.8829C27.7546 31.8492 27.5094 32.7124 27.0191 33.4692C26.5288 34.226 25.8503 34.8227 24.9906 35.2561C24.1274 35.6894 23.1576 35.9098 22.0811 35.9098C20.8342 35.9133 19.6832 35.5544 18.621 34.8368ZM33.7516 22.6017L31.0586 24.5592L29.7051 22.5059L34.5616 19.0029H36.4232V35.5261H33.7516V22.6017Z" fill="#1A73E8"/>
<path d="M41.2112 54.0005L54.0005 41.2112L47.6058 38.3691L41.2112 41.2112L38.3691 47.6058L41.2112 54.0005Z" fill="#EA4335"/>
<path d="M9.94727 47.6051L12.7893 53.9998H41.2103V41.2104H12.7893L9.94727 47.6051Z" fill="#34A853"/>
<path d="M4.26303 0C1.90782 0 0 1.90782 0 4.26303V41.2104L6.39468 44.0524L12.7894 41.2104V12.7894H41.2104L44.0524 6.39468L41.2106 0H4.26303Z" fill="#4285F4"/>
<path d="M0 41.2104V49.7368C0 52.0923 1.90782 53.9998 4.26303 53.9998H12.7894V41.2104H0Z" fill="#188038"/>
<path d="M41.2109 12.7893V41.2103H54.0003V12.7893L47.6056 9.94727L41.2109 12.7893Z" fill="#FBBC04"/>
<path d="M54.0003 12.7894V4.26303C54.0003 1.90755 52.0925 0 49.7373 0H41.2109V12.7894H54.0003Z" fill="#1967D2"/>
</g>
<defs>
<clipPath id="clip0_2568_1111">
<rect width="54" height="54" fill="white"/>
</clipPath>
</defs>
</svg>
