<svg width="54" height="54" viewBox="0 0 54 54" fill="none" xmlns="http://www.w3.org/2000/svg">
<path d="M14.2188 46.7025L15.1012 47.1403C18.6989 49.2641 22.8121 50.3742 26.9981 50.3511C39.8848 50.3219 50.473 39.7891 50.473 26.9999C50.473 20.8192 47.9995 14.8836 43.601 10.5081C39.2083 6.08747 33.207 3.59619 26.9525 3.59619C14.1247 3.59619 3.57031 14.0721 3.57031 26.8015C3.57031 26.9022 3.57031 27.0014 3.57179 27.1021C3.61042 31.43 4.83012 35.6666 7.1012 39.3615L7.6894 40.2371L5.33649 48.8479L14.2188 46.7025Z" fill="#00E676"/>
<path d="M46.2203 7.88141C41.213 2.81125 34.3438 -0.033175 27.191 0.00029202H27.1454C12.4147 0.00033774 0.292674 12.0306 0.292674 26.6499C0.292674 26.7185 0.294148 26.7857 0.294148 26.8543C0.349633 31.5023 1.56207 36.0646 3.82356 40.1352L0 54L14.2499 50.3514C18.1865 52.4962 22.6121 53.6018 27.1028 53.5622C41.888 53.4819 54.0085 41.3831 53.9997 26.7083C54.035 19.6577 51.2335 12.8771 46.2203 7.88141ZM27.191 49.0379C23.2104 49.0585 19.2998 47.9986 15.8823 45.973L14.9999 45.5352L6.51466 47.7244L8.72052 39.4055L8.13231 38.5298C5.94732 35.0285 4.78972 30.9917 4.78966 26.8732C4.78966 14.7277 14.8602 4.73331 27.0984 4.73331C39.3365 4.73331 49.407 14.7277 49.407 26.8732C49.407 34.5207 45.4145 41.6458 38.8674 45.6811C35.4048 47.8824 31.3767 49.0478 27.2646 49.0379M40.191 32.838L38.5733 32.1083C38.5733 32.1083 36.2204 31.0866 34.7498 30.3569C34.6027 30.3569 34.4557 30.211 34.3086 30.211C33.946 30.2199 33.5918 30.3203 33.2792 30.5029C32.966 30.6853 33.1321 30.6488 31.0733 32.9839C30.9337 33.2569 30.6469 33.4276 30.3381 33.4218H30.191C29.9699 33.385 29.765 33.2834 29.6028 33.1299L28.8675 32.838C27.2898 32.1751 25.8452 31.2358 24.6028 30.0651C24.3087 29.7731 23.8675 29.4812 23.5734 29.1893C22.4847 28.1543 21.5446 26.9758 20.7793 25.6867L20.6322 25.3948C20.5045 25.2164 20.4053 25.0195 20.3381 24.811C20.2996 24.5582 20.3517 24.3 20.4852 24.0813C20.619 23.8624 21.0734 23.3515 21.5146 22.9137C21.9558 22.4759 21.9558 22.184 22.2499 21.8921C22.401 21.6838 22.5055 21.4457 22.5562 21.194C22.6069 20.9422 22.6028 20.6826 22.544 20.4326C21.8586 18.5442 21.0732 16.693 20.1911 14.8868C19.9546 14.5218 19.5862 14.2606 19.1616 14.157H17.544C17.2499 14.157 16.9558 14.303 16.6616 14.303L16.5146 14.4489C16.2205 14.5948 15.9264 14.8868 15.6322 15.0327C15.3381 15.1786 15.1911 15.6165 14.897 15.9084C13.8689 17.1977 13.3001 18.7886 13.2793 20.4326C13.2956 21.5891 13.5456 22.7306 14.0146 23.7894L14.1617 24.2272C15.4821 27.029 17.3288 29.5552 19.6028 31.6704L20.1911 32.2542C20.6191 32.6061 21.013 32.997 21.3675 33.4218C24.4145 36.0531 28.0336 37.9504 31.941 38.9677C32.3821 39.1136 32.9704 39.1136 33.4115 39.2596H34.8822C35.6508 39.2219 36.4026 39.023 37.088 38.6758C37.4483 38.5138 37.7924 38.3182 38.1174 38.092L38.4115 37.8001C38.7057 37.5082 38.9998 37.3623 39.2939 37.0704C39.5813 36.8162 39.8291 36.5211 40.0292 36.1947C40.3115 35.5409 40.51 34.8549 40.6174 34.1515V33.1299C40.4853 33.012 40.3367 32.9137 40.1762 32.838" fill="white"/>
</svg>
