<svg width="54" height="54" viewBox="0 0 54 54" fill="none" xmlns="http://www.w3.org/2000/svg">
<path d="M40.5495 18.2795V11.9379C41.3876 11.5462 42.0971 10.9245 42.5956 10.1453C43.0941 9.366 43.361 8.46119 43.3653 7.53613V7.39063C43.3653 4.6935 41.1788 2.50704 38.4819 2.50704H38.3362C35.6391 2.50704 33.4526 4.6935 33.4526 7.39063V7.53613C33.4569 8.46119 33.7238 9.366 34.2223 10.1453C34.7208 10.9245 35.4303 11.5462 36.2684 11.9379V18.2795C33.8598 18.6484 31.5914 19.6471 29.6929 21.1746L12.3005 7.62769C12.4245 7.18 12.4892 6.71962 12.4965 6.25753C12.4986 5.16915 12.1779 4.10459 11.5749 3.19851C10.972 2.29243 10.1138 1.58553 9.10901 1.16723C8.10423 0.748928 6.99795 0.63802 5.93013 0.848532C4.8623 1.05904 3.88089 1.58152 3.11005 2.34987C2.3392 3.11822 1.81355 4.09793 1.59957 5.16507C1.3856 6.2322 1.49292 7.33883 1.90796 8.34496C2.323 9.3511 3.02711 10.2115 3.93123 10.8175C4.83535 11.4234 5.89886 11.7475 6.98724 11.7489C7.93938 11.7444 8.87367 11.4902 9.69684 11.0117L26.8234 24.3388C23.6747 29.0953 23.7589 35.2945 27.0355 39.964L21.8265 45.1745C21.4053 45.04 20.9668 44.9684 20.5247 44.9624C18.03 44.9645 16.0091 46.9877 16.0097 49.4823C16.0103 51.9768 18.0326 53.9988 20.5271 53.9995C23.0217 54.0001 25.0448 51.9791 25.047 49.4845C25.0411 49.0425 24.9695 48.6038 24.8346 48.1829L29.9878 43.0278C34.5922 46.5724 40.916 46.8778 45.8406 43.7934C50.7651 40.7088 53.2503 34.8855 52.0703 29.1959C50.8904 23.5061 46.2946 19.1517 40.5495 18.2795ZM38.4136 39.1368C37.4616 39.1624 36.5141 38.997 35.627 38.6504C34.74 38.3037 33.9314 37.7829 33.249 37.1186C32.5666 36.4543 32.0242 35.66 31.6538 34.7826C31.2835 33.9052 31.0927 32.9625 31.0927 32.0102C31.0927 31.0578 31.2835 30.1151 31.6538 29.2378C32.0242 28.3604 32.5666 27.5661 33.249 26.9018C33.9314 26.2375 34.74 25.7166 35.627 25.37C36.5141 25.0234 37.4616 24.858 38.4136 24.8836C42.25 25.0179 45.2913 28.166 45.2934 32.005C45.2951 35.8436 42.2571 38.9949 38.4207 39.1331" fill="#FF7A59"/>
</svg>
