<svg width="54" height="54" viewBox="0 0 54 54" fill="none" xmlns="http://www.w3.org/2000/svg">
<mask id="mask0_2643_9" style="mask-type:alpha" maskUnits="userSpaceOnUse" x="0" y="0" width="54" height="54">
<rect width="54" height="54" fill="#D9D9D9"/>
</mask>
<g mask="url(#mask0_2643_9)">
</g>
<g clip-path="url(#clip0_2643_9)">
<path d="M1.11523 37.9457L19.0703 7.76172L34.6287 16.4798L16.6758 46.6638L1.11523 37.9457Z" fill="#FBBC04"/>
<path d="M52.732 37.8403L34.7659 7.64557C32.4466 3.38844 27.0121 1.76198 22.6256 4.01285C18.2391 6.26372 16.5654 11.5379 18.8825 15.7951C18.9842 15.9817 19.0925 16.1641 19.2075 16.3444L37.1736 46.5391C39.5968 50.7404 45.0711 52.2403 49.4001 49.8886C53.7291 47.5369 55.2746 42.224 52.8514 38.0227C52.8116 37.954 52.7718 37.8875 52.732 37.821V37.8403Z" fill="#4285F4"/>
<path d="M8.98305 50.9552C13.9443 50.9552 17.9661 47.052 17.9661 42.2371C17.9661 37.4223 13.9443 33.519 8.98305 33.519C4.02185 33.519 0 37.4223 0 42.2371C0 47.052 4.02185 50.9552 8.98305 50.9552Z" fill="#34A853"/>
</g>
<defs>
<clipPath id="clip0_2643_9">
<rect width="54" height="48" fill="white" transform="translate(0 3)"/>
</clipPath>
</defs>
</svg>
