<svg width="54" height="54" viewBox="0 0 54 54" fill="none" xmlns="http://www.w3.org/2000/svg">
<mask id="mask0_2643_4" style="mask-type:alpha" maskUnits="userSpaceOnUse" x="0" y="0" width="54" height="54">
<rect width="54" height="54" fill="#D9D9D9"/>
</mask>
<g mask="url(#mask0_2643_4)">
</g>
<g clip-path="url(#clip0_2643_4)">
<path d="M4.08427 44.1353L6.46563 48.2269C6.96045 49.0882 7.67177 49.765 8.50679 50.2573L17.0116 35.6138H0.00195312C0.00195312 36.5674 0.249366 37.5211 0.744193 38.3825L4.08427 44.1353Z" fill="#0066DA"/>
<path d="M27.0009 18.3866L18.4961 3.74316C17.6611 4.23538 16.9498 4.91218 16.4549 5.77356L0.744193 32.8455C0.258467 33.6883 0.00259984 34.6428 0.00195312 35.6143H17.0116L27.0009 18.3866Z" fill="#00AC47"/>
<path d="M45.4944 50.2573C46.3294 49.765 47.0407 49.0882 47.5355 48.2269L48.5252 46.5349L53.2569 38.3825C53.7518 37.5211 53.9992 36.5674 53.9992 35.6138H36.9883L40.6079 42.6894L45.4944 50.2573Z" fill="#EA4335"/>
<path d="M27.0009 18.3862L35.5058 3.74272C34.6707 3.2505 33.712 3.00439 32.7224 3.00439H21.2795C20.2898 3.00439 19.3311 3.28127 18.4961 3.74272L27.0009 18.3862Z" fill="#00832D"/>
<path d="M36.9893 35.6138H17.0107L8.50586 50.2573C9.34088 50.7495 10.2996 50.9956 11.2893 50.9956H42.7108C43.7004 50.9956 44.6591 50.7187 45.4941 50.2573L36.9893 35.6138Z" fill="#2684FC"/>
<path d="M45.4014 19.3091L37.546 5.77307C37.0512 4.91169 36.3399 4.23489 35.5048 3.74268L27 18.3862L36.9893 35.6138H53.968C53.968 34.6601 53.7206 33.7064 53.2258 32.8451L45.4014 19.3091Z" fill="#FFBA00"/>
</g>
<defs>
<clipPath id="clip0_2643_4">
<rect width="54" height="48" fill="white" transform="translate(0 3)"/>
</clipPath>
</defs>
</svg>
