<svg width="54" height="54" viewBox="0 0 54 54" fill="none" xmlns="http://www.w3.org/2000/svg">
<g clip-path="url(#clip0_2568_1403)">
<path d="M52.0284 42.7329L43.799 34.5571L34.416 43.9022L42.6454 52.078C45.2096 54.6238 49.3885 54.6441 51.9779 52.1253C51.994 52.1095 52.0101 52.0938 52.0261 52.078C54.6545 49.4939 54.6546 45.3125 52.0284 42.7329Z" fill="#1A73E8"/>
<path d="M40.4129 6.89826C31.0253 -2.29812 15.8304 -2.29812 6.44046 6.89826C-2.37147 16.205 -2.11 30.6912 7.0345 39.6849C16.179 48.6785 30.9267 48.9556 40.4129 40.3134C49.8074 31.0878 49.8074 16.1262 40.4129 6.89826ZM30.9588 31.0292C26.7363 34.8231 20.2203 34.6811 16.1721 30.707C12.1239 26.7329 11.9749 20.3346 15.8327 16.1825C20.0551 12.3886 26.5712 12.5305 30.6194 16.5047C34.6698 20.4788 34.8189 26.8771 30.9588 31.0292Z" fill="#669DF3"/>
</g>
<defs>
<clipPath id="clip0_2568_1403">
<rect width="54" height="54" fill="white"/>
</clipPath>
</defs>
</svg>
