<svg width="54" height="54" viewBox="0 0 54 54" fill="none" xmlns="http://www.w3.org/2000/svg">
<g clip-path="url(#clip0_2568_1338)">
<path d="M27 0C12.0878 0 0 12.0878 0 27C0 41.9122 12.0878 54 27 54C41.9122 54 54 41.9122 54 27C54 12.0897 41.9122 0.00184237 27 0ZM39.3826 38.9404C38.8981 39.7363 37.8608 39.9851 37.0686 39.5005C30.729 35.626 22.7478 34.7509 13.3498 36.8972C12.4434 37.1054 11.5406 36.538 11.3343 35.6315C11.1261 34.7251 11.6917 33.8223 12.6 33.616C22.8841 31.2669 31.7073 32.2784 38.8244 36.6264C39.6166 37.1146 39.869 38.1482 39.3826 38.9404ZM42.686 31.5912C42.0761 32.5824 40.7791 32.8919 39.7898 32.2839C32.5345 27.8235 21.4692 26.532 12.8856 29.1372C11.7728 29.4743 10.5973 28.8461 10.2583 27.7351C9.92303 26.6223 10.5513 25.4487 11.6622 25.1097C21.4673 22.1343 33.6583 23.575 41.9914 28.6968C42.9826 29.3067 43.2958 30.6018 42.686 31.5912ZM42.9697 23.9343C34.2663 18.7664 19.9105 18.2911 11.6014 20.8115C10.2676 21.2168 8.85629 20.4633 8.45281 19.1294C8.04933 17.7955 8.80102 16.3842 10.1367 15.9789C19.6747 13.0845 35.5284 13.6428 45.5472 19.59C46.7466 20.303 47.1408 21.8524 46.4297 23.0499C45.7204 24.2512 44.1672 24.6473 42.9697 23.9343Z" fill="#2EBD59"/>
</g>
<defs>
<clipPath id="clip0_2568_1338">
<rect width="54" height="54" fill="white"/>
</clipPath>
</defs>
</svg>
