<svg width="54" height="54" viewBox="0 0 54 54" fill="none" xmlns="http://www.w3.org/2000/svg">
<g clip-path="url(#clip0_2568_1316)">
<path d="M26.8956 0C12.0435 0 0 12.378 0 27.6476C0 39.8632 7.70639 50.2267 18.3929 53.8825C19.737 54.1384 20.2306 53.2827 20.2306 52.5524C20.2306 51.8933 20.2055 49.7152 20.1941 47.405C12.7115 49.0774 11.1326 44.1429 11.1326 44.1429C9.90921 40.9472 8.14641 40.0976 8.14641 40.0976C5.70628 38.3816 8.33034 38.4167 8.33034 38.4167C11.0312 38.6119 12.4533 41.2659 12.4533 41.2659C14.8521 45.4927 18.7452 44.2706 20.28 43.5644C20.5213 41.7772 21.2184 40.5578 21.9875 39.8674C16.0137 39.1681 9.73371 36.7974 9.73371 26.2037C9.73371 23.1853 10.7844 20.7188 12.505 18.7827C12.2257 18.0862 11.3052 15.2743 12.7655 11.466C12.7655 11.466 15.024 10.7229 20.1637 14.3001C22.309 13.6873 24.6099 13.3803 26.8956 13.3699C29.1813 13.3803 31.4839 13.6873 33.6334 14.3001C38.7669 10.7229 41.0223 11.466 41.0223 11.466C42.4862 15.2743 41.5652 18.0862 41.286 18.7827C43.0104 20.7188 44.0539 23.1851 44.0539 26.2037C44.0539 36.8226 37.762 39.1609 31.7731 39.8452C32.7377 40.7033 33.5973 42.3859 33.5973 44.9652C33.5973 48.6644 33.5661 51.6417 33.5661 52.5524C33.5661 53.2882 34.0502 54.1503 35.4137 53.8788C46.0943 50.2189 53.791 39.8591 53.791 27.6476C53.791 12.378 41.7492 0 26.8956 0Z" fill="#161614"/>
<path d="M10.0739 39.3848C10.0148 39.5221 9.8043 39.5633 9.61298 39.4692C9.41786 39.379 9.30818 39.1916 9.37146 39.0537C9.42946 38.9124 9.63998 38.8729 9.83467 38.9679C10.0302 39.0579 10.1416 39.2469 10.0739 39.3848ZM11.3969 40.5983C11.2686 40.7206 11.0178 40.6637 10.8476 40.4705C10.6717 40.2778 10.6388 40.0202 10.7689 39.8959C10.9012 39.7738 11.1444 39.8309 11.3207 40.0239C11.4967 40.2188 11.5308 40.4749 11.3967 40.5985M12.3045 42.1508C12.1396 42.2685 11.87 42.1582 11.7036 41.9123C11.5388 41.6666 11.5388 41.3717 11.7072 41.2535C11.8742 41.1354 12.1396 41.2416 12.3083 41.4855C12.4729 41.7356 12.4729 42.0305 12.3043 42.151M13.8393 43.949C13.6919 44.116 13.378 44.0713 13.1481 43.8432C12.9131 43.6203 12.8475 43.3039 12.9954 43.1367C13.1445 42.9694 13.4603 43.0164 13.6919 43.2426C13.9254 43.465 13.9965 43.7838 13.8393 43.949ZM15.823 44.5562C15.7582 44.7726 15.4557 44.871 15.1511 44.7791C14.847 44.6843 14.6478 44.4306 14.7092 44.2118C14.7725 43.9939 15.0763 43.8913 15.3832 43.9898C15.6869 44.0841 15.8863 44.3358 15.823 44.5562ZM18.0809 44.8135C18.0884 45.0416 17.8301 45.2307 17.5103 45.2348C17.1886 45.242 16.9285 45.0575 16.9251 44.8333C16.9251 44.603 17.1776 44.4156 17.4991 44.4102C17.8189 44.4037 18.0809 44.5869 18.0809 44.8135ZM20.2987 44.7262C20.337 44.9486 20.1147 45.1772 19.7973 45.2379C19.4851 45.2964 19.1961 45.1592 19.1562 44.9386C19.1174 44.7105 19.3439 44.4822 19.6555 44.423C19.9736 44.3662 20.2582 44.5 20.2987 44.7262Z" fill="#161614"/>
</g>
<defs>
<clipPath id="clip0_2568_1316">
<rect width="54" height="54" fill="white"/>
</clipPath>
</defs>
</svg>
