<svg width="54" height="54" viewBox="0 0 54 54" fill="none" xmlns="http://www.w3.org/2000/svg">
<mask id="mask0_2866_818" style="mask-type:alpha" maskUnits="userSpaceOnUse" x="0" y="0" width="54" height="54">
<rect width="54" height="54" fill="#D9D9D9"/>
</mask>
<g mask="url(#mask0_2866_818)">
<path d="M30.0279 16.1973V46.9573L26.9854 48.806L23.9412 46.9467V16.2209L16.0568 21.047V47.3525L26.9854 54L38.0069 47.3052V21.0304L30.0279 16.1973ZM26.9854 0L4 13.8446V40.1542L9.9695 43.6504V17.339L26.9902 7.04978L44.0263 17.3236L44.0966 17.3627L44.0882 43.6096L50 40.1525V13.8446L26.9854 0Z" fill="#F37B20"/>
<path d="M50 13.8438L26.986 0.000976562L4 13.8438L9.96831 17.3388L26.9896 7.04957L44.0971 17.3637L50 13.8438ZM30.0279 16.1965V25.8959L38.0069 21.029L30.0279 16.1965ZM16.0562 21.0486L23.9388 25.835V16.2207L16.0562 21.0486Z" fill="#FAB37C"/>
</g>
</svg>
