<svg width="100" height="25" viewBox="0 0 100 25" fill="none" xmlns="http://www.w3.org/2000/svg">
<path d="M26.2628 8.85938H36.3817V10.7773H32.3975V21.5888H30.2137V10.7773H26.2461L26.2628 8.85938ZM35.9483 12.3727H37.8154V14.1548H37.8487C37.9154 13.9002 38.0321 13.6626 38.1988 13.425C38.3655 13.1874 38.5656 12.9667 38.8156 12.78C39.049 12.5764 39.3157 12.4236 39.6158 12.3048C39.8992 12.186 40.1993 12.1181 40.4994 12.1181C40.7327 12.1181 40.8994 12.1351 40.9828 12.1351C41.0661 12.1521 41.1662 12.169 41.2495 12.169V14.1209C41.1162 14.0869 40.9661 14.07 40.8161 14.053C40.6661 14.036 40.5327 14.019 40.3827 14.019C40.0492 14.019 39.7325 14.0869 39.4324 14.2227C39.1324 14.3585 38.8823 14.5622 38.6489 14.8167C38.4322 15.0883 38.2488 15.4108 38.1155 15.8012C37.9821 16.1915 37.9154 16.6498 37.9154 17.159V21.5379H35.915L35.9483 12.3727ZM50.4183 21.5888H48.4512V20.2989H48.4178C48.1678 20.7741 47.801 21.1305 47.3176 21.4191C46.8341 21.7076 46.334 21.8434 45.8339 21.8434C44.6503 21.8434 43.7834 21.5549 43.25 20.9438C42.7165 20.3498 42.4498 19.4333 42.4498 18.2282V12.3727H44.4503V18.0246C44.4503 18.8393 44.6003 19.4163 44.917 19.7388C45.2171 20.0782 45.6505 20.248 46.2007 20.248C46.6174 20.248 46.9675 20.1801 47.2509 20.0443C47.5343 19.9085 47.7677 19.7388 47.9344 19.5182C48.1178 19.2975 48.2345 19.0259 48.3178 18.7204C48.4012 18.4149 48.4345 18.0755 48.4345 17.7191V12.3727H50.435V21.5888H50.4183ZM53.8191 18.6356C53.8857 19.2296 54.1025 19.637 54.4859 19.8916C54.8693 20.1292 55.3361 20.248 55.8695 20.248C56.0529 20.248 56.2696 20.231 56.503 20.1971C56.7364 20.1631 56.9698 20.1122 57.1698 20.0273C57.3866 19.9425 57.5533 19.8237 57.6866 19.6539C57.82 19.4842 57.8867 19.2805 57.87 19.0259C57.8533 18.7714 57.77 18.5507 57.5866 18.381C57.4032 18.2113 57.1865 18.0925 56.9198 17.9736C56.653 17.8718 56.3363 17.7869 55.9862 17.7191C55.6362 17.6512 55.2861 17.5663 54.9193 17.4814C54.5526 17.3966 54.1858 17.2947 53.8357 17.1759C53.4857 17.0571 53.1856 16.9044 52.9022 16.6837C52.6355 16.4801 52.4021 16.2255 52.252 15.903C52.0853 15.5805 52.002 15.2071 52.002 14.7319C52.002 14.2227 52.1187 13.8154 52.3687 13.4759C52.6021 13.1365 52.9189 12.8649 53.2856 12.6612C53.6524 12.4576 54.0691 12.3048 54.5192 12.2199C54.9693 12.1351 55.4028 12.1011 55.8029 12.1011C56.2696 12.1011 56.7197 12.1521 57.1365 12.2539C57.5533 12.3557 57.9533 12.5085 58.2868 12.7461C58.6368 12.9667 58.9202 13.2722 59.1369 13.6287C59.3703 13.9851 59.5037 14.4264 59.5704 14.9356H57.4866C57.3866 14.4434 57.1698 14.1209 56.8364 13.9511C56.4863 13.7814 56.1029 13.6966 55.6528 13.6966C55.5195 13.6966 55.3361 13.7135 55.1527 13.7305C54.9527 13.7644 54.786 13.7984 54.6026 13.8663C54.4359 13.9342 54.2858 14.036 54.1691 14.1548C54.0525 14.2736 53.9858 14.4433 53.9858 14.647C53.9858 14.9016 54.0691 15.0883 54.2358 15.2411C54.4025 15.3938 54.6193 15.5126 54.9026 15.6314C55.1694 15.7333 55.4861 15.8181 55.8362 15.886C56.1863 15.9539 56.553 16.0388 56.9198 16.1236C57.2865 16.2085 57.6366 16.3103 57.9867 16.4291C58.3368 16.5479 58.6535 16.7007 58.9202 16.9214C59.187 17.125 59.4203 17.3796 59.5871 17.6851C59.7538 17.9906 59.8371 18.381 59.8371 18.8223C59.8371 19.3654 59.7204 19.8237 59.4704 20.214C59.2203 20.5874 58.9036 20.9099 58.5201 21.1475C58.1367 21.3851 57.6866 21.5549 57.2198 21.6737C56.7364 21.7755 56.2696 21.8434 55.8029 21.8434C55.2361 21.8434 54.7026 21.7755 54.2192 21.6397C53.7357 21.5039 53.3023 21.3003 52.9522 21.0457C52.6021 20.7741 52.3187 20.4516 52.1187 20.0443C51.9186 19.6539 51.8019 19.1787 51.7853 18.6186H53.8024V18.6356H53.8191ZM60.4039 12.3727H61.9209V9.58919H63.9214V12.3557H65.7218V13.8663H63.9214V18.7883C63.9214 19.009 63.938 19.1787 63.9547 19.3484C63.9714 19.5012 64.0214 19.637 64.0714 19.7388C64.1381 19.8406 64.2381 19.9255 64.3548 19.9764C64.4882 20.0273 64.6549 20.0613 64.8883 20.0613C65.0216 20.0613 65.1717 20.0613 65.305 20.0443C65.4384 20.0273 65.5884 20.0104 65.7218 19.9764V21.5549C65.5051 21.5888 65.2884 21.6058 65.0716 21.6228C64.8549 21.6567 64.6549 21.6567 64.4215 21.6567C63.888 21.6567 63.4713 21.6058 63.1545 21.5039C62.8378 21.4021 62.5877 21.2494 62.4044 21.0627C62.221 20.859 62.1043 20.6214 62.0376 20.3328C61.9709 20.0443 61.9376 19.6879 61.9209 19.3145V13.8833H60.4039V12.3388V12.3727ZM67.1221 12.3727H69.0059V13.6287H69.0392C69.3226 13.0855 69.706 12.7121 70.2061 12.4745C70.7063 12.2369 71.2397 12.1181 71.8399 12.1181C72.5567 12.1181 73.1735 12.2369 73.7069 12.5085C74.2404 12.7631 74.6738 13.1025 75.0239 13.5608C75.374 14.0021 75.6407 14.5282 75.8074 15.1223C75.9741 15.7163 76.0742 16.3613 76.0742 17.0232C76.0742 17.6512 75.9908 18.2452 75.8408 18.8223C75.6741 19.3993 75.4407 19.9255 75.1239 20.3668C74.8072 20.8081 74.4071 21.1645 73.907 21.4361C73.4069 21.7076 72.8401 21.8434 72.1733 21.8434C71.8899 21.8434 71.5898 21.8095 71.3064 21.7585C71.023 21.7076 70.7396 21.6228 70.4729 21.5039C70.2062 21.3851 69.9561 21.2324 69.7394 21.0457C69.506 20.859 69.3226 20.6383 69.1726 20.4007H69.1392V25.0003H67.1388V12.3727H67.1221ZM74.107 16.9892C74.107 16.5819 74.057 16.1746 73.9403 15.7842C73.8403 15.3938 73.6736 15.0544 73.4569 14.7489C73.2402 14.4434 72.9734 14.2057 72.6734 14.019C72.3566 13.8323 71.9899 13.7475 71.5898 13.7475C70.7563 13.7475 70.1228 14.036 69.6894 14.6301C69.2726 15.2241 69.0559 16.0218 69.0559 17.0062C69.0559 17.4814 69.1059 17.9058 69.2226 18.2961C69.3393 18.6865 69.4893 19.0259 69.7227 19.3145C69.9394 19.603 70.2062 19.8237 70.5229 19.9934C70.8396 20.1631 71.1897 20.248 71.6065 20.248C72.0732 20.248 72.44 20.1461 72.7567 19.9594C73.0735 19.7727 73.3235 19.5182 73.5402 19.2296C73.7403 18.9241 73.8903 18.5847 73.9737 18.1943C74.057 17.787 74.107 17.3966 74.107 16.9892ZM77.6245 8.85938H79.625V10.7773H77.6245V8.85938ZM77.6245 12.3727H79.625V21.5888H77.6245V12.3727ZM81.4087 8.85938H83.4092V21.5888H81.4087V8.85938ZM89.5106 21.8434C88.7937 21.8434 88.1436 21.7246 87.5768 21.47C87.01 21.2154 86.5432 20.8929 86.1431 20.4686C85.7597 20.0443 85.4596 19.5182 85.2596 18.9241C85.0595 18.3301 84.9429 17.6681 84.9429 16.9723C84.9429 16.2764 85.0429 15.6314 85.2596 15.0374C85.4596 14.4434 85.7597 13.9342 86.1431 13.4929C86.5266 13.0686 87.01 12.7291 87.5768 12.4915C88.1436 12.2539 88.7937 12.1181 89.5106 12.1181C90.2274 12.1181 90.8775 12.2369 91.4443 12.4915C92.0111 12.7291 92.4779 13.0686 92.878 13.4929C93.2614 13.9172 93.5615 14.4434 93.7615 15.0374C93.9616 15.6314 94.0783 16.2764 94.0783 16.9723C94.0783 17.6851 93.9782 18.3301 93.7615 18.9241C93.5448 19.5182 93.2614 20.0273 92.878 20.4686C92.4946 20.8929 92.0111 21.2324 91.4443 21.47C90.8775 21.7076 90.2441 21.8434 89.5106 21.8434ZM89.5106 20.231C89.944 20.231 90.3441 20.1292 90.6608 19.9425C90.9942 19.7558 91.2443 19.5012 91.461 19.1957C91.6777 18.8902 91.8278 18.5337 91.9278 18.1603C92.0278 17.77 92.0778 17.3796 92.0778 16.9723C92.0778 16.5819 92.0278 16.1915 91.9278 15.8012C91.8278 15.4108 91.6777 15.0713 91.461 14.7658C91.2443 14.4603 90.9776 14.2227 90.6608 14.036C90.3274 13.8493 89.944 13.7475 89.5106 13.7475C89.0771 13.7475 88.677 13.8493 88.3603 14.036C88.0269 14.2227 87.7768 14.4773 87.5601 14.7658C87.3434 15.0713 87.1934 15.4108 87.0933 15.8012C86.9933 16.1915 86.9433 16.5819 86.9433 16.9723C86.9433 17.3796 86.9933 17.77 87.0933 18.1603C87.1934 18.5507 87.3434 18.8902 87.5601 19.1957C87.7768 19.5012 88.0436 19.7558 88.3603 19.9425C88.6937 20.1461 89.0771 20.231 89.5106 20.231ZM94.6784 12.3727H96.1954V9.58919H98.1959V12.3557H99.9963V13.8663H98.1959V18.7883C98.1959 19.009 98.2126 19.1787 98.2292 19.3484C98.2459 19.5012 98.2959 19.637 98.3459 19.7388C98.4126 19.8406 98.5126 19.9255 98.6293 19.9764C98.7627 20.0273 98.9294 20.0613 99.1628 20.0613C99.2961 20.0613 99.4462 20.0613 99.5795 20.0443C99.7129 20.0273 99.8629 20.0104 99.9963 19.9764V21.5549C99.7796 21.5888 99.5629 21.6058 99.3461 21.6228C99.1294 21.6567 98.9294 21.6567 98.696 21.6567C98.1625 21.6567 97.7458 21.6058 97.429 21.5039C97.1123 21.4021 96.8622 21.2494 96.6789 21.0627C96.4955 20.859 96.3788 20.6214 96.3121 20.3328C96.2454 20.0443 96.2121 19.6879 96.1954 19.3145V13.8833H94.6784V12.3388V12.3727Z" fill="#1A1A1A"/>
<path d="M23.9516 8.85969H14.7995L11.9822 0L9.14819 8.85969L-0.00390625 8.84271L7.39779 14.3249L4.56381 23.1845L11.9655 17.7024L19.3672 23.1845L16.5499 14.3249L23.9516 8.85969Z" fill="#00B67A"/>
<path d="M17.1328 16.326L16.4994 14.3232L11.9316 17.7008L17.1328 16.326Z" fill="#005128"/>
</svg>
