<svg width="1320" height="572" viewBox="0 0 1320 572" fill="none" xmlns="http://www.w3.org/2000/svg">
<g clip-path="url(#clip0_13_141)">
<rect width="1320" height="572" fill="#EFE6DD"/>
<g filter="url(#filter0_f_13_141)">
<circle cx="84.5" cy="18.5" r="258.5" fill="#BB4430"/>
</g>
<g filter="url(#filter1_f_13_141)">
<circle cx="982.5" cy="-9.5" r="258.5" fill="#231F20"/>
</g>
<g filter="url(#filter2_f_13_141)">
<circle cx="143.5" cy="460.5" r="258.5" fill="#F3DFA2"/>
</g>
<g filter="url(#filter3_f_13_141)">
<circle cx="1241.5" cy="497.5" r="258.5" fill="#7EBDC2"/>
</g>
<path d="M286.456 313.898C258.81 313.898 246.962 302.408 246.962 281.494C246.962 260.67 258.81 249.27 286.456 249.27C314.013 249.27 325.951 260.76 325.951 281.494C325.951 302.319 314.013 313.898 286.456 313.898ZM286.456 300.344C303.242 300.344 309.794 294.33 309.794 281.494C309.794 268.748 303.331 262.824 286.456 262.824C269.582 262.824 263.119 268.659 263.119 281.494C263.119 294.42 269.671 300.344 286.456 300.344ZM370.459 251.604C361.662 251.604 359.418 253.489 359.149 260.131H381.499V272.967H359.149V313H343.71V272.967H329.797V260.131H343.71V256.182C343.71 245.411 350.173 240.294 365.611 240.294C370.907 240.294 373.69 240.294 381.499 241.192V252.053C377.998 251.784 374.408 251.604 370.459 251.604ZM426.559 251.604C417.762 251.604 415.518 253.489 415.249 260.131H437.599V272.967H415.249V313H399.81V272.967H385.897V260.131H399.81V256.182C399.81 245.411 406.273 240.294 421.711 240.294C427.007 240.294 429.79 240.294 437.599 241.192V252.053C434.098 251.784 430.508 251.604 426.559 251.604ZM534.776 250.168C549.048 250.168 558.832 259.234 558.832 273.236C558.832 287.239 549.048 296.215 534.776 296.215H501.565V313H485.408V250.168H534.776ZM530.288 282.661C535.135 282.661 542.675 282.661 542.675 273.236C542.675 263.722 535.135 263.722 530.288 263.722H501.565V282.661H530.288ZM596.083 259.234C618.164 259.234 630.73 266.325 630.91 286.341V313H615.471V306.448C606.136 311.025 595.814 313.898 583.337 313.898C568.527 313.898 559.281 309.14 559.281 297.202C559.281 283.469 574.361 279.16 591.146 279.16C600.212 279.16 608.56 280.597 615.471 282.93C615.471 272.877 602.546 272.069 595.365 272.069C588.453 272.069 580.016 272.698 569.155 275.929L563.68 264.709C574.451 261.208 585.042 259.234 596.083 259.234ZM615.471 296.574V292.445C610.085 290.74 602.815 289.214 593.031 289.214C581.542 289.214 574.63 291.188 574.63 296.574C574.63 302.139 579.747 302.588 587.735 302.588C596.083 302.588 607.572 299.985 615.471 296.574ZM694.137 260.131H709.575V304.563C709.575 326.105 695.124 335.44 675.107 335.44C659.759 335.44 647.102 332.568 641.986 331.221V318.834C648.179 320.001 660.028 322.604 671.697 322.604C687.584 322.604 693.508 316.501 694.137 302.947C688.751 308.871 679.865 312.372 667.388 312.372C649.257 312.372 636.331 304.473 636.331 285.803C636.331 267.133 649.257 259.234 667.388 259.234C679.955 259.234 688.841 262.734 694.137 268.659V260.131ZM672.953 299.536C687.405 299.536 694.137 295.497 694.137 285.803C694.137 276.109 687.405 272.069 672.953 272.069C658.502 272.069 651.68 276.109 651.68 285.803C651.68 295.497 658.502 299.536 672.953 299.536ZM751.56 301.421C762.152 301.421 768.614 299.446 772.474 294.061H787.733C784.232 307.525 771.128 313.898 751.56 313.898C731.454 313.898 715.835 305.999 715.835 286.611C715.835 267.133 731.005 259.234 752.457 259.234C772.564 259.234 788.631 266.145 788.631 290.201H731.543C733.249 298.638 741.327 301.421 751.56 301.421ZM752.368 270.903C741.866 270.903 734.505 272.967 732.082 280.417H772.205C769.602 272.967 762.062 270.903 752.368 270.903ZM835.574 291.368H851.731C851.731 298.01 857.116 301.062 877.582 301.062C894.546 301.062 899.662 299.177 899.662 294.24C899.662 289.034 896.072 288.136 875.697 287.149C848.32 285.892 837.459 281.584 837.459 267.492C837.459 253.669 851.551 249.27 875.068 249.27C898.765 249.27 913.126 255.195 913.126 270.723H896.97C896.97 263.812 890.058 262.106 873.273 262.106C857.386 262.106 853.616 263.632 853.616 268.3C853.616 273.147 857.386 274.044 875.697 275.121C900.47 276.468 915.819 277.814 915.819 293.702C915.819 310.487 899.932 313.898 876.684 313.898C850.923 313.898 835.574 309.499 835.574 291.368ZM988.096 263.004H937.83V275.75H988.096V287.418H937.83V300.164H988.096V313H921.673V250.168H988.096V263.004ZM1032.06 313.898C1004.41 313.898 992.566 302.408 992.566 281.494C992.566 260.67 1004.41 249.27 1032.06 249.27C1059.62 249.27 1071.55 260.76 1071.55 281.494C1071.55 302.319 1059.62 313.898 1032.06 313.898ZM1032.06 300.344C1048.85 300.344 1055.4 294.33 1055.4 281.494C1055.4 268.748 1048.94 262.824 1032.06 262.824C1015.19 262.824 1008.72 268.659 1008.72 281.494C1008.72 294.42 1015.28 300.344 1032.06 300.344Z" fill="black"/>
</g>
<defs>
<filter id="filter0_f_13_141" x="-674" y="-740" width="1517" height="1517" filterUnits="userSpaceOnUse" color-interpolation-filters="sRGB">
<feFlood flood-opacity="0" result="BackgroundImageFix"/>
<feBlend mode="normal" in="SourceGraphic" in2="BackgroundImageFix" result="shape"/>
<feGaussianBlur stdDeviation="250" result="effect1_foregroundBlur_13_141"/>
</filter>
<filter id="filter1_f_13_141" x="224" y="-768" width="1517" height="1517" filterUnits="userSpaceOnUse" color-interpolation-filters="sRGB">
<feFlood flood-opacity="0" result="BackgroundImageFix"/>
<feBlend mode="normal" in="SourceGraphic" in2="BackgroundImageFix" result="shape"/>
<feGaussianBlur stdDeviation="250" result="effect1_foregroundBlur_13_141"/>
</filter>
<filter id="filter2_f_13_141" x="-615" y="-298" width="1517" height="1517" filterUnits="userSpaceOnUse" color-interpolation-filters="sRGB">
<feFlood flood-opacity="0" result="BackgroundImageFix"/>
<feBlend mode="normal" in="SourceGraphic" in2="BackgroundImageFix" result="shape"/>
<feGaussianBlur stdDeviation="250" result="effect1_foregroundBlur_13_141"/>
</filter>
<filter id="filter3_f_13_141" x="483" y="-261" width="1517" height="1517" filterUnits="userSpaceOnUse" color-interpolation-filters="sRGB">
<feFlood flood-opacity="0" result="BackgroundImageFix"/>
<feBlend mode="normal" in="SourceGraphic" in2="BackgroundImageFix" result="shape"/>
<feGaussianBlur stdDeviation="250" result="effect1_foregroundBlur_13_141"/>
</filter>
<clipPath id="clip0_13_141">
<rect width="1320" height="572" fill="white"/>
</clipPath>
</defs>
</svg>
