<svg width="1320" height="572" viewBox="0 0 1320 572" fill="none" xmlns="http://www.w3.org/2000/svg">
<g clip-path="url(#clip0_13_127)">
<rect width="1320" height="572" fill="#EFE6DD"/>
<g filter="url(#filter0_f_13_127)">
<circle cx="84.5" cy="18.5" r="258.5" fill="#BB4430"/>
</g>
<g filter="url(#filter1_f_13_127)">
<circle cx="982.5" cy="-9.5" r="258.5" fill="#231F20"/>
</g>
<g filter="url(#filter2_f_13_127)">
<circle cx="143.5" cy="460.5" r="258.5" fill="#F3DFA2"/>
</g>
<g filter="url(#filter3_f_13_127)">
<circle cx="1241.5" cy="497.5" r="258.5" fill="#7EBDC2"/>
</g>
<path d="M428.311 250.168L390.253 278.083L428.311 313H405.961L378.315 286.88L359.016 300.972V313H342.86V250.168H359.016V282.751L403.807 250.168H428.311ZM458.33 301.421C468.922 301.421 475.385 299.446 479.244 294.061H494.504C491.003 307.525 477.898 313.898 458.33 313.898C438.224 313.898 422.606 305.999 422.606 286.611C422.606 267.133 437.775 259.234 459.228 259.234C479.334 259.234 495.401 266.145 495.401 290.201H438.314C440.019 298.638 448.098 301.421 458.33 301.421ZM459.138 270.903C448.636 270.903 441.276 272.967 438.852 280.417H478.975C476.372 272.967 468.832 270.903 459.138 270.903ZM552.436 260.131H569.401L533.676 335.44H516.711L527.393 313H519.494L492.117 260.131H509.172L531.791 303.755L552.436 260.131ZM673.336 260.131H690.481L666.694 313H646.229L630.7 276.198L615.172 313H594.707L570.92 260.131H588.064L605.388 300.972L621.545 260.131H639.856L656.013 300.882L673.336 260.131ZM724.388 313.898C702.487 313.898 687.766 305.999 687.766 286.611C687.766 267.133 702.487 259.234 724.388 259.234C746.2 259.234 761.01 267.133 761.01 286.611C761.01 305.999 746.2 313.898 724.388 313.898ZM724.388 301.062C738.57 301.062 745.571 297.561 745.571 286.611C745.571 275.57 738.57 272.069 724.388 272.069C710.116 272.069 703.115 275.57 703.115 286.611C703.115 297.561 710.116 301.062 724.388 301.062ZM809.309 259.234C815.593 259.234 819.991 260.131 823.581 261.029V273.865C818.555 272.608 814.516 272.069 810.028 272.069C801.411 272.069 791.537 274.044 782.202 281.315V313H766.853V260.131H782.202V269.107C790.101 262.016 799.436 259.234 809.309 259.234ZM882.931 241.192H898.28V313H882.931V304.742C877.186 310.756 867.941 313.898 856.541 313.898C839.577 313.898 825.036 306.807 825.036 286.611C825.036 266.415 839.577 259.234 856.541 259.234C867.941 259.234 877.186 262.375 882.931 268.389V241.192ZM861.658 301.062C875.391 301.062 882.931 297.023 882.931 286.611C882.931 276.109 875.391 272.069 861.658 272.069C847.924 272.069 840.474 276.109 840.474 286.611C840.474 297.023 847.924 301.062 861.658 301.062ZM904.102 294.42H919.451C919.451 300.075 925.285 302.229 942.429 302.229C959.035 302.229 961.728 301.152 961.728 297.023C961.728 292.984 959.214 292.714 940.634 291.547C917.386 290.201 905.987 288.406 905.987 275.66C905.987 261.837 922.143 259.234 940.993 259.234C960.92 259.234 975.371 261.837 975.371 276.378H959.932C959.932 271.98 954.367 270.903 940.095 270.903C925.554 270.903 921.425 271.98 921.425 275.032C921.425 278.353 924.208 278.891 942.429 280.238C963.074 281.764 977.166 282.302 977.166 296.394C977.166 311.295 963.702 313.898 943.327 313.898C922.951 313.898 904.102 311.295 904.102 294.42Z" fill="black"/>
</g>
<defs>
<filter id="filter0_f_13_127" x="-674" y="-740" width="1517" height="1517" filterUnits="userSpaceOnUse" color-interpolation-filters="sRGB">
<feFlood flood-opacity="0" result="BackgroundImageFix"/>
<feBlend mode="normal" in="SourceGraphic" in2="BackgroundImageFix" result="shape"/>
<feGaussianBlur stdDeviation="250" result="effect1_foregroundBlur_13_127"/>
</filter>
<filter id="filter1_f_13_127" x="224" y="-768" width="1517" height="1517" filterUnits="userSpaceOnUse" color-interpolation-filters="sRGB">
<feFlood flood-opacity="0" result="BackgroundImageFix"/>
<feBlend mode="normal" in="SourceGraphic" in2="BackgroundImageFix" result="shape"/>
<feGaussianBlur stdDeviation="250" result="effect1_foregroundBlur_13_127"/>
</filter>
<filter id="filter2_f_13_127" x="-615" y="-298" width="1517" height="1517" filterUnits="userSpaceOnUse" color-interpolation-filters="sRGB">
<feFlood flood-opacity="0" result="BackgroundImageFix"/>
<feBlend mode="normal" in="SourceGraphic" in2="BackgroundImageFix" result="shape"/>
<feGaussianBlur stdDeviation="250" result="effect1_foregroundBlur_13_127"/>
</filter>
<filter id="filter3_f_13_127" x="483" y="-261" width="1517" height="1517" filterUnits="userSpaceOnUse" color-interpolation-filters="sRGB">
<feFlood flood-opacity="0" result="BackgroundImageFix"/>
<feBlend mode="normal" in="SourceGraphic" in2="BackgroundImageFix" result="shape"/>
<feGaussianBlur stdDeviation="250" result="effect1_foregroundBlur_13_127"/>
</filter>
<clipPath id="clip0_13_127">
<rect width="1320" height="572" fill="white"/>
</clipPath>
</defs>
</svg>
