<svg width="1320" height="572" viewBox="0 0 1320 572" fill="none" xmlns="http://www.w3.org/2000/svg">
<g clip-path="url(#clip0_13_134)">
<rect width="1320" height="572" fill="#EFE6DD"/>
<g filter="url(#filter0_f_13_134)">
<circle cx="84.5" cy="18.5" r="258.5" fill="#BB4430"/>
</g>
<g filter="url(#filter1_f_13_134)">
<circle cx="982.5" cy="-9.5" r="258.5" fill="#231F20"/>
</g>
<g filter="url(#filter2_f_13_134)">
<circle cx="143.5" cy="460.5" r="258.5" fill="#F3DFA2"/>
</g>
<g filter="url(#filter3_f_13_134)">
<circle cx="1241.5" cy="497.5" r="258.5" fill="#7EBDC2"/>
</g>
<path d="M302.456 313.898C274.81 313.898 262.962 302.408 262.962 281.494C262.962 260.67 274.81 249.27 302.456 249.27C330.013 249.27 341.951 260.76 341.951 281.494C341.951 302.319 330.013 313.898 302.456 313.898ZM302.456 300.344C319.242 300.344 325.794 294.33 325.794 281.494C325.794 268.748 319.331 262.824 302.456 262.824C285.582 262.824 279.119 268.659 279.119 281.494C279.119 294.42 285.671 300.344 302.456 300.344ZM394.409 259.234C408.502 259.234 421.696 264.26 421.876 283.738L421.696 313H406.258V289.573C406.258 278.353 402.488 272.518 389.832 272.518C379.509 272.518 368.379 277.814 363.622 283.379V313H348.273V260.131H363.622V269.377C371.161 263.452 381.574 259.234 394.409 259.234ZM519.921 250.168C534.193 250.168 543.977 259.234 543.977 273.236C543.977 287.239 534.193 296.215 519.921 296.215H486.71V313H470.553V250.168H519.921ZM515.433 282.661C520.28 282.661 527.82 282.661 527.82 273.236C527.82 263.722 520.28 263.722 515.433 263.722H486.71V282.661H515.433ZM581.228 259.234C603.309 259.234 615.875 266.325 616.055 286.341V313H600.616V306.448C591.281 311.025 580.959 313.898 568.482 313.898C553.672 313.898 544.426 309.14 544.426 297.202C544.426 283.469 559.506 279.16 576.291 279.16C585.357 279.16 593.705 280.597 600.616 282.93C600.616 272.877 587.691 272.069 580.51 272.069C573.598 272.069 565.161 272.698 554.3 275.929L548.825 264.709C559.596 261.208 570.187 259.234 581.228 259.234ZM600.616 296.574V292.445C595.23 290.74 587.96 289.214 578.176 289.214C566.687 289.214 559.775 291.188 559.775 296.574C559.775 302.139 564.892 302.588 572.88 302.588C581.228 302.588 592.717 299.985 600.616 296.574ZM679.282 260.131H694.72V304.563C694.72 326.105 680.269 335.44 660.252 335.44C644.904 335.44 632.247 332.568 627.131 331.221V318.834C633.324 320.001 645.173 322.604 656.842 322.604C672.729 322.604 678.653 316.501 679.282 302.947C673.896 308.871 665.01 312.372 652.533 312.372C634.402 312.372 621.476 304.473 621.476 285.803C621.476 267.133 634.402 259.234 652.533 259.234C665.1 259.234 673.986 262.734 679.282 268.659V260.131ZM658.098 299.536C672.55 299.536 679.282 295.497 679.282 285.803C679.282 276.109 672.55 272.069 658.098 272.069C643.647 272.069 636.825 276.109 636.825 285.803C636.825 295.497 643.647 299.536 658.098 299.536ZM736.705 301.421C747.297 301.421 753.759 299.446 757.619 294.061H772.878C769.377 307.525 756.273 313.898 736.705 313.898C716.599 313.898 700.98 305.999 700.98 286.611C700.98 267.133 716.15 259.234 737.602 259.234C757.709 259.234 773.776 266.145 773.776 290.201H716.688C718.394 298.638 726.472 301.421 736.705 301.421ZM737.513 270.903C727.011 270.903 719.65 272.967 717.227 280.417H757.35C754.747 272.967 747.207 270.903 737.513 270.903ZM820.719 291.368H836.876C836.876 298.01 842.261 301.062 862.726 301.062C879.691 301.062 884.807 299.177 884.807 294.24C884.807 289.034 881.217 288.136 860.842 287.149C833.465 285.892 822.604 281.584 822.604 267.492C822.604 253.669 836.696 249.27 860.213 249.27C883.91 249.27 898.271 255.195 898.271 270.723H882.115C882.115 263.812 875.203 262.106 858.418 262.106C842.53 262.106 838.761 263.632 838.761 268.3C838.761 273.147 842.53 274.044 860.842 275.121C885.615 276.468 900.964 277.814 900.964 293.702C900.964 310.487 885.077 313.898 861.829 313.898C836.068 313.898 820.719 309.499 820.719 291.368ZM973.241 263.004H922.975V275.75H973.241V287.418H922.975V300.164H973.241V313H906.818V250.168H973.241V263.004ZM1017.21 313.898C989.559 313.898 977.711 302.408 977.711 281.494C977.711 260.67 989.559 249.27 1017.21 249.27C1044.76 249.27 1056.7 260.76 1056.7 281.494C1056.7 302.319 1044.76 313.898 1017.21 313.898ZM1017.21 300.344C1033.99 300.344 1040.54 294.33 1040.54 281.494C1040.54 268.748 1034.08 262.824 1017.21 262.824C1000.33 262.824 993.868 268.659 993.868 281.494C993.868 294.42 1000.42 300.344 1017.21 300.344Z" fill="black"/>
</g>
<defs>
<filter id="filter0_f_13_134" x="-674" y="-740" width="1517" height="1517" filterUnits="userSpaceOnUse" color-interpolation-filters="sRGB">
<feFlood flood-opacity="0" result="BackgroundImageFix"/>
<feBlend mode="normal" in="SourceGraphic" in2="BackgroundImageFix" result="shape"/>
<feGaussianBlur stdDeviation="250" result="effect1_foregroundBlur_13_134"/>
</filter>
<filter id="filter1_f_13_134" x="224" y="-768" width="1517" height="1517" filterUnits="userSpaceOnUse" color-interpolation-filters="sRGB">
<feFlood flood-opacity="0" result="BackgroundImageFix"/>
<feBlend mode="normal" in="SourceGraphic" in2="BackgroundImageFix" result="shape"/>
<feGaussianBlur stdDeviation="250" result="effect1_foregroundBlur_13_134"/>
</filter>
<filter id="filter2_f_13_134" x="-615" y="-298" width="1517" height="1517" filterUnits="userSpaceOnUse" color-interpolation-filters="sRGB">
<feFlood flood-opacity="0" result="BackgroundImageFix"/>
<feBlend mode="normal" in="SourceGraphic" in2="BackgroundImageFix" result="shape"/>
<feGaussianBlur stdDeviation="250" result="effect1_foregroundBlur_13_134"/>
</filter>
<filter id="filter3_f_13_134" x="483" y="-261" width="1517" height="1517" filterUnits="userSpaceOnUse" color-interpolation-filters="sRGB">
<feFlood flood-opacity="0" result="BackgroundImageFix"/>
<feBlend mode="normal" in="SourceGraphic" in2="BackgroundImageFix" result="shape"/>
<feGaussianBlur stdDeviation="250" result="effect1_foregroundBlur_13_134"/>
</filter>
<clipPath id="clip0_13_134">
<rect width="1320" height="572" fill="white"/>
</clipPath>
</defs>
</svg>
