<svg width="1320" height="572" viewBox="0 0 1320 572" fill="none" xmlns="http://www.w3.org/2000/svg">
<g clip-path="url(#clip0_13_148)">
<rect width="1320" height="572" fill="#EFE6DD"/>
<g filter="url(#filter0_f_13_148)">
<circle cx="84.5" cy="18.5" r="258.5" fill="#BB4430"/>
</g>
<g filter="url(#filter1_f_13_148)">
<circle cx="982.5" cy="-9.5" r="258.5" fill="#231F20"/>
</g>
<g filter="url(#filter2_f_13_148)">
<circle cx="143.5" cy="460.5" r="258.5" fill="#F3DFA2"/>
</g>
<g filter="url(#filter3_f_13_148)">
<circle cx="1241.5" cy="497.5" r="258.5" fill="#7EBDC2"/>
</g>
<path d="M304.156 250.168V263.722H273.637V313H257.48V263.722H226.962V250.168H304.156ZM335.003 301.421C345.595 301.421 352.057 299.446 355.917 294.061H371.176C367.676 307.525 354.571 313.898 335.003 313.898C314.897 313.898 299.278 305.999 299.278 286.611C299.278 267.133 314.448 259.234 335.901 259.234C356.007 259.234 372.074 266.145 372.074 290.201H314.986C316.692 298.638 324.77 301.421 335.003 301.421ZM335.811 270.903C325.309 270.903 317.949 272.967 315.525 280.417H355.648C353.045 272.967 345.505 270.903 335.811 270.903ZM376.504 286.611C376.504 267.133 391.224 259.234 413.126 259.234C432.873 259.234 446.786 265.696 449.299 281.225H433.591C431.527 274.403 424.256 272.069 413.126 272.069C399.931 272.069 391.853 275.57 391.853 286.611C391.853 297.561 399.931 301.062 413.126 301.062C424.256 301.062 431.527 298.728 433.591 291.906H449.299C446.786 307.435 432.873 313.898 413.126 313.898C391.224 313.898 376.504 305.999 376.504 286.611ZM501.289 259.234C515.381 259.234 528.576 264.26 528.756 283.738L528.576 313H513.137V289.573C513.137 278.353 509.367 272.518 496.711 272.518C486.389 272.518 475.259 277.814 470.501 283.379V313H455.152V241.192H470.501V269.377C478.041 263.452 488.453 259.234 501.289 259.234ZM582.02 259.234C596.113 259.234 609.307 264.26 609.487 283.738L609.307 313H593.869V289.573C593.869 278.353 590.099 272.518 577.443 272.518C567.12 272.518 555.99 277.814 551.233 283.379V313H535.884V260.131H551.233V269.377C558.773 263.452 569.185 259.234 582.02 259.234ZM616.615 241.192H631.964V254.566H616.615V241.192ZM616.615 260.131H631.964V313H616.615V260.131ZM637.807 286.611C637.807 267.133 652.528 259.234 674.429 259.234C694.176 259.234 708.089 265.696 710.602 281.225H694.894C692.83 274.403 685.559 272.069 674.429 272.069C661.234 272.069 653.156 275.57 653.156 286.611C653.156 297.561 661.234 301.062 674.429 301.062C685.559 301.062 692.83 298.728 694.894 291.906H710.602C708.089 307.435 694.176 313.898 674.429 313.898C652.528 313.898 637.807 305.999 637.807 286.611ZM750.957 259.234C773.038 259.234 785.604 266.325 785.784 286.341V313H770.345V306.448C761.01 311.025 750.688 313.898 738.211 313.898C723.401 313.898 714.156 309.14 714.156 297.202C714.156 283.469 729.235 279.16 746.02 279.16C755.086 279.16 763.434 280.597 770.345 282.93C770.345 272.877 757.42 272.069 750.239 272.069C743.328 272.069 734.89 272.698 724.029 275.929L718.554 264.709C729.325 261.208 739.917 259.234 750.957 259.234ZM770.345 296.574V292.445C764.96 290.74 757.689 289.214 747.905 289.214C736.416 289.214 729.504 291.188 729.504 296.574C729.504 302.139 734.621 302.588 742.609 302.588C750.957 302.588 762.446 299.985 770.345 296.574ZM792.98 241.192H808.329V313H792.98V241.192ZM856.159 291.368H872.315C872.315 298.01 877.701 301.062 898.166 301.062C915.131 301.062 920.247 299.177 920.247 294.24C920.247 289.034 916.657 288.136 896.281 287.149C868.905 285.892 858.044 281.584 858.044 267.492C858.044 253.669 872.136 249.27 895.653 249.27C919.35 249.27 933.711 255.195 933.711 270.723H917.555C917.555 263.812 910.643 262.106 893.858 262.106C877.97 262.106 874.2 263.632 874.2 268.3C874.2 273.147 877.97 274.044 896.281 275.121C921.055 276.468 936.404 277.814 936.404 293.702C936.404 310.487 920.517 313.898 897.269 313.898C871.508 313.898 856.159 309.499 856.159 291.368ZM1008.68 263.004H958.415V275.75H1008.68V287.418H958.415V300.164H1008.68V313H942.258V250.168H1008.68V263.004ZM1052.65 313.898C1025 313.898 1013.15 302.408 1013.15 281.494C1013.15 260.67 1025 249.27 1052.65 249.27C1080.2 249.27 1092.14 260.76 1092.14 281.494C1092.14 302.319 1080.2 313.898 1052.65 313.898ZM1052.65 300.344C1069.43 300.344 1075.98 294.33 1075.98 281.494C1075.98 268.748 1069.52 262.824 1052.65 262.824C1035.77 262.824 1029.31 268.659 1029.31 281.494C1029.31 294.42 1035.86 300.344 1052.65 300.344Z" fill="black"/>
</g>
<defs>
<filter id="filter0_f_13_148" x="-674" y="-740" width="1517" height="1517" filterUnits="userSpaceOnUse" color-interpolation-filters="sRGB">
<feFlood flood-opacity="0" result="BackgroundImageFix"/>
<feBlend mode="normal" in="SourceGraphic" in2="BackgroundImageFix" result="shape"/>
<feGaussianBlur stdDeviation="250" result="effect1_foregroundBlur_13_148"/>
</filter>
<filter id="filter1_f_13_148" x="224" y="-768" width="1517" height="1517" filterUnits="userSpaceOnUse" color-interpolation-filters="sRGB">
<feFlood flood-opacity="0" result="BackgroundImageFix"/>
<feBlend mode="normal" in="SourceGraphic" in2="BackgroundImageFix" result="shape"/>
<feGaussianBlur stdDeviation="250" result="effect1_foregroundBlur_13_148"/>
</filter>
<filter id="filter2_f_13_148" x="-615" y="-298" width="1517" height="1517" filterUnits="userSpaceOnUse" color-interpolation-filters="sRGB">
<feFlood flood-opacity="0" result="BackgroundImageFix"/>
<feBlend mode="normal" in="SourceGraphic" in2="BackgroundImageFix" result="shape"/>
<feGaussianBlur stdDeviation="250" result="effect1_foregroundBlur_13_148"/>
</filter>
<filter id="filter3_f_13_148" x="483" y="-261" width="1517" height="1517" filterUnits="userSpaceOnUse" color-interpolation-filters="sRGB">
<feFlood flood-opacity="0" result="BackgroundImageFix"/>
<feBlend mode="normal" in="SourceGraphic" in2="BackgroundImageFix" result="shape"/>
<feGaussianBlur stdDeviation="250" result="effect1_foregroundBlur_13_148"/>
</filter>
<clipPath id="clip0_13_148">
<rect width="1320" height="572" fill="white"/>
</clipPath>
</defs>
</svg>
