<svg width="1320" height="572" viewBox="0 0 1320 572" fill="none" xmlns="http://www.w3.org/2000/svg">
<g clip-path="url(#clip0_12_85)">
<rect width="1320" height="572" fill="#EFE6DD"/>
<g filter="url(#filter0_f_12_85)">
<circle cx="84.5" cy="18.5" r="258.5" fill="#BB4430"/>
</g>
<g filter="url(#filter1_f_12_85)">
<circle cx="982.5" cy="-9.5" r="258.5" fill="#231F20"/>
</g>
<g filter="url(#filter2_f_12_85)">
<circle cx="143.5" cy="460.5" r="258.5" fill="#F3DFA2"/>
</g>
<g filter="url(#filter3_f_12_85)">
<circle cx="1241.5" cy="497.5" r="258.5" fill="#7EBDC2"/>
</g>
<path d="M136.962 281.494C136.962 260.67 148.81 249.27 176.456 249.27C201.5 249.27 214.066 258.785 215.682 276.916H199.256C197.73 266.774 189.92 262.824 176.456 262.824C160.03 262.824 153.119 268.659 153.119 281.494C153.119 294.42 160.12 300.344 176.456 300.344C189.831 300.344 197.73 296.305 199.256 286.072H215.682C214.066 304.293 201.5 313.898 176.456 313.898C148.81 313.898 136.962 302.408 136.962 281.494ZM280.174 260.131H295.523V313H280.174V303.755C272.634 309.679 262.222 313.898 249.386 313.898C235.294 313.898 222.099 308.871 221.92 289.393L222.099 260.131H237.538V283.559C237.538 294.779 241.308 300.613 253.964 300.613C264.287 300.613 275.417 295.317 280.174 289.752V260.131ZM301.405 294.42H316.754C316.754 300.075 322.589 302.229 339.733 302.229C356.338 302.229 359.031 301.152 359.031 297.023C359.031 292.984 356.518 292.714 337.938 291.547C314.69 290.201 303.29 288.406 303.29 275.66C303.29 261.837 319.447 259.234 338.297 259.234C358.223 259.234 372.675 261.837 372.675 276.378H357.236C357.236 271.98 351.671 270.903 337.399 270.903C322.858 270.903 318.729 271.98 318.729 275.032C318.729 278.353 321.511 278.891 339.733 280.238C360.378 281.764 374.47 282.302 374.47 296.394C374.47 311.295 361.006 313.898 340.63 313.898C320.255 313.898 301.405 311.295 301.405 294.42ZM430.395 272.967H405.352V288.226C405.352 298.459 407.327 301.062 416.662 301.062C421.509 301.062 424.202 301.062 430.395 300.164V312.551C425.279 313.449 419.445 313.898 412.353 313.898C398.71 313.898 389.913 308.781 389.913 297.112V272.967H376.001V260.131H389.913V249.181L405.352 244.782V260.131H430.395V272.967ZM470.827 313.898C448.925 313.898 434.204 305.999 434.204 286.611C434.204 267.133 448.925 259.234 470.827 259.234C492.638 259.234 507.449 267.133 507.449 286.611C507.449 305.999 492.638 313.898 470.827 313.898ZM470.827 301.062C485.009 301.062 492.01 297.561 492.01 286.611C492.01 275.57 485.009 272.069 470.827 272.069C456.555 272.069 449.553 275.57 449.553 286.611C449.553 297.561 456.555 301.062 470.827 301.062ZM605.026 259.234C616.874 259.234 627.646 264.26 627.825 283.379L627.646 313H612.297V289.573C612.297 278.353 610.412 272.518 599.461 272.518C591.383 272.518 583.484 276.378 578.816 280.597C578.906 281.494 578.906 282.392 578.906 283.379L578.726 313H563.377V289.573C563.377 278.353 561.493 272.518 550.542 272.518C541.656 272.518 533.039 277.096 528.64 281.853V313H513.291V260.131H528.64V268.748C534.385 264.171 543.002 259.234 556.107 259.234C564.096 259.234 571.635 261.568 575.675 268.928C582.496 263.812 591.921 259.234 605.026 259.234ZM675.697 291.368H691.854C691.854 298.01 697.24 301.062 717.705 301.062C734.67 301.062 739.786 299.177 739.786 294.24C739.786 289.034 736.196 288.136 715.82 287.149C688.443 285.892 677.582 281.584 677.582 267.492C677.582 253.669 691.675 249.27 715.192 249.27C738.888 249.27 753.25 255.195 753.25 270.723H737.093C737.093 263.812 730.182 262.106 713.397 262.106C697.509 262.106 693.739 263.632 693.739 268.3C693.739 273.147 697.509 274.044 715.82 275.121C740.594 276.468 755.943 277.814 755.943 293.702C755.943 310.487 740.055 313.898 716.808 313.898C691.046 313.898 675.697 309.499 675.697 291.368ZM799.429 313.898C771.783 313.898 759.935 302.408 759.935 281.494C759.935 260.67 771.783 249.27 799.429 249.27C826.986 249.27 838.924 260.76 838.924 281.494C838.924 302.319 826.986 313.898 799.429 313.898ZM799.429 300.344C816.215 300.344 822.767 294.33 822.767 281.494C822.767 268.748 816.304 262.824 799.429 262.824C782.555 262.824 776.092 268.659 776.092 281.494C776.092 294.42 782.644 300.344 799.429 300.344ZM845.246 241.192H860.595V313H845.246V241.192ZM925.938 260.131H941.287V313H925.938V303.755C918.398 309.679 907.986 313.898 895.15 313.898C881.058 313.898 867.863 308.871 867.684 289.393L867.863 260.131H883.302V283.559C883.302 294.779 887.072 300.613 899.728 300.613C910.05 300.613 921.181 295.317 925.938 289.752V260.131ZM1001.56 272.967H976.52V288.226C976.52 298.459 978.495 301.062 987.83 301.062C992.677 301.062 995.37 301.062 1001.56 300.164V312.551C996.447 313.449 990.613 313.898 983.522 313.898C969.878 313.898 961.082 308.781 961.082 297.112V272.967H947.169V260.131H961.082V249.181L976.52 244.782V260.131H1001.56V272.967ZM1007.85 241.192H1023.2V254.566H1007.85V241.192ZM1007.85 260.131H1023.2V313H1007.85V260.131ZM1065.66 313.898C1043.76 313.898 1029.04 305.999 1029.04 286.611C1029.04 267.133 1043.76 259.234 1065.66 259.234C1087.47 259.234 1102.28 267.133 1102.28 286.611C1102.28 305.999 1087.47 313.898 1065.66 313.898ZM1065.66 301.062C1079.84 301.062 1086.85 297.561 1086.85 286.611C1086.85 275.57 1079.84 272.069 1065.66 272.069C1051.39 272.069 1044.39 275.57 1044.39 286.611C1044.39 297.561 1051.39 301.062 1065.66 301.062ZM1154.26 259.234C1168.36 259.234 1181.55 264.26 1181.73 283.738L1181.55 313H1166.11V289.573C1166.11 278.353 1162.34 272.518 1149.69 272.518C1139.36 272.518 1128.23 277.814 1123.48 283.379V313H1108.13V260.131H1123.48V269.377C1131.02 263.452 1141.43 259.234 1154.26 259.234Z" fill="black"/>
</g>
<defs>
<filter id="filter0_f_12_85" x="-674" y="-740" width="1517" height="1517" filterUnits="userSpaceOnUse" color-interpolation-filters="sRGB">
<feFlood flood-opacity="0" result="BackgroundImageFix"/>
<feBlend mode="normal" in="SourceGraphic" in2="BackgroundImageFix" result="shape"/>
<feGaussianBlur stdDeviation="250" result="effect1_foregroundBlur_12_85"/>
</filter>
<filter id="filter1_f_12_85" x="224" y="-768" width="1517" height="1517" filterUnits="userSpaceOnUse" color-interpolation-filters="sRGB">
<feFlood flood-opacity="0" result="BackgroundImageFix"/>
<feBlend mode="normal" in="SourceGraphic" in2="BackgroundImageFix" result="shape"/>
<feGaussianBlur stdDeviation="250" result="effect1_foregroundBlur_12_85"/>
</filter>
<filter id="filter2_f_12_85" x="-615" y="-298" width="1517" height="1517" filterUnits="userSpaceOnUse" color-interpolation-filters="sRGB">
<feFlood flood-opacity="0" result="BackgroundImageFix"/>
<feBlend mode="normal" in="SourceGraphic" in2="BackgroundImageFix" result="shape"/>
<feGaussianBlur stdDeviation="250" result="effect1_foregroundBlur_12_85"/>
</filter>
<filter id="filter3_f_12_85" x="483" y="-261" width="1517" height="1517" filterUnits="userSpaceOnUse" color-interpolation-filters="sRGB">
<feFlood flood-opacity="0" result="BackgroundImageFix"/>
<feBlend mode="normal" in="SourceGraphic" in2="BackgroundImageFix" result="shape"/>
<feGaussianBlur stdDeviation="250" result="effect1_foregroundBlur_12_85"/>
</filter>
<clipPath id="clip0_12_85">
<rect width="1320" height="572" fill="white"/>
</clipPath>
</defs>
</svg>
