<svg width="1320" height="572" viewBox="0 0 1320 572" fill="none" xmlns="http://www.w3.org/2000/svg">
<g clip-path="url(#clip0_12_71)">
<rect width="1320" height="572" fill="#EFE6DD"/>
<g filter="url(#filter0_f_12_71)">
<circle cx="84.5" cy="18.5" r="258.5" fill="#BB4430"/>
</g>
<g filter="url(#filter1_f_12_71)">
<circle cx="982.5" cy="-9.5" r="258.5" fill="#231F20"/>
</g>
<g filter="url(#filter2_f_12_71)">
<circle cx="143.5" cy="460.5" r="258.5" fill="#F3DFA2"/>
</g>
<g filter="url(#filter3_f_12_71)">
<circle cx="1241.5" cy="497.5" r="258.5" fill="#7EBDC2"/>
</g>
<path d="M397.282 263.722H347.016V279.699H391.896V293.343H347.016V313H330.86V250.168H397.282V263.722ZM461.341 260.131H476.69V313H461.341V303.755C453.801 309.679 443.389 313.898 430.553 313.898C416.461 313.898 403.266 308.871 403.086 289.393L403.266 260.131H418.705V283.559C418.705 294.779 422.474 300.613 435.131 300.613C445.453 300.613 456.583 295.317 461.341 289.752V260.131ZM483.469 241.192H498.818V313H483.469V241.192ZM505.997 241.192H521.346V313H505.997V241.192ZM530.846 276.109H602.654V288.855H530.846V276.109ZM611.251 291.368H627.408C627.408 298.01 632.793 301.062 653.259 301.062C670.223 301.062 675.34 299.177 675.34 294.24C675.34 289.034 671.749 288.136 651.374 287.149C623.997 285.892 613.136 281.584 613.136 267.492C613.136 253.669 627.228 249.27 650.745 249.27C674.442 249.27 688.804 255.195 688.804 270.723H672.647C672.647 263.812 665.735 262.106 648.95 262.106C633.063 262.106 629.293 263.632 629.293 268.3C629.293 273.147 633.063 274.044 651.374 275.121C676.147 276.468 691.496 277.814 691.496 293.702C691.496 310.487 675.609 313.898 652.361 313.898C626.6 313.898 611.251 309.499 611.251 291.368ZM749.007 272.967H723.964V288.226C723.964 298.459 725.938 301.062 735.273 301.062C740.12 301.062 742.813 301.062 749.007 300.164V312.551C743.89 313.449 738.056 313.898 730.965 313.898C717.321 313.898 708.525 308.781 708.525 297.112V272.967H694.612V260.131H708.525V249.181L723.964 244.782V260.131H749.007V272.967ZM790.757 259.234C812.838 259.234 825.404 266.325 825.584 286.341V313H810.145V306.448C800.81 311.025 790.488 313.898 778.011 313.898C763.201 313.898 753.955 309.14 753.955 297.202C753.955 283.469 769.035 279.16 785.82 279.16C794.886 279.16 803.234 280.597 810.145 282.93C810.145 272.877 797.22 272.069 790.039 272.069C783.127 272.069 774.69 272.698 763.829 275.929L758.354 264.709C769.125 261.208 779.716 259.234 790.757 259.234ZM810.145 296.574V292.445C804.76 290.74 797.489 289.214 787.705 289.214C776.216 289.214 769.304 291.188 769.304 296.574C769.304 302.139 774.421 302.588 782.409 302.588C790.757 302.588 802.246 299.985 810.145 296.574ZM831.005 286.611C831.005 267.133 845.726 259.234 867.627 259.234C887.375 259.234 901.287 265.696 903.801 281.225H888.093C886.028 274.403 878.758 272.069 867.627 272.069C854.433 272.069 846.354 275.57 846.354 286.611C846.354 297.561 854.433 301.062 867.627 301.062C878.758 301.062 886.028 298.728 888.093 291.906H903.801C901.287 307.435 887.375 313.898 867.627 313.898C845.726 313.898 831.005 305.999 831.005 286.611ZM989.72 260.131L955.432 281.764L989.72 313H968.357L943.045 289.932L925.003 300.793V313H909.654V241.192H925.003V283.918L963.51 260.131H989.72Z" fill="black"/>
</g>
<defs>
<filter id="filter0_f_12_71" x="-674" y="-740" width="1517" height="1517" filterUnits="userSpaceOnUse" color-interpolation-filters="sRGB">
<feFlood flood-opacity="0" result="BackgroundImageFix"/>
<feBlend mode="normal" in="SourceGraphic" in2="BackgroundImageFix" result="shape"/>
<feGaussianBlur stdDeviation="250" result="effect1_foregroundBlur_12_71"/>
</filter>
<filter id="filter1_f_12_71" x="224" y="-768" width="1517" height="1517" filterUnits="userSpaceOnUse" color-interpolation-filters="sRGB">
<feFlood flood-opacity="0" result="BackgroundImageFix"/>
<feBlend mode="normal" in="SourceGraphic" in2="BackgroundImageFix" result="shape"/>
<feGaussianBlur stdDeviation="250" result="effect1_foregroundBlur_12_71"/>
</filter>
<filter id="filter2_f_12_71" x="-615" y="-298" width="1517" height="1517" filterUnits="userSpaceOnUse" color-interpolation-filters="sRGB">
<feFlood flood-opacity="0" result="BackgroundImageFix"/>
<feBlend mode="normal" in="SourceGraphic" in2="BackgroundImageFix" result="shape"/>
<feGaussianBlur stdDeviation="250" result="effect1_foregroundBlur_12_71"/>
</filter>
<filter id="filter3_f_12_71" x="483" y="-261" width="1517" height="1517" filterUnits="userSpaceOnUse" color-interpolation-filters="sRGB">
<feFlood flood-opacity="0" result="BackgroundImageFix"/>
<feBlend mode="normal" in="SourceGraphic" in2="BackgroundImageFix" result="shape"/>
<feGaussianBlur stdDeviation="250" result="effect1_foregroundBlur_12_71"/>
</filter>
<clipPath id="clip0_12_71">
<rect width="1320" height="572" fill="white"/>
</clipPath>
</defs>
</svg>
