<svg width="1320" height="572" viewBox="0 0 1320 572" fill="none" xmlns="http://www.w3.org/2000/svg">
<g clip-path="url(#clip0_12_64)">
<rect width="1320" height="572" fill="#EFE6DD"/>
<g filter="url(#filter0_f_12_64)">
<circle cx="84.5" cy="18.5" r="258.5" fill="#BB4430"/>
</g>
<g filter="url(#filter1_f_12_64)">
<circle cx="982.5" cy="-9.5" r="258.5" fill="#231F20"/>
</g>
<g filter="url(#filter2_f_12_64)">
<circle cx="143.5" cy="460.5" r="258.5" fill="#F3DFA2"/>
</g>
<g filter="url(#filter3_f_12_64)">
<circle cx="1241.5" cy="497.5" r="258.5" fill="#7EBDC2"/>
</g>
<path d="M417.885 278.891C423.271 282.212 426.771 287.418 426.771 294.689C426.771 305.281 420.578 313 406.306 313H348.86V250.168H404.152C418.424 250.168 422.822 257.439 422.822 266.684C422.822 271.082 421.027 275.391 417.885 278.891ZM365.016 261.837V274.852H398.317H398.407C402.716 274.852 406.665 274.852 406.665 268.3C406.665 261.837 402.716 261.837 398.317 261.837H365.016ZM402.357 300.523C406.665 300.523 410.615 300.523 410.615 293.881C410.615 287.239 406.665 287.239 402.357 287.239H365.016V300.523H402.357ZM468.125 259.234C490.206 259.234 502.772 266.325 502.952 286.341V313H487.513V306.448C478.178 311.025 467.856 313.898 455.379 313.898C440.568 313.898 431.323 309.14 431.323 297.202C431.323 283.469 446.403 279.16 463.188 279.16C472.254 279.16 480.601 280.597 487.513 282.93C487.513 272.877 474.588 272.069 467.407 272.069C460.495 272.069 452.058 272.698 441.197 275.929L435.721 264.709C446.493 261.208 457.084 259.234 468.125 259.234ZM487.513 296.574V292.445C482.127 290.74 474.857 289.214 465.073 289.214C453.584 289.214 446.672 291.188 446.672 296.574C446.672 302.139 451.788 302.588 459.777 302.588C468.125 302.588 479.614 299.985 487.513 296.574ZM508.373 286.611C508.373 267.133 523.094 259.234 544.995 259.234C564.742 259.234 578.655 265.696 581.168 281.225H565.46C563.396 274.403 556.125 272.069 544.995 272.069C531.8 272.069 523.722 275.57 523.722 286.611C523.722 297.561 531.8 301.062 544.995 301.062C556.125 301.062 563.396 298.728 565.46 291.906H581.168C578.655 307.435 564.742 313.898 544.995 313.898C523.094 313.898 508.373 305.999 508.373 286.611ZM667.088 260.131L632.799 281.764L667.088 313H645.725L620.412 289.932L602.371 300.793V313H587.022V241.192H602.371V283.918L640.878 260.131H667.088ZM663.149 276.109H734.957V288.855H663.149V276.109ZM810.875 263.004H760.609V275.75H810.875V287.418H760.609V300.164H810.875V313H744.452V250.168H810.875V263.004ZM863.87 259.234C877.962 259.234 891.157 264.26 891.336 283.738L891.157 313H875.718V289.573C875.718 278.353 871.948 272.518 859.292 272.518C848.969 272.518 837.839 277.814 833.082 283.379V313H817.733V260.131H833.082V269.377C840.622 263.452 851.034 259.234 863.87 259.234ZM954.585 241.192H969.934V313H954.585V304.742C948.841 310.756 939.596 313.898 928.196 313.898C911.231 313.898 896.69 306.807 896.69 286.611C896.69 266.415 911.231 259.234 928.196 259.234C939.596 259.234 948.841 262.375 954.585 268.389V241.192ZM933.312 301.062C947.046 301.062 954.585 297.023 954.585 286.611C954.585 276.109 947.046 272.069 933.312 272.069C919.579 272.069 912.129 276.109 912.129 286.611C912.129 297.023 919.579 301.062 933.312 301.062Z" fill="black"/>
</g>
<defs>
<filter id="filter0_f_12_64" x="-674" y="-740" width="1517" height="1517" filterUnits="userSpaceOnUse" color-interpolation-filters="sRGB">
<feFlood flood-opacity="0" result="BackgroundImageFix"/>
<feBlend mode="normal" in="SourceGraphic" in2="BackgroundImageFix" result="shape"/>
<feGaussianBlur stdDeviation="250" result="effect1_foregroundBlur_12_64"/>
</filter>
<filter id="filter1_f_12_64" x="224" y="-768" width="1517" height="1517" filterUnits="userSpaceOnUse" color-interpolation-filters="sRGB">
<feFlood flood-opacity="0" result="BackgroundImageFix"/>
<feBlend mode="normal" in="SourceGraphic" in2="BackgroundImageFix" result="shape"/>
<feGaussianBlur stdDeviation="250" result="effect1_foregroundBlur_12_64"/>
</filter>
<filter id="filter2_f_12_64" x="-615" y="-298" width="1517" height="1517" filterUnits="userSpaceOnUse" color-interpolation-filters="sRGB">
<feFlood flood-opacity="0" result="BackgroundImageFix"/>
<feBlend mode="normal" in="SourceGraphic" in2="BackgroundImageFix" result="shape"/>
<feGaussianBlur stdDeviation="250" result="effect1_foregroundBlur_12_64"/>
</filter>
<filter id="filter3_f_12_64" x="483" y="-261" width="1517" height="1517" filterUnits="userSpaceOnUse" color-interpolation-filters="sRGB">
<feFlood flood-opacity="0" result="BackgroundImageFix"/>
<feBlend mode="normal" in="SourceGraphic" in2="BackgroundImageFix" result="shape"/>
<feGaussianBlur stdDeviation="250" result="effect1_foregroundBlur_12_64"/>
</filter>
<clipPath id="clip0_12_64">
<rect width="1320" height="572" fill="white"/>
</clipPath>
</defs>
</svg>
