<svg width="260" height="250" viewBox="0 0 260 250" fill="none" xmlns="http://www.w3.org/2000/svg">
<path d="M182.702 146.515L236.802 198.352L206.286 227.694L152.347 175.648L151.5 174.83V176.007V249.5H108.5V176.007V174.833L107.653 175.647L53.5249 227.694L23.1971 198.353L77.2983 146.515L78.1969 145.654H76.9524H0.5V104.346H76.9524H78.1938L77.2989 103.486L23.1976 51.4652L53.5238 22.3054L107.653 74.3531L108.5 75.1671V73.9927V0.5H151.5V73.9927V75.1699L152.347 74.3525L206.287 22.3049L236.801 51.4663L182.701 103.486L181.806 104.346H183.048H259.5V145.654H183.048H181.803L182.702 146.515Z" stroke="#EC6219"/>
</svg>
