<svg width="150" height="150" viewBox="0 0 150 150" fill="none" xmlns="http://www.w3.org/2000/svg">
<mask id="mask0_530_4" style="mask-type:alpha" maskUnits="userSpaceOnUse" x="0" y="0" width="150" height="150">
<rect width="150" height="150" fill="#D9D9D9"/>
</mask>
<g mask="url(#mask0_530_4)">
<path d="M149.99 84.1625C150.624 79.4872 121.718 74.6855 121.338 70.2629C120.831 65.7139 148.088 55.0997 146.567 50.8034C145.045 46.5072 117.027 54.5942 114.618 50.6771C112.21 46.7599 132.114 25.5314 128.944 22.246C125.775 18.9606 104.096 38.4201 100.166 35.8929C96.3622 33.4921 105.11 5.69279 100.673 4.0501C96.489 2.53378 85.3325 29.4485 80.7684 28.9431C76.0776 28.3113 71.7671 -0.498868 67.3299 0.00657319C62.7658 0.512015 64.414 29.5749 60.1035 30.9649C55.793 32.4812 39.3117 8.34635 35.5084 10.7472C31.5782 13.148 45.7775 38.6728 42.4812 41.8318C39.185 44.9908 13.956 30.333 11.4204 34.2502C9.01158 38.041 32.846 54.847 31.1979 59.2696C29.6765 63.3131 0.64417 61.165 0.010275 65.7139C-0.623619 70.3893 28.282 75.191 28.6623 79.6136C29.1694 84.2889 1.91196 94.7768 3.43331 99.0731C4.95465 103.369 32.9728 95.2823 35.3816 99.1994C37.7904 103.117 17.8861 124.345 21.0556 127.631C24.225 130.916 46.031 111.456 49.8344 113.984C53.6378 116.384 44.89 144.184 49.3273 145.826C53.511 147.343 64.6675 120.428 69.3583 121.06C74.0492 121.692 78.2328 150.375 82.6701 149.996C87.2342 149.491 85.586 120.428 89.8965 119.038C94.207 117.522 110.688 141.656 114.492 139.256C118.422 136.855 104.223 111.33 107.519 108.171C110.815 105.012 136.044 119.67 138.58 115.753C140.988 111.962 117.154 95.1559 118.802 90.7333C120.323 86.5634 149.483 88.8379 149.99 84.1625ZM100.039 83.9098C99.1514 86.437 112.717 96.0404 111.322 98.1885C109.928 100.337 95.4748 91.9969 93.5731 93.8923C91.6714 95.6613 99.7853 110.319 97.5033 111.583C95.348 112.973 85.9664 99.1994 83.4308 100.084C81.022 100.968 81.9094 117.522 79.2471 117.774C76.7115 118.027 74.3027 101.6 71.6404 101.221C68.978 100.842 62.6391 116.258 60.2303 115.374C57.6947 114.489 62.7658 98.5676 60.4838 97.1777C58.3286 95.7877 45.7775 106.781 44.0026 105.012C42.2277 103.117 53.511 90.986 52.2432 88.7115C50.8486 86.5634 34.8745 91.1124 33.987 88.7115C33.0996 86.3107 48.6934 80.2454 48.4398 77.5918C48.1863 75.0646 31.705 72.2847 32.0853 69.6311C32.4657 66.9775 49.0737 68.2411 49.9612 65.8403C50.8486 63.3131 37.2833 53.7097 38.6778 51.5616C40.0724 49.4135 54.5252 57.7532 56.4269 55.8578C58.3286 54.0888 50.2147 39.431 52.4967 38.1674C54.652 36.7774 64.0336 50.5507 66.5692 49.6662C68.978 48.7817 68.0905 32.2285 70.7529 31.9757C73.2885 31.723 75.6973 48.1499 78.3596 48.5289C81.022 48.908 87.3609 33.4921 89.7697 34.3766C92.3053 35.2611 87.2342 51.1825 89.5162 52.5725C91.6714 53.9624 104.223 42.9691 105.997 44.7381C107.646 46.7599 96.3622 58.8905 97.63 61.0386C99.0246 63.1867 114.999 58.6378 115.886 61.0386C116.774 63.4395 101.18 69.5048 101.433 72.1583C101.687 74.6855 118.168 77.4655 117.788 80.119C117.534 82.8989 100.926 81.6353 100.039 83.9098Z" fill="#EC6219"/>
</g>
</svg>
