<svg width="76" height="76" viewBox="0 0 76 76" fill="none" xmlns="http://www.w3.org/2000/svg">
<path d="M57.063 18.9375C56.8911 8.5625 48.4067 0.1875 38.0005 0.1875C27.5942 0.1875 19.1098 8.57812 18.938 18.9375C14.1723 19.0156 9.68796 20.8281 6.18796 24.1094C2.48483 27.5938 0.344207 32.3281 0.187957 37.4062C0.0317075 42.4844 1.85983 47.3438 5.35983 51.0469C8.84421 54.75 13.5786 56.8906 18.6567 57.0469H18.9223C19.0005 61.8125 20.813 66.3125 24.0942 69.7969C27.5786 73.5 32.313 75.6406 37.3911 75.7969C37.5942 75.7969 37.7973 75.8125 37.9848 75.8125C42.8598 75.8125 47.4692 73.9844 51.0317 70.6406C54.7348 67.1562 56.8755 62.4219 57.0317 57.3438V57.0781C67.4067 56.9062 75.7817 48.4219 75.7817 38.0156C75.813 27.5938 67.4223 19.1094 57.063 18.9375ZM38.0005 0.8125C48.063 0.8125 56.2661 8.92188 56.438 18.9375C47.2505 19.0781 39.6255 25.7656 38.0005 34.5156C37.3442 30.9531 35.688 27.6406 33.1411 24.9375C29.6567 21.2344 24.9223 19.0938 19.8442 18.9375H19.5786C19.7348 8.92188 27.938 0.8125 38.0005 0.8125ZM18.938 56.4375H18.688C13.7661 56.2812 9.18796 54.2344 5.82858 50.6406C2.45358 47.0469 0.672333 42.3594 0.828583 37.4375C0.984833 32.5156 3.03171 27.9375 6.62546 24.5781C10.0005 21.4062 14.3442 19.6406 18.938 19.5781C19.0786 28.7656 25.7661 36.3906 34.5161 38.0156C30.9536 38.6719 27.6411 40.3281 24.9223 42.875C21.2192 46.3594 19.0786 51.0938 18.9223 56.1719C18.938 56.25 18.938 56.3438 18.938 56.4375ZM56.438 57.3125C56.2817 62.2344 54.2348 66.8125 50.6411 70.1719C47.0473 73.5469 42.3598 75.3125 37.438 75.1719C32.5161 75.0156 27.938 72.9688 24.5786 69.375C21.4067 66 19.6411 61.6562 19.5786 57.0625C24.3442 56.9844 28.8442 55.1719 32.3286 51.8906C35.3286 49.0781 37.2817 45.4531 38.0161 41.4688C39.6411 50.2344 47.2661 56.9062 56.4536 57.0625C56.438 57.1406 56.438 57.2344 56.438 57.3125ZM57.063 56.4375C56.9848 51.6719 55.1723 47.1719 51.8911 43.6875C49.0786 40.6875 45.4536 38.7344 41.4692 38C50.2348 36.375 56.9067 28.75 57.063 19.5625C67.0942 19.7344 75.188 27.9375 75.188 38C75.188 48.0625 67.0786 56.2656 57.063 56.4375Z" fill="#DFDFDF"/>
</svg>
