<svg width="80" height="80" viewBox="0 0 80 80" fill="none" xmlns="http://www.w3.org/2000/svg">
<path d="M58.75 43.0312C63.2969 43.0312 67.8594 42.5312 72.2812 41.5156L78.9062 40L72.2969 38.4844C64.0781 36.6094 55.4375 36.4688 47.1562 38.0781C46.8438 36.9062 46.25 35.8594 45.4531 35L66.25 14.2031L65.8125 13.7656L45 34.5469C44.1406 33.75 43.0781 33.1562 41.9219 32.8438C43.5312 24.5625 43.3906 15.9219 41.5156 7.70312L40 1.09375L38.4844 7.70312C36.6094 15.9219 36.4688 24.5625 38.0781 32.8438C36.9062 33.1562 35.8594 33.75 35 34.5469L14.2031 13.75L13.75 14.2031L34.5469 35C33.75 35.8594 33.1562 36.9219 32.8438 38.0781C24.5625 36.4688 15.9219 36.6094 7.70312 38.4844L1.09375 40L7.70312 41.5156C12.125 42.5312 16.6875 43.0312 21.2344 43.0312C25.125 43.0312 29.0156 42.6562 32.8438 41.9219C33.1562 43.0938 33.75 44.1406 34.5469 45L13.75 65.7969L14.1875 66.2344L35 45.4531C35.8594 46.25 36.9219 46.8438 38.0781 47.1562C36.4688 55.4375 36.6094 64.0781 38.4844 72.2969L40 78.9062L41.5156 72.2969C43.3906 64.0781 43.5312 55.4375 41.9219 47.1562C43.0938 46.8438 44.1406 46.25 45 45.4531L65.7969 66.25L66.2344 65.8125L45.4531 45C46.25 44.1406 46.8438 43.0781 47.1562 41.9219C50.9687 42.6719 54.8594 43.0312 58.75 43.0312ZM72.1406 39.0938L76.0938 40L72.1406 40.9062C64.0156 42.7656 55.4688 42.9062 47.2812 41.3125C47.3594 40.8906 47.4062 40.4531 47.4062 40C47.4062 39.5469 47.3594 39.1094 47.2812 38.6875C55.4688 37.0938 64.0156 37.2344 72.1406 39.0938ZM39.0938 7.85938L40 3.90625L40.9062 7.85938C42.7656 15.9844 42.9062 24.5312 41.3125 32.7188C40.8906 32.6406 40.4531 32.5938 40 32.5938C39.5469 32.5938 39.1094 32.6406 38.6875 32.7188C37.0938 24.5312 37.2344 15.9844 39.0938 7.85938ZM7.85938 40.9062L3.90625 40L7.85938 39.0938C15.9844 37.2344 24.5312 37.0938 32.7188 38.6875C32.6406 39.1094 32.5938 39.5469 32.5938 40C32.5938 40.4531 32.6406 40.8906 32.7188 41.3125C24.5312 42.9062 15.9844 42.7656 7.85938 40.9062ZM40.9062 72.1406L40 76.0938L39.0938 72.1406C37.2344 64.0156 37.0938 55.4688 38.6875 47.2812C39.1094 47.3594 39.5469 47.4062 40 47.4062C40.4531 47.4062 40.8906 47.3594 41.3125 47.2812C42.9062 55.4688 42.7656 64.0156 40.9062 72.1406Z" fill="#DFDFDF"/>
</svg>
