<svg width="80" height="80" viewBox="0 0 80 80" fill="none" xmlns="http://www.w3.org/2000/svg">
<path d="M72.766 52.1876C70.266 48.2657 66.9848 44.1407 63.1254 40.0001C66.9848 35.8595 70.266 31.7345 72.766 27.8126C77.8441 19.8595 79.141 13.6563 76.4535 10.3282C73.7504 7.01571 67.4066 7.03134 58.5941 10.3907C52.8441 12.5782 46.4691 16.0157 40.0004 20.3751C33.5473 16.0157 27.1722 12.5938 21.4066 10.3907C12.5941 7.03134 6.25037 7.01571 3.54725 10.3282C0.844122 13.6407 2.15662 19.8595 7.23475 27.8126C9.73475 31.7345 13.016 35.8751 16.8754 40.0001C13.016 44.1407 9.73475 48.2657 7.23475 52.1876C2.15662 60.1407 0.859746 66.3438 3.54725 69.672C4.891 71.3126 7.12537 72.1407 10.1254 72.1407C13.1566 72.1407 16.9691 71.297 21.4066 69.6095C27.1566 67.422 33.5316 63.9845 40.0004 59.6251C46.4535 63.9845 52.8285 67.422 58.5941 69.6095C63.0316 71.297 66.8441 72.1407 69.8754 72.1407C72.8754 72.1407 75.1097 71.3126 76.4535 69.672C79.1566 66.3595 77.8441 60.1563 72.766 52.1876ZM58.8129 10.9688C63.0004 9.37509 66.6254 8.54696 69.5629 8.48446C72.5473 8.42196 74.7035 9.18759 75.9535 10.7188C77.2035 12.2657 77.5004 14.5157 76.8441 17.4376C76.1879 20.3126 74.641 23.6876 72.2347 27.4688C69.7504 31.3595 66.516 35.4376 62.6879 39.547C58.9223 35.5626 54.6254 31.5782 49.9535 27.7657C46.8441 25.2345 43.6879 22.8751 40.5472 20.7501C46.9066 16.4845 53.1566 13.1251 58.8129 10.9688ZM7.766 27.4688C5.35975 23.6876 3.79725 20.3126 3.15662 17.4376C2.50037 14.5157 2.79725 12.2657 4.04725 10.7188C5.25037 9.23446 7.29725 8.48446 10.141 8.48446H10.4535C13.4066 8.54696 17.016 9.37509 21.2035 10.9688C26.8597 13.1095 33.1098 16.4845 39.4535 20.7345C36.3129 22.8751 33.1566 25.2188 30.0473 27.7501C25.3754 31.547 21.0785 35.547 17.3129 39.5313C13.4847 35.4532 10.2347 31.3595 7.766 27.4688ZM21.1879 69.0313C17.0004 70.6251 13.3754 71.4532 10.4379 71.5157C7.4535 71.5782 5.29725 70.8126 4.04725 69.2813C2.79725 67.7345 2.50037 65.4845 3.15662 62.5626C3.81287 59.6876 5.35975 56.3126 7.766 52.5313C10.2504 48.6407 13.4847 44.5626 17.3129 40.4532C21.0785 44.4376 25.3754 48.422 30.0473 52.2345C33.1566 54.7657 36.3129 57.1251 39.4535 59.2501C33.0941 63.5157 26.8441 66.8751 21.1879 69.0313ZM30.4379 51.7501C25.7816 47.9532 21.4847 43.9845 17.7347 40.0001C21.4847 36.0157 25.7816 32.047 30.4379 28.2501C33.5941 25.672 36.8129 23.2813 40.0004 21.1251C43.1879 23.297 46.4066 25.6876 49.5629 28.2501C54.2348 32.047 58.516 36.0157 62.266 40.0001C58.516 43.9845 54.2191 47.9532 49.5629 51.7501C46.4066 54.3282 43.1879 56.7188 40.0004 58.8751C36.8129 56.7032 33.5941 54.3126 30.4379 51.7501ZM75.9691 69.2813C74.7191 70.8282 72.5629 71.5782 69.5785 71.5157C66.6254 71.4532 63.016 70.6251 58.8285 69.0313C53.1723 66.8907 46.9223 63.5157 40.5785 59.2657C43.7191 57.1251 46.8754 54.7813 49.9847 52.2501C54.6566 48.4532 58.9535 44.4532 62.7191 40.4688C66.5472 44.5626 69.7816 48.6563 72.266 52.547C74.6723 56.3282 76.2348 59.7032 76.8754 62.5782C77.516 65.4688 77.2191 67.7345 75.9691 69.2813Z" fill="#DFDFDF"/>
<path d="M41.7656 39.2656L45.3906 34.6094L40.7344 38.2344L40 27.2812L39.2656 38.2344L34.6094 34.6094L38.2344 39.2656L32.375 40L38.2344 40.7344L34.6094 45.3906L39.2656 41.7656L40 52.7187L40.7344 41.7656L45.3906 45.3906L41.7656 40.7344L47.625 40L41.7656 39.2656Z" fill="#DFDFDF"/>
</svg>
