<svg width="80" height="80" viewBox="0 0 80 80" fill="none" xmlns="http://www.w3.org/2000/svg">
<path d="M53.7812 15.9688C48.6563 15.9688 43.9062 17.5781 40 20.3281C36.0938 17.5781 31.3438 15.9688 26.2188 15.9688C12.9688 15.9688 2.1875 26.75 2.1875 40C2.1875 53.25 12.9688 64.0312 26.2188 64.0312C31.3438 64.0312 36.0938 62.4219 40 59.6719C43.9062 62.4219 48.6563 64.0312 53.7812 64.0312C67.0312 64.0312 77.8125 53.25 77.8125 40C77.8125 26.75 67.0312 15.9688 53.7812 15.9688ZM42.8438 23.5469L30.7969 35.6094C31.9219 29.6719 35.2969 24.5312 40 21.0938C41.0156 21.8438 41.9688 22.6562 42.8438 23.5469ZM34.8281 53.7031C34.1719 52.7969 33.5781 51.8281 33.0469 50.8281L49.0469 34.8438C49.3438 36.1719 49.5312 37.5469 49.5938 38.9375L34.8281 53.7031ZM31.2344 46.25C30.8906 44.9844 30.6406 43.6719 30.5 42.3281L45.7344 27.0938C46.3594 28.0469 46.9219 29.0312 47.4062 30.0625L31.2344 46.25ZM26.2188 63.4062C13.3125 63.4062 2.8125 52.9062 2.8125 40C2.8125 27.0938 13.3125 16.5938 26.2188 16.5938C31.125 16.5938 35.7031 18.125 39.4688 20.7188C33.5781 25.1094 29.7656 32.1094 29.7656 40C29.7656 47.8906 33.5781 54.8906 39.4688 59.2812C35.6875 61.875 31.125 63.4062 26.2188 63.4062ZM37.8438 57.125L48.7969 46.1562C47.375 51.3438 44.2344 55.8125 40 58.9062C39.25 58.3594 38.5156 57.75 37.8438 57.125ZM53.7812 63.4062C48.875 63.4062 44.2969 61.875 40.5312 59.2812C46.4219 54.8906 50.2344 47.8906 50.2344 40C50.2344 32.1094 46.4219 25.1094 40.5312 20.7188C44.2969 18.125 48.8594 16.5938 53.7812 16.5938C66.6875 16.5938 77.1875 27.0938 77.1875 40C77.1875 52.9062 66.6875 63.4062 53.7812 63.4062Z" fill="#DFDFDF"/>
</svg>
