<svg width="1320" height="572" viewBox="0 0 1320 572" fill="none" xmlns="http://www.w3.org/2000/svg">
<g clip-path="url(#clip0_12_78)">
<rect width="1320" height="572" fill="#EFE6DD"/>
<g filter="url(#filter0_f_12_78)">
<circle cx="84.5" cy="18.5" r="258.5" fill="#BB4430"/>
</g>
<g filter="url(#filter1_f_12_78)">
<circle cx="982.5" cy="-9.5" r="258.5" fill="#231F20"/>
</g>
<g filter="url(#filter2_f_12_78)">
<circle cx="143.5" cy="460.5" r="258.5" fill="#F3DFA2"/>
</g>
<g filter="url(#filter3_f_12_78)">
<circle cx="1241.5" cy="497.5" r="258.5" fill="#7EBDC2"/>
</g>
<path d="M302.282 263.004H252.016V275.75H302.282V287.418H252.016V300.164H302.282V313H235.86V250.168H302.282V263.004ZM310.936 276.109H382.744V288.855H310.936V276.109ZM391.341 281.494C391.341 260.67 403.189 249.27 430.835 249.27C455.878 249.27 468.445 258.785 470.06 276.916H453.634C452.108 266.774 444.299 262.824 430.835 262.824C414.409 262.824 407.498 268.659 407.498 281.494C407.498 294.42 414.499 300.344 430.835 300.344C444.209 300.344 452.108 296.305 453.634 286.072H470.06C468.445 304.293 455.878 313.898 430.835 313.898C403.189 313.898 391.341 302.408 391.341 281.494ZM512.113 313.898C490.211 313.898 475.491 305.999 475.491 286.611C475.491 267.133 490.211 259.234 512.113 259.234C533.925 259.234 548.735 267.133 548.735 286.611C548.735 305.999 533.925 313.898 512.113 313.898ZM512.113 301.062C526.295 301.062 533.296 297.561 533.296 286.611C533.296 275.57 526.295 272.069 512.113 272.069C497.841 272.069 490.84 275.57 490.84 286.611C490.84 297.561 497.841 301.062 512.113 301.062ZM646.313 259.234C658.161 259.234 668.932 264.26 669.112 283.379L668.932 313H653.583V289.573C653.583 278.353 651.698 272.518 640.747 272.518C632.669 272.518 624.77 276.378 620.103 280.597C620.192 281.494 620.192 282.392 620.192 283.379L620.013 313H604.664V289.573C604.664 278.353 602.779 272.518 591.828 272.518C582.942 272.518 574.325 277.096 569.927 281.853V313H554.578V260.131H569.927V268.748C575.671 264.171 584.288 259.234 597.393 259.234C605.382 259.234 612.922 261.568 616.961 268.928C623.783 263.812 633.208 259.234 646.313 259.234ZM768.067 259.234C779.915 259.234 790.687 264.26 790.866 283.379L790.687 313H775.338V289.573C775.338 278.353 773.453 272.518 762.502 272.518C754.424 272.518 746.525 276.378 741.857 280.597C741.947 281.494 741.947 282.392 741.947 283.379L741.767 313H726.418V289.573C726.418 278.353 724.533 272.518 713.583 272.518C704.696 272.518 696.08 277.096 691.681 281.853V313H676.332V260.131H691.681V268.748C697.426 264.171 706.043 259.234 719.148 259.234C727.136 259.234 734.676 261.568 738.716 268.928C745.537 263.812 754.962 259.234 768.067 259.234ZM832.037 301.421C842.629 301.421 849.092 299.446 852.951 294.061H868.21C864.71 307.525 851.605 313.898 832.037 313.898C811.931 313.898 796.313 305.999 796.313 286.611C796.313 267.133 811.482 259.234 832.935 259.234C853.041 259.234 869.108 266.145 869.108 290.201H812.021C813.726 298.638 821.805 301.421 832.037 301.421ZM832.845 270.903C822.343 270.903 814.983 272.967 812.559 280.417H852.682C850.079 272.967 842.539 270.903 832.845 270.903ZM917.418 259.234C923.701 259.234 928.099 260.131 931.69 261.029V273.865C926.663 272.608 922.624 272.069 918.136 272.069C909.519 272.069 899.645 274.044 890.31 281.315V313H874.961V260.131H890.31V269.107C898.209 262.016 907.544 259.234 917.418 259.234ZM933.144 286.611C933.144 267.133 947.865 259.234 969.766 259.234C989.513 259.234 1003.43 265.696 1005.94 281.225H990.232C988.167 274.403 980.896 272.069 969.766 272.069C956.572 272.069 948.493 275.57 948.493 286.611C948.493 297.561 956.572 301.062 969.766 301.062C980.896 301.062 988.167 298.728 990.232 291.906H1005.94C1003.43 307.435 989.513 313.898 969.766 313.898C947.865 313.898 933.144 305.999 933.144 286.611ZM1046.09 301.421C1056.69 301.421 1063.15 299.446 1067.01 294.061H1082.27C1078.77 307.525 1065.66 313.898 1046.09 313.898C1025.99 313.898 1010.37 305.999 1010.37 286.611C1010.37 267.133 1025.54 259.234 1046.99 259.234C1067.1 259.234 1083.16 266.145 1083.16 290.201H1026.08C1027.78 298.638 1035.86 301.421 1046.09 301.421ZM1046.9 270.903C1036.4 270.903 1029.04 272.967 1026.62 280.417H1066.74C1064.14 272.967 1056.6 270.903 1046.9 270.903Z" fill="black"/>
</g>
<defs>
<filter id="filter0_f_12_78" x="-674" y="-740" width="1517" height="1517" filterUnits="userSpaceOnUse" color-interpolation-filters="sRGB">
<feFlood flood-opacity="0" result="BackgroundImageFix"/>
<feBlend mode="normal" in="SourceGraphic" in2="BackgroundImageFix" result="shape"/>
<feGaussianBlur stdDeviation="250" result="effect1_foregroundBlur_12_78"/>
</filter>
<filter id="filter1_f_12_78" x="224" y="-768" width="1517" height="1517" filterUnits="userSpaceOnUse" color-interpolation-filters="sRGB">
<feFlood flood-opacity="0" result="BackgroundImageFix"/>
<feBlend mode="normal" in="SourceGraphic" in2="BackgroundImageFix" result="shape"/>
<feGaussianBlur stdDeviation="250" result="effect1_foregroundBlur_12_78"/>
</filter>
<filter id="filter2_f_12_78" x="-615" y="-298" width="1517" height="1517" filterUnits="userSpaceOnUse" color-interpolation-filters="sRGB">
<feFlood flood-opacity="0" result="BackgroundImageFix"/>
<feBlend mode="normal" in="SourceGraphic" in2="BackgroundImageFix" result="shape"/>
<feGaussianBlur stdDeviation="250" result="effect1_foregroundBlur_12_78"/>
</filter>
<filter id="filter3_f_12_78" x="483" y="-261" width="1517" height="1517" filterUnits="userSpaceOnUse" color-interpolation-filters="sRGB">
<feFlood flood-opacity="0" result="BackgroundImageFix"/>
<feBlend mode="normal" in="SourceGraphic" in2="BackgroundImageFix" result="shape"/>
<feGaussianBlur stdDeviation="250" result="effect1_foregroundBlur_12_78"/>
</filter>
<clipPath id="clip0_12_78">
<rect width="1320" height="572" fill="white"/>
</clipPath>
</defs>
</svg>
