<svg width="40" height="40" viewBox="0 0 40 40" fill="none" xmlns="http://www.w3.org/2000/svg">
<path d="M7.08332 0.5H32.9167C36.8287 0.5 40 3.67132 40 7.58332V32.4167C40 36.3287 36.8287 39.5 32.9167 39.5H7.08332C3.17132 39.5 0 36.3287 0 32.4167V7.58332C0 3.67132 3.17132 0.5 7.08332 0.5Z" fill="#470137"/>
<path d="M21.0285 10.7565L16.0375 18.9943L21.3773 27.742C21.4116 27.8032 21.4212 27.8751 21.4042 27.9432C21.3862 28.0061 21.3237 27.9665 21.2164 27.9841H17.4061C17.1377 27.9841 16.9499 27.9747 16.8425 27.7956C16.4864 27.1016 16.1286 26.4084 15.7692 25.7161C15.4005 25.0078 15.0203 24.3056 14.6289 23.6096C14.2235 22.8892 13.8254 22.1646 13.4347 21.4361H13.4079C13.0471 22.157 12.6759 22.8727 12.2942 23.5828C11.9124 24.2929 11.5322 25.004 11.1539 25.716C10.7781 26.4229 10.3935 27.1251 10.0001 27.8224C9.92836 27.9834 9.80297 28 9.6243 28H5.94815C5.87683 28 5.83659 28.0282 5.82738 27.9566C5.81727 27.8911 5.83162 27.8243 5.86769 27.7687L11.0465 19.2626L6.00182 10.7296C5.94815 10.6584 5.93925 10.6002 5.97495 10.5552C5.99477 10.5323 6.01964 10.5144 6.0476 10.5027C6.07555 10.4911 6.10583 10.4861 6.13604 10.4881H9.91945C10.002 10.4836 10.0844 10.4974 10.161 10.5284C10.2252 10.5648 10.2802 10.6152 10.322 10.676C10.651 11.4056 11.0091 12.1217 11.3953 12.8227C11.7859 13.5335 12.184 14.2401 12.5895 14.9425C12.9887 15.634 13.3603 16.3412 13.7031 17.0624H13.73C14.0813 16.3414 14.4436 15.6257 14.8167 14.9157C15.1832 14.2181 15.5588 13.5159 15.9437 12.8093C16.3235 12.1118 16.6947 11.4096 17.0573 10.7029C17.0779 10.6367 17.1148 10.5767 17.1646 10.5285C17.2309 10.4949 17.3054 10.4809 17.3793 10.4882H20.8945C20.9341 10.4785 20.9759 10.4848 21.0108 10.5059C21.0457 10.527 21.0708 10.561 21.0806 10.6006C21.0875 10.6289 21.0863 10.6585 21.0771 10.6861C21.0678 10.7136 21.051 10.7381 21.0285 10.7565ZM28.7293 28.3323C27.4943 28.3511 26.2705 28.0944 25.1471 27.5809C24.1005 27.0966 23.2257 26.3059 22.6382 25.3135C22.0298 24.3031 21.7258 23.0374 21.7259 21.5166C21.7159 20.285 22.0305 19.0726 22.6382 18.0014C23.2643 16.9103 24.1849 16.0175 25.2947 15.4253C26.4574 14.7814 27.8616 14.4593 29.5076 14.4593C29.5969 14.4593 29.7131 14.4638 29.8564 14.4728C29.9994 14.482 30.1694 14.4954 30.3662 14.513V9.22683C30.3662 9.10191 30.42 9.03902 30.5273 9.03902H33.9082C33.9301 9.0359 33.9524 9.03792 33.9734 9.04491C33.9943 9.0519 34.0134 9.06367 34.029 9.07929C34.0446 9.09491 34.0564 9.11395 34.0634 9.13491C34.0704 9.15587 34.0724 9.17816 34.0693 9.20003V25.0586C34.0693 25.363 34.0827 25.694 34.1095 26.0515C34.1364 26.4095 34.1587 26.7315 34.1766 27.0174C34.1799 27.0732 34.1663 27.1286 34.1375 27.1765C34.1088 27.2244 34.0663 27.2625 34.0155 27.2858C33.1433 27.6496 32.2348 27.9194 31.3054 28.0908C30.4556 28.2476 29.5935 28.3284 28.7293 28.3323ZM30.3662 25.005V17.6795C30.2211 17.6402 30.073 17.6132 29.9234 17.5989C29.7406 17.5806 29.557 17.5716 29.3733 17.5722C28.7222 17.5657 28.0787 17.7127 27.495 18.0014C26.9265 18.284 26.4411 18.7093 26.0863 19.2358C25.7194 19.7724 25.5361 20.479 25.5361 21.3556C25.5231 21.9406 25.6186 22.5228 25.8178 23.0729C25.98 23.5162 26.2364 23.919 26.5692 24.2536C26.8879 24.5615 27.2736 24.7911 27.6962 24.9244C28.1425 25.069 28.609 25.1414 29.0781 25.1391C29.3284 25.1391 29.5609 25.1301 29.7757 25.1123C29.9757 25.0972 30.1736 25.0613 30.3662 25.005Z" fill="#FF61F6"/>
</svg>
