<svg width="40" height="40" viewBox="0 0 40 40" fill="none" xmlns="http://www.w3.org/2000/svg">
<path d="M7.08336 0.5H32.9167C36.8334 0.5 40 3.66664 40 7.58336V32.4167C40 36.3334 36.8334 39.5001 32.9166 39.5001H7.08336C3.16664 39.5 0 36.3334 0 32.4166V7.58336C0 3.66664 3.16664 0.5 7.08336 0.5Z" fill="#001834"/>
<path d="M9 27.8499V10.6999C9 10.5832 9.05 10.5165 9.16664 10.5165C9.45 10.5165 9.71664 10.5165 10.1 10.4999C10.5 10.4832 10.9166 10.4832 11.3666 10.4665C11.8166 10.4498 12.3 10.4499 12.8166 10.4331C13.3333 10.4165 13.8333 10.4165 14.3333 10.4165C15.6999 10.4165 16.8333 10.5831 17.7666 10.9331C18.6 11.2165 19.3666 11.6831 20 12.2998C20.5334 12.8331 20.95 13.4831 21.2166 14.1998C21.4666 14.8998 21.6 15.6164 21.6 16.3664C21.6 17.7998 21.2666 18.9831 20.6 19.9164C19.9334 20.8498 19 21.5498 17.9166 21.9498C16.7833 22.3664 15.5333 22.5164 14.1666 22.5164C13.7666 22.5164 13.5 22.5164 13.3333 22.4998C13.1666 22.4831 12.9333 22.4831 12.6166 22.4831V27.8331C12.6333 27.9498 12.55 28.0498 12.4333 28.0665H9.2C9.06664 28.0665 9 27.9999 9 27.8499ZM12.6334 13.7332V19.3332C12.8667 19.3499 13.0834 19.3666 13.2834 19.3666H14.1667C15.3176 19.3666 16.6467 19.0961 17.45 18.1833C18.1413 17.3977 18.1433 15.8397 17.5834 14.9833C16.9187 13.9667 15.5895 13.6721 14.45 13.6999C14.0166 13.6999 13.6334 13.6999 13.3166 13.7166C12.9834 13.6999 12.75 13.7165 12.6334 13.7332ZM32 18.3165C31.5 18.0499 30.9666 17.8665 30.4 17.7499C29.7834 17.6165 29.1666 17.5332 28.5334 17.5332C28.2 17.5166 27.85 17.5666 27.5334 17.6499C27.3167 17.6999 27.1334 17.8165 27.0167 17.9832C26.9334 18.1166 26.8834 18.2832 26.8834 18.4332C26.8834 18.5832 26.95 18.7332 27.05 18.8666C27.2 19.0499 27.4 19.1999 27.6166 19.3166C28 19.5166 28.4 19.6999 28.8 19.8666C29.7 20.1666 30.5666 20.5832 31.3666 21.0832C31.9166 21.4332 32.3666 21.8999 32.6833 22.4666C32.9499 22.9999 33.0833 23.5832 33.0666 24.1832C33.0833 24.9666 32.85 25.7499 32.4166 26.3999C31.95 27.0665 31.3 27.5832 30.55 27.8832C29.7334 28.2332 28.7334 28.4166 27.5334 28.4166C26.7667 28.4166 26.0167 28.3499 25.2667 28.1999C24.6789 28.0984 24.1072 27.919 23.5667 27.6666C23.4501 27.5999 23.3667 27.4832 23.3834 27.3499V24.4499C23.3834 24.3999 23.4 24.3333 23.45 24.2999C23.5 24.2666 23.55 24.2833 23.6 24.3166C24.25 24.6999 24.9334 24.9666 25.6666 25.1332C26.3 25.2999 26.9666 25.3832 27.6333 25.3832C28.2666 25.3832 28.7166 25.2999 29.0166 25.1499C29.2833 25.0332 29.4666 24.7499 29.4666 24.4499C29.4666 24.2165 29.3333 23.9999 29.0666 23.7832C28.8 23.5666 28.25 23.3166 27.4333 22.9999C26.5833 22.6999 25.7999 22.2999 25.0666 21.7999C24.55 21.4332 24.1166 20.9499 23.8 20.3832C23.5334 19.8499 23.4 19.2666 23.4166 18.6832C23.4166 17.9666 23.6166 17.2832 23.9833 16.6666C24.3999 15.9999 25.0166 15.4666 25.7333 15.1332C26.5166 14.7332 27.4999 14.5499 28.6833 14.5499C29.3666 14.5499 30.0666 14.5999 30.7499 14.6999C31.2499 14.7665 31.7333 14.8999 32.1833 15.0832C32.2499 15.0999 32.3166 15.1666 32.3499 15.2332C32.3666 15.2999 32.3833 15.3666 32.3833 15.4332V18.1499C32.3833 18.2165 32.3499 18.2832 32.2999 18.3165C32.15 18.3499 32.0666 18.3499 32 18.3165Z" fill="#00A9FF"/>
</svg>
