<svg width="38" height="38" viewBox="0 0 38 38" fill="none" xmlns="http://www.w3.org/2000/svg">
<path d="M31.1875 0.875H6.8125C3.18813 0.875 0.25 3.81313 0.25 7.4375V30.5625C0.25 34.1869 3.18813 37.125 6.8125 37.125H31.1875C34.8119 37.125 37.75 34.1869 37.75 30.5625V7.4375C37.75 3.81313 34.8119 0.875 31.1875 0.875Z" fill="#330000"/>
<path d="M19.1232 23.375H13.5311L12.0873 27.5438C12.0706 27.6812 11.9837 27.75 11.8264 27.75H9.20137C9.02637 27.75 8.96543 27.6641 9.01856 27.4922L14.0842 12.4469C14.2272 11.9888 14.2979 11.5111 14.2936 11.0313C14.2907 11.0101 14.2928 10.9885 14.2997 10.9683C14.3065 10.948 14.3179 10.9296 14.3331 10.9145C14.3482 10.8994 14.3666 10.888 14.3868 10.8811C14.4071 10.8743 14.4286 10.8722 14.4498 10.875H18.1248C18.2311 10.875 18.292 10.9188 18.3092 11.0031L23.9779 27.5188C24.0311 27.675 23.9873 27.75 23.8467 27.75H20.9076C20.8532 27.7532 20.7992 27.7401 20.7523 27.7122C20.7055 27.6844 20.6682 27.6431 20.6451 27.5938L19.1232 23.375ZM14.1561 20.5625H18.5123C18.4076 20.3328 16.4482 14.0109 16.3076 13.4781H16.2826L14.1561 20.5625ZM27.1107 14C26.8644 14.0105 26.6184 13.9716 26.3873 13.8854C26.1562 13.7993 25.9448 13.6677 25.7654 13.4984C25.5899 13.32 25.4534 13.107 25.3647 12.873C25.2759 12.6389 25.2368 12.389 25.2498 12.1391C25.2382 11.8859 25.2793 11.6331 25.3704 11.3967C25.4616 11.1603 25.6009 10.9454 25.7795 10.7656C25.9603 10.5935 26.1737 10.4592 26.4072 10.3707C26.6406 10.2822 26.8894 10.2411 27.1389 10.25C27.3888 10.237 27.6388 10.2761 27.8728 10.3649C28.1068 10.4536 28.3198 10.5901 28.4982 10.7656C28.6691 10.9496 28.8014 11.1659 28.8875 11.4018C28.9737 11.6376 29.0118 11.8883 28.9998 12.1391C29.0128 12.389 28.9737 12.6389 28.8849 12.873C28.7962 13.107 28.6597 13.32 28.4842 13.4984C28.3002 13.6693 28.0839 13.8016 27.848 13.8877C27.6122 13.9739 27.3615 14.012 27.1107 14ZM25.5623 27.5156V15.4594C25.5581 15.4309 25.5606 15.4018 25.5696 15.3745C25.5787 15.3472 25.594 15.3224 25.6143 15.302C25.6347 15.2817 25.6595 15.2664 25.6868 15.2573C25.7142 15.2483 25.7432 15.2458 25.7717 15.25H28.4779C28.5063 15.2461 28.5353 15.2489 28.5624 15.258C28.5896 15.2672 28.6143 15.2825 28.6346 15.3028C28.6548 15.323 28.6701 15.3477 28.6793 15.3749C28.6884 15.4021 28.6912 15.431 28.6873 15.4594V27.5406C28.6915 27.5691 28.689 27.5982 28.68 27.6255C28.6709 27.6528 28.6556 27.6776 28.6353 27.698C28.6149 27.7183 28.5901 27.7336 28.5628 27.7427C28.5355 27.7517 28.5064 27.7542 28.4779 27.75H25.7967C25.7649 27.7544 25.7325 27.7514 25.702 27.7412C25.6716 27.7309 25.6439 27.7138 25.6212 27.6911C25.5985 27.6684 25.5814 27.6407 25.5711 27.6103C25.5609 27.5798 25.5579 27.5474 25.5623 27.5156Z" fill="#FF9A00"/>
</svg>
