<svg width="41" height="41" viewBox="0 0 41 41" fill="none" xmlns="http://www.w3.org/2000/svg">
<path d="M9.39771 0.271484H32.0671C36.8496 0.271484 40.7324 4.15429 40.7324 8.93677V31.6062C40.7324 36.3887 36.8496 40.2715 32.0671 40.2715H9.39771C4.61523 40.2715 0.732422 36.3887 0.732422 31.6062V8.93677C0.732422 4.15429 4.61523 0.271484 9.39771 0.271484Z" fill="#FFD02F"/>
<path d="M28.5275 5.2666H24.1357L27.7936 11.6945L19.7439 5.2666H15.352L19.3769 13.1269L10.9602 5.2666H6.56836L10.9602 15.2696L6.56836 35.2755H10.9602L19.3769 13.8372L15.352 35.2755H19.7439L27.7936 12.4166L24.1357 35.2755H28.5275L36.5772 10.2622L28.5275 5.2666Z" fill="#050038"/>
</svg>
