<svg width="40" height="32" viewBox="0 0 40 32" fill="none" xmlns="http://www.w3.org/2000/svg">
<path d="M6.16674 22.0654L4.07425 22.8306L3.96289 29.0602L11.206 26.412C8.71962 25.5786 6.90635 24.1098 6.16674 22.0654Z" fill="#FDBD39"/>
<path d="M7.26141 15.4766L0 18.1314L4.07364 22.8323L6.16614 22.0671C5.42819 20.0294 5.88359 17.7289 7.26141 15.4766Z" fill="#F69833"/>
<path d="M19.4785 6.48577C10.2326 9.8659 4.27092 16.8424 6.16563 22.0656L39.6473 9.82431C37.7525 4.60108 28.7244 3.10564 19.4785 6.48577Z" fill="#FECF33"/>
<path d="M26.3328 25.4055C35.5787 22.0254 41.5504 15.0805 39.6457 9.82568L6.16406 22.0653C8.06875 27.3218 17.0869 28.7857 26.3328 25.4055Z" fill="#EE6723"/>
<path d="M39.646 9.82422L6.16602 22.0655C6.82086 23.8754 9.32221 24.767 12.8291 24.767C16.2496 24.767 20.6273 23.9203 25.1913 22.2518C34.4372 18.8717 40.9407 13.3973 39.646 9.82422Z" fill="#F69833"/>
<path d="M32.9831 7.12451C29.5643 7.12451 25.1848 7.97121 20.6209 9.63965C11.375 13.0198 4.87147 18.4925 6.16619 22.0656L39.6478 9.82429C38.9913 8.01446 36.4916 7.12451 32.9831 7.12451Z" fill="#FDBD39"/>
<path d="M31.1326 29.3915C30.147 29.3915 28.6944 28.5016 26.813 26.745C24.5875 24.6673 22.0396 21.6232 19.6347 18.1749C17.2314 14.7265 15.2569 11.2799 14.0735 8.46699C12.7854 5.40292 12.6009 3.5199 13.5267 2.86783C13.7411 2.72144 13.9954 2.64659 14.2547 2.65324C15.0076 2.65324 16.4768 3.21382 19.1909 5.88865L19.2507 5.94687L19.2424 6.03004C19.2241 6.223 19.2075 6.41596 19.1926 6.60726L19.1626 6.98486L18.8967 6.71704C15.9715 3.76775 14.6851 3.45003 14.2663 3.45003C14.1466 3.45003 14.0519 3.47332 13.9837 3.52156C13.5815 3.80435 13.5549 5.18833 14.8048 8.15759C15.9666 10.9189 17.9128 14.314 20.2845 17.7174C22.6579 21.1225 25.1676 24.12 27.3548 26.1611C29.7115 28.3618 30.7736 28.5997 31.121 28.5997C31.2406 28.5997 31.337 28.5748 31.4101 28.5232C31.834 28.2254 31.834 26.7433 30.4412 23.5461L30.3764 23.3998L30.516 23.3232C30.6556 23.2467 30.7919 23.1719 30.9182 23.0987L31.0861 23.0039L31.1642 23.1802C32.1514 25.4458 33.0755 28.3252 31.8639 29.1769C31.6495 29.3233 31.3935 29.3982 31.1326 29.3915Z" fill="#EE6723"/>
<path d="M26.5559 25.3094L26.5426 25.4824C26.3082 28.3768 25.6933 31.8567 24.0877 31.9981C24.0545 32.0014 24.0213 32.0014 23.9897 32.0014C22.8994 32.0014 21.8673 30.4378 20.9249 27.3554C20.0307 24.4377 19.3377 20.522 18.9737 16.3284C18.608 12.1349 18.613 8.15755 18.9886 5.12841C19.3975 1.82813 20.1753 0.104797 21.3022 0.00499034C21.3354 0.00166345 21.3703 0 21.4036 0C22.1947 0 23.3864 0.896598 24.6063 5.07185L23.8102 5.22489C23.403 3.83092 22.9592 2.69645 22.5188 1.91463C22.1116 1.19436 21.7144 0.796791 21.4036 0.796791C21.3936 0.796791 21.3836 0.796792 21.372 0.798455C20.8833 0.841705 20.172 2.02608 19.7764 5.22655C19.4075 8.2008 19.4025 12.1199 19.7631 16.2585C20.1238 20.3989 20.8052 24.2564 21.6828 27.1209C22.075 28.4034 22.5055 29.4613 22.9293 30.1783C23.3182 30.8403 23.6955 31.2046 23.9897 31.2046C23.9997 31.2046 24.0096 31.2046 24.0196 31.203C24.4866 31.163 25.3675 29.9288 25.7381 25.5888L26.5559 25.3094Z" fill="#EE6723"/>
</svg>
