<svg width="45" height="45" viewBox="0 0 45 45" fill="none" xmlns="http://www.w3.org/2000/svg">
<mask id="mask0_1927_70" style="mask-type:alpha" maskUnits="userSpaceOnUse" x="0" y="0" width="45" height="45">
<rect width="45" height="45" fill="#D9D9D9"/>
</mask>
<g mask="url(#mask0_1927_70)">
<mask id="mask1_1927_70" style="mask-type:alpha" maskUnits="userSpaceOnUse" x="0" y="1" width="45" height="45">
<rect y="1" width="45" height="45" fill="#D9D9D9"/>
</mask>
<g mask="url(#mask1_1927_70)">
</g>
<g clip-path="url(#clip0_1927_70)">
<path d="M0 1H45V46H0V1Z" fill="#F0DB4F"/>
<path d="M41.3167 35.2675C40.9873 33.2143 39.6484 31.4904 35.6831 29.8821C34.3058 29.249 32.7701 28.7956 32.3124 27.7518C32.1499 27.1444 32.1285 26.8022 32.2311 26.4343C32.5263 25.2409 33.9507 24.8688 35.08 25.211C35.8072 25.4548 36.4959 26.0152 36.9108 26.9092C38.8528 25.6516 38.8485 25.6601 40.2045 24.7961C39.7083 24.0261 39.4431 23.671 39.118 23.3417C37.9502 22.037 36.359 21.3655 33.8138 21.4168C33.3732 21.4724 32.9284 21.5323 32.4878 21.5879C31.2174 21.9087 30.0068 22.576 29.2967 23.47C27.1665 25.8869 27.7739 30.1173 30.3661 31.8583C32.9198 33.7747 36.6713 34.211 37.1503 36.0033C37.6166 38.1977 35.5377 38.9077 33.4716 38.6554C31.9488 38.3389 31.1019 37.5646 30.1865 36.1573C28.5011 37.1326 28.5011 37.1326 26.7687 38.1293C27.1794 39.0275 27.6114 39.4339 28.3001 40.2124C31.5596 43.519 39.7169 43.3564 41.1798 38.3517C41.2397 38.1805 41.6333 37.0342 41.3167 35.2675ZM24.4631 21.682H20.254C20.254 25.3179 20.2369 28.9282 20.2369 32.5641C20.2369 34.8783 20.3567 36.9999 19.9802 37.6501C19.3643 38.9291 17.7687 38.7708 17.0415 38.5227C16.3015 38.1591 15.9251 37.6415 15.4888 36.9101C15.369 36.7005 15.2792 36.538 15.2492 36.5251C14.1071 37.2224 12.9693 37.9238 11.8271 38.6211C12.3961 39.7889 13.2345 40.8027 14.3081 41.4614C15.9122 42.4238 18.0681 42.719 20.3224 42.2014C21.7896 41.7737 23.0558 40.8882 23.7188 39.5408C24.677 37.7742 24.4716 35.6354 24.4631 33.2699C24.4845 29.4115 24.4631 25.5532 24.4631 21.682Z" fill="#323330"/>
</g>
</g>
<defs>
<clipPath id="clip0_1927_70">
<rect width="45" height="45" fill="white" transform="translate(0 1)"/>
</clipPath>
</defs>
</svg>
