<svg width="45" height="47" viewBox="0 0 45 47" fill="none" xmlns="http://www.w3.org/2000/svg">
<mask id="mask0_1927_198" style="mask-type:alpha" maskUnits="userSpaceOnUse" x="0" y="1" width="45" height="45">
<rect y="1" width="45" height="45" fill="#D9D9D9"/>
</mask>
<g mask="url(#mask0_1927_198)">
</g>
<g clip-path="url(#clip0_1927_198)">
<path d="M11.2426 30.7237L4 23.489L27.5167 0H42M42 21.6756H27.5167L22.0913 27.095L29.334 34.3297" fill="#42A5F5" fill-opacity="0.8"/>
<path d="M22.0913 41.5629L27.5166 46.9822H42L29.3339 34.3301" fill="#0D47A1"/>
<path d="M14.8657 34.3336L22.0969 27.1084L29.3282 34.3317L22.0969 41.5569L14.8657 34.3336Z" fill="#42A5F5"/>
<path d="M22.0972 41.5563L29.3284 34.333L30.3378 35.3413L23.1066 42.5646L22.0972 41.5563Z" fill="url(#paint0_linear_1927_198)"/>
<path d="M22.0913 41.5628L32.8374 37.8543L29.3339 34.3281" fill="url(#paint1_linear_1927_198)"/>
</g>
<defs>
<linearGradient id="paint0_linear_1927_198" x1="25.7141" y1="37.9433" x2="26.7225" y2="38.9528" gradientUnits="userSpaceOnUse">
<stop offset="0.2" stop-opacity="0.15"/>
<stop offset="0.85" stop-color="#616161" stop-opacity="0.01"/>
</linearGradient>
<linearGradient id="paint1_linear_1927_198" x1="22.0939" y1="37.9457" x2="32.8398" y2="37.9457" gradientUnits="userSpaceOnUse">
<stop offset="0.2" stop-opacity="0.55"/>
<stop offset="0.85" stop-color="#616161" stop-opacity="0.01"/>
</linearGradient>
<clipPath id="clip0_1927_198">
<rect width="38" height="46.9818" fill="white" transform="translate(4)"/>
</clipPath>
</defs>
</svg>
