<svg width="45" height="45" viewBox="0 0 45 45" fill="none" xmlns="http://www.w3.org/2000/svg">
<mask id="mask0_1927_172" style="mask-type:alpha" maskUnits="userSpaceOnUse" x="0" y="0" width="45" height="45">
<rect width="45" height="45" fill="#D9D9D9"/>
</mask>
<g mask="url(#mask0_1927_172)">
</g>
<g clip-path="url(#clip0_1927_172)">
<path d="M0 0H45V45H0V0Z" fill="#282828"/>
<path d="M18.7912 13.0679C17.3917 13.0864 16.1867 13.3606 15.0029 13.9505C11.9796 15.4564 10.2338 18.6278 10.2338 22.6237C10.2338 26.6288 11.9512 29.7061 14.9849 31.1456C15.8044 31.5344 16.626 31.7461 17.8731 31.8944C18.5043 31.9197 19.0946 31.9646 19.7093 31.8944C20.9565 31.7461 21.778 31.5344 22.5975 31.1456C25.6315 29.7061 27.3488 26.629 27.3488 22.6237C27.3488 18.6278 25.6028 15.4564 22.5798 13.9505C21.3958 13.3606 20.191 13.0864 18.7912 13.0679ZM19.9948 15.8848C21.81 16.3685 23.1271 18.0062 23.6315 20.3953C23.9864 22.0731 23.8895 24.0118 23.3821 25.5388C22.5917 27.9167 20.8761 29.2597 18.7912 29.2381C16.7063 29.2597 14.9907 27.9167 14.2006 25.5388C13.6937 24.0118 13.5966 22.0731 13.9509 20.3953C14.4556 18.0062 15.7727 16.3685 17.5879 15.8848C18.411 15.7104 19.231 15.7419 19.9948 15.8848ZM6.73754 13.0679C6.37863 13.0679 6.02778 13.1743 5.72936 13.3737C5.43093 13.5731 5.19834 13.8565 5.06099 14.1881C4.92364 14.5197 4.8877 14.8846 4.95772 15.2366C5.02774 15.5886 5.20057 15.912 5.45436 16.1657C5.70815 16.4195 6.0315 16.5924 6.38352 16.6624C6.73553 16.7324 7.10041 16.6965 7.432 16.5591C7.76359 16.4218 8.047 16.1892 8.24641 15.8908C8.44581 15.5923 8.55224 15.2415 8.55224 14.8826C8.55224 14.4013 8.36105 13.9397 8.02073 13.5994C7.6804 13.2591 7.21883 13.0679 6.73754 13.0679ZM5.04199 18.6047V31.9321H8.4331V18.6047H5.04199ZM32.2796 31.9043C30.8266 31.6553 29.4292 31.4627 28.2429 30.7889C28.2272 30.775 28.9432 28.0992 28.9754 28.0513C30.8821 28.6987 33.566 29.6067 35.3757 28.7748C36.3622 28.2812 36.8481 27.3689 36.6849 26.316C36.5011 25.1324 35.6816 24.4503 33.4319 23.6093C30.9225 22.6714 29.4522 21.5183 28.8502 20.0192C28.5544 19.2818 28.4566 18.3434 28.5894 17.5236C28.9595 15.2435 30.7356 13.6575 33.4616 13.1726C34.2512 13.0321 35.9402 13.0309 36.7711 13.1698C37.9685 13.37 39.3419 13.823 39.3419 14.0177C39.3419 14.0894 38.6403 16.5634 38.6043 16.6182C37.4203 16.1492 36.0923 15.8141 34.9686 15.807C33.3787 15.787 31.655 16.7307 31.9592 18.3979C32.1744 19.4425 32.8411 19.9525 35.2948 20.9494C37.1021 21.6846 37.9693 22.1915 38.7125 22.9459C39.7455 23.9773 40.072 25.1874 40.0796 26.3869C40.0823 27.3859 39.9891 27.8521 39.6327 28.6234C38.7668 30.4968 37.0056 31.5829 34.3493 31.8817C33.8525 31.9372 32.6819 31.9499 32.2809 31.9043H32.2796Z" fill="white"/>
</g>
<defs>
<clipPath id="clip0_1927_172">
<rect width="45" height="45" fill="white"/>
</clipPath>
</defs>
</svg>
