<svg width="45" height="45" viewBox="0 0 45 45" fill="none" xmlns="http://www.w3.org/2000/svg">
<g clip-path="url(#clip0_259_955)">
<path d="M0 0H45V45H0V0Z" fill="#F0DB4F"/>
<path d="M41.3167 34.2675C40.9873 32.2143 39.6484 30.4904 35.6831 28.8821C34.3058 28.249 32.7701 27.7956 32.3124 26.7518C32.1499 26.1444 32.1285 25.8022 32.2311 25.4343C32.5263 24.2409 33.9507 23.8688 35.08 24.211C35.8072 24.4548 36.4959 25.0152 36.9108 25.9092C38.8528 24.6516 38.8485 24.6601 40.2045 23.7961C39.7083 23.0261 39.4431 22.671 39.118 22.3417C37.9502 21.037 36.359 20.3655 33.8138 20.4168C33.3732 20.4724 32.9284 20.5323 32.4878 20.5879C31.2174 20.9087 30.0068 21.576 29.2967 22.47C27.1665 24.8869 27.7739 29.1173 30.3661 30.8583C32.9198 32.7747 36.6713 33.211 37.1503 35.0033C37.6166 37.1977 35.5377 37.9077 33.4716 37.6554C31.9488 37.3389 31.1019 36.5646 30.1865 35.1573C28.5011 36.1326 28.5011 36.1326 26.7687 37.1293C27.1794 38.0275 27.6114 38.4339 28.3001 39.2124C31.5596 42.519 39.7169 42.3564 41.1798 37.3517C41.2397 37.1805 41.6333 36.0342 41.3167 34.2675ZM24.4631 20.682H20.254C20.254 24.3179 20.2369 27.9282 20.2369 31.5641C20.2369 33.8783 20.3567 35.9999 19.9802 36.6501C19.3643 37.9291 17.7687 37.7708 17.0415 37.5227C16.3015 37.1591 15.9251 36.6415 15.4888 35.9101C15.369 35.7005 15.2792 35.538 15.2492 35.5251C14.1071 36.2224 12.9693 36.9238 11.8271 37.6211C12.3961 38.7889 13.2345 39.8027 14.3081 40.4614C15.9122 41.4238 18.0681 41.719 20.3224 41.2014C21.7896 40.7737 23.0558 39.8882 23.7188 38.5408C24.677 36.7742 24.4716 34.6354 24.4631 32.2699C24.4845 28.4115 24.4631 24.5532 24.4631 20.682Z" fill="#323330"/>
</g>
<defs>
<clipPath id="clip0_259_955">
<rect width="45" height="45" fill="white"/>
</clipPath>
</defs>
</svg>
