<svg width="41" height="45" viewBox="0 0 41 45" fill="none" xmlns="http://www.w3.org/2000/svg">
<path d="M41 22.5037C41 19.8875 37.5987 17.4082 32.3838 15.8707C33.5872 10.7511 33.0524 6.67793 30.6957 5.37387C30.1525 5.06798 29.5173 4.92309 28.8237 4.92309V6.71818C29.2081 6.71818 29.5173 6.79063 29.7764 6.92747C30.913 7.55535 31.406 9.94612 31.0216 13.0211C30.9297 13.7778 30.7792 14.5747 30.5954 15.3877C28.9574 15.0014 27.169 14.7035 25.2886 14.5103C24.1604 13.0211 22.9904 11.6688 21.8121 10.4855C24.5365 8.04639 27.0938 6.71013 28.832 6.71013V4.91504C26.5338 4.91504 23.5253 6.49279 20.4833 9.2297C17.4413 6.50889 14.4327 4.94724 12.1345 4.94724V6.74233C13.8645 6.74233 16.4301 8.07054 19.1545 10.4935C17.9845 11.6768 16.8145 13.0211 15.703 14.5103C13.8143 14.7035 12.0259 15.0014 10.3879 15.3958C10.1957 14.5908 10.0536 13.81 9.95332 13.0614C9.56054 9.98637 10.0453 7.5956 11.1735 6.95967C11.4242 6.81478 11.7501 6.75038 12.1345 6.75038V4.95529C11.4325 4.95529 10.7974 5.10018 10.2458 5.40607C7.89747 6.71013 7.37097 10.7752 8.58276 15.8788C3.38463 17.4243 0 19.8956 0 22.5037C0 25.1199 3.40134 27.5992 8.61618 29.1367C7.41276 34.2563 7.94762 38.3295 10.3043 39.6335C10.8475 39.9394 11.4827 40.0843 12.1847 40.0843C14.4829 40.0843 17.4914 38.5066 20.5334 35.7697C23.5754 38.4905 26.584 40.0521 28.8822 40.0521C29.5842 40.0521 30.2193 39.9072 30.7709 39.6013C33.1192 38.2973 33.6457 34.2322 32.434 29.1286C37.6154 27.5911 41 25.1118 41 22.5037ZM30.119 17.1345C29.8098 18.173 29.4254 19.2436 28.9908 20.3142C28.6482 19.6702 28.2888 19.0262 27.896 18.3822C27.5116 17.7383 27.1021 17.1104 26.6926 16.4986C27.8793 16.6677 29.0243 16.8769 30.119 17.1345ZM26.2915 25.7075C25.6396 26.7942 24.9711 27.8246 24.2774 28.7825C23.0322 28.8871 21.7703 28.9435 20.5 28.9435C19.2381 28.9435 17.9762 28.8871 16.7393 28.7906C16.0457 27.8326 15.3687 26.8103 14.7169 25.7317C14.0817 24.6771 13.5051 23.6065 12.9786 22.5279C13.4967 21.4492 14.0817 20.3705 14.7085 19.316C15.3604 18.2293 16.0289 17.1989 16.7226 16.241C17.9678 16.1364 19.2297 16.08 20.5 16.08C21.7619 16.08 23.0238 16.1364 24.2607 16.233C24.9543 17.1909 25.6313 18.2132 26.2831 19.2919C26.9183 20.3464 27.4949 21.417 28.0214 22.4957C27.4949 23.5743 26.9183 24.653 26.2915 25.7075ZM28.9908 24.661C29.4421 25.7397 29.8265 26.8184 30.1441 27.8648C29.0493 28.1224 27.896 28.3398 26.701 28.5088C27.1105 27.889 27.52 27.2531 27.9044 26.601C28.2888 25.957 28.6482 25.305 28.9908 24.661ZM20.5167 33.2501C19.7395 32.4773 18.9623 31.616 18.1934 30.6742C18.9456 30.7064 19.7144 30.7305 20.4916 30.7305C21.2772 30.7305 22.0544 30.7144 22.8149 30.6742C22.0628 31.616 21.2856 32.4773 20.5167 33.2501ZM14.299 28.5088C13.1123 28.3398 11.9674 28.1305 10.8726 27.8729C11.1818 26.8345 11.5662 25.7639 12.0008 24.6932C12.3435 25.3372 12.7028 25.9812 13.0956 26.6252C13.4884 27.2692 13.8895 27.897 14.299 28.5088ZM20.4749 11.7573C21.2521 12.5301 22.0294 13.3914 22.7982 14.3332C22.0461 14.301 21.2772 14.2769 20.5 14.2769C19.7144 14.2769 18.9372 14.293 18.1767 14.3332C18.9289 13.3914 19.7061 12.5301 20.4749 11.7573ZM14.2907 16.4986C13.8812 17.1184 13.4717 17.7544 13.0872 18.4064C12.7028 19.0504 12.3435 19.6944 12.0008 20.3383C11.5495 19.2597 11.1651 18.181 10.8475 17.1345C11.9423 16.885 13.0956 16.6677 14.2907 16.4986ZM6.72748 26.5769C3.76906 25.3614 1.85528 23.7675 1.85528 22.5037C1.85528 21.2399 3.76906 19.638 6.72748 18.4305C7.44619 18.1327 8.23176 17.8671 9.0424 17.6175C9.51875 19.1953 10.1455 20.8374 10.9227 22.5198C10.1539 24.1942 9.53547 25.8282 9.06747 27.3979C8.24012 27.1484 7.45455 26.8747 6.72748 26.5769ZM11.2236 38.0799C10.087 37.4521 9.59397 35.0613 9.9784 31.9863C10.0703 31.2296 10.2208 30.4327 10.4046 29.6197C12.0426 30.0061 13.831 30.3039 15.7114 30.4971C16.8396 31.9863 18.0096 33.3387 19.1879 34.522C16.4635 36.961 13.9062 38.2973 12.168 38.2973C11.7919 38.2892 11.4743 38.2168 11.2236 38.0799ZM31.0467 31.946C31.4395 35.021 30.9547 37.4118 29.8265 38.0477C29.5758 38.1926 29.2499 38.257 28.8655 38.257C27.1355 38.257 24.5699 36.9288 21.8455 34.5059C23.0155 33.3226 24.1855 31.9782 25.297 30.489C27.1857 30.2959 28.9741 29.998 30.6121 29.6036C30.8043 30.4166 30.9548 31.1974 31.0467 31.946ZM34.2642 26.5769C33.5455 26.8747 32.7599 27.1404 31.9492 27.3899C31.4729 25.8122 30.8461 24.17 30.0689 22.4876C30.8378 20.8133 31.4562 19.1792 31.9242 17.6095C32.7515 17.859 33.5371 18.1327 34.2725 18.4305C37.2309 19.6461 39.1447 21.2399 39.1447 22.5037C39.1364 23.7675 37.2226 25.3694 34.2642 26.5769Z" fill="#61DAFB"/>
<path d="M20.4921 26.1827C22.6013 26.1827 24.3113 24.5356 24.3113 22.5039C24.3113 20.4722 22.6013 18.8252 20.4921 18.8252C18.3828 18.8252 16.6729 20.4722 16.6729 22.5039C16.6729 24.5356 18.3828 26.1827 20.4921 26.1827Z" fill="#61DAFB"/>
</svg>
