<svg width="45" height="45" viewBox="0 0 45 45" fill="none" xmlns="http://www.w3.org/2000/svg">
<g clip-path="url(#clip0_259_1060)">
<path d="M0 22.5V0H45V45H0" fill="#007ACC"/>
<path d="M9.86621 22.5783V24.4121H15.7162V41.0621H19.8675V24.4121H25.7175V22.6121C25.7175 21.5996 25.7175 20.7783 25.6725 20.7558C25.6725 20.7221 22.1062 20.7108 17.775 20.7108L9.89996 20.7446V22.5896L9.86621 22.5783ZM36.1575 20.6996C37.305 20.9696 38.1825 21.4871 38.97 22.3083C39.3862 22.7583 40.005 23.5458 40.05 23.7483C40.05 23.8158 38.1037 25.1321 36.9225 25.8633C36.8775 25.8971 36.6975 25.7058 36.5175 25.4133C35.9325 24.5808 35.3362 24.2208 34.4025 24.1533C33.0525 24.0633 32.1525 24.7721 32.1525 25.9533C32.1525 26.3133 32.22 26.5158 32.355 26.8083C32.6587 27.4271 33.2212 27.7983 34.965 28.5633C38.1825 29.9471 39.5775 30.8583 40.4212 32.1633C41.3775 33.6258 41.5912 35.9208 40.95 37.6421C40.23 39.5208 38.475 40.7921 35.9662 41.2083C35.1787 41.3433 33.3787 41.3208 32.535 41.1746C30.735 40.8371 29.0137 39.9371 27.9562 38.7783C27.54 38.3283 26.7412 37.1246 26.7862 37.0458L27.2137 36.7758L28.9012 35.7971L30.1725 35.0546L30.465 35.4483C30.8362 36.0333 31.6687 36.8208 32.1525 37.0908C33.615 37.8446 35.5725 37.7433 36.54 36.8658C36.9562 36.4833 37.1362 36.0783 37.1362 35.5158C37.1362 34.9983 37.0575 34.7621 36.7987 34.3683C36.4387 33.8733 35.7187 33.4683 33.6937 32.5683C31.365 31.5783 30.375 30.9483 29.4525 29.9808C28.9237 29.3958 28.44 28.4846 28.215 27.7308C28.0462 27.0783 27.99 25.4808 28.1475 24.8396C28.6312 22.5896 30.33 21.0146 32.76 20.5646C33.5475 20.4071 35.4037 20.4746 36.18 20.6771L36.1575 20.6996Z" fill="#252525"/>
</g>
<defs>
<clipPath id="clip0_259_1060">
<rect width="45" height="45" fill="white"/>
</clipPath>
</defs>
</svg>
