<svg width="45" height="45" viewBox="0 0 45 45" fill="none" xmlns="http://www.w3.org/2000/svg">
<mask id="mask0_1927_181" style="mask-type:alpha" maskUnits="userSpaceOnUse" x="0" y="0" width="45" height="45">
<rect width="45" height="45" fill="#D9D9D9"/>
</mask>
<g mask="url(#mask0_1927_181)">
<path d="M16.6914 27.0869C18.2359 27.0869 19.488 28.3467 19.488 29.9008V41.9715C19.488 43.5255 18.2359 44.7851 16.6914 44.7851C15.1471 44.7851 13.895 43.5255 13.895 41.9715V29.9008C13.895 28.3469 15.1471 27.0871 16.6914 27.0871V27.0869Z" fill="#A4C639"/>
<path d="M10.3073 12.5752C10.2981 12.6819 10.29 12.7898 10.29 12.8988V31.1871C10.29 33.1539 11.8373 34.7383 13.7581 34.7383H32.2418C34.1628 34.7383 35.71 33.1537 35.71 31.1871V12.8988C35.71 12.7898 35.7061 12.6815 35.6971 12.5752H10.3073Z" fill="#A4C639"/>
<path d="M29.3084 27.0868C30.8529 27.0868 32.105 28.3467 32.105 29.9007V41.9714C32.105 43.5254 30.8529 44.7851 29.3084 44.7851C27.7641 44.7851 26.512 43.5254 26.512 41.9714V29.9007C26.512 28.3469 27.7641 27.087 29.3084 27.087V27.0868ZM5.7966 14.2021C7.34091 14.2021 8.59301 15.4619 8.59301 17.0159V29.0866C8.59301 30.6407 7.34091 31.9005 5.7966 31.9005C4.2521 31.9005 3 30.6407 3 29.0868V17.0161C2.9998 15.4621 4.2519 14.2021 5.7966 14.2021ZM40.2036 14.2021C41.7479 14.2021 43 15.4619 43 17.0159V29.0866C43 30.6407 41.7479 31.9005 40.2036 31.9005C38.6591 31.9005 37.407 30.6407 37.407 29.0868V17.0161C37.407 15.4621 38.6591 14.2021 40.2036 14.2021ZM10.3889 11.3732C10.4666 5.75576 15.3395 1.14996 21.5945 0.542969H24.4051C30.6605 1.15016 35.533 5.75615 35.6107 11.3732H10.3889Z" fill="#A4C639"/>
<path d="M11.3613 0L14.3113 5.14126M34.6385 0L31.6883 5.14126" stroke="#A4C639" stroke-width="4" stroke-linecap="round" stroke-linejoin="round"/>
<path d="M19.2432 6.33889C19.2456 7.12411 18.5997 7.76252 17.8004 7.76469C17.0016 7.76667 16.352 7.13201 16.3496 6.3468V6.33889C16.3475 5.55348 16.9933 4.91526 17.7924 4.91309C18.5913 4.91092 19.2409 5.54537 19.2432 6.33099V6.33889ZM30.0432 6.33889C30.0455 7.12411 29.3996 7.76252 28.6004 7.76469C27.8015 7.76667 27.1519 7.13201 27.1496 6.3468V6.33889C27.1474 5.55348 27.7933 4.91526 28.5923 4.91309C29.3912 4.91092 30.0408 5.54537 30.0432 6.33099V6.33889Z" fill="white"/>
</g>
</svg>
