<svg width="45" height="45" viewBox="0 0 45 45" fill="none" xmlns="http://www.w3.org/2000/svg">
<mask id="mask0_1927_61" style="mask-type:alpha" maskUnits="userSpaceOnUse" x="0" y="0" width="45" height="45">
<rect width="45" height="45" fill="#D9D9D9"/>
</mask>
<g mask="url(#mask0_1927_61)">
<path d="M15.6294 16.2476C17.2512 21.8364 17.8656 31.8065 22.6079 31.8065C22.969 31.8065 23.3338 31.7667 23.7 31.6882C19.3889 30.5554 18.878 20.6938 16.2474 15.5869C16.0412 15.7982 15.8364 16.0184 15.6294 16.2476Z" fill="url(#paint0_linear_1927_61)"/>
<path d="M16.2471 15.5854C18.8777 20.6924 19.3886 30.554 23.6996 31.6867C24.0383 31.6166 24.3777 31.5106 24.7178 31.3768C20.8483 29.2401 19.7787 19.664 16.7913 15.0537C16.6104 15.2234 16.4287 15.4012 16.2471 15.5854Z" fill="url(#paint1_linear_1927_61)"/>
<path d="M20.0373 12.5498C19.6769 12.5498 19.3114 12.5896 18.9445 12.6681C17.9849 12.872 17.0101 13.3376 16.0273 14.0422C16.2958 14.3407 16.5512 14.6824 16.7915 15.0552C17.7909 14.1205 18.7838 13.4298 19.7731 13.0147C20.1444 12.8597 20.5142 12.7431 20.8854 12.6665C20.6177 12.5897 20.3354 12.5498 20.0373 12.5498Z" fill="#14559A"/>
<path d="M27.7391 29.4083C28.1349 29.0536 28.5315 28.6613 28.9288 28.2332C27.281 22.6703 26.6912 12.5576 21.9155 12.5576C21.574 12.5576 21.2295 12.5935 20.8857 12.6653C25.2358 13.8845 25.7931 24.5502 27.7391 29.4083Z" fill="url(#paint2_linear_1927_61)"/>
<path d="M20.8853 12.6644C20.6175 12.5878 20.3353 12.5479 20.0371 12.5479L21.9151 12.5556C21.5735 12.5556 21.229 12.5915 20.8853 12.6641" fill="#3092C4"/>
<path d="M27.6552 30.5903C27.4685 30.3896 27.2912 30.1695 27.1168 29.9346C26.3135 30.5756 25.5131 31.0616 24.7178 31.3781C25.0007 31.5339 25.2974 31.6497 25.6122 31.7215C25.8561 31.7776 26.1087 31.8063 26.3743 31.8063C27.2666 31.8063 27.9722 31.6872 28.5728 31.3626C28.2421 31.1611 27.9389 30.9002 27.6552 30.5903Z" fill="#1969BC"/>
<path d="M19.7734 13.0149C23.6698 15.3115 24.0085 25.7113 27.1174 29.9342C27.3258 29.7687 27.5321 29.5933 27.7383 29.4081C25.7924 24.55 25.2358 13.8835 20.8865 12.665C20.5152 12.7433 20.1447 12.8592 19.7734 13.0149Z" fill="url(#paint3_linear_1927_61)"/>
<path d="M16.7915 15.0543C19.7789 19.6646 20.8485 29.2407 24.718 31.3774C25.5134 31.061 26.3138 30.5749 27.1171 29.9339C24.0081 25.711 23.6694 15.3112 19.7731 13.0146C18.7838 13.4289 17.7909 14.1197 16.7915 15.0543Z" fill="url(#paint4_linear_1927_61)"/>
<path d="M13.7182 16.1128C13.2499 17.306 12.7716 18.8742 12.1934 20.9212C13.3433 19.0952 14.4896 17.522 15.6294 16.2474C15.4724 15.7034 15.3038 15.2019 15.1221 14.7549C14.6561 15.157 14.1864 15.6096 13.7182 16.1128Z" fill="url(#paint5_linear_1927_61)"/>
<path d="M15.5372 14.4111C15.3997 14.522 15.2615 14.6354 15.1226 14.7553C15.3042 15.2022 15.4721 15.7038 15.6291 16.2477C15.8361 16.0194 16.0416 15.7984 16.2471 15.5871C16.0264 15.1598 15.7919 14.7651 15.5372 14.4111Z" fill="#2B74B1"/>
<path d="M16.0278 14.042C15.8642 14.1586 15.7014 14.2818 15.5371 14.4106C15.7918 14.7646 16.0263 15.1593 16.2478 15.5875C16.4294 15.4023 16.6111 15.2237 16.792 15.0549C16.5517 14.6822 16.2963 14.3405 16.0278 14.042Z" fill="#125A9E"/>
<path d="M42.6039 12.1233C40.4003 21.7002 35.7976 29.3924 31.9389 31.3318H31.9316C31.8614 31.3677 31.7919 31.4003 31.7232 31.4321C31.7137 31.4385 31.7051 31.4393 31.6978 31.4432C31.6776 31.4524 31.6587 31.4595 31.6385 31.4686C31.629 31.4751 31.6204 31.4772 31.6117 31.4811C31.5792 31.4942 31.5473 31.5052 31.5155 31.5196C31.5017 31.526 31.4887 31.5301 31.4757 31.5353C31.4612 31.5417 31.4445 31.5477 31.4279 31.5529C31.4134 31.5593 31.3983 31.564 31.3816 31.5711C31.3678 31.5776 31.3533 31.5803 31.3403 31.5868C31.3121 31.596 31.2861 31.6038 31.2578 31.6148C31.2462 31.6148 31.2354 31.622 31.2231 31.6254C31.2057 31.6318 31.1862 31.6365 31.1674 31.6423C31.1543 31.6488 31.1435 31.6509 31.1297 31.6541C31.1102 31.6606 31.0884 31.6665 31.0689 31.6717C31.0429 31.6782 31.0197 31.6842 30.9951 31.69C31.1695 31.7626 31.3512 31.7993 31.5473 31.7993C35.2063 31.7993 38.8956 24.4097 44.9999 12.1211H42.603L42.6039 12.1233Z" fill="url(#paint6_linear_1927_61)"/>
<path d="M11.3985 12.9377C11.4008 12.9377 11.4037 12.9312 11.4051 12.9312C11.408 12.9312 11.4124 12.9312 11.4139 12.9247H11.4185C11.4387 12.917 11.4575 12.9078 11.4778 12.8993C11.483 12.8993 11.4857 12.8993 11.4894 12.8928C11.4946 12.8928 11.4996 12.8864 11.5046 12.8856C11.5264 12.8778 11.5481 12.8686 11.5683 12.8601H11.5718C11.6203 12.8438 11.6651 12.8236 11.7122 12.8047C11.7188 12.8047 11.7252 12.7982 11.7331 12.7982C11.7527 12.7911 11.773 12.7832 11.7932 12.778C11.8027 12.7715 11.812 12.7715 11.8207 12.7681C11.8416 12.761 11.862 12.7531 11.8815 12.7479C11.8902 12.7479 11.8982 12.7414 11.9046 12.7408C11.9719 12.7199 12.0385 12.7003 12.1058 12.6821C12.1153 12.6821 12.1232 12.6756 12.1333 12.675C12.1528 12.6685 12.171 12.6651 12.1919 12.6619C12.2007 12.6554 12.2108 12.6554 12.2209 12.652C12.2404 12.6456 12.2592 12.6449 12.2802 12.6396H12.294C12.3345 12.6304 12.3758 12.6226 12.4163 12.6141H12.4409C12.4604 12.6077 12.4778 12.607 12.4974 12.603C12.5081 12.603 12.5191 12.5965 12.5292 12.5965C12.5473 12.5965 12.5654 12.5901 12.5834 12.5873C12.5929 12.5873 12.6023 12.5873 12.6132 12.5809C12.6558 12.5744 12.7 12.5718 12.7449 12.5678C12.6182 12.554 12.4879 12.5449 12.3555 12.5449C8.23484 12.5449 2.55751 21.1611 0 32.3193H0.492831C1.31132 30.6744 2.04659 29.1184 2.71889 27.6577C4.51002 19.7543 8.15813 14.3644 11.3988 12.9364" fill="url(#paint7_linear_1927_61)"/>
<path d="M13.7178 16.1125C14.186 15.6094 14.6557 15.1567 15.1217 14.7547C15.0154 14.4921 14.9054 14.249 14.7874 14.0264C14.4104 14.5418 14.0659 15.222 13.7178 16.1125Z" fill="#0D82CA"/>
<path d="M14.0565 13.0038C14.3257 13.2582 14.5667 13.6081 14.7874 14.0273C14.8569 13.9311 14.9271 13.8422 15.0002 13.759C14.6941 13.4369 14.3633 13.1726 14.0044 12.9736C14.0189 12.9827 14.0333 12.9899 14.0484 12.9971C14.0484 12.9971 14.0541 13.0036 14.0566 13.0036" fill="#0D82CA"/>
<path d="M2.71875 27.6589C6.47613 19.4994 8.2564 14.3353 11.3987 12.9375C8.15871 14.3664 4.50988 19.7563 2.71875 27.6589Z" fill="url(#paint8_linear_1927_61)"/>
<path d="M14.9999 13.7578C14.9268 13.8419 14.8573 13.9299 14.7871 14.0262C14.9051 14.2488 15.015 14.491 15.1222 14.7544C15.2611 14.6346 15.3993 14.5212 15.5369 14.4103C15.3668 14.1737 15.1873 13.9544 14.9999 13.7578Z" fill="#127BCA"/>
<path d="M4.42413 32.2832C4.40097 32.2896 4.37782 32.2896 4.3561 32.2924H4.34307C4.3235 32.2924 4.30324 32.2988 4.28518 32.2988H4.27575C4.22873 32.3053 4.18239 32.3053 4.13752 32.3093H4.12305C7.92602 32.1894 9.66432 30.0437 10.527 26.9316C11.1826 24.5723 11.721 22.5848 12.1929 20.917C10.6001 23.4435 8.99997 26.4553 7.39122 29.8292C6.61543 31.4554 5.43582 32.1347 4.4241 32.28" fill="url(#paint9_linear_1927_61)"/>
<path d="M4.42432 32.2818C5.43603 32.1365 6.61564 31.458 7.39143 29.831C9.00019 26.458 10.601 23.4454 12.1924 20.9188C12.7713 18.8709 13.249 17.3035 13.7179 16.1104C10.546 19.5128 7.36176 25.1702 4.42432 32.2801" fill="url(#paint10_linear_1927_61)"/>
<path d="M2.71825 27.6592C2.04597 29.1198 1.31071 30.6759 0.492188 32.3208H1.92584C2.11545 30.6872 2.38466 29.1296 2.71825 27.66" fill="#05A1E6"/>
<path d="M12.6127 12.5851C12.6011 12.5851 12.5925 12.5916 12.5824 12.5916C12.565 12.598 12.5469 12.598 12.5288 12.6001C12.518 12.6001 12.5078 12.6001 12.497 12.6066C12.4774 12.6131 12.4593 12.6137 12.4405 12.6177C12.4318 12.6177 12.4231 12.6177 12.4159 12.6242C12.3746 12.632 12.3341 12.6405 12.2936 12.6483H12.2798C12.2589 12.6548 12.24 12.6582 12.2205 12.6614C12.2103 12.6679 12.2002 12.6679 12.1908 12.6705C12.1713 12.6769 12.1517 12.6797 12.1329 12.6836C12.1227 12.69 12.1148 12.69 12.1054 12.6907C12.0381 12.7089 11.9715 12.7285 11.9042 12.7494C11.897 12.7494 11.8897 12.7558 11.8811 12.7571C11.8608 12.7636 11.8412 12.7702 11.8203 12.7774C11.8115 12.7838 11.8014 12.7838 11.7928 12.7864C11.7725 12.7929 11.7522 12.7995 11.7327 12.8066C11.7248 12.8066 11.7182 12.8131 11.711 12.8131C11.6647 12.8327 11.6191 12.8522 11.5713 12.8686C11.5511 12.8757 11.5293 12.8849 11.5076 12.8933C11.4989 12.8998 11.491 12.9013 11.4809 12.9058C11.4606 12.9129 11.4404 12.9221 11.4215 12.9306C11.4144 12.937 11.4071 12.9377 11.402 12.9411C8.25978 14.3389 6.47951 19.5029 2.72212 27.6625C2.3885 29.1321 2.11857 30.6898 1.92969 32.3233H2.13087C2.69752 32.3233 2.85745 32.3168 3.5095 32.3168H3.54279H3.63976H3.67305H3.68248H3.71577H3.73459H3.74762H3.77367H3.85472H3.93578H4.0038H4.02187H4.14128C4.18614 32.3103 4.23246 32.3103 4.2795 32.3063H4.28819C4.30776 32.3063 4.32727 32.2998 4.34608 32.2998H4.3598C4.38076 32.2998 4.40467 32.2934 4.42783 32.2906C7.36527 25.1807 10.5495 19.5233 13.7214 16.1208C14.0702 15.2303 14.414 14.5501 14.7903 14.0355C14.5703 13.6164 14.3293 13.2657 14.0601 13.0112C14.0601 13.0112 14.0528 13.0112 14.0522 13.0047C14.037 12.9976 14.0226 12.989 14.0074 12.9806C13.9921 12.9714 13.9791 12.9643 13.9632 12.9551C13.9495 12.9487 13.9336 12.9401 13.9198 12.9316C13.901 12.9252 13.8858 12.916 13.8692 12.9075C13.8554 12.901 13.8431 12.8944 13.8293 12.8879C13.8011 12.8755 13.7729 12.8625 13.7461 12.8488C13.7338 12.8423 13.7223 12.8389 13.7106 12.8337C13.6911 12.8258 13.6686 12.8155 13.6484 12.8057C13.6382 12.7992 13.6267 12.7979 13.6151 12.7932C13.5855 12.7821 13.5565 12.7704 13.529 12.76H13.5218C13.4885 12.7475 13.4559 12.7384 13.4219 12.728C13.414 12.7215 13.4074 12.7215 13.3995 12.7202C13.3698 12.711 13.3438 12.702 13.3156 12.6935C13.3084 12.6935 13.3018 12.687 13.2961 12.687C13.228 12.6668 13.1578 12.6505 13.0869 12.6355C13.0796 12.6355 13.0724 12.629 13.0652 12.629C13.0348 12.6226 13.0051 12.6166 12.9748 12.6127C12.9674 12.6062 12.9631 12.6062 12.9567 12.6062C12.9205 12.5998 12.885 12.5951 12.8496 12.5906H12.8308C12.8018 12.5841 12.7751 12.5835 12.7483 12.5801C12.7026 12.5865 12.6593 12.5893 12.6165 12.5938" fill="url(#paint11_linear_1927_61)"/>
<path d="M33.9966 17.4246C33.2736 20.0343 32.6882 22.1874 32.1787 23.9587C34.1623 20.8825 36.1163 17.0127 37.9769 12.5469C35.8065 13.315 34.6487 15.0734 33.9966 17.4246Z" fill="url(#paint12_linear_1927_61)"/>
<path d="M32.2415 31.1684C32.1402 31.2264 32.0388 31.2817 31.939 31.3315C35.7977 29.3921 40.4003 21.6999 42.604 12.123H42.1574C37.0945 22.3148 35.4662 29.1377 32.2415 31.1684Z" fill="url(#paint13_linear_1927_61)"/>
<path d="M29.7218 30.312C30.5613 29.1573 31.2451 27.1943 32.1787 23.959C31.1018 25.626 30.0178 27.0589 28.933 28.2275C28.933 28.234 28.933 28.234 28.9272 28.238C29.1639 29.0373 29.4237 29.7427 29.7197 30.3119" fill="#079AE1"/>
<path d="M29.7215 30.3125C29.4356 30.7056 29.1332 31.0049 28.7966 31.2268C28.7228 31.275 28.6483 31.3205 28.5723 31.3621C28.9276 31.5782 29.3155 31.7226 29.7497 31.7805C29.8133 31.7876 29.8763 31.7942 29.9422 31.7994H29.9538C29.9833 31.7994 30.0146 31.7994 30.0464 31.8059H30.0592H30.154H30.2561H30.288H30.3603C30.3719 31.8059 30.384 31.8059 30.3956 31.7994C30.4182 31.7994 30.4419 31.7994 30.4651 31.7929H30.4733H30.4993C30.5231 31.7929 30.5491 31.7865 30.5746 31.7837H30.5803C30.5879 31.7837 30.5959 31.7773 30.6035 31.7773C30.6301 31.7708 30.6579 31.7681 30.6838 31.7635H30.7076C30.7371 31.7571 30.7676 31.753 30.798 31.7466H30.8037H30.8125C30.8733 31.7335 30.9326 31.7205 30.9926 31.7035C30.4948 31.498 30.0779 31.0136 29.719 30.3236" fill="#1969BC"/>
<path d="M22.6079 31.8061C22.9691 31.8061 23.3338 31.7663 23.7 31.6871C24.0387 31.6178 24.3781 31.5117 24.7182 31.3779C25.0012 31.5337 25.2979 31.6495 25.612 31.7213C25.8558 31.7774 26.1091 31.8061 26.3747 31.8061H22.6079Z" fill="#1E5CB3"/>
<path d="M26.3746 31.806C27.2662 31.806 27.9725 31.6869 28.5725 31.3623C28.9278 31.5784 29.3157 31.7228 29.7499 31.7807C29.8136 31.7878 29.8766 31.7944 29.9424 31.7996H29.954C29.9835 31.7996 30.0148 31.7996 30.0467 31.8061H30.06H30.1548H26.3721L26.3746 31.806Z" fill="#1E5CB3"/>
<path d="M30.1572 31.8062H30.26H30.2918H30.3635C30.3757 31.8062 30.3872 31.8062 30.3988 31.7998C30.4214 31.7998 30.4451 31.7998 30.4691 31.7933H30.4767H30.5033C30.527 31.7933 30.5531 31.7869 30.5778 31.7843H30.5842C30.5918 31.7843 30.5992 31.7778 30.6067 31.7778C30.6334 31.7713 30.6612 31.7688 30.687 31.7641C30.6958 31.7641 30.7027 31.7641 30.7119 31.7576C30.7415 31.7512 30.772 31.7478 30.8024 31.7413H30.8082H30.8169C30.8777 31.7282 30.937 31.7152 30.9971 31.6982C31.1715 31.7708 31.3531 31.8075 31.5492 31.8075L30.1583 31.814L30.1572 31.8062Z" fill="#1D60B5"/>
<path d="M28.9295 28.2379V28.2314C28.5322 28.6596 28.1357 29.0519 27.7398 29.4066C27.5328 29.5918 27.3266 29.7671 27.1182 29.9327C27.2925 30.1675 27.4699 30.3877 27.6566 30.5884C27.9403 30.8982 28.2435 31.1593 28.5742 31.3607C28.6495 31.3189 28.7247 31.2734 28.7978 31.2253C29.135 31.0034 29.4376 30.7042 29.7234 30.3111C29.4274 29.7418 29.1676 29.0363 28.931 28.2371" fill="#175FAB"/>
<path d="M40.7435 12.123H38.8663H38.6796H38.503H38.4961C38.3745 12.1295 38.2566 12.1342 38.1401 12.1426C38.0851 12.2756 38.0286 12.4086 37.9743 12.5423C36.1137 17.0081 34.1598 20.8779 32.1762 23.9542C31.2433 27.1894 30.5587 29.1524 29.7192 30.3072C30.0782 30.9972 30.4958 31.4824 30.9922 31.6879C31.0067 31.6815 31.0183 31.6815 31.0313 31.6781H31.0393C31.0481 31.6781 31.0574 31.6716 31.0668 31.6716C31.0871 31.6651 31.1088 31.6611 31.1291 31.654C31.1421 31.6475 31.1529 31.6469 31.166 31.6422C31.1848 31.6357 31.2043 31.6311 31.2217 31.6259C31.2333 31.6194 31.2448 31.6173 31.2564 31.6147C31.2854 31.6042 31.3114 31.5965 31.3389 31.5867C31.352 31.5802 31.3657 31.5749 31.3802 31.571C31.3961 31.5645 31.412 31.5599 31.4265 31.5521C31.4432 31.5456 31.4598 31.5422 31.4743 31.5351C31.4873 31.5287 31.501 31.5246 31.5134 31.5188C31.5459 31.5057 31.5778 31.4947 31.6103 31.4803C31.6191 31.4803 31.6277 31.4713 31.6371 31.4692C31.6567 31.46 31.6769 31.4528 31.6965 31.4431C31.7037 31.4366 31.7124 31.4359 31.7218 31.4326C31.7898 31.4006 31.86 31.368 31.9302 31.3323H31.9375C32.0374 31.2827 32.1387 31.227 32.2393 31.1692C35.4648 29.1385 37.0931 22.3156 42.156 12.1238H40.7419L40.7435 12.123Z" fill="url(#paint14_linear_1927_61)"/>
<path d="M12.7451 12.5715C12.7531 12.5715 12.7603 12.5715 12.7683 12.578C12.7878 12.578 12.8073 12.578 12.8269 12.5851H12.8465C12.8819 12.5916 12.9174 12.595 12.9536 12.6008C12.9602 12.6008 12.9659 12.6008 12.9716 12.6072C13.0013 12.6137 13.0317 12.619 13.0621 12.6242C13.0687 12.6242 13.0773 12.6307 13.0845 12.6307C13.154 12.6463 13.2249 12.6626 13.293 12.6829C13.2994 12.6829 13.306 12.6893 13.3118 12.6893C13.3407 12.6971 13.3668 12.7069 13.3957 12.7161C13.4045 12.7161 13.4109 12.7225 13.4189 12.724C13.4529 12.7338 13.4848 12.7435 13.518 12.7559C13.5195 12.7559 13.5215 12.7559 13.5254 12.7624C13.5535 12.7721 13.5825 12.7846 13.6122 12.7957C13.6238 12.8021 13.6346 12.8049 13.6455 12.8081C13.6657 12.818 13.6882 12.8277 13.7077 12.8368C13.7193 12.8368 13.7309 12.8459 13.7431 12.8505C13.7699 12.8643 13.7981 12.8766 13.8256 12.8897C13.8401 12.8962 13.8524 12.9034 13.8662 12.9093C13.8821 12.9185 13.8987 12.9269 13.9161 12.9334C13.9306 12.9412 13.9465 12.9497 13.9602 12.9569C13.9754 12.9661 13.9898 12.9732 14.0044 12.9823C14.3633 13.1813 14.694 13.4464 15.0002 13.7677C15.1131 13.634 15.231 13.5141 15.3533 13.4064C14.6839 12.8714 13.9255 12.5664 13.0506 12.5664C12.9492 12.5664 12.8479 12.5729 12.7452 12.5814" fill="#7DCBEC"/>
<path d="M15 13.7578C15.1874 13.9543 15.3669 14.1737 15.537 14.4102C15.7012 14.2814 15.8641 14.1574 16.0276 14.0416C15.8134 13.8002 15.5876 13.5833 15.3524 13.3965C15.2301 13.5034 15.1129 13.624 15 13.7578Z" fill="#5EC5ED"/>
<path d="M12.7448 12.5712C12.8476 12.5614 12.9489 12.5573 13.0502 12.5573C13.9251 12.5573 14.6836 12.8623 15.353 13.3965C16.0593 12.7685 16.9133 12.5491 18.0994 12.5491H12.3555C12.4879 12.5491 12.6174 12.5581 12.7448 12.5712Z" fill="url(#paint15_linear_1927_61)"/>
<path d="M18.0989 12.5495C16.9128 12.5495 16.0589 12.7689 15.3525 13.3969C15.587 13.5837 15.8128 13.8006 16.027 14.042C17.0105 13.3374 17.9846 12.8709 18.9449 12.667C19.3111 12.5895 19.6766 12.5495 20.037 12.5495H18.0989Z" fill="url(#paint16_linear_1927_61)"/>
<path d="M32.1786 23.9606C32.6888 22.1876 33.2728 20.0355 33.9972 17.4249C34.65 15.0728 35.8057 13.3145 37.9761 12.5471C38.0334 12.4158 38.0875 12.2804 38.1433 12.1475C34.6051 12.3864 32.9515 14.4147 32.1193 17.4183C30.6639 22.6623 29.7825 26.0615 28.9336 28.2275C30.0177 27.0597 31.1018 25.626 32.1786 23.9606Z" fill="url(#paint17_linear_1927_61)"/>
<path d="M37.3692 30.4093H36.9683V31.8137H36.8047V30.4093H36.4023V30.2422H37.3692V30.4093Z" fill="white"/>
<path d="M39.011 31.8127H38.8482V30.7574C38.8482 30.6742 38.854 30.5723 38.8616 30.4524C38.8448 30.5242 38.8309 30.5739 38.8182 30.6057L38.3434 31.8127H38.2638L37.7876 30.6147C37.7737 30.5814 37.7598 30.5274 37.7448 30.4524H37.7391C37.7448 30.5157 37.7466 30.618 37.7466 30.7599V31.8127H37.5903V30.2412H37.806L38.2337 31.3381C38.2661 31.4205 38.2863 31.4841 38.2967 31.5265H38.303C38.3313 31.44 38.3545 31.3756 38.3703 31.3332L38.8066 30.2412H39.0122V31.8127H39.011Z" fill="white"/>
</g>
<defs>
<linearGradient id="paint0_linear_1927_61" x1="419.135" y1="-300.955" x2="419.135" y2="2118.05" gradientUnits="userSpaceOnUse">
<stop stop-color="#0994DC"/>
<stop offset="0.350006" stop-color="#66CEF5"/>
<stop offset="0.846161" stop-color="#127BCA"/>
<stop offset="1" stop-color="#127BCA"/>
</linearGradient>
<linearGradient id="paint1_linear_1927_61" x1="439.791" y1="-309.559" x2="439.791" y2="2171.09" gradientUnits="userSpaceOnUse">
<stop stop-color="#0E76BC"/>
<stop offset="0.360001" stop-color="#36AEE8"/>
<stop offset="0.846161" stop-color="#00ADEF"/>
<stop offset="1" stop-color="#00ADEF"/>
</linearGradient>
<linearGradient id="paint2_linear_1927_61" x1="423.032" y1="1881.67" x2="423.032" y2="-92.152" gradientUnits="userSpaceOnUse">
<stop stop-color="#1C63B7"/>
<stop offset="0.5" stop-color="#33BDF2"/>
<stop offset="1" stop-color="#33BDF2" stop-opacity="0.419608"/>
</linearGradient>
<linearGradient id="paint3_linear_1927_61" x1="418.026" y1="-324.342" x2="418.026" y2="2251.22" gradientUnits="userSpaceOnUse">
<stop stop-color="#166AB8"/>
<stop offset="0.399994" stop-color="#36AEE8"/>
<stop offset="0.846161" stop-color="#0798DD"/>
<stop offset="1" stop-color="#0798DD"/>
</linearGradient>
<linearGradient id="paint4_linear_1927_61" x1="533.055" y1="-345.447" x2="533.055" y2="2393.32" gradientUnits="userSpaceOnUse">
<stop stop-color="#124379"/>
<stop offset="0.389999" stop-color="#1487CB"/>
<stop offset="0.780228" stop-color="#165197"/>
<stop offset="1" stop-color="#165197"/>
</linearGradient>
<linearGradient id="paint5_linear_1927_61" x1="12.1944" y1="323.075" x2="355.801" y2="323.075" gradientUnits="userSpaceOnUse">
<stop stop-color="#33BDF2" stop-opacity="0.698039"/>
<stop offset="1" stop-color="#1DACD8"/>
</linearGradient>
<linearGradient id="paint6_linear_1927_61" x1="731.367" y1="1875.38" x2="731.367" y2="-47.3972" gradientUnits="userSpaceOnUse">
<stop stop-color="#136AB4"/>
<stop offset="0.6" stop-color="#59CAF5" stop-opacity="0.54902"/>
<stop offset="1" stop-color="#59CAF5" stop-opacity="0.235294"/>
</linearGradient>
<linearGradient id="paint7_linear_1927_61" x1="-0.00969706" y1="1001.26" x2="1274.48" y2="1001.26" gradientUnits="userSpaceOnUse">
<stop stop-color="#05A1E6" stop-opacity="0.247059"/>
<stop offset="1" stop-color="#05A1E6"/>
</linearGradient>
<linearGradient id="paint8_linear_1927_61" x1="436.7" y1="1843.01" x2="436.7" y2="-125.758" gradientUnits="userSpaceOnUse">
<stop stop-color="#318ED5"/>
<stop offset="1" stop-color="#38A7E4"/>
</linearGradient>
<linearGradient id="paint9_linear_1927_61" x1="407.604" y1="1059.9" x2="407.604" y2="-853.849" gradientUnits="userSpaceOnUse">
<stop stop-color="#05A1E6"/>
<stop offset="1" stop-color="#05A1E6" stop-opacity="0.54902"/>
</linearGradient>
<linearGradient id="paint10_linear_1927_61" x1="469.105" y1="1633.42" x2="469.105" y2="16.2752" gradientUnits="userSpaceOnUse">
<stop stop-color="#1959A6"/>
<stop offset="0.5" stop-color="#05A1E6"/>
<stop offset="0.917587" stop-color="#7EC5EA"/>
<stop offset="1" stop-color="#7EC5EA"/>
</linearGradient>
<linearGradient id="paint11_linear_1927_61" x1="771.048" y1="1879.65" x2="169.019" y2="247.035" gradientUnits="userSpaceOnUse">
<stop stop-color="#165096"/>
<stop offset="1" stop-color="#0D82CA"/>
</linearGradient>
<linearGradient id="paint12_linear_1927_61" x1="322.058" y1="891.238" x2="322.058" y2="-25.1001" gradientUnits="userSpaceOnUse">
<stop stop-color="#05A1E6"/>
<stop offset="0.873627" stop-color="#0495D6"/>
<stop offset="1" stop-color="#0495D6"/>
</linearGradient>
<linearGradient id="paint13_linear_1927_61" x1="727.97" y1="-67.8117" x2="-192.546" y2="1745.81" gradientUnits="userSpaceOnUse">
<stop stop-color="#38A7E4" stop-opacity="0.329412"/>
<stop offset="0.961533" stop-color="#0E88D3"/>
<stop offset="1" stop-color="#0E88D3"/>
</linearGradient>
<linearGradient id="paint14_linear_1927_61" x1="651.765" y1="6.33622" x2="651.765" y2="2005.43" gradientUnits="userSpaceOnUse">
<stop stop-color="#168CD4"/>
<stop offset="0.5" stop-color="#1C87CC"/>
<stop offset="1" stop-color="#154B8D"/>
</linearGradient>
<linearGradient id="paint15_linear_1927_61" x1="108.128" y1="-160.789" x2="117.885" y2="48.7752" gradientUnits="userSpaceOnUse">
<stop stop-color="#97D6EE"/>
<stop offset="0.703293" stop-color="#55C1EA"/>
<stop offset="1" stop-color="#55C1EA"/>
</linearGradient>
<linearGradient id="paint16_linear_1927_61" x1="47.629" y1="4.63904" x2="91.3987" y2="-215.656" gradientUnits="userSpaceOnUse">
<stop stop-color="#7ACCEC"/>
<stop offset="1" stop-color="#3FB7ED"/>
</linearGradient>
<linearGradient id="paint17_linear_1927_61" x1="489.386" y1="114.462" x2="489.386" y2="2069.78" gradientUnits="userSpaceOnUse">
<stop stop-color="#1DA7E7"/>
<stop offset="1" stop-color="#37ABE7" stop-opacity="0"/>
</linearGradient>
</defs>
</svg>
