<svg width="45" height="44" viewBox="0 0 45 44" fill="none" xmlns="http://www.w3.org/2000/svg">
<g clip-path="url(#clip0_259_1044)">
<path d="M44.915 31.7995C44.9352 31.5976 44.9496 31.3939 44.9608 31.1891C44.9746 30.9466 30.7998 17.0928 30.7998 17.0928H30.4609C30.4609 17.0928 44.8283 32.7037 44.915 31.7993V31.7995Z" fill="url(#paint0_linear_259_1044)"/>
<path d="M14.6724 26.9936C14.6536 27.0361 14.635 27.0787 14.6157 27.121C14.5956 27.1656 14.5749 27.2099 14.5543 27.2539C14.1026 28.2245 20.88 35.0495 21.4251 34.2204C21.4499 34.1838 21.4749 34.1451 21.4996 34.1085C21.5272 34.0651 21.5545 34.0234 21.5817 33.98C22.0177 33.2982 14.866 26.5503 14.6724 26.9936Z" fill="url(#paint1_linear_259_1044)"/>
<path d="M24.25 36.5908C24.2308 36.6343 24.0944 36.8718 23.9698 36.9973C23.9487 37.0408 30.5861 43.8215 30.5861 43.8215H31.1837C31.184 43.8215 24.9531 36.8775 24.25 36.5908Z" fill="url(#paint2_linear_259_1044)"/>
<path d="M44.9701 31.0658C44.6597 38.1542 38.9669 43.8218 32.0118 43.8218H31.0714L24.1257 36.7731C24.697 35.9431 25.2282 35.0832 25.701 34.1866H32.0118C34.0076 34.1866 35.6317 32.5144 35.6317 30.4574C35.6317 28.4014 34.0076 26.7283 32.0118 26.7283H28.2772C28.5618 25.1789 28.7173 23.5811 28.7173 21.9466C28.7173 20.2871 28.559 18.6667 28.2642 17.0925H30.5839L44.9292 31.653C44.9462 31.4578 44.9597 31.2628 44.9701 31.0658ZM3.77342 0H0V9.63528H3.77342C10.3639 9.63528 15.7263 15.1577 15.7263 21.9466C15.7263 23.7935 15.3264 25.5468 14.6157 27.1208L21.4997 34.1083C23.7601 30.6245 25.0814 26.442 25.0814 21.9466C25.0814 9.84532 15.5224 0 3.77342 0Z" fill="url(#paint3_linear_259_1044)"/>
<path d="M32.0119 0H16.7319C20.464 2.34721 23.5544 5.67546 25.66 9.63528H32.0119C34.0077 9.63528 35.6319 11.3075 35.6319 13.3644C35.6319 15.4208 34.0077 17.093 32.0119 17.093H30.5846L44.9299 31.6534C44.9636 31.2585 44.9847 30.861 44.9847 30.4574C44.9847 27.2092 43.8532 24.2295 41.9745 21.9104C43.8532 19.5923 44.9847 16.6121 44.9847 13.3644C44.9847 5.99559 39.1658 0 32.0119 0Z" fill="url(#paint4_linear_259_1044)"/>
<path d="M31.0714 43.8221H16.8409C19.7054 41.9998 22.1818 39.5941 24.1257 36.7734L31.0714 43.8221ZM21.4997 34.1086L14.6163 27.1211C12.7145 31.3312 8.5704 34.2592 3.77342 34.2592H0V43.8936H3.77342C11.1578 43.8936 17.6757 40.0028 21.4997 34.1086Z" fill="url(#paint5_linear_259_1044)"/>
</g>
<defs>
<linearGradient id="paint0_linear_259_1044" x1="-1167.77" y1="-1351.48" x2="1583.22" y2="1534.72" gradientUnits="userSpaceOnUse">
<stop stop-color="#F9A03C"/>
<stop offset="1" stop-color="#F7974E"/>
</linearGradient>
<linearGradient id="paint1_linear_259_1044" x1="-1815.58" y1="-1794.85" x2="789.581" y2="659.418" gradientUnits="userSpaceOnUse">
<stop stop-color="#F9A03C"/>
<stop offset="1" stop-color="#F7974E"/>
</linearGradient>
<linearGradient id="paint2_linear_259_1044" x1="-1585.92" y1="-1857.61" x2="708.296" y2="766.629" gradientUnits="userSpaceOnUse">
<stop stop-color="#F9A03C"/>
<stop offset="1" stop-color="#F7974E"/>
</linearGradient>
<linearGradient id="paint3_linear_259_1044" x1="509.916" y1="-79.8434" x2="3605.43" y2="4113.38" gradientUnits="userSpaceOnUse">
<stop stop-color="#F26D58"/>
<stop offset="1" stop-color="#F9A03C"/>
</linearGradient>
<linearGradient id="paint4_linear_259_1044" x1="464.369" y1="122.119" x2="3603.07" y2="1962.94" gradientUnits="userSpaceOnUse">
<stop stop-color="#B84E51"/>
<stop offset="1" stop-color="#F68E48"/>
</linearGradient>
<linearGradient id="paint5_linear_259_1044" x1="1459.86" y1="420.705" x2="1504.24" y2="2501.54" gradientUnits="userSpaceOnUse">
<stop stop-color="#F9A03C"/>
<stop offset="1" stop-color="#F7974E"/>
</linearGradient>
<clipPath id="clip0_259_1044">
<rect width="45" height="44" fill="white"/>
</clipPath>
</defs>
</svg>
