<svg width="45" height="45" viewBox="0 0 45 45" fill="none" xmlns="http://www.w3.org/2000/svg">
<mask id="mask0_1927_87" style="mask-type:alpha" maskUnits="userSpaceOnUse" x="0" y="0" width="45" height="45">
<rect width="45" height="45" fill="#D9D9D9"/>
</mask>
<g mask="url(#mask0_1927_87)">
<path d="M21.1929 0H28.709V33.7707C24.8591 34.4846 22.025 34.7655 18.9585 34.7655C9.77857 34.7561 5 30.7357 5 23.0142C5 15.5745 10.0688 10.7462 17.9234 10.7462C19.1423 10.7462 20.0708 10.8402 21.1929 11.1219V0ZM21.4563 17.2078C20.576 16.926 19.8506 16.8321 18.9219 16.8321C15.1204 16.8321 12.9246 19.1052 12.9246 23.089C12.9246 26.9677 15.0238 29.1093 18.8737 29.1093C19.7055 29.1093 20.3826 29.0634 21.4563 28.9225V17.2078Z" fill="#2BA977"/>
<path d="M41 11.6529V28.5614C41 34.3844 40.5551 37.1846 39.2492 39.5988C38.0303 41.9199 36.4246 43.3835 33.1067 45L26.1323 41.7781C29.4502 40.2665 31.0559 38.9309 32.0814 36.8925C33.1549 34.8081 33.4935 32.3939 33.4935 26.0438V11.653L41 11.6529ZM32.7361 0H40.2522V7.48668H32.7361V0Z" fill="#2BA977"/>
</g>
</svg>
