<svg width="45" height="45" viewBox="0 0 45 45" fill="none" xmlns="http://www.w3.org/2000/svg">
<mask id="mask0_1927_28" style="mask-type:alpha" maskUnits="userSpaceOnUse" x="0" y="0" width="45" height="45">
<rect width="45" height="45" fill="#D9D9D9"/>
</mask>
<g mask="url(#mask0_1927_28)">
<path d="M23.6166 20.4416L6 36.0989L19.2449 12.0137L23.6166 20.4416Z" fill="#F57F17"/>
<path d="M33.4883 9.84483C34.3321 9.07683 35.2007 9.33587 35.4202 10.4268L40 35.8875L24.8098 44.6018C24.2771 44.8864 22.8645 44.9977 22.8645 44.9977C22.8645 44.9977 21.5797 44.8481 21.0871 44.589L6 36.0991L33.4883 9.84483Z" fill="#FFCA28"/>
<path d="M28.3245 16.2529L23.6149 20.4432L19.2432 12.0134L21.5016 7.16645C22.0724 6.19961 23.0059 6.18684 23.5767 7.16645L28.3245 16.2529Z" fill="#FFA000"/>
<path d="M19.2449 12.0134L6 36.0987L11.9028 0.894776C12.1242 -0.196111 12.7714 -0.307389 13.3555 0.659451L19.2449 12.0134Z" fill="#FFA000"/>
</g>
</svg>
