<svg width="42" height="49" viewBox="0 0 42 49" fill="none" xmlns="http://www.w3.org/2000/svg">
<path d="M4.29699 36.195L2.6123 35.2204L21.3799 2.65137L23.0646 3.62593L4.29699 36.195Z" fill="#E535AB"/>
<path d="M2.22656 32.6182H39.7617V34.5673H2.22656V32.6182Z" fill="#E535AB"/>
<path d="M21.7443 44.5745L2.96973 33.7135L3.94238 32.0255L22.717 42.8865L21.7443 44.5745ZM38.0538 16.2678L19.2792 5.40673L20.2518 3.71875L39.0264 14.5798L38.0538 16.2678Z" fill="#E535AB"/>
<path d="M3.94727 16.2599L2.97461 14.572L21.7492 3.71094L22.7219 5.3988L3.94727 16.2599Z" fill="#E535AB"/>
<path d="M37.7072 36.195L18.9396 3.62593L20.6243 2.65137L39.3919 35.2204L37.7072 36.195ZM3.71484 13.2796H5.66016V35.0017H3.71484V13.2796Z" fill="#E535AB"/>
<path d="M36.3398 13.2793H38.2852V35.0014H36.3398V13.2793Z" fill="#E535AB"/>
<path d="M21.4131 43.7488L20.5635 42.2743L36.8924 32.8281L37.742 34.3025L21.4131 43.7488Z" fill="#E535AB"/>
<path d="M40.8635 35.6357C39.7385 37.5966 37.2307 38.2658 35.2736 37.1386C33.3166 36.0114 32.6486 33.4987 33.7736 31.5379C34.8986 29.577 37.4065 28.9077 39.3635 30.0349C41.3322 31.1739 42.0002 33.6748 40.8635 35.6357ZM8.21505 16.7433C7.09005 18.7042 4.58223 19.3735 2.6252 18.2463C0.668172 17.1191 0.000203133 14.6064 1.1252 12.6455C2.2502 10.6846 4.75802 10.0154 6.71505 11.1426C8.67208 12.2815 9.34005 14.7825 8.21505 16.7433ZM1.13692 35.6357C0.0119219 33.6748 0.67989 31.1739 2.63692 30.0349C4.59395 28.9077 7.09005 29.577 8.22677 31.5379C9.35177 33.4987 8.6838 35.9997 6.72677 37.1386C4.75802 38.2658 2.26192 37.5966 1.13692 35.6357ZM33.7854 16.7433C32.6604 14.7825 33.3283 12.2815 35.2854 11.1426C37.2424 10.0154 39.7385 10.6846 40.8752 12.6455C42.0002 14.6064 41.3322 17.1073 39.3752 18.2463C37.4182 19.3735 34.9104 18.7042 33.7854 16.7433ZM21.0002 47.1308C18.7385 47.1308 16.9104 45.2991 16.9104 43.033C16.9104 40.7668 18.7385 38.9351 21.0002 38.9351C23.2619 38.9351 25.09 40.7668 25.09 43.033C25.09 45.2874 23.2619 47.1308 21.0002 47.1308ZM21.0002 9.34608C18.7385 9.34608 16.9104 7.51438 16.9104 5.24824C16.9104 2.98209 18.7385 1.15039 21.0002 1.15039C23.2619 1.15039 25.09 2.98209 25.09 5.24824C25.09 7.51438 23.2619 9.34608 21.0002 9.34608Z" fill="#E535AB"/>
</svg>
