<svg width="45" height="45" viewBox="0 0 45 45" fill="none" xmlns="http://www.w3.org/2000/svg">
<mask id="mask0_1927_130" style="mask-type:alpha" maskUnits="userSpaceOnUse" x="0" y="0" width="45" height="45">
<rect width="45" height="45" fill="#D9D9D9"/>
</mask>
<g mask="url(#mask0_1927_130)">
</g>
<g clip-path="url(#clip0_1927_130)">
<path d="M16.2847 34.7871C16.2847 34.7871 14.4805 35.7853 17.5687 36.1231C21.3099 36.5291 23.2219 36.471 27.3449 35.7285C27.3449 35.7285 28.4289 36.3752 29.9425 36.9353C20.7003 40.704 9.02523 36.7169 16.2847 34.7871ZM15.1553 29.8691C15.1553 29.8691 13.1318 31.2943 16.2222 31.5984C20.2187 31.9906 23.3748 32.0228 28.8361 31.0222C28.8361 31.0222 29.5915 31.7508 30.7793 32.1493C19.6047 35.2582 7.15822 32.3945 15.1553 29.8691Z" fill="white"/>
<path d="M24.6767 21.5263C26.9541 24.0208 24.0784 26.2656 24.0784 26.2656C24.0784 26.2656 29.8608 23.4255 27.2052 19.8689C24.7249 16.5525 22.8228 14.9044 33.1198 9.22266C33.1198 9.22266 16.957 13.0634 24.6767 21.5263Z" fill="#E76F00"/>
<path d="M36.9004 38.4249C36.9004 38.4249 38.2355 39.4715 35.43 40.2812C30.0952 41.8189 13.2259 42.2832 8.53966 40.3425C6.85514 39.6454 10.0142 38.6778 11.0079 38.4746C12.0442 38.2608 12.6365 38.3007 12.6365 38.3007C10.763 37.045 0.527418 40.7662 7.43733 41.8318C26.2815 44.7394 41.7883 40.5226 36.9004 38.4249ZM17.1526 24.7738C17.1526 24.7738 8.57192 26.713 14.114 27.417C16.454 27.7151 21.1188 27.6477 25.464 27.3012C29.0152 27.0164 32.5809 26.4103 32.5809 26.4103C32.5809 26.4103 31.3288 26.9205 30.4229 27.5091C21.7092 29.6895 4.87603 28.6752 9.72209 26.4448C13.8204 24.56 17.1526 24.7738 17.1526 24.7738ZM32.5455 32.9599C41.4035 28.5806 37.3079 24.3722 34.4493 24.9392C33.7486 25.0779 33.4362 25.1981 33.4362 25.1981C33.4362 25.1981 33.6964 24.8105 34.1931 24.6427C39.8483 22.751 44.1976 30.2218 32.3675 33.1806C32.3675 33.1807 32.5046 33.0642 32.5455 32.9599Z" fill="white"/>
<path d="M27.2051 0.0479816C27.2051 0.0479816 32.1108 4.71706 22.5524 11.8964C14.8876 17.6556 20.8046 20.9393 22.5492 24.6911C18.0751 20.8505 14.7916 17.4695 16.9945 14.3229C20.2276 9.7036 29.1844 7.46427 27.2051 0.0479816Z" fill="#E76F00"/>
<path d="M18.0229 44.826C26.5254 45.3439 39.5818 44.5387 39.891 40.7109C39.891 40.7109 39.2966 42.1621 32.8642 43.3144C25.6072 44.6137 16.6568 44.4621 11.3481 43.6293C11.3483 43.6293 12.4348 44.4851 18.0229 44.826Z" fill="white"/>
</g>
<defs>
<clipPath id="clip0_1927_130">
<rect width="35" height="45" fill="white" transform="translate(5)"/>
</clipPath>
</defs>
</svg>
