<svg width="45" height="42" viewBox="0 0 45 42" fill="none" xmlns="http://www.w3.org/2000/svg">
<path d="M5.79432 27.0741C5.83275 27.163 5.8762 27.245 5.92298 27.327C5.94471 27.3748 5.97478 27.4244 6.00152 27.4688C6.04497 27.5576 6.09175 27.6431 6.13687 27.7285L6.39921 28.1796C6.44767 28.2633 6.49446 28.3453 6.5496 28.4273C6.64151 28.5879 6.75012 28.7451 6.84536 28.9057C6.88881 28.9723 6.92891 29.039 6.97737 29.1056C7.16118 29.3978 7.32828 29.6404 7.50707 29.8762C7.63407 30.0521 7.76106 30.2247 7.89808 30.3973C7.9432 30.4622 7.99333 30.5271 8.04011 30.5921L8.4094 31.05C8.45452 31.1029 8.49963 31.1644 8.54809 31.2191C8.71185 31.4207 8.88563 31.6155 9.05941 31.8137C9.05941 31.8171 9.06442 31.8205 9.06777 31.8256C9.28332 32.1024 9.51559 32.3485 9.76958 32.5672L9.77626 32.574C9.90994 32.7141 10.0436 32.8525 10.1857 32.9892L10.3544 33.1549C10.5399 33.3326 10.7254 33.5086 10.9209 33.6794C10.9242 33.6794 10.9259 33.6829 10.9292 33.6846L11.0245 33.77C11.1949 33.9221 11.367 34.0724 11.5425 34.2125L11.7514 34.3919C11.8934 34.5081 12.0404 34.6174 12.1858 34.7319L12.4131 34.9096C12.5685 35.0292 12.7339 35.1454 12.8926 35.2616C12.9511 35.3043 13.0096 35.347 13.0698 35.3863L13.1182 35.4256L13.5878 35.74L13.7883 35.8767C14.0339 36.0373 14.2779 36.1876 14.5218 36.338C14.592 36.3738 14.6622 36.4131 14.7274 36.4541C14.9078 36.5601 15.095 36.6677 15.2771 36.7651C15.3774 36.8232 15.481 36.8727 15.5846 36.9257C15.7099 36.9975 15.8402 37.0675 15.9739 37.1393C16.0107 37.1512 16.0408 37.1632 16.0708 37.1803L16.0775 37.1735C16.1327 37.1991 16.1845 37.2264 16.2379 37.2538C16.4385 37.3563 16.6473 37.4537 16.8646 37.5493C16.9047 37.5664 16.9481 37.5835 16.9915 37.6074C17.2322 37.7151 17.4728 37.8176 17.7218 37.9167C17.7786 37.9338 17.8387 37.9628 17.8972 37.985C18.1228 38.0722 18.3551 38.161 18.5857 38.2447L18.6692 38.2755C18.9249 38.3643 19.1772 38.4498 19.4379 38.5301C19.498 38.5471 19.5598 38.5694 19.6233 38.5864C19.889 38.6684 20.1464 38.7658 20.4154 38.8171C37.5813 42.0002 42.5692 28.3162 42.5692 28.3162C38.3784 33.8691 30.9409 35.3333 23.8977 33.7034C23.637 33.6418 23.3764 33.5564 23.1123 33.4778C22.7397 33.37 22.3702 33.2509 22.0045 33.1207L22.1632 33.1703L22.0596 33.1293C21.8324 33.0507 21.6135 32.9635 21.3912 32.8764C21.3368 32.8528 21.2817 32.8312 21.2258 32.8115L21.2074 32.8064C20.9618 32.7056 20.7228 32.603 20.4856 32.4954C20.4338 32.4783 20.3903 32.4544 20.3385 32.4339C20.0575 32.3087 19.7789 32.1776 19.503 32.0409L19.7336 32.1451C19.6735 32.1179 19.6144 32.0883 19.5565 32.0563C19.3994 31.9811 19.2424 31.8957 19.0886 31.8154C18.9715 31.7587 18.8562 31.6983 18.7427 31.6343L18.7762 31.6514C18.5873 31.5489 18.3985 31.4378 18.208 31.3336C18.1512 31.2926 18.086 31.2584 18.0209 31.2208C17.7377 31.0525 17.4581 30.8782 17.182 30.698L17.2873 30.7629C17.2166 30.7182 17.1475 30.6709 17.0801 30.6211L17.0901 30.6279C16.9105 30.5151 16.7344 30.3966 16.5621 30.2726C16.5053 30.235 16.4535 30.194 16.395 30.153C16.215 30.0273 16.0378 29.8974 15.8636 29.7634L15.9037 29.7924C15.8336 29.7344 15.7584 29.6797 15.6832 29.6233C15.5361 29.5054 15.3874 29.3926 15.2404 29.2696L15.0432 29.109C14.833 28.9381 14.6269 28.762 14.4249 28.5811L14.4233 28.5794L13.8434 28.0412L13.6763 27.8806C13.5393 27.7388 13.3989 27.6038 13.2586 27.4637L13.0965 27.2928C12.9235 27.1176 12.7547 26.9382 12.5902 26.7546L12.5802 26.7427L12.5518 26.7187C12.3748 26.5201 12.2005 26.319 12.0287 26.1156C11.9836 26.0626 11.9418 26.0063 11.8951 25.9499L11.5157 25.48C11.3448 25.2604 11.1776 25.0377 11.0145 24.812L10.9476 24.7163C7.04087 19.2899 5.62722 11.8012 8.75362 5.65723L5.99317 9.22642C2.44234 14.4188 2.8818 21.171 5.59714 26.6846C5.65897 26.8195 5.72748 26.946 5.79432 27.0741Z" fill="white"/>
<path d="M17.7531 19.5937L17.7348 19.5664L17.7197 19.5459L17.7531 19.5937Z" fill="#C4C4C4"/>
<path d="M19.6218 21.8352L19.7722 21.989C19.9627 22.1769 20.1582 22.3597 20.357 22.5426L20.3821 22.5648C20.5826 22.7459 20.8082 22.9355 21.0405 23.12L21.0755 23.1474C21.1324 23.1867 21.1808 23.2328 21.236 23.2721C21.4699 23.4566 21.7055 23.6326 21.9511 23.8086L21.9762 23.824C22.0798 23.9009 22.1901 23.9709 22.3071 24.0461C22.3538 24.0768 22.4073 24.1179 22.4574 24.1486C22.6346 24.2648 22.8084 24.3724 22.9871 24.4835C23.0156 24.4954 23.0406 24.5108 23.0674 24.5228C23.2177 24.6168 23.3815 24.7073 23.5386 24.7893C23.5937 24.8235 23.6472 24.8491 23.704 24.8816C23.816 24.938 23.9262 24.9978 24.0332 25.0559L24.0867 25.0798C24.3122 25.1925 24.5428 25.2985 24.7684 25.4027C24.8252 25.4249 24.8737 25.4437 24.9221 25.4676C25.1076 25.5496 25.2964 25.6282 25.4819 25.7C25.5655 25.729 25.644 25.7632 25.7225 25.7888C25.893 25.8538 26.0718 25.9136 26.2405 25.9734L26.4745 26.0502C26.7184 26.1271 26.9657 26.2279 27.2248 26.2689C40.4806 28.5003 43.5485 18.1174 43.5485 18.1174C40.7864 22.1615 35.441 24.0888 29.7446 22.5836C29.4602 22.5102 29.1782 22.4276 28.8991 22.3358L28.9943 22.3632C28.9141 22.3409 28.8439 22.3153 28.7671 22.2914C28.5933 22.2299 28.4145 22.1701 28.2457 22.1069L28.0051 22.0146C27.8179 21.9377 27.6275 21.866 27.4453 21.7839C27.3885 21.7583 27.3367 21.7412 27.2933 21.7156C27.0593 21.608 26.8237 21.502 26.5948 21.3893L26.2506 21.2065L26.0517 21.1039C25.898 21.0219 25.756 20.9365 25.6089 20.8494C25.5714 20.8313 25.5351 20.8108 25.5003 20.7879L25.5053 20.7896C25.3282 20.6768 25.1444 20.5674 24.9739 20.453C24.9171 20.4205 24.8653 20.3812 24.8119 20.347L24.4643 20.1164C24.2237 19.9455 23.9881 19.7627 23.7491 19.585C23.6956 19.5355 23.6438 19.4945 23.592 19.45C21.0872 17.4459 19.1121 14.7071 18.1747 11.606C17.1872 8.38195 17.4044 4.76662 19.1105 1.83301L17.0134 4.85375C14.4384 8.61431 14.5838 13.6409 16.589 17.6185C16.9549 18.3531 17.3259 18.9734 17.7353 19.5645C18.1162 20.1215 18.5373 20.7742 19.0453 21.2218C19.2258 21.432 19.4196 21.6319 19.6218 21.8352Z" fill="white"/>
<path d="M7.51545 29.8864L7.50877 29.8762L7.49707 29.8608L7.51545 29.8864ZM14.4634 28.6152L14.4801 28.6272L14.4834 28.6323L14.4634 28.6152Z" fill="#C4C4C4"/>
<path d="M26.2807 1.58384C24.7617 3.85111 24.6164 6.66683 25.6624 9.16646C26.7736 11.8216 29.0445 13.906 31.6913 14.8936C31.7999 14.9363 31.9052 14.9722 32.0171 15.0132L32.1642 15.0593C32.3179 15.1089 32.4733 15.167 32.632 15.2028C39.9526 16.6397 41.9344 11.3791 42.4674 10.6051C40.7246 13.1508 37.8021 13.7625 34.2161 12.8758C33.9043 12.798 33.5974 12.701 33.2971 12.5853L33.3522 12.6041C32.9785 12.4719 32.6126 12.3178 32.2561 12.1428L32.3196 12.1718C31.6345 11.8301 31.0463 11.4611 30.4999 11.0373C27.2949 8.55992 25.3132 3.84257 27.4052 0L26.2807 1.58384Z" fill="white"/>
</svg>
