<svg width="45" height="45" viewBox="0 0 45 45" fill="none" xmlns="http://www.w3.org/2000/svg">
<mask id="mask0_1927_52" style="mask-type:alpha" maskUnits="userSpaceOnUse" x="0" y="0" width="45" height="45">
<rect width="45" height="44.5029" fill="#D9D9D9"/>
</mask>
<g mask="url(#mask0_1927_52)">
<path d="M44.9752 10.1802C44.9915 10.2402 44.9998 10.302 45 10.3642V20.0233C45 20.1473 44.9671 20.2691 44.9045 20.3763C44.842 20.4836 44.752 20.5726 44.6438 20.6343L36.4834 25.3018V34.5534C36.4834 34.8051 36.3487 35.0376 36.1289 35.1643L19.0948 44.9062C19.0558 44.9282 19.0133 44.9423 18.9708 44.9573C18.9548 44.9625 18.9397 44.9722 18.9229 44.9766C18.8038 45.0078 18.6787 45.0078 18.5596 44.9766C18.5401 44.9714 18.5224 44.9608 18.5038 44.9537C18.4648 44.9397 18.424 44.9273 18.3868 44.9062L1.35623 35.1643C1.24803 35.1026 1.15814 35.0136 1.0956 34.9063C1.03306 34.7991 1.00009 34.6773 1 34.5534V5.57598C1 5.5126 1.00886 5.45097 1.02481 5.39111C1.03013 5.37086 1.04253 5.35238 1.04962 5.33213C1.06292 5.29515 1.07532 5.2573 1.09482 5.22296C1.10811 5.20008 1.1276 5.18159 1.14355 5.16046C1.16393 5.13229 1.18254 5.10324 1.20647 5.07859C1.22685 5.05834 1.25343 5.04337 1.27647 5.02577C1.30217 5.00464 1.32521 4.98175 1.35445 4.96502L9.87107 0.0940834C9.97889 0.0324422 10.1011 0 10.2255 0C10.3499 0 10.4721 0.0324422 10.58 0.0940834L19.0957 4.96502H19.0975C19.1258 4.98263 19.1498 5.00464 19.1755 5.02489C19.1985 5.04249 19.2242 5.05834 19.2446 5.07771C19.2694 5.10324 19.2871 5.13229 19.3084 5.16046C19.3234 5.18159 19.3438 5.20008 19.3562 5.22296C19.3766 5.25818 19.3881 5.29515 19.4023 5.33213C19.4094 5.35238 19.4218 5.37086 19.4271 5.39199C19.4434 5.45198 19.4518 5.51384 19.4519 5.57598V23.675L26.5481 19.6157V10.3633C26.5481 10.3017 26.5569 10.2392 26.5729 10.1802C26.5791 10.159 26.5906 10.1406 26.5977 10.1203C26.6119 10.0833 26.6243 10.0455 26.6438 10.0112C26.6571 9.98826 26.6766 9.96978 26.6916 9.94865C26.7129 9.92048 26.7306 9.89143 26.7554 9.86678C26.7758 9.84653 26.8015 9.83156 26.8245 9.81396C26.8511 9.79283 26.8742 9.76994 26.9025 9.75321L35.42 4.88227C35.5278 4.82054 35.6501 4.78805 35.7745 4.78805C35.8989 4.78805 36.0211 4.82054 36.1289 4.88227L44.6447 9.75321C44.6748 9.77082 44.6978 9.79283 44.7244 9.81308C44.7466 9.83068 44.7723 9.84653 44.7926 9.8659C44.8175 9.89143 44.8352 9.92048 44.8564 9.94865C44.8724 9.96978 44.8919 9.98826 44.9043 10.0112C44.9247 10.0455 44.9362 10.0833 44.9504 10.1203C44.9584 10.1406 44.9699 10.159 44.9752 10.1802ZM43.5804 19.6157V11.5834L40.6004 13.2878L36.4834 15.6427V23.675L43.5813 19.6157H43.5804ZM35.0647 34.1458V26.1082L31.0151 28.4059L19.451 34.9627V43.076L35.0647 34.1458ZM2.41958 6.79526V34.1458L18.0315 43.0751V34.9636L9.8755 30.3779L9.87284 30.3761L9.8693 30.3744C9.84183 30.3585 9.81879 30.3356 9.79309 30.3163C9.77094 30.2987 9.74524 30.2846 9.72574 30.2652L9.72397 30.2626C9.70093 30.2406 9.68498 30.2133 9.66549 30.1886C9.64776 30.1649 9.6265 30.1446 9.61232 30.12L9.61143 30.1173C9.59548 30.0909 9.58573 30.0592 9.57421 30.0293C9.56269 30.0029 9.54763 29.9782 9.54054 29.9501C9.53168 29.9166 9.52991 29.8805 9.52636 29.8462C9.52282 29.8198 9.51573 29.7933 9.51573 29.7669V10.8545L5.39965 8.49872L2.41958 6.79526ZM10.2264 1.51848L3.13115 5.57598L10.2246 9.63348L17.319 5.5751L10.2246 1.51848H10.2264ZM13.9163 26.8407L18.0323 24.4866V6.79526L15.0523 8.4996L10.9353 10.8545V28.5459L13.9163 26.8407ZM35.7745 6.30667L28.6801 10.3642L35.7745 14.4217L42.868 10.3633L35.7745 6.30667ZM35.0647 15.6427L30.9477 13.2878L27.9677 11.5834V19.6157L32.0837 21.9697L35.0647 23.675V15.6427ZM18.7404 33.7435L29.1462 27.8416L34.3478 24.8925L27.2588 20.8376L19.0966 25.5061L11.6575 29.7608L18.7404 33.7435Z" fill="#FF2D20"/>
</g>
</svg>
