<svg width="45" height="45" viewBox="0 0 45 45" fill="none" xmlns="http://www.w3.org/2000/svg">
<mask id="mask0_1927_96" style="mask-type:alpha" maskUnits="userSpaceOnUse" x="0" y="0" width="45" height="45">
<rect width="45" height="45" fill="#D9D9D9"/>
</mask>
<g mask="url(#mask0_1927_96)">
<path d="M23 45C22.3915 45.0002 21.7937 44.8406 21.2666 44.5371L15.7507 41.2794C14.9275 40.8198 15.3286 40.6574 15.6009 40.5626C16.4764 40.2928 17.3147 39.9148 18.0963 39.4376C18.1617 39.4074 18.2337 39.3944 18.3056 39.3997C18.3775 39.405 18.4468 39.4286 18.5071 39.4681L22.7455 41.9801C22.8244 42.0218 22.9123 42.0436 23.0016 42.0436C23.0909 42.0436 23.1788 42.0218 23.2578 41.9801L39.7861 32.4625C39.8635 32.4163 39.9275 32.3508 39.9718 32.2725C40.0161 32.1941 40.0393 32.1057 40.0391 32.0157V12.9772C40.0391 12.8859 40.0156 12.796 39.9707 12.7163C39.9259 12.6367 39.8612 12.5699 39.7829 12.5224L23.2545 3.01281C23.1766 2.96902 23.0887 2.94601 22.9992 2.94601C22.9097 2.94601 22.8218 2.96902 22.7439 3.01281L6.22514 12.5256C6.14635 12.5721 6.08092 12.6381 6.0352 12.7172C5.98948 12.7964 5.96501 12.8859 5.96417 12.9772V32.0077C5.96439 32.0974 5.98853 32.1855 6.0341 32.2629C6.07968 32.3403 6.14505 32.4042 6.22353 32.448L10.7568 35.0581C13.2135 36.2827 14.7181 34.8395 14.7181 33.3898V14.6005C14.7181 14.5372 14.7306 14.4745 14.7549 14.416C14.7792 14.3575 14.8148 14.3043 14.8596 14.2595C14.9045 14.2148 14.9578 14.1793 15.0164 14.155C15.0751 14.1308 15.1379 14.1183 15.2014 14.1183H17.2956C17.4238 14.1183 17.5467 14.1691 17.6374 14.2595C17.728 14.35 17.7789 14.4726 17.7789 14.6005V33.3914C17.7789 36.662 15.994 38.5344 12.8848 38.5344C11.5435 38.5577 10.2232 38.1998 9.07814 37.5026L4.7334 35.0163C4.20595 34.7099 3.7683 34.2708 3.46414 33.7428C3.15998 33.2149 2.99994 32.6166 3.00001 32.0077V12.9772C2.99844 12.3674 3.1578 11.7678 3.46207 11.2389C3.76634 10.7099 4.2048 10.2701 4.7334 9.9638L21.2634 0.442953C21.7959 0.152325 22.3931 0 23 0C23.607 0 24.2041 0.152325 24.7366 0.442953L41.265 9.9638C41.7924 10.2696 42.2301 10.7081 42.5346 11.2355C42.839 11.7628 42.9995 12.3606 43 12.9692V32.0077C42.9991 32.6166 42.8385 33.2147 42.5341 33.7425C42.2297 34.2703 41.7922 34.7094 41.265 35.0163L24.7366 44.5371C24.2086 44.8411 23.6096 45.0007 23 45Z" fill="#00D486"/>
<path d="M19.8652 25.6383C19.8652 25.5104 19.9162 25.3878 20.0068 25.2974C20.0974 25.207 20.2203 25.1562 20.3485 25.1562H22.4863C22.6005 25.1565 22.7109 25.1972 22.7979 25.2711C22.8849 25.3449 22.9428 25.4471 22.9615 25.5596C23.2837 27.7308 24.2503 28.8253 28.6208 28.8253C32.102 28.8253 33.5857 28.0394 33.5857 26.196C33.5857 25.1337 33.1653 24.3445 27.7541 23.8158C23.2305 23.369 20.4339 22.3693 20.4339 18.7629C20.4339 15.436 23.245 13.4512 27.9571 13.4512C33.2523 13.4512 35.8733 15.2849 36.2051 19.2193C36.2102 19.285 36.2017 19.351 36.1802 19.4133C36.1587 19.4756 36.1247 19.5328 36.0801 19.5814C36.0356 19.6301 35.9816 19.6691 35.9213 19.6961C35.8611 19.7231 35.7959 19.7375 35.7299 19.7384H33.5777C33.4697 19.7369 33.3654 19.6994 33.2813 19.6318C33.1972 19.5642 33.1382 19.4705 33.1137 19.3655C32.5998 17.0818 31.3417 16.3521 27.9587 16.3521C24.1568 16.3521 23.7154 17.6732 23.7154 18.6632C23.7154 19.8622 24.2374 20.2125 29.3699 20.8891C34.4492 21.5593 36.8624 22.5075 36.8624 26.069C36.8624 29.6626 33.8596 31.7198 28.6224 31.7198C21.3811 31.7295 19.8652 28.4171 19.8652 25.6383Z" fill="#00D486"/>
</g>
</svg>
