<svg width="45" height="45" viewBox="0 0 45 45" fill="none" xmlns="http://www.w3.org/2000/svg">
<mask id="mask0_1927_154" style="mask-type:alpha" maskUnits="userSpaceOnUse" x="0" y="0" width="45" height="45">
<rect width="45" height="44.5029" fill="#D9D9D9"/>
</mask>
<g mask="url(#mask0_1927_154)">
</g>
<g clip-path="url(#clip0_1927_154)">
<path d="M10.0022 0H34.9279C36.1408 0 37.3186 0.193359 38.4611 0.597656C40.1135 1.19531 41.6076 2.25 42.7326 3.62109C43.8752 4.99219 44.6311 6.67969 44.8947 8.4375C45.0002 9.08789 45.0178 9.73828 45.0178 10.3887V34.6992C45.0178 35.4727 44.9826 36.2637 44.8244 37.0195C44.4728 38.7598 43.6467 40.3945 42.4514 41.7129C41.2736 43.0312 39.7268 44.0156 38.0568 44.543C37.0373 44.8594 35.9826 45 34.9104 45C34.4357 45 9.93184 45 9.5627 44.9824C7.76973 44.8945 5.99434 44.3145 4.5002 43.3125C3.04121 42.3281 1.8459 40.957 1.07246 39.375C0.404494 38.0215 0.07051 36.5098 0.07051 34.998V10.002C0.0353538 8.50781 0.35176 7.03125 1.00215 5.69531C1.75801 4.11328 2.93574 2.72461 4.39473 1.74023C5.88887 0.720703 7.64668 0.123047 9.43965 0.0351562C9.61543 0 9.80879 0 10.0022 0Z" fill="url(#paint0_linear_1927_154)"/>
<path d="M37.9688 36.8086C37.8105 36.5625 37.6348 36.3164 37.4414 36.0879C37.002 35.5605 36.4922 35.1035 35.9297 34.7168C35.2266 34.2422 34.4004 33.9434 33.5566 33.9082C32.959 33.873 32.3613 33.9785 31.7988 34.1895C31.2363 34.3828 30.6914 34.6641 30.1641 34.9453C29.5488 35.2617 28.9336 35.5781 28.2832 35.8418C27.5098 36.1582 26.7012 36.4043 25.875 36.5801C24.8379 36.7734 23.7832 36.8438 22.7461 36.8262C20.8652 36.791 18.9844 36.5098 17.1914 35.9824C15.6094 35.5078 14.0977 34.8574 12.6738 34.0312C11.4258 33.3105 10.2656 32.4844 9.17578 31.5527C8.2793 30.7793 7.45312 29.9531 6.67969 29.0742C6.15234 28.459 5.64258 27.8086 5.16797 27.1406C4.97461 26.877 4.79883 26.5957 4.64062 26.3145L0 21.3047V9.9668C0 4.46484 4.44727 0 9.94922 0H18.8262L25.4004 6.67969C40.2363 16.7695 35.4375 27.8965 35.4375 27.8965C35.4375 27.8965 39.6562 32.6426 37.9688 36.8086Z" fill="url(#paint1_linear_1927_154)"/>
<path d="M25.4355 6.67969C40.2715 16.7695 35.4727 27.8965 35.4727 27.8965C35.4727 27.8965 39.6914 32.6602 37.9863 36.8262C37.9863 36.8262 36.2461 33.9082 33.3281 33.9082C30.5156 33.9082 28.8633 36.8262 23.2031 36.8262C10.5996 36.8262 4.64062 26.2969 4.64062 26.2969C15.9961 33.7676 23.748 28.4766 23.748 28.4766C18.6328 25.5059 7.75195 11.3027 7.75195 11.3027C17.2266 19.3711 21.3223 21.498 21.3223 21.498C18.8789 19.4766 12.0234 9.59766 12.0234 9.59766C17.5078 15.1523 28.4063 22.9043 28.4063 22.9043C31.5 14.3262 25.4355 6.67969 25.4355 6.67969Z" fill="white"/>
</g>
<defs>
<linearGradient id="paint0_linear_1927_154" x1="26.7701" y1="-1.60576" x2="18.2681" y2="46.6112" gradientUnits="userSpaceOnUse">
<stop stop-color="#FAAE42"/>
<stop offset="1" stop-color="#EF3E31"/>
</linearGradient>
<linearGradient id="paint1_linear_1927_154" x1="22.9591" y1="0.727032" x2="16.7367" y2="36.0163" gradientUnits="userSpaceOnUse">
<stop stop-color="#E39F3A"/>
<stop offset="1" stop-color="#D33929"/>
</linearGradient>
<clipPath id="clip0_1927_154">
<rect width="45" height="45" fill="white"/>
</clipPath>
</defs>
</svg>
