<svg width="1320" height="572" viewBox="0 0 1320 572" fill="none" xmlns="http://www.w3.org/2000/svg">
<g clip-path="url(#clip0_13_169)">
<rect width="1320" height="572" fill="#EFE6DD"/>
<g filter="url(#filter0_f_13_169)">
<circle cx="84.5" cy="18.5" r="258.5" fill="#BB4430"/>
</g>
<g filter="url(#filter1_f_13_169)">
<circle cx="982.5" cy="-9.5" r="258.5" fill="#231F20"/>
</g>
<g filter="url(#filter2_f_13_169)">
<circle cx="143.5" cy="460.5" r="258.5" fill="#F3DFA2"/>
</g>
<g filter="url(#filter3_f_13_169)">
<circle cx="1241.5" cy="497.5" r="258.5" fill="#7EBDC2"/>
</g>
<path d="M154.156 250.168V263.722H123.637V313H107.48V263.722H76.9621V250.168H154.156ZM205.604 259.234C219.697 259.234 232.891 264.26 233.071 283.738L232.891 313H217.453V289.573C217.453 278.353 213.683 272.518 201.027 272.518C190.704 272.518 179.574 277.814 174.817 283.379V313H159.468V241.192H174.817V269.377C182.356 263.452 192.769 259.234 205.604 259.234ZM282.656 259.234C288.939 259.234 293.337 260.131 296.927 261.029V273.865C291.901 272.608 287.862 272.069 283.374 272.069C274.757 272.069 264.883 274.044 255.548 281.315V313H240.199V260.131H255.548V269.107C263.447 262.016 272.782 259.234 282.656 259.234ZM334.106 301.421C344.698 301.421 351.161 299.446 355.02 294.061H370.28C366.779 307.525 353.674 313.898 334.106 313.898C314 313.898 298.382 305.999 298.382 286.611C298.382 267.133 313.551 259.234 335.004 259.234C355.11 259.234 371.177 266.145 371.177 290.201H314.09C315.795 298.638 323.874 301.421 334.106 301.421ZM334.914 270.903C324.412 270.903 317.052 272.967 314.628 280.417H354.751C352.148 272.967 344.608 270.903 334.914 270.903ZM411.532 259.234C433.613 259.234 446.179 266.325 446.359 286.341V313H430.92V306.448C421.585 311.025 411.263 313.898 398.786 313.898C383.976 313.898 374.73 309.14 374.73 297.202C374.73 283.469 389.81 279.16 406.595 279.16C415.661 279.16 424.009 280.597 430.92 282.93C430.92 272.877 417.995 272.069 410.814 272.069C403.902 272.069 395.465 272.698 384.604 275.929L379.129 264.709C389.9 261.208 400.491 259.234 411.532 259.234ZM430.92 296.574V292.445C425.535 290.74 418.264 289.214 408.48 289.214C396.991 289.214 390.079 291.188 390.079 296.574C390.079 302.139 395.196 302.588 403.184 302.588C411.532 302.588 423.021 299.985 430.92 296.574ZM503.107 272.967H478.064V288.226C478.064 298.459 480.039 301.062 489.374 301.062C494.221 301.062 496.913 301.062 503.107 300.164V312.551C497.991 313.449 492.156 313.898 485.065 313.898C471.422 313.898 462.625 308.781 462.625 297.112V272.967H448.712V260.131H462.625V249.181L478.064 244.782V260.131H503.107V272.967ZM567.097 250.168V313H550.94V250.168H567.097ZM620.92 259.234C635.012 259.234 648.207 264.26 648.386 283.738L648.207 313H632.768V289.573C632.768 278.353 628.998 272.518 616.342 272.518C606.019 272.518 594.889 277.814 590.132 283.379V313H574.783V260.131H590.132V269.377C597.672 263.452 608.084 259.234 620.92 259.234ZM705.593 272.967H680.55V288.226C680.55 298.459 682.524 301.062 691.859 301.062C696.706 301.062 699.399 301.062 705.593 300.164V312.551C700.476 313.449 694.642 313.898 687.551 313.898C673.907 313.898 665.111 308.781 665.111 297.112V272.967H651.198V260.131H665.111V249.181L680.55 244.782V260.131H705.593V272.967ZM745.126 301.421C755.718 301.421 762.181 299.446 766.041 294.061H781.3C777.799 307.525 764.694 313.898 745.126 313.898C725.02 313.898 709.402 305.999 709.402 286.611C709.402 267.133 724.571 259.234 746.024 259.234C766.13 259.234 782.197 266.145 782.197 290.201H725.11C726.815 298.638 734.894 301.421 745.126 301.421ZM745.934 270.903C735.432 270.903 728.072 272.967 725.649 280.417H765.771C763.168 272.967 755.628 270.903 745.934 270.903ZM788.051 241.192H803.4V313H788.051V241.192ZM810.578 241.192H825.927V313H810.578V241.192ZM833.106 241.192H848.455V254.566H833.106V241.192ZM833.106 260.131H848.455V313H833.106V260.131ZM912.103 260.131H927.542V304.563C927.542 326.105 913.091 335.44 893.074 335.44C877.725 335.44 865.069 332.568 859.953 331.221V318.834C866.146 320.001 877.994 322.604 889.663 322.604C905.551 322.604 911.475 316.501 912.103 302.947C906.718 308.871 897.831 312.372 885.355 312.372C867.223 312.372 854.298 304.473 854.298 285.803C854.298 267.133 867.223 259.234 885.355 259.234C897.921 259.234 906.807 262.734 912.103 268.659V260.131ZM890.92 299.536C905.371 299.536 912.103 295.497 912.103 285.803C912.103 276.109 905.371 272.069 890.92 272.069C876.468 272.069 869.647 276.109 869.647 285.803C869.647 295.497 876.468 299.536 890.92 299.536ZM969.526 301.421C980.118 301.421 986.581 299.446 990.44 294.061H1005.7C1002.2 307.525 989.094 313.898 969.526 313.898C949.42 313.898 933.802 305.999 933.802 286.611C933.802 267.133 948.971 259.234 970.424 259.234C990.53 259.234 1006.6 266.145 1006.6 290.201H949.51C951.215 298.638 959.294 301.421 969.526 301.421ZM970.334 270.903C959.832 270.903 952.472 272.967 950.048 280.417H990.171C987.568 272.967 980.028 270.903 970.334 270.903ZM1058.59 259.234C1072.68 259.234 1085.87 264.26 1086.05 283.738L1085.87 313H1070.44V289.573C1070.44 278.353 1066.67 272.518 1054.01 272.518C1043.69 272.518 1032.56 277.814 1027.8 283.379V313H1012.45V260.131H1027.8V269.377C1035.34 263.452 1045.75 259.234 1058.59 259.234ZM1091.41 286.611C1091.41 267.133 1106.13 259.234 1128.03 259.234C1147.78 259.234 1161.69 265.696 1164.2 281.225H1148.5C1146.43 274.403 1139.16 272.069 1128.03 272.069C1114.84 272.069 1106.76 275.57 1106.76 286.611C1106.76 297.561 1114.84 301.062 1128.03 301.062C1139.16 301.062 1146.43 298.728 1148.5 291.906H1164.2C1161.69 307.435 1147.78 313.898 1128.03 313.898C1106.13 313.898 1091.41 305.999 1091.41 286.611ZM1204.36 301.421C1214.95 301.421 1221.41 299.446 1225.27 294.061H1240.53C1237.03 307.525 1223.93 313.898 1204.36 313.898C1184.25 313.898 1168.63 305.999 1168.63 286.611C1168.63 267.133 1183.8 259.234 1205.26 259.234C1225.36 259.234 1241.43 266.145 1241.43 290.201H1184.34C1186.05 298.638 1194.12 301.421 1204.36 301.421ZM1205.17 270.903C1194.66 270.903 1187.3 272.967 1184.88 280.417H1225C1222.4 272.967 1214.86 270.903 1205.17 270.903Z" fill="black"/>
</g>
<defs>
<filter id="filter0_f_13_169" x="-674" y="-740" width="1517" height="1517" filterUnits="userSpaceOnUse" color-interpolation-filters="sRGB">
<feFlood flood-opacity="0" result="BackgroundImageFix"/>
<feBlend mode="normal" in="SourceGraphic" in2="BackgroundImageFix" result="shape"/>
<feGaussianBlur stdDeviation="250" result="effect1_foregroundBlur_13_169"/>
</filter>
<filter id="filter1_f_13_169" x="224" y="-768" width="1517" height="1517" filterUnits="userSpaceOnUse" color-interpolation-filters="sRGB">
<feFlood flood-opacity="0" result="BackgroundImageFix"/>
<feBlend mode="normal" in="SourceGraphic" in2="BackgroundImageFix" result="shape"/>
<feGaussianBlur stdDeviation="250" result="effect1_foregroundBlur_13_169"/>
</filter>
<filter id="filter2_f_13_169" x="-615" y="-298" width="1517" height="1517" filterUnits="userSpaceOnUse" color-interpolation-filters="sRGB">
<feFlood flood-opacity="0" result="BackgroundImageFix"/>
<feBlend mode="normal" in="SourceGraphic" in2="BackgroundImageFix" result="shape"/>
<feGaussianBlur stdDeviation="250" result="effect1_foregroundBlur_13_169"/>
</filter>
<filter id="filter3_f_13_169" x="483" y="-261" width="1517" height="1517" filterUnits="userSpaceOnUse" color-interpolation-filters="sRGB">
<feFlood flood-opacity="0" result="BackgroundImageFix"/>
<feBlend mode="normal" in="SourceGraphic" in2="BackgroundImageFix" result="shape"/>
<feGaussianBlur stdDeviation="250" result="effect1_foregroundBlur_13_169"/>
</filter>
<clipPath id="clip0_13_169">
<rect width="1320" height="572" fill="white"/>
</clipPath>
</defs>
</svg>
