<svg width="1320" height="572" viewBox="0 0 1320 572" fill="none" xmlns="http://www.w3.org/2000/svg">
<g clip-path="url(#clip0_13_162)">
<rect width="1320" height="572" fill="#EFE6DD"/>
<g filter="url(#filter0_f_13_162)">
<circle cx="84.5" cy="18.5" r="258.5" fill="#BB4430"/>
</g>
<g filter="url(#filter1_f_13_162)">
<circle cx="982.5" cy="-9.5" r="258.5" fill="#231F20"/>
</g>
<g filter="url(#filter2_f_13_162)">
<circle cx="143.5" cy="460.5" r="258.5" fill="#F3DFA2"/>
</g>
<g filter="url(#filter3_f_13_162)">
<circle cx="1241.5" cy="497.5" r="258.5" fill="#7EBDC2"/>
</g>
<path d="M87.2277 250.168C101.5 250.168 111.283 259.234 111.283 273.236C111.283 287.239 101.5 296.215 87.2277 296.215H54.0165V313H37.8597V250.168H87.2277ZM82.7397 282.661C87.5867 282.661 95.1266 282.661 95.1266 273.236C95.1266 263.722 87.5867 263.722 82.7397 263.722H54.0165V282.661H82.7397ZM150.964 301.421C161.555 301.421 168.018 299.446 171.878 294.061H187.137C183.636 307.525 170.531 313.898 150.964 313.898C130.857 313.898 115.239 305.999 115.239 286.611C115.239 267.133 130.409 259.234 151.861 259.234C171.967 259.234 188.034 266.145 188.034 290.201H130.947C132.653 298.638 140.731 301.421 150.964 301.421ZM151.771 270.903C141.27 270.903 133.909 272.967 131.486 280.417H171.608C169.005 272.967 161.466 270.903 151.771 270.903ZM240.024 259.234C254.117 259.234 267.312 264.26 267.491 283.738L267.312 313H251.873V289.573C251.873 278.353 248.103 272.518 235.447 272.518C225.124 272.518 213.994 277.814 209.237 283.379V313H193.888V260.131H209.237V269.377C216.777 263.452 227.189 259.234 240.024 259.234ZM308.57 301.421C319.161 301.421 325.624 299.446 329.484 294.061H344.743C341.242 307.525 328.137 313.898 308.57 313.898C288.463 313.898 272.845 305.999 272.845 286.611C272.845 267.133 288.014 259.234 309.467 259.234C329.573 259.234 345.64 266.145 345.64 290.201H288.553C290.258 298.638 298.337 301.421 308.57 301.421ZM309.377 270.903C298.875 270.903 291.515 272.967 289.092 280.417H329.214C326.611 272.967 319.071 270.903 309.377 270.903ZM401.134 272.967H376.091V288.226C376.091 298.459 378.066 301.062 387.401 301.062C392.248 301.062 394.94 301.062 401.134 300.164V312.551C396.018 313.449 390.183 313.898 383.092 313.898C369.449 313.898 360.652 308.781 360.652 297.112V272.967H346.739V260.131H360.652V249.181L376.091 244.782V260.131H401.134V272.967ZM449.875 259.234C456.158 259.234 460.556 260.131 464.147 261.029V273.865C459.12 272.608 455.081 272.069 450.593 272.069C441.976 272.069 432.102 274.044 422.767 281.315V313H407.418V260.131H422.767V269.107C430.666 262.016 440.001 259.234 449.875 259.234ZM501.789 259.234C523.87 259.234 536.437 266.325 536.616 286.341V313H521.177V306.448C511.842 311.025 501.52 313.898 489.043 313.898C474.233 313.898 464.988 309.14 464.988 297.202C464.988 283.469 480.067 279.16 496.852 279.16C505.918 279.16 514.266 280.597 521.177 282.93C521.177 272.877 508.252 272.069 501.071 272.069C494.16 272.069 485.722 272.698 474.861 275.929L469.386 264.709C480.157 261.208 490.749 259.234 501.789 259.234ZM521.177 296.574V292.445C515.792 290.74 508.521 289.214 498.737 289.214C487.248 289.214 480.337 291.188 480.337 296.574C480.337 302.139 485.453 302.588 493.441 302.588C501.789 302.588 513.278 299.985 521.177 296.574ZM593.364 272.967H568.321V288.226C568.321 298.459 570.296 301.062 579.631 301.062C584.478 301.062 587.171 301.062 593.364 300.164V312.551C588.248 313.449 582.413 313.898 575.322 313.898C561.679 313.898 552.882 308.781 552.882 297.112V272.967H538.969V260.131H552.882V249.181L568.321 244.782V260.131H593.364V272.967ZM599.649 241.192H614.998V254.566H599.649V241.192ZM599.649 260.131H614.998V313H599.649V260.131ZM657.462 313.898C635.561 313.898 620.84 305.999 620.84 286.611C620.84 267.133 635.561 259.234 657.462 259.234C679.274 259.234 694.085 267.133 694.085 286.611C694.085 305.999 679.274 313.898 657.462 313.898ZM657.462 301.062C671.645 301.062 678.646 297.561 678.646 286.611C678.646 275.57 671.645 272.069 657.462 272.069C643.191 272.069 636.189 275.57 636.189 286.611C636.189 297.561 643.191 301.062 657.462 301.062ZM746.064 259.234C760.156 259.234 773.351 264.26 773.531 283.738L773.351 313H757.912V289.573C757.912 278.353 754.142 272.518 741.486 272.518C731.164 272.518 720.034 277.814 715.276 283.379V313H699.927V260.131H715.276V269.377C722.816 263.452 733.228 259.234 746.064 259.234ZM898.504 250.168V263.722H867.985V313H851.829V263.722H821.31V250.168H898.504ZM929.351 301.421C939.943 301.421 946.406 299.446 950.265 294.061H965.524C962.024 307.525 948.919 313.898 929.351 313.898C909.245 313.898 893.627 305.999 893.627 286.611C893.627 267.133 908.796 259.234 930.249 259.234C950.355 259.234 966.422 266.145 966.422 290.201H909.335C911.04 298.638 919.118 301.421 929.351 301.421ZM930.159 270.903C919.657 270.903 912.297 272.967 909.873 280.417H949.996C947.393 272.967 939.853 270.903 930.159 270.903ZM969.888 294.42H985.237C985.237 300.075 991.071 302.229 1008.22 302.229C1024.82 302.229 1027.51 301.152 1027.51 297.023C1027.51 292.984 1025 292.714 1006.42 291.547C983.172 290.201 971.773 288.406 971.773 275.66C971.773 261.837 987.929 259.234 1006.78 259.234C1026.71 259.234 1041.16 261.837 1041.16 276.378H1025.72C1025.72 271.98 1020.15 270.903 1005.88 270.903C991.34 270.903 987.211 271.98 987.211 275.032C987.211 278.353 989.994 278.891 1008.22 280.238C1028.86 281.764 1042.95 282.302 1042.95 296.394C1042.95 311.295 1029.49 313.898 1009.11 313.898C988.737 313.898 969.888 311.295 969.888 294.42ZM1098.88 272.967H1073.83V288.226C1073.83 298.459 1075.81 301.062 1085.14 301.062C1089.99 301.062 1092.68 301.062 1098.88 300.164V312.551C1093.76 313.449 1087.93 313.898 1080.84 313.898C1067.19 313.898 1058.4 308.781 1058.4 297.112V272.967H1044.48V260.131H1058.4V249.181L1073.83 244.782V260.131H1098.88V272.967ZM1105.16 241.192H1120.51V254.566H1105.16V241.192ZM1105.16 260.131H1120.51V313H1105.16V260.131ZM1174.35 259.234C1188.44 259.234 1201.64 264.26 1201.82 283.738L1201.64 313H1186.2V289.573C1186.2 278.353 1182.43 272.518 1169.77 272.518C1159.45 272.518 1148.32 277.814 1143.56 283.379V313H1128.22V260.131H1143.56V269.377C1151.1 263.452 1161.52 259.234 1174.35 259.234ZM1265.42 260.131H1280.86V304.563C1280.86 326.105 1266.4 335.44 1246.39 335.44C1231.04 335.44 1218.38 332.568 1213.27 331.221V318.834C1219.46 320.001 1231.31 322.604 1242.98 322.604C1258.86 322.604 1264.79 316.501 1265.42 302.947C1260.03 308.871 1251.14 312.372 1238.67 312.372C1220.54 312.372 1207.61 304.473 1207.61 285.803C1207.61 267.133 1220.54 259.234 1238.67 259.234C1251.23 259.234 1260.12 262.734 1265.42 268.659V260.131ZM1244.23 299.536C1258.68 299.536 1265.42 295.497 1265.42 285.803C1265.42 276.109 1258.68 272.069 1244.23 272.069C1229.78 272.069 1222.96 276.109 1222.96 285.803C1222.96 295.497 1229.78 299.536 1244.23 299.536Z" fill="black"/>
</g>
<defs>
<filter id="filter0_f_13_162" x="-674" y="-740" width="1517" height="1517" filterUnits="userSpaceOnUse" color-interpolation-filters="sRGB">
<feFlood flood-opacity="0" result="BackgroundImageFix"/>
<feBlend mode="normal" in="SourceGraphic" in2="BackgroundImageFix" result="shape"/>
<feGaussianBlur stdDeviation="250" result="effect1_foregroundBlur_13_162"/>
</filter>
<filter id="filter1_f_13_162" x="224" y="-768" width="1517" height="1517" filterUnits="userSpaceOnUse" color-interpolation-filters="sRGB">
<feFlood flood-opacity="0" result="BackgroundImageFix"/>
<feBlend mode="normal" in="SourceGraphic" in2="BackgroundImageFix" result="shape"/>
<feGaussianBlur stdDeviation="250" result="effect1_foregroundBlur_13_162"/>
</filter>
<filter id="filter2_f_13_162" x="-615" y="-298" width="1517" height="1517" filterUnits="userSpaceOnUse" color-interpolation-filters="sRGB">
<feFlood flood-opacity="0" result="BackgroundImageFix"/>
<feBlend mode="normal" in="SourceGraphic" in2="BackgroundImageFix" result="shape"/>
<feGaussianBlur stdDeviation="250" result="effect1_foregroundBlur_13_162"/>
</filter>
<filter id="filter3_f_13_162" x="483" y="-261" width="1517" height="1517" filterUnits="userSpaceOnUse" color-interpolation-filters="sRGB">
<feFlood flood-opacity="0" result="BackgroundImageFix"/>
<feBlend mode="normal" in="SourceGraphic" in2="BackgroundImageFix" result="shape"/>
<feGaussianBlur stdDeviation="250" result="effect1_foregroundBlur_13_162"/>
</filter>
<clipPath id="clip0_13_162">
<rect width="1320" height="572" fill="white"/>
</clipPath>
</defs>
</svg>
