<svg width="1320" height="572" viewBox="0 0 1320 572" fill="none" xmlns="http://www.w3.org/2000/svg">
<g clip-path="url(#clip0_13_176)">
<rect width="1320" height="572" fill="#EFE6DD"/>
<g filter="url(#filter0_f_13_176)">
<circle cx="84.5" cy="18.5" r="258.5" fill="#BB4430"/>
</g>
<g filter="url(#filter1_f_13_176)">
<circle cx="982.5" cy="-9.5" r="258.5" fill="#231F20"/>
</g>
<g filter="url(#filter2_f_13_176)">
<circle cx="143.5" cy="460.5" r="258.5" fill="#F3DFA2"/>
</g>
<g filter="url(#filter3_f_13_176)">
<circle cx="1241.5" cy="497.5" r="258.5" fill="#7EBDC2"/>
</g>
<path d="M165.962 291.368H182.119C182.119 298.01 187.504 301.062 207.97 301.062C224.934 301.062 230.051 299.177 230.051 294.24C230.051 289.034 226.46 288.136 206.085 287.149C178.708 285.892 167.847 281.584 167.847 267.492C167.847 253.669 181.939 249.27 205.456 249.27C229.153 249.27 243.515 255.195 243.515 270.723H227.358C227.358 263.812 220.446 262.106 203.661 262.106C187.774 262.106 184.004 263.632 184.004 268.3C184.004 273.147 187.774 274.044 206.085 275.121C230.859 276.468 246.208 277.814 246.208 293.702C246.208 310.487 230.32 313.898 207.072 313.898C181.311 313.898 165.962 309.499 165.962 291.368ZM286.888 301.421C297.48 301.421 303.943 299.446 307.803 294.061H323.062C319.561 307.525 306.456 313.898 286.888 313.898C266.782 313.898 251.164 305.999 251.164 286.611C251.164 267.133 266.333 259.234 287.786 259.234C307.892 259.234 323.959 266.145 323.959 290.201H266.872C268.577 298.638 276.656 301.421 286.888 301.421ZM287.696 270.903C277.194 270.903 269.834 272.967 267.411 280.417H307.533C304.93 272.967 297.39 270.903 287.696 270.903ZM328.389 286.611C328.389 267.133 343.11 259.234 365.011 259.234C384.758 259.234 398.671 265.696 401.184 281.225H385.476C383.412 274.403 376.141 272.069 365.011 272.069C351.816 272.069 343.738 275.57 343.738 286.611C343.738 297.561 351.816 301.062 365.011 301.062C376.141 301.062 383.412 298.728 385.476 291.906H401.184C398.671 307.435 384.758 313.898 365.011 313.898C343.11 313.898 328.389 305.999 328.389 286.611ZM465.202 260.131H480.551V313H465.202V303.755C457.662 309.679 447.25 313.898 434.415 313.898C420.322 313.898 407.128 308.871 406.948 289.393L407.128 260.131H422.566V283.559C422.566 294.779 426.336 300.613 438.992 300.613C449.315 300.613 460.445 295.317 465.202 289.752V260.131ZM530.226 259.234C536.509 259.234 540.907 260.131 544.498 261.029V273.865C539.471 272.608 535.432 272.069 530.944 272.069C522.327 272.069 512.453 274.044 503.118 281.315V313H487.769V260.131H503.118V269.107C511.017 262.016 520.352 259.234 530.226 259.234ZM550.794 241.192H566.143V254.566H550.794V241.192ZM550.794 260.131H566.143V313H550.794V260.131ZM625.854 272.967H600.811V288.226C600.811 298.459 602.786 301.062 612.121 301.062C616.968 301.062 619.661 301.062 625.854 300.164V312.551C620.738 313.449 614.904 313.898 607.813 313.898C594.169 313.898 585.373 308.781 585.373 297.112V272.967H571.46V260.131H585.373V249.181L600.811 244.782V260.131H625.854V272.967ZM689.456 260.131H706.421L670.697 335.44H653.732L664.413 313H656.515L629.138 260.131H646.192L668.812 303.755L689.456 260.131ZM822.193 313L815.461 299.626H777.851L771.119 313H753.347L785.75 250.168H807.562L840.055 313H822.193ZM783.865 287.598H809.447L796.701 262.106L783.865 287.598ZM898.224 260.131H913.573V313H898.224V303.755C890.684 309.679 880.272 313.898 867.436 313.898C853.344 313.898 840.149 308.871 839.97 289.393L840.149 260.131H855.588V283.559C855.588 294.779 859.358 300.613 872.014 300.613C882.337 300.613 893.467 295.317 898.224 289.752V260.131ZM977.35 241.192H992.699V313H977.35V304.742C971.606 310.756 962.361 313.898 950.961 313.898C933.996 313.898 919.455 306.807 919.455 286.611C919.455 266.415 933.996 259.234 950.961 259.234C962.361 259.234 971.606 262.375 977.35 268.389V241.192ZM956.077 301.062C969.811 301.062 977.35 297.023 977.35 286.611C977.35 276.109 969.811 272.069 956.077 272.069C942.344 272.069 934.894 276.109 934.894 286.611C934.894 297.023 942.344 301.062 956.077 301.062ZM999.857 241.192H1015.21V254.566H999.857V241.192ZM999.857 260.131H1015.21V313H999.857V260.131ZM1074.92 272.967H1049.87V288.226C1049.87 298.459 1051.85 301.062 1061.18 301.062C1066.03 301.062 1068.72 301.062 1074.92 300.164V312.551C1069.8 313.449 1063.97 313.898 1056.88 313.898C1043.23 313.898 1034.44 308.781 1034.44 297.112V272.967H1020.52V260.131H1034.44V249.181L1049.87 244.782V260.131H1074.92V272.967ZM1079.87 294.42H1095.22C1095.22 300.075 1101.05 302.229 1118.19 302.229C1134.8 302.229 1137.49 301.152 1137.49 297.023C1137.49 292.984 1134.98 292.714 1116.4 291.547C1093.15 290.201 1081.75 288.406 1081.75 275.66C1081.75 261.837 1097.91 259.234 1116.76 259.234C1136.68 259.234 1151.14 261.837 1151.14 276.378H1135.7C1135.7 271.98 1130.13 270.903 1115.86 270.903C1101.32 270.903 1097.19 271.98 1097.19 275.032C1097.19 278.353 1099.97 278.891 1118.19 280.238C1138.84 281.764 1152.93 282.302 1152.93 296.394C1152.93 311.295 1139.47 313.898 1119.09 313.898C1098.72 313.898 1079.87 311.295 1079.87 294.42Z" fill="black"/>
</g>
<defs>
<filter id="filter0_f_13_176" x="-674" y="-740" width="1517" height="1517" filterUnits="userSpaceOnUse" color-interpolation-filters="sRGB">
<feFlood flood-opacity="0" result="BackgroundImageFix"/>
<feBlend mode="normal" in="SourceGraphic" in2="BackgroundImageFix" result="shape"/>
<feGaussianBlur stdDeviation="250" result="effect1_foregroundBlur_13_176"/>
</filter>
<filter id="filter1_f_13_176" x="224" y="-768" width="1517" height="1517" filterUnits="userSpaceOnUse" color-interpolation-filters="sRGB">
<feFlood flood-opacity="0" result="BackgroundImageFix"/>
<feBlend mode="normal" in="SourceGraphic" in2="BackgroundImageFix" result="shape"/>
<feGaussianBlur stdDeviation="250" result="effect1_foregroundBlur_13_176"/>
</filter>
<filter id="filter2_f_13_176" x="-615" y="-298" width="1517" height="1517" filterUnits="userSpaceOnUse" color-interpolation-filters="sRGB">
<feFlood flood-opacity="0" result="BackgroundImageFix"/>
<feBlend mode="normal" in="SourceGraphic" in2="BackgroundImageFix" result="shape"/>
<feGaussianBlur stdDeviation="250" result="effect1_foregroundBlur_13_176"/>
</filter>
<filter id="filter3_f_13_176" x="483" y="-261" width="1517" height="1517" filterUnits="userSpaceOnUse" color-interpolation-filters="sRGB">
<feFlood flood-opacity="0" result="BackgroundImageFix"/>
<feBlend mode="normal" in="SourceGraphic" in2="BackgroundImageFix" result="shape"/>
<feGaussianBlur stdDeviation="250" result="effect1_foregroundBlur_13_176"/>
</filter>
<clipPath id="clip0_13_176">
<rect width="1320" height="572" fill="white"/>
</clipPath>
</defs>
</svg>
