<svg width="1320" height="572" viewBox="0 0 1320 572" fill="none" xmlns="http://www.w3.org/2000/svg">
<g clip-path="url(#clip0_13_155)">
<rect width="1320" height="572" fill="#EFE6DD"/>
<g filter="url(#filter0_f_13_155)">
<circle cx="84.5" cy="18.5" r="258.5" fill="#BB4430"/>
</g>
<g filter="url(#filter1_f_13_155)">
<circle cx="982.5" cy="-9.5" r="258.5" fill="#231F20"/>
</g>
<g filter="url(#filter2_f_13_155)">
<circle cx="143.5" cy="460.5" r="258.5" fill="#F3DFA2"/>
</g>
<g filter="url(#filter3_f_13_155)">
<circle cx="1241.5" cy="497.5" r="258.5" fill="#7EBDC2"/>
</g>
<path d="M183.539 250.168H201.67L169.357 313H147.276L114.962 250.168H133.094L158.316 301.062L183.539 250.168ZM260.453 260.131H275.802V313H260.453V303.755C252.913 309.679 242.501 313.898 229.666 313.898C215.573 313.898 202.379 308.871 202.199 289.393L202.379 260.131H217.817V283.559C217.817 294.779 221.587 300.613 234.243 300.613C244.566 300.613 255.696 295.317 260.453 289.752V260.131ZM282.582 241.192H297.931V313H282.582V241.192ZM351.772 259.234C365.864 259.234 379.059 264.26 379.239 283.738L379.059 313H363.62V289.573C363.62 278.353 359.851 272.518 347.194 272.518C336.872 272.518 325.742 277.814 320.984 283.379V313H305.635V260.131H320.984V269.377C328.524 263.452 338.936 259.234 351.772 259.234ZM420.317 301.421C430.909 301.421 437.372 299.446 441.231 294.061H456.49C452.99 307.525 439.885 313.898 420.317 313.898C400.211 313.898 384.593 305.999 384.593 286.611C384.593 267.133 399.762 259.234 421.215 259.234C441.321 259.234 457.388 266.145 457.388 290.201H400.301C402.006 298.638 410.085 301.421 420.317 301.421ZM421.125 270.903C410.623 270.903 403.263 272.967 400.839 280.417H440.962C438.359 272.967 430.819 270.903 421.125 270.903ZM505.698 259.234C511.981 259.234 516.379 260.131 519.97 261.029V273.865C514.943 272.608 510.904 272.069 506.416 272.069C497.799 272.069 487.925 274.044 478.59 281.315V313H463.241V260.131H478.59V269.107C486.489 262.016 495.824 259.234 505.698 259.234ZM557.612 259.234C579.693 259.234 592.259 266.325 592.439 286.341V313H577V306.448C567.665 311.025 557.343 313.898 544.866 313.898C530.056 313.898 520.811 309.14 520.811 297.202C520.811 283.469 535.89 279.16 552.675 279.16C561.741 279.16 570.089 280.597 577 282.93C577 272.877 564.075 272.069 556.894 272.069C549.983 272.069 541.545 272.698 530.684 275.929L525.209 264.709C535.98 261.208 546.572 259.234 557.612 259.234ZM577 296.574V292.445C571.615 290.74 564.344 289.214 554.56 289.214C543.071 289.214 536.159 291.188 536.159 296.574C536.159 302.139 541.276 302.588 549.264 302.588C557.612 302.588 569.101 299.985 577 296.574ZM641.373 259.234C658.338 259.234 672.879 266.415 672.879 286.611C672.879 306.807 658.338 313.898 641.373 313.898C629.973 313.898 620.728 310.756 614.983 304.742V313H599.635V241.192H614.983V268.389C620.728 262.375 629.973 259.234 641.373 259.234ZM636.257 301.062C649.99 301.062 657.44 297.023 657.44 286.611C657.44 276.109 649.99 272.069 636.257 272.069C622.523 272.069 614.983 276.109 614.983 286.611C614.983 297.023 622.523 301.062 636.257 301.062ZM678.701 241.192H694.049V254.566H678.701V241.192ZM678.701 260.131H694.049V313H678.701V260.131ZM701.228 241.192H716.577V313H701.228V241.192ZM723.756 241.192H739.105V254.566H723.756V241.192ZM723.756 260.131H739.105V313H723.756V260.131ZM798.816 272.967H773.773V288.226C773.773 298.459 775.748 301.062 785.083 301.062C789.93 301.062 792.623 301.062 798.816 300.164V312.551C793.7 313.449 787.865 313.898 780.774 313.898C767.131 313.898 758.334 308.781 758.334 297.112V272.967H744.422V260.131H758.334V249.181L773.773 244.782V260.131H798.816V272.967ZM862.418 260.131H879.383L843.658 335.44H826.694L837.375 313H829.476L802.099 260.131H819.154L841.773 303.755L862.418 260.131ZM1003.5 250.168V263.722H972.984V313H956.827V263.722H926.308V250.168H1003.5ZM1034.35 301.421C1044.94 301.421 1051.4 299.446 1055.26 294.061H1070.52C1067.02 307.525 1053.92 313.898 1034.35 313.898C1014.24 313.898 998.625 305.999 998.625 286.611C998.625 267.133 1013.79 259.234 1035.25 259.234C1055.35 259.234 1071.42 266.145 1071.42 290.201H1014.33C1016.04 298.638 1024.12 301.421 1034.35 301.421ZM1035.16 270.903C1024.66 270.903 1017.29 272.967 1014.87 280.417H1054.99C1052.39 272.967 1044.85 270.903 1035.16 270.903ZM1074.89 294.42H1090.23C1090.23 300.075 1096.07 302.229 1113.21 302.229C1129.82 302.229 1132.51 301.152 1132.51 297.023C1132.51 292.984 1130 292.714 1111.42 291.547C1088.17 290.201 1076.77 288.406 1076.77 275.66C1076.77 261.837 1092.93 259.234 1111.78 259.234C1131.7 259.234 1146.16 261.837 1146.16 276.378H1130.72C1130.72 271.98 1125.15 270.903 1110.88 270.903C1096.34 270.903 1092.21 271.98 1092.21 275.032C1092.21 278.353 1094.99 278.891 1113.21 280.238C1133.86 281.764 1147.95 282.302 1147.95 296.394C1147.95 311.295 1134.49 313.898 1114.11 313.898C1093.74 313.898 1074.89 311.295 1074.89 294.42ZM1203.88 272.967H1178.83V288.226C1178.83 298.459 1180.81 301.062 1190.14 301.062C1194.99 301.062 1197.68 301.062 1203.88 300.164V312.551C1198.76 313.449 1192.92 313.898 1185.83 313.898C1172.19 313.898 1163.39 308.781 1163.39 297.112V272.967H1149.48V260.131H1163.39V249.181L1178.83 244.782V260.131H1203.88V272.967Z" fill="black"/>
</g>
<defs>
<filter id="filter0_f_13_155" x="-674" y="-740" width="1517" height="1517" filterUnits="userSpaceOnUse" color-interpolation-filters="sRGB">
<feFlood flood-opacity="0" result="BackgroundImageFix"/>
<feBlend mode="normal" in="SourceGraphic" in2="BackgroundImageFix" result="shape"/>
<feGaussianBlur stdDeviation="250" result="effect1_foregroundBlur_13_155"/>
</filter>
<filter id="filter1_f_13_155" x="224" y="-768" width="1517" height="1517" filterUnits="userSpaceOnUse" color-interpolation-filters="sRGB">
<feFlood flood-opacity="0" result="BackgroundImageFix"/>
<feBlend mode="normal" in="SourceGraphic" in2="BackgroundImageFix" result="shape"/>
<feGaussianBlur stdDeviation="250" result="effect1_foregroundBlur_13_155"/>
</filter>
<filter id="filter2_f_13_155" x="-615" y="-298" width="1517" height="1517" filterUnits="userSpaceOnUse" color-interpolation-filters="sRGB">
<feFlood flood-opacity="0" result="BackgroundImageFix"/>
<feBlend mode="normal" in="SourceGraphic" in2="BackgroundImageFix" result="shape"/>
<feGaussianBlur stdDeviation="250" result="effect1_foregroundBlur_13_155"/>
</filter>
<filter id="filter3_f_13_155" x="483" y="-261" width="1517" height="1517" filterUnits="userSpaceOnUse" color-interpolation-filters="sRGB">
<feFlood flood-opacity="0" result="BackgroundImageFix"/>
<feBlend mode="normal" in="SourceGraphic" in2="BackgroundImageFix" result="shape"/>
<feGaussianBlur stdDeviation="250" result="effect1_foregroundBlur_13_155"/>
</filter>
<clipPath id="clip0_13_155">
<rect width="1320" height="572" fill="white"/>
</clipPath>
</defs>
</svg>
