<svg width="21" height="21" viewBox="0 0 21 21" fill="none" xmlns="http://www.w3.org/2000/svg">
<path d="M18.4961 5.53711L14.1895 4.30664L12.959 0H4.3457C3.32634 0 2.5 0.826342 2.5 1.8457V19.1543C2.5 20.1737 3.32634 21 4.3457 21H16.6504C17.6698 21 18.4961 20.1737 18.4961 19.1543V5.53711Z" fill="white"/>
<path d="M18.498 5.53711V19.1543C18.498 20.1737 17.6717 21 16.6523 21H10.5V0H12.9609L14.1914 4.30664L18.498 5.53711Z" fill="white"/>
<path d="M18.498 5.53711H14.1914C13.5146 5.53711 12.9609 4.9834 12.9609 4.30664V0C13.1209 0 13.2809 0.0615234 13.3916 0.184611L18.3134 5.10649C18.4365 5.21719 18.498 5.37715 18.498 5.53711Z" fill="#BAAFAF"/>
<path d="M14.1855 9.88477H6.80273C6.46267 9.88477 6.1875 9.60959 6.1875 9.26953C6.1875 8.92947 6.46267 8.6543 6.80273 8.6543H14.1855C14.5256 8.6543 14.8008 8.92947 14.8008 9.26953C14.8008 9.60959 14.5256 9.88477 14.1855 9.88477ZM14.1855 12.3457H6.80273C6.46267 12.3457 6.1875 12.0705 6.1875 11.7305C6.1875 11.3904 6.46267 11.1152 6.80273 11.1152H14.1855C14.5256 11.1152 14.8008 11.3904 14.8008 11.7305C14.8008 12.0705 14.5256 12.3457 14.1855 12.3457ZM14.1855 14.8066H6.80273C6.46267 14.8066 6.1875 14.5315 6.1875 14.1914C6.1875 13.8513 6.46267 13.5762 6.80273 13.5762H14.1855C14.5256 13.5762 14.8008 13.8513 14.8008 14.1914C14.8008 14.5315 14.5256 14.8066 14.1855 14.8066ZM11.7246 17.2676H6.80273C6.46267 17.2676 6.1875 16.9924 6.1875 16.6523C6.1875 16.3123 6.46267 16.0371 6.80273 16.0371H11.7246C12.0647 16.0371 12.3398 16.3123 12.3398 16.6523C12.3398 16.9924 12.0647 17.2676 11.7246 17.2676Z" fill="#B8B8B8"/>
<path d="M10.5 17.2676H11.7305C12.0705 17.2676 12.3457 16.9924 12.3457 16.6523C12.3457 16.3123 12.0705 16.0371 11.7305 16.0371H10.5V17.2676ZM10.5 14.8066H14.1914C14.5315 14.8066 14.8066 14.5315 14.8066 14.1914C14.8066 13.8513 14.5315 13.5762 14.1914 13.5762H10.5V14.8066ZM10.5 12.3457H14.1914C14.5315 12.3457 14.8066 12.0705 14.8066 11.7305C14.8066 11.3904 14.5315 11.1152 14.1914 11.1152H10.5V12.3457ZM10.5 9.88477H14.1914C14.5315 9.88477 14.8066 9.60959 14.8066 9.26953C14.8066 8.92947 14.5315 8.6543 14.1914 8.6543H10.5V9.88477Z" fill="#B8B8B8"/>
</svg>
