<svg width="21" height="21" viewBox="0 0 21 21" fill="none" xmlns="http://www.w3.org/2000/svg">
<path fill-rule="evenodd" clip-rule="evenodd" d="M5.38231 0H12.4033L18.3538 6.2024V18.2661C18.3538 19.7774 17.1312 21 15.6252 21H5.38231C3.87107 21 2.64844 19.7774 2.64844 18.2661V2.73387C2.64841 1.22263 3.87105 0 5.38231 0Z" fill="white"/>
<path opacity="0.302" fill-rule="evenodd" clip-rule="evenodd" d="M12.3984 0V6.15517H18.3542L12.3984 0Z" fill="#E5252A"/>
<path d="M5.6875 15.6688V11.833H7.31944C7.72349 11.833 8.04359 11.9432 8.28496 12.1688C8.52634 12.3892 8.64704 12.6883 8.64704 13.0609C8.64704 13.4335 8.52634 13.7326 8.28496 13.953C8.04359 14.1786 7.72349 14.2888 7.31944 14.2888H6.66876V15.6688H5.6875ZM6.66876 13.4545H7.20925C7.35616 13.4545 7.47161 13.423 7.55033 13.3495C7.62903 13.2813 7.67103 13.1868 7.67103 13.0609C7.67103 12.935 7.62906 12.8405 7.55033 12.7723C7.47163 12.6988 7.35619 12.6674 7.20925 12.6674H6.66876V13.4545ZM9.05107 15.6688V11.833H10.4101C10.6778 11.833 10.9296 11.8697 11.1658 11.9485C11.4019 12.0272 11.617 12.1374 11.8059 12.2895C11.9948 12.4365 12.147 12.6359 12.2572 12.8877C12.3621 13.1396 12.4199 13.4282 12.4199 13.7536C12.4199 14.0737 12.3622 14.3623 12.2572 14.6141C12.147 14.866 11.9948 15.0654 11.8059 15.2123C11.617 15.3645 11.4019 15.4747 11.1658 15.5534C10.9296 15.6321 10.6778 15.6688 10.4101 15.6688H9.05107ZM10.0113 14.8345H10.2947C10.4469 14.8345 10.5885 14.8188 10.7197 14.782C10.8457 14.7453 10.9664 14.6876 11.0818 14.6089C11.192 14.5302 11.2812 14.42 11.3442 14.273C11.4071 14.1261 11.4386 13.953 11.4386 13.7536C11.4386 13.5489 11.4071 13.3757 11.3442 13.2288C11.2812 13.0819 11.192 12.9717 11.0818 12.893C10.9664 12.8143 10.8457 12.7566 10.7197 12.7198C10.5885 12.6831 10.4469 12.6674 10.2947 12.6674H10.0113V14.8345ZM12.9131 15.6688V11.833H15.6418V12.6674H13.8944V13.2813H15.2902V14.1104H13.8944V15.6688H12.9131Z" fill="#E5252A"/>
</svg>
