<svg width="16" height="20" viewBox="0 0 16 20" fill="none" xmlns="http://www.w3.org/2000/svg">
<path fill-rule="evenodd" clip-rule="evenodd" d="M3.11931 0H9.80597L15.4731 5.90705V17.3963C15.4731 18.8356 14.3087 20 12.8744 20H3.11931C1.68004 20 0.515625 18.8356 0.515625 17.3963V2.60369C0.5156 1.16441 1.68001 0 3.11931 0Z" fill="#E5252A"/>
<path opacity="0.302" fill-rule="evenodd" clip-rule="evenodd" d="M9.79688 0V5.86207H15.469L9.79688 0Z" fill="white"/>
<path d="M3.40625 14.9227V11.2695H4.96048C5.34529 11.2695 5.65015 11.3745 5.88003 11.5894C6.10991 11.7993 6.22486 12.0841 6.22486 12.4389C6.22486 12.7938 6.10991 13.0786 5.88003 13.2885C5.65015 13.5034 5.34529 13.6084 4.96048 13.6084H4.34078V14.9227H3.40625ZM4.34078 12.8138H4.85553C4.99545 12.8138 5.1054 12.7838 5.18038 12.7138C5.25533 12.6489 5.29533 12.5589 5.29533 12.439C5.29533 12.319 5.25535 12.2291 5.18038 12.1641C5.10543 12.0941 4.99548 12.0642 4.85553 12.0642H4.34078V12.8138ZM6.60965 14.9227V11.2695H7.904C8.15887 11.2695 8.39876 11.3045 8.62363 11.3795C8.84851 11.4544 9.05343 11.5594 9.23332 11.7043C9.41324 11.8442 9.55817 12.0341 9.66311 12.274C9.76306 12.5139 9.81804 12.7888 9.81804 13.0986C9.81804 13.4035 9.76308 13.6783 9.66311 13.9182C9.55817 14.1581 9.41324 14.348 9.23332 14.4879C9.0534 14.6328 8.84851 14.7378 8.62363 14.8128C8.39876 14.8877 8.15887 14.9227 7.904 14.9227H6.60965ZM7.52419 14.1281H7.79405C7.93897 14.1281 8.07391 14.1131 8.19885 14.0781C8.31878 14.0432 8.43373 13.9882 8.54368 13.9132C8.64863 13.8383 8.73358 13.7333 8.79355 13.5934C8.85351 13.4535 8.88351 13.2885 8.88351 13.0986C8.88351 12.9037 8.85351 12.7388 8.79355 12.5989C8.73358 12.459 8.64863 12.354 8.54368 12.279C8.43373 12.2041 8.3188 12.1491 8.19885 12.1141C8.07391 12.0792 7.93897 12.0641 7.79405 12.0641H7.52419V14.1281ZM10.2878 14.9227V11.2695H12.8865V12.0641H11.2223V12.6488H12.5517V13.4385H11.2223V14.9227H10.2878Z" fill="white"/>
</svg>
