<svg width="28" height="28" viewBox="0 0 28 28" fill="none" xmlns="http://www.w3.org/2000/svg">
<path d="M10.1392 21.3408C7.92774 20.3811 6.30047 18.3783 5.84149 16C5.38252 18.3783 3.75524 20.3811 1.5021 21.3408C1.08485 21.5494 0 21.7998 0 21.7998C0 21.7998 1.08485 22.0918 1.5021 22.2587C3.75524 23.2601 5.38252 25.2629 5.84149 27.6413C6.30047 25.2629 7.92774 23.2601 10.1392 22.3005C10.5564 22.0918 11.6413 21.8415 11.6413 21.8415C11.6413 21.8415 10.5564 21.5494 10.1392 21.3408Z" fill="#F4CB0A"/>
<path d="M25.9856 7.36691C22.8777 6.04317 20.6331 3.28058 20 0C19.3669 3.28058 17.1223 6.04317 14.0719 7.36691C13.4964 7.65468 12 8 12 8C12 8 13.4964 8.40288 14.0719 8.63309C17.1223 9.95683 19.3669 12.7194 20 16C20.6331 12.7194 22.8777 9.95683 25.9281 8.63309C26.5036 8.34532 28 8 28 8C28 8 26.5612 7.65468 25.9856 7.36691Z" fill="#F4CB0A"/>
</svg>
