<svg width="28" height="28" viewBox="0 0 28 28" fill="none" xmlns="http://www.w3.org/2000/svg">
<path d="M1.50244 5.34079C3.71386 4.38112 5.34114 2.37832 5.80011 0C6.25908 2.37832 7.88636 4.38112 10.1395 5.34079C10.5568 5.54942 11.6416 5.79977 11.6416 5.79977C11.6416 5.79977 10.5568 6.09184 10.1395 6.25874C7.88636 7.26014 6.25908 9.26294 5.80011 11.6413C5.34114 9.26294 3.71386 7.26014 1.50244 6.30047C1.08519 6.09184 0.000342369 5.84149 0.000342369 5.84149C0.000342369 5.84149 1.08519 5.54942 1.50244 5.34079Z" fill="#F4CB0A"/>
<path d="M13.656 19.3669C16.7639 18.0432 19.0085 15.2806 19.6416 12C20.2747 15.2806 22.5193 18.0432 25.5697 19.3669C26.1452 19.6547 27.6416 20 27.6416 20C27.6416 20 26.1452 20.4029 25.5697 20.6331C22.5193 21.9568 20.2747 24.7194 19.6416 28C19.0085 24.7194 16.7639 21.9568 13.7135 20.6331C13.138 20.3453 11.6416 20 11.6416 20C11.6416 20 13.0805 19.6547 13.656 19.3669Z" fill="#F4CB0A"/>
</svg>
