<svg width="1320" height="572" viewBox="0 0 1320 572" fill="none" xmlns="http://www.w3.org/2000/svg">
<g clip-path="url(#clip0_12_36)">
<rect width="1320" height="572" fill="#EFE6DD"/>
<g filter="url(#filter0_f_12_36)">
<circle cx="84.5" cy="18.5" r="258.5" fill="#BB4430"/>
</g>
<g filter="url(#filter1_f_12_36)">
<circle cx="982.5" cy="-9.5" r="258.5" fill="#231F20"/>
</g>
<g filter="url(#filter2_f_12_36)">
<circle cx="143.5" cy="460.5" r="258.5" fill="#F3DFA2"/>
</g>
<g filter="url(#filter3_f_12_36)">
<circle cx="1241.5" cy="497.5" r="258.5" fill="#7EBDC2"/>
</g>
<path d="M375.808 313L369.076 299.626H331.467L324.735 313H306.962L339.365 250.168H361.177L393.67 313H375.808ZM337.48 287.598H363.062L350.316 262.106L337.48 287.598ZM440.848 259.234C457.903 259.234 472.354 266.415 472.354 286.611C472.354 306.807 457.903 313.898 440.848 313.898C429.449 313.898 420.293 310.846 414.549 304.832V335.44H399.11V260.131H414.549V268.3C420.293 262.375 429.449 259.234 440.848 259.234ZM435.732 301.062C449.465 301.062 457.005 297.023 457.005 286.611C457.005 276.109 449.465 272.069 435.732 272.069C421.999 272.069 414.549 276.109 414.549 286.611C414.549 297.023 421.999 301.062 435.732 301.062ZM519.914 259.234C536.969 259.234 551.42 266.415 551.42 286.611C551.42 306.807 536.969 313.898 519.914 313.898C508.515 313.898 499.359 310.846 493.615 304.832V335.44H478.176V260.131H493.615V268.3C499.359 262.375 508.515 259.234 519.914 259.234ZM514.798 301.062C528.531 301.062 536.071 297.023 536.071 286.611C536.071 276.109 528.531 272.069 514.798 272.069C501.065 272.069 493.615 276.109 493.615 286.611C493.615 297.023 501.065 301.062 514.798 301.062ZM644.827 250.168C661.074 250.168 675.346 260.221 675.346 281.584C675.346 302.947 661.074 313 644.827 313H599.229V250.168H644.827ZM638.723 299.446C650.931 299.446 659.189 296.843 659.189 281.584C659.189 266.325 650.931 263.722 638.723 263.722H615.386V299.446H638.723ZM716.453 301.421C727.045 301.421 733.507 299.446 737.367 294.061H752.626C749.125 307.525 736.021 313.898 716.453 313.898C696.347 313.898 680.728 305.999 680.728 286.611C680.728 267.133 695.898 259.234 717.35 259.234C737.457 259.234 753.524 266.145 753.524 290.201H696.436C698.142 298.638 706.22 301.421 716.453 301.421ZM717.261 270.903C706.759 270.903 699.398 272.967 696.975 280.417H737.098C734.495 272.967 726.955 270.903 717.261 270.903ZM756.989 294.42H772.338C772.338 300.075 778.173 302.229 795.317 302.229C811.922 302.229 814.615 301.152 814.615 297.023C814.615 292.984 812.102 292.714 793.522 291.547C770.274 290.201 758.874 288.406 758.874 275.66C758.874 261.837 775.031 259.234 793.881 259.234C813.807 259.234 828.259 261.837 828.259 276.378H812.82C812.82 271.98 807.255 270.903 792.983 270.903C778.442 270.903 774.313 271.98 774.313 275.032C774.313 278.353 777.096 278.891 795.317 280.238C815.962 281.764 830.054 282.302 830.054 296.394C830.054 311.295 816.59 313.898 796.214 313.898C775.839 313.898 756.989 311.295 756.989 294.42ZM835.901 241.192H851.25V254.566H835.901V241.192ZM835.901 260.131H851.25V313H835.901V260.131ZM914.898 260.131H930.337V304.563C930.337 326.105 915.885 335.44 895.869 335.44C880.52 335.44 867.864 332.568 862.748 331.221V318.834C868.941 320.001 880.789 322.604 892.458 322.604C908.346 322.604 914.27 316.501 914.898 302.947C909.513 308.871 900.626 312.372 888.15 312.372C870.018 312.372 857.093 304.473 857.093 285.803C857.093 267.133 870.018 259.234 888.15 259.234C900.716 259.234 909.602 262.734 914.898 268.659V260.131ZM893.715 299.536C908.166 299.536 914.898 295.497 914.898 285.803C914.898 276.109 908.166 272.069 893.715 272.069C879.263 272.069 872.442 276.109 872.442 285.803C872.442 295.497 879.263 299.536 893.715 299.536ZM984.157 259.234C998.249 259.234 1011.44 264.26 1011.62 283.738L1011.44 313H996.005V289.573C996.005 278.353 992.235 272.518 979.579 272.518C969.257 272.518 958.127 277.814 953.369 283.379V313H938.02V260.131H953.369V269.377C960.909 263.452 971.321 259.234 984.157 259.234Z" fill="black"/>
</g>
<defs>
<filter id="filter0_f_12_36" x="-674" y="-740" width="1517" height="1517" filterUnits="userSpaceOnUse" color-interpolation-filters="sRGB">
<feFlood flood-opacity="0" result="BackgroundImageFix"/>
<feBlend mode="normal" in="SourceGraphic" in2="BackgroundImageFix" result="shape"/>
<feGaussianBlur stdDeviation="250" result="effect1_foregroundBlur_12_36"/>
</filter>
<filter id="filter1_f_12_36" x="224" y="-768" width="1517" height="1517" filterUnits="userSpaceOnUse" color-interpolation-filters="sRGB">
<feFlood flood-opacity="0" result="BackgroundImageFix"/>
<feBlend mode="normal" in="SourceGraphic" in2="BackgroundImageFix" result="shape"/>
<feGaussianBlur stdDeviation="250" result="effect1_foregroundBlur_12_36"/>
</filter>
<filter id="filter2_f_12_36" x="-615" y="-298" width="1517" height="1517" filterUnits="userSpaceOnUse" color-interpolation-filters="sRGB">
<feFlood flood-opacity="0" result="BackgroundImageFix"/>
<feBlend mode="normal" in="SourceGraphic" in2="BackgroundImageFix" result="shape"/>
<feGaussianBlur stdDeviation="250" result="effect1_foregroundBlur_12_36"/>
</filter>
<filter id="filter3_f_12_36" x="483" y="-261" width="1517" height="1517" filterUnits="userSpaceOnUse" color-interpolation-filters="sRGB">
<feFlood flood-opacity="0" result="BackgroundImageFix"/>
<feBlend mode="normal" in="SourceGraphic" in2="BackgroundImageFix" result="shape"/>
<feGaussianBlur stdDeviation="250" result="effect1_foregroundBlur_12_36"/>
</filter>
<clipPath id="clip0_12_36">
<rect width="1320" height="572" fill="white"/>
</clipPath>
</defs>
</svg>
