<svg width="1320" height="572" viewBox="0 0 1320 572" fill="none" xmlns="http://www.w3.org/2000/svg">
<g clip-path="url(#clip0_12_30)">
<rect width="1320" height="572" fill="#EFE6DD"/>
<g filter="url(#filter0_f_12_30)">
<circle cx="84.5" cy="18.5" r="258.5" fill="#BB4430"/>
</g>
<g filter="url(#filter1_f_12_30)">
<circle cx="982.5" cy="-9.5" r="258.5" fill="#231F20"/>
</g>
<g filter="url(#filter2_f_12_30)">
<circle cx="143.5" cy="460.5" r="258.5" fill="#F3DFA2"/>
</g>
<g filter="url(#filter3_f_12_30)">
<circle cx="1241.5" cy="497.5" r="258.5" fill="#7EBDC2"/>
</g>
<path d="M403.688 250.168H421.191L396.417 313H374.067L355.577 265.696L336.996 313H314.736L289.962 250.168H307.376L325.956 299.536L345.613 250.168H365.45L385.197 299.626L403.688 250.168ZM451.298 301.421C461.89 301.421 468.352 299.446 472.212 294.061H487.471C483.971 307.525 470.866 313.898 451.298 313.898C431.192 313.898 415.573 305.999 415.573 286.611C415.573 267.133 430.743 259.234 452.196 259.234C472.302 259.234 488.369 266.145 488.369 290.201H431.281C432.987 298.638 441.065 301.421 451.298 301.421ZM452.106 270.903C441.604 270.903 434.244 272.967 431.82 280.417H471.943C469.34 272.967 461.8 270.903 452.106 270.903ZM535.961 259.234C552.925 259.234 567.466 266.415 567.466 286.611C567.466 306.807 552.925 313.898 535.961 313.898C524.561 313.898 515.316 310.756 509.571 304.742V313H494.222V241.192H509.571V268.389C515.316 262.375 524.561 259.234 535.961 259.234ZM530.844 301.062C544.578 301.062 552.028 297.023 552.028 286.611C552.028 276.109 544.578 272.069 530.844 272.069C517.111 272.069 509.571 276.109 509.571 286.611C509.571 297.023 517.111 301.062 530.844 301.062ZM660.874 250.168C677.12 250.168 691.392 260.221 691.392 281.584C691.392 302.947 677.12 313 660.874 313H615.275V250.168H660.874ZM654.77 299.446C666.977 299.446 675.235 296.843 675.235 281.584C675.235 266.325 666.977 263.722 654.77 263.722H631.432V299.446H654.77ZM732.499 301.421C743.091 301.421 749.554 299.446 753.413 294.061H768.673C765.172 307.525 752.067 313.898 732.499 313.898C712.393 313.898 696.775 305.999 696.775 286.611C696.775 267.133 711.944 259.234 733.397 259.234C753.503 259.234 769.57 266.145 769.57 290.201H712.483C714.188 298.638 722.267 301.421 732.499 301.421ZM733.307 270.903C722.805 270.903 715.445 272.967 713.021 280.417H753.144C750.541 272.967 743.001 270.903 733.307 270.903ZM773.036 294.42H788.385C788.385 300.075 794.219 302.229 811.363 302.229C827.969 302.229 830.662 301.152 830.662 297.023C830.662 292.984 828.148 292.714 809.568 291.547C786.32 290.201 774.921 288.406 774.921 275.66C774.921 261.837 791.077 259.234 809.927 259.234C829.854 259.234 844.305 261.837 844.305 276.378H828.866C828.866 271.98 823.301 270.903 809.029 270.903C794.488 270.903 790.359 271.98 790.359 275.032C790.359 278.353 793.142 278.891 811.363 280.238C832.008 281.764 846.1 282.302 846.1 296.394C846.1 311.295 832.636 313.898 812.261 313.898C791.885 313.898 773.036 311.295 773.036 294.42ZM851.947 241.192H867.296V254.566H851.947V241.192ZM851.947 260.131H867.296V313H851.947V260.131ZM930.945 260.131H946.383V304.563C946.383 326.105 931.932 335.44 911.915 335.44C896.567 335.44 883.91 332.568 878.794 331.221V318.834C884.987 320.001 896.836 322.604 908.505 322.604C924.392 322.604 930.316 316.501 930.945 302.947C925.559 308.871 916.673 312.372 904.196 312.372C886.065 312.372 873.139 304.473 873.139 285.803C873.139 267.133 886.065 259.234 904.196 259.234C916.763 259.234 925.649 262.734 930.945 268.659V260.131ZM909.761 299.536C924.213 299.536 930.945 295.497 930.945 285.803C930.945 276.109 924.213 272.069 909.761 272.069C895.31 272.069 888.488 276.109 888.488 285.803C888.488 295.497 895.31 299.536 909.761 299.536ZM1000.2 259.234C1014.3 259.234 1027.49 264.26 1027.67 283.738L1027.49 313H1012.05V289.573C1012.05 278.353 1008.28 272.518 995.626 272.518C985.303 272.518 974.173 277.814 969.416 283.379V313H954.067V260.131H969.416V269.377C976.956 263.452 987.368 259.234 1000.2 259.234Z" fill="black"/>
</g>
<defs>
<filter id="filter0_f_12_30" x="-674" y="-740" width="1517" height="1517" filterUnits="userSpaceOnUse" color-interpolation-filters="sRGB">
<feFlood flood-opacity="0" result="BackgroundImageFix"/>
<feBlend mode="normal" in="SourceGraphic" in2="BackgroundImageFix" result="shape"/>
<feGaussianBlur stdDeviation="250" result="effect1_foregroundBlur_12_30"/>
</filter>
<filter id="filter1_f_12_30" x="224" y="-768" width="1517" height="1517" filterUnits="userSpaceOnUse" color-interpolation-filters="sRGB">
<feFlood flood-opacity="0" result="BackgroundImageFix"/>
<feBlend mode="normal" in="SourceGraphic" in2="BackgroundImageFix" result="shape"/>
<feGaussianBlur stdDeviation="250" result="effect1_foregroundBlur_12_30"/>
</filter>
<filter id="filter2_f_12_30" x="-615" y="-298" width="1517" height="1517" filterUnits="userSpaceOnUse" color-interpolation-filters="sRGB">
<feFlood flood-opacity="0" result="BackgroundImageFix"/>
<feBlend mode="normal" in="SourceGraphic" in2="BackgroundImageFix" result="shape"/>
<feGaussianBlur stdDeviation="250" result="effect1_foregroundBlur_12_30"/>
</filter>
<filter id="filter3_f_12_30" x="483" y="-261" width="1517" height="1517" filterUnits="userSpaceOnUse" color-interpolation-filters="sRGB">
<feFlood flood-opacity="0" result="BackgroundImageFix"/>
<feBlend mode="normal" in="SourceGraphic" in2="BackgroundImageFix" result="shape"/>
<feGaussianBlur stdDeviation="250" result="effect1_foregroundBlur_12_30"/>
</filter>
<clipPath id="clip0_12_30">
<rect width="1320" height="572" fill="white"/>
</clipPath>
</defs>
</svg>
