<svg width="685" height="454" viewBox="0 0 685 454" fill="none" xmlns="http://www.w3.org/2000/svg">
<path fill-rule="evenodd" clip-rule="evenodd" d="M525.037 0.169563C485.044 -1.44309 407.212 8.40232 338.207 31.6297C325.4 35.9404 303.072 44.6416 276.34 57.1214C248.713 67.1842 217.812 80.1102 187.868 95.8664C168.327 106.149 140.839 122.41 113.92 142.406C87.006 162.398 60.632 186.143 43.3465 211.399C36.0823 222.013 27.5349 234.682 20.3537 249.356C18.9891 246.823 18.0092 244.002 17.5 241C16.1088 249.203 11.2762 256.051 4.53975 259.373C3.22176 260.051 0 261 0 261C0 261 3.22176 262.017 4.53975 262.627C7.49396 264.1 10.1027 266.266 12.2129 268.936C4.72011 290.959 1.7281 316.579 9.71111 345.67C11.3945 351.805 14.1554 358.819 18.3362 366.163C19.6 371.154 21.2035 376.225 23.1865 381.371C29.7103 398.301 45.7378 421.427 78.0049 436.996C110.271 452.565 158.732 460.558 230.097 447.309C270.973 439.72 331.909 422.501 393.316 396.232C439.311 381.137 485.111 361.307 523.377 336.139C547.221 322.039 583.318 295.523 614.158 261.776C635.484 238.44 654.325 211.614 664.844 183.018C666.106 185.454 667.016 188.145 667.5 191C668.891 182.797 673.724 175.949 680.46 172.627C681.778 171.949 685 171 685 171C685 171 681.778 169.983 680.46 169.373C676.703 167.5 673.504 164.505 671.18 160.779C672.3 155.186 673.064 149.544 673.433 143.866C674.462 130.555 672.158 110.574 661.338 90.4434C658.116 75.9083 650.773 58.6538 636.467 43.1248C616.097 21.0147 581.657 2.45268 525.037 0.169563ZM673.433 143.866L673.433 143.868L672.935 143.823L673.433 143.862L673.433 143.866ZM670.416 159.471C671.411 154.278 672.095 149.046 672.437 143.784L672.437 143.778C673.401 131.313 671.404 112.879 662.057 94.003C662.926 98.7813 663.347 103.203 663.43 107.092L663.43 107.088L662.93 107.105L663.43 107.094L663.43 107.092C664.152 128.494 659.243 150.006 650.778 170.762C651.817 170.437 653.631 169.84 654.54 169.373C661.276 166.051 666.109 159.203 667.5 151C668.017 154.048 669.019 156.908 670.416 159.471ZM650.602 171.194C641.996 192.162 629.773 212.351 616.073 230.865C588.721 267.831 555.43 298.192 533.102 314.855L533.111 314.848L532.794 314.462L533.093 314.863L533.102 314.855C495.993 345.375 450.163 371.035 403.959 391.589C446.155 377.021 487.686 358.411 522.832 335.293L522.842 335.287L522.852 335.281C546.625 321.224 582.648 294.765 613.417 261.095C634.908 237.579 653.807 210.577 664.202 181.852C661.851 177.833 658.507 174.605 654.54 172.627C653.577 172.181 651.598 171.519 650.602 171.194ZM523.377 336.139L523.367 336.145L523.11 335.713L523.387 336.133L523.377 336.139ZM10.6738 345.416C2.83251 316.841 5.65883 291.64 12.943 269.907C15.2048 273.075 16.7988 276.865 17.5 281C18.8912 272.797 23.7239 265.949 30.4603 262.627C31.4605 262.113 33.5571 261.442 34.5099 261.148C21.2789 287.733 8.57521 322.433 17.4618 362.482C14.282 356.379 12.0902 350.577 10.6738 345.416ZM30.4603 259.373C31.5093 259.859 33.7645 260.602 34.6412 260.885C37.63 254.893 40.6422 249.316 43.435 244.185C58.1425 217.163 82.0371 190.634 106.838 167.775C131.644 144.912 157.382 125.697 175.805 113.308C206.169 92.8874 237.958 75.5983 265.936 62.066C241.211 71.4658 214.412 83.0361 188.341 96.7543C168.836 107.018 141.392 123.253 114.521 143.213C87.6444 163.177 61.3688 186.847 44.1722 211.973C36.8053 222.737 28.1578 235.564 20.9559 250.414C23.2971 254.31 26.5809 257.439 30.4603 259.373ZM659.534 87.2229C655.989 73.6045 648.792 57.979 635.731 43.8024C615.573 21.9223 581.402 3.44325 524.996 1.16875C485.142 -0.438317 407.432 9.38334 338.526 32.5774C327.44 36.3088 309.19 43.3433 287.116 53.2805C317.719 42.61 343.28 35.7101 357.416 32.6307C428.329 17.1839 506.703 16.035 546.318 22.0838C602.403 30.6474 634.828 52.9463 652.911 77.2125C655.378 80.5237 657.578 83.8706 659.534 87.2229ZM276.672 58.0702C311.966 45.2136 341.908 37.0363 357.64 33.6094C428.451 18.1847 506.702 17.0458 546.18 23.0737C602.053 31.605 634.219 53.7916 652.114 77.8054C655.307 82.0908 658.047 86.4362 660.387 90.7748C661.718 96.8118 662.329 102.368 662.43 107.116L662.43 107.122C663.877 149.97 642.568 193.378 615.269 230.27C587.979 267.152 554.755 297.45 532.495 314.061L532.485 314.068L532.476 314.076C492.623 346.853 442.671 374.025 393.013 395.274C323.709 418.021 253.942 430.007 208.915 433.281C136.787 438.525 89.6052 425.204 59.2764 406.269C39.6008 393.984 27.0012 379.326 19.2782 365.809C6.56454 315.415 28.7423 273.271 44.3134 244.663C58.9452 217.78 82.7495 191.337 107.516 168.511C132.277 145.688 157.974 126.504 176.363 114.138C210.48 91.1939 246.4 72.2072 276.672 58.0702ZM20.2232 369.341C21.3105 373.185 22.6033 377.076 24.1196 381.011C30.5583 397.721 46.4164 420.644 78.4395 436.095C110.464 451.548 158.697 459.547 229.914 446.326C268.413 439.178 324.72 423.476 382.428 399.717C316.679 420.239 251.716 431.174 209 434.28C136.723 439.535 89.3132 426.195 58.7562 407.117C40.3947 395.653 28.1327 382.125 20.2232 369.341Z" fill="#1A1A1A"/>
</svg>
